<svg xmlns="http://www.w3.org/2000/svg" width="1920" height="442.29" viewBox="0 0 1920 442.29"><g transform="translate(101.098 -296)"><path d="M980.532,296h.9c1.542,2.468,1.188,5.231,1.189,7.922q.019,74.592.01,149.186c0,3.616.133,7.239-.023,10.848-.155,3.544,1.458,4.973,4.86,4.8,1.352-.07,2.712,0,4.068.007,9.632.028,9.382.153,9.494,9.992.069,6.03-1.356,12.61,2.758,17.934a13.968,13.968,0,0,1,2.957,9.182c-.052,8.89.045,17.782-.019,26.672-.024,3.381,1.37,5.053,4.837,4.965a76.785,76.785,0,0,1,8.585.057c4.234.366,5.805-1.079,5.726-5.578-.231-12.951-.393-25.912.439-38.86.215-3.351.855-6.01,4.84-6.3,2.394-.174,3.349-1.62,3.57-3.87.366-3.732,2.932-5.033,6.245-5.244a62.515,62.515,0,0,1,6.777-.046c2.3.1,3.141-.888,3.386-3.144.8-7.353.871-7.41,8.419-7.762,2.59-.121,4.38-.7,4.506-3.739.123-3,2.109-3.922,4.852-4.232,8.07-.913,15.208.433,20.612,7.22a80,80,0,0,0,6.355,6.421c1.311,1.309,2.773,2.456,4.715,2.357,4.911-.25,6.048,2.4,6.013,6.782-.133,16.726.051,33.454-.071,50.18-.03,4.165,1.258,6.313,5.7,5.738a22,22,0,0,1,2.71-.014c7.418-.03,7.644-.233,7.659-7.6q.037-18.534.01-37.07c-.01-3.6.859-6.291,5.172-6.288,2.146,0,3.1-1.361,3.8-3.236a5.739,5.739,0,0,1,5.96-3.936c2.862.042,5.726.015,8.589-.005s4.62,1.148,4.689,4.213c.045,2.01.7,3.806,2.958,3.81,5.167.009,5.732,3.4,5.758,7.313.03,4.672.017,9.343.079,14.014.014,1.009-.236,2.376.946,2.792,1.375.484,2.061-.855,2.877-1.694,1.766-1.814,1.651-4.124,1.654-6.376q.029-21.006,0-42.012c-.012-5.519.9-6.508,6.58-6.593q4.068-.061,8.137.021c7.508.147,11,3.487,11.258,11.06.183,5.419.244,10.856.023,16.271-.178,4.366.912,7.9,4.373,10.786,3.711,3.091,5.055,7.244,4.952,12.081-.166,7.832-.053,15.672-.05,23.507,0,9.142.275,9.395,9.406,8.922.3-.015.6-.034.9-.037,2.54-.025,3.943-1.242,4.008-3.841.042-1.657.082-3.314.083-4.971q.011-39.33.024-78.661c.008-6.373.977-7.341,7.338-7.46,4.82-.09,9.648-.124,14.464.047,5.344.189,6.27,1.2,6.3,6.523.06,10.247.092,20.494.016,30.741-.024,3.263.922,4.993,4.586,5.11,6.162.2,6.907,1.169,7.016,7.3a30.17,30.17,0,0,1-.025,5.418c-1.131,6.8,1.965,11.448,7.15,15.335a8.242,8.242,0,0,0,8.9,1.082c2.856-1.3,4.742-3.548,4.642-7.091-.132-4.667-.056-9.342.006-14.013.071-5.325.968-6.2,6.425-6.314,3.012-.063,6.027-.025,9.041-.019,8.262.016,8.669.2,8.391,8.253-.164,4.732.851,8.532,4.763,11.448,1.428,1.064,2.391,2.736,3.776,3.877,3.509,2.893,6.077,6.107,5.82,11.054-.137,2.651,1.864,3.548,4.265,3.558,4.521.019,9.047-.109,13.56.073,4.1.165,5.68-1.636,5.6-5.654-.138-7.381-.062-14.767-.009-22.151.048-6.582,1.158-7.687,7.587-7.758,3.465-.039,6.934-.114,10.4-.023,3.05.08,4.417-1.24,4.373-4.3-.069-4.821.185-9.652-.038-14.463-.2-4.247,1.612-6.174,5.755-6.165,7.233.013,14.469-.145,21.695.066,5.22.152,6.285,1.409,6.326,6.625.075,9.643.155,19.29.013,28.932-.07,4.753,2.875,4.808,6.286,4.816,3.449.008,6.51-.132,6.121-4.891a10.977,10.977,0,0,1,2.8-8.686,12.78,12.78,0,0,1,11.57-4.624c5.566.483,10.824.025,14.638-4.969,1.328-1.738,3.45-2.31,5.683-2.286,3.164.034,6.329-.038,9.493-.006,6.287.063,7.457,1.162,7.5,7.356.067,9.041.137,18.085-.009,27.124-.066,4.086,1.565,5.618,5.64,5.582,3.889-.035,6.411-.728,6.287-5.4-.184-6.927-.044-13.862-.014-20.794.04-9.088.592-9.684,9.58-10.088,2.232-.1,4.335-.245,4.71-3.063.633-4.768,3.737-6.125,8.034-5.967,2.71.1,5.427.032,8.135.155,6.373.29,7.52,1.491,7.541,7.937.034,10.549,0,21.1.041,31.645.007,1.756-.457,4.073,1.565,4.829a15.663,15.663,0,0,0,10.622.132c2.61-.929,1.076-4.016,1.227-6.132.373-5.207-.9-10.742,2.067-15.436a16.418,16.418,0,0,0,2.573-9.35q-.107-16.953,0-33.906c.037-6.007,1.121-7,7.221-7.081,3.616-.044,7.234-.057,10.85.008,5.321.1,6.211.975,6.25,6.464.062,8.74.01,17.48.018,26.22.007,8.075.015,8.051,7.881,8.242a25.043,25.043,0,0,1,4.926.542c7.33,1.668,10.936,6.218,10.947,13.677.011,7.082-.173,14.172.09,21.245.106,2.829-1.985,7.483,3.684,7.409,5.451-.07,3.739-4.6,3.763-7.511.145-18.232.05-36.468.106-54.7.018-5.848,1.1-6.876,6.869-6.949q7.006-.088,14.014,0c6.589.07,7.693,1.157,7.728,7.615.041,7.384-.016,14.768.041,22.152.061,7.753.1,7.753,7.68,7.858,5.627.078,6.292.634,6.347,6.189.089,8.89.154,17.783,0,26.671-.07,4.109,1.622,5.67,5.656,5.572,6.777-.165,13.561-.023,20.342-.04,7.318-.018,7.531-.208,7.526-7.709q-.028-47.921-.085-95.84c0-6.13.45-6.642,6.584-6.992,2.415-.137,3.625-.952,3.752-3.4.177-3.412,2.26-4.63,5.439-4.645,3.937-.019,8.1-.649,9.3,4.742a1.88,1.88,0,0,0,1.271,1.162c5.819.724,5.465,5.034,5.463,9.19q-.01,21.7.032,43.4c.005,1.9-.46,4.457,1.927,5.045,3.491.86,7.381,1.306,10.651-.184,2.981-1.357,1.623-4.87,1.629-7.424.008-4.357.4-8.247,4.074-11.407,4-3.442,8.58-2.192,12.967-2.3,6.909-.17,7.489.495,7.5,7.386.029,16.426-.019,32.851.016,49.276,0,1.848-.484,3.86,1.129,5.914,1.675-1.858,1.286-3.857,1.429-5.691.4-5.115,6.085-12.481,10.861-13.026,4.178-.477,4.738-2.712,4.719-6.109-.071-12.809-.03-25.618-.02-38.426.01-13.6,10.145-23.587,23.775-23.445,7.11.074,8.014.951,8.018,8.169.019,26.522-.061,53.044.038,79.566.052,14.309-1.986,12.6,12.781,12.689,6.534.04,6.838-.316,6.854-6.956.03-12.658.092-25.317-.012-37.974-.034-4.225,1.731-6.085,5.944-5.948,5.268.171,10.541.161,15.813.23q0,123.888.087,247.778c0,3.1-.608,3.7-3.7,3.7q-956.3-.131-1912.591,0c-3.1,0-3.71-.6-3.7-3.7q.172-98.569.087-197.137c3.97.417,5.254-1.471,5.216-5.309-.137-13.864-.09-27.729-.02-41.594.025-4.991-1.78-10.9,5.584-12.718,2.154-5.487,6.835-4.965,11.4-4.854,5.953.144,6.786.863,6.8,6.862.043,15.974.018,31.95.021,47.925,0,1.507-.01,3.014.019,4.521.047,2.5.061,5.107,3.6,5.04,3.557-.069,3.326-2.81,3.447-5.218.061-1.2.039-2.411.042-3.616q.045-16.5.087-33c.03-8.494.36-8.811,8.945-8.89,6.818-.062,7.193-.4,7.211-7.149q.052-19.215.019-38.43c-.005-3.609.87-6.265,5.274-6.087a3.025,3.025,0,0,0,3.462-3.3c-.05-3.943,2.277-4.8,5.583-4.691,2.258.074,4.521.036,6.781-.006,3.7-.07,7.441-.344,8.289,4.709.184,1.1,1.357,1.534,2.36,1.922,2.139.827,2.836,2.544,2.862,4.667.019,1.507.043,3.014.043,4.521q.005,32.779.011,65.558c.005,6.21.393,6.558,6.737,6.607,2.863.022,5.727.006,8.59.005,12.541,0,12.541,0,12.549,12.327.006,10.537.006,10.381,10.367,10.348,4.323-.014,5.831-1.639,5.772-5.9-.172-12.355-.118-24.715-.01-37.073.043-4.809-1.328-10.082,3.6-13.682a2.367,2.367,0,0,0,.54-1.675c.052-3.46,1.393-5.777,5.1-6.28a2.7,2.7,0,0,0,2.4-2.86c.106-4.533,2.9-5.413,6.7-5.22,2.405.123,4.824.094,7.233.012,3.932-.134,6.458,1.225,6.425,5.607-.009,1.238.2,2.549,1.351,3.189,3.066,1.7,3.053,4.532,3.05,7.457-.015,16.88.07,33.759-.047,50.637-.027,3.963,1.235,5.84,5.448,5.716,6.776-.2,13.563-.1,20.343-.046,2.832.022,4.606-.934,4.852-4.031.183-2.3,1.215-4.3,3.815-4.213,4.545.159,5.04-2.458,5.01-6.087-.1-12.658-.014-25.319-.031-37.978-.015-11.053-.036-11.1,11.164-11.082,4.141.005,8.365.1,11.2-3.481,2.546-3.211,5.694-4.089,9.541-3.857a85.268,85.268,0,0,0,8.587,0c4.2-.171,6.047,1.7,5.97,5.934-.127,6.93.02,13.865-.023,20.8-.021,3.334.352,5.834,4.793,5.852,4.3.018,5.016-2.153,4.945-5.663-.111-5.423-.056-10.851-.01-16.276.05-5.837.5-6.3,6.445-6.774,2.256-.182,4.668,0,5.541-2.832,1.022-3.317,3.731-4.21,6.7-4.361,3.605-.185,7.234-.174,10.842,0,3.971.194,6.5,2.142,6.716,6.414.095,1.894.459,3.8,2.727,4.106,4.465.607,5.508,3.511,5.442,7.41-.039,2.3,0,4.806,3.113,5.117,3.746.373,4.6,2.616,4.542,5.928-.109,6.177.025,12.357-.018,18.536-.018,2.554.734,4.289,3.492,4.977,3.474.867,4.635,3.391,4.486,6.85s-.021,6.931.021,10.4c.018,1.533.075,3.371,1.792,3.8,3.524.874,7.3,1.271,10.646-.173,2.7-1.164,1.518-4.267,1.652-6.561.147-2.54.264-5.217,3.466-5.384,4.519-.237,4.783-3.009,4.772-6.483-.062-20.5-.033-40.993-.033-61.489,0-15.673.048-31.348-.025-47.021-.017-3.741.8-6.557,5.1-7.117,2.206-.288,3.011-1.868,2.906-3.9-.254-4.922,2.57-6.172,6.84-6.118,7.534.093,15.07,0,22.606.019,8.235.018,8.741.495,8.746,8.66q.027,47.021.012,94.042c0,4.672.137,9.348-.021,14.014-.132,3.916,1.583,5.461,5.413,5.287,3.61-.163,7.238-.16,10.848,0,3.788.166,5.625-1.264,5.421-5.241-.176-3.457-.013-6.931-.023-10.4-.037-12.049-.692-12.57,11.967-12.373,5.635.088,6.107-.5,6.121-6.291.035-14.167,0-28.333.021-42.5.014-10.705,6.342-17.011,17.056-17.043,2.863-.009,5.74.176,8.587-.039a13.713,13.713,0,0,1,11.708,4.672,8.987,8.987,0,0,0,6.643,3.269c5.72.192,6.055.647,6.077,6.4.039,10.4.01,20.8.04,31.2.005,1.941-.216,4.11,2.318,4.81,3.37.931,3.725,3.577,3.749,6.4.05,5.726.027,11.454.092,17.18.021,1.828.156,3.6,2.42,4.316,7.745,2.445,11.542-.231,11.542-8.235q0-69.626-.07-139.254c-.009-4.071,1.076-7.168,4.129-9.945,4.341-3.947,8.31-8.3,12.482-12.437,4.385-4.345,8.668-8.813,13.293-12.89,3.13-2.759,5.724-1.5,6,2.646a92.28,92.28,0,0,1,.107,9.49c-.111,3.05,1.1,4.469,4.217,4.39,3.766-.095,7.535-.011,11.3,0,8.52.014,8.672.143,8.676,8.514q.022,44.082-.021,88.164c-.008,3.63.872,5.617,5.06,5.549,4-.066,4.767-2.047,4.721-5.426-.1-7.685-.04-15.371-.012-23.058.034-9.382,7.985-17.428,17.256-17.471q7.46-.035,14.92,0c7.446.026,7.964.526,7.967,7.965q.018,47.021.007,94.042c0,11.1-.67,9.975,9.976,10.049,6.5.044,7.725,1.187,7.8,7.6.087,7.836.115,15.674.032,23.51-.038,3.57,1.348,5.343,5.064,5.206,3.311-.123,6.632-.1,9.945-.008,3.385.094,5.044-1.352,4.976-4.821-.052-2.709.033-5.425.164-8.133.1-2.058.8-4.569,2.892-4.586,5.844-.048,10.115-3.1,14.547-6.2a6.171,6.171,0,0,1,3.945-.621c4.787.576,5.774-1.676,5.693-6.053-.252-13.71-.04-27.427-.114-41.141-.037-6.763,1.327-12.78,7.157-17.115a50.039,50.039,0,0,0,5.487-5.369,12.253,12.253,0,0,1,9.34-3.788c5.876.076,11.755-.014,17.632.016,6.719.035,8.219,1.226,8.918,7.96.288,2.768,1.448,3.67,3.992,3.619,3.163-.063,6.329-.011,9.494.016,6.409.055,6.93.543,6.935,7.008.02,23.209-.007,46.418.037,69.626,0,1.723-.553,3.584.838,5.519,1.722-1.556,3.246-3.18,5.008-4.481,5.462-4.034,8.493-9.139,7.912-16.149a57.111,57.111,0,0,1,.132-7.227c.107-2.387,1.167-4.212,3.743-4.248,4.048-.057,4.5-2.514,4.477-5.733-.074-10.248.011-20.5-.037-30.743-.015-3.223.715-5.748,4.509-5.989a2.969,2.969,0,0,0,3.151-3.083c.224-2.781,1.579-4.785,4.574-4.376,5.115.7,10.862-2.476,15.3,2.406a1.642,1.642,0,0,1,.314.84c.458,3.118,2.376,4.273,5.377,4.2,3.442-.085,5.677,1.806,5.7,5.095.029,5.234,2.666,8.762,6.391,11.832a12.308,12.308,0,0,1,4.815,11.1c-.165,2.065-.516,4.43.982,6.113,6.436,7.231,12.066,15.15,24,13.89,10.1-1.066,10.632-.22,10.66-10.37.016-6,7.751-4.621,8-9.95.053-1.145,2.1-1.544,3.5-1.568,2.71-.048,5.425-.091,8.132.012,2.9.11,4.382,1.75,4.42,4.639.044,3.465.016,6.932.064,10.4.071,5.238.6,5.712,6.2,5.7,5.494-.011,6.155-.558,6.184-5.8.058-10.4.084-20.8,0-31.2-.032-3.771,1.016-6.522,5.122-7.25a2.985,2.985,0,0,0,2.805-3.024c.1-4.557,2.989-5.369,6.738-5.24,2.709.093,5.427.089,8.137.018,3.2-.083,5.233,1.115,5.512,4.534.128,1.564.451,3.2,2.244,3.52,4.806.866,5.076,4.274,5.063,8.161q-.1,29.387.007,58.776c0,1.543-.614,3.274,1.242,5.306,1.894-2.079,3.709-4.058,5.512-6.049,3.04-3.356,5.894-6.867,11.146-6.761,2.026.041,2.5-1.843,2.611-3.622.132-2.1.185-4.219.468-6.3.3-2.222,1.35-4.458,3.714-4.55,5.411-.209,5.635-3.485,5.6-7.668-.128-17.481-.052-34.964-.038-52.446,0-2.425-.207-5.219,2.677-6.11,3.456-1.068,3.521-3.524,3.607-6.369.088-2.92-.934-6.157,1.629-8.576,1.816-1.715,2.167-3.822,2.252-6.154.44-12.066.461-12.065,12.543-12.013,7.049.031,7.393.428,7.536,7.381.055,2.669-1.237,6.462.877,7.79,5.512,3.462,4.058,8.515,4.327,13.291.1,1.786-.3,4.307,1.627,4.822,5.52,1.476,4.916,5.6,4.929,9.674.005,1.709-.61,4.08,1.813,4.548,4.54.877,4.524,4.172,4.529,7.574q.031,21.928.044,43.856c0,2.259-.137,4.566,1.641,6.373,7.7,7.826,15.372,15.68,23.117,23.46,2.045,2.055,4.789,1.992,7.223,1.158,2.349-.806,1.72-3.271,1.728-5.148.052-11.906.02-23.812.061-35.717.007-2.088-.467-4.476,1.029-6.112,2.987-3.267,2.753-7.135,2.752-11.06q-.019-69.4-.063-138.8a12.546,12.546,0,0,1,4.167-9.895c10.384-10.032,20.469-20.374,30.618-30.648A14.326,14.326,0,0,1,980.532,296Z" fill="#244c59"/></g></svg>