<svg xmlns="http://www.w3.org/2000/svg" width="107.293" height="63.667" viewBox="0 0 107.293 63.667"><g transform="translate(-4.1 -3.1)"><g transform="translate(4.1 45.437)"><path d="M42.735,126.893v-16.3h2.415v5.876l1.65-.362a5.259,5.259,0,0,1,6.479,4.87,8.472,8.472,0,0,1-.2,2.656,5.015,5.015,0,0,1-4.226,3.863,11.364,11.364,0,0,1-6.117-.6m2.374-1.932a4.784,4.784,0,0,0,3.863.121,2.767,2.767,0,0,0,1.529-1.69,5.981,5.981,0,0,0,.241-2.052,2.975,2.975,0,0,0-2.294-2.978,4.417,4.417,0,0,0-3.34.483ZM32.633,116.59c0-.161.04-.362.04-.6h2.294a88.682,88.682,0,0,1-.04,10.906l-.644.282a10.27,10.27,0,0,1-6.318.04,4.876,4.876,0,0,1-3.421-4.467,7.9,7.9,0,0,1,.241-3.22,5.213,5.213,0,0,1,6.037-3.461c.6.161,1.207.322,1.811.523m-.04,2.334a4.891,4.891,0,0,0-1.328-.563,3.214,3.214,0,0,0-3.944,1.731,4.508,4.508,0,0,0-.2,2.817,2.914,2.914,0,0,0,2.7,2.5,5.926,5.926,0,0,0,2.777-.282Zm60.286-2.254a4.435,4.435,0,0,1,.08-.724h2.334v10.866a3.88,3.88,0,0,1-1.851.6,9.992,9.992,0,0,1-4.628,0,5.089,5.089,0,0,1-4.024-4.507,6.709,6.709,0,0,1,.2-3.22,5.313,5.313,0,0,1,7.083-3.381l.8.362m0,8.451v-6.2a8.149,8.149,0,0,0-1.368-.563c-1.972-.443-3.622.282-4.1,2.294a4.542,4.542,0,0,0,.08,2.737C88.694,126.732,92.879,125.122,92.879,125.122Zm-13.884-2.777H70.865a2.967,2.967,0,0,0,2.938,3.1,9.25,9.25,0,0,0,4.548-.8v2.213a5.042,5.042,0,0,1-2.133.765,7.825,7.825,0,0,1-5.755-1.006,5.307,5.307,0,0,1-2.213-3.783A6.373,6.373,0,0,1,69.3,118.24a5.147,5.147,0,0,1,5.111-2.213,5.056,5.056,0,0,1,4.588,5.111v1.207m-2.737-1.811a1.87,1.87,0,0,0-1.207-2.093,3.1,3.1,0,0,0-3.984,1.771c-.04.121-.08.2-.121.322Zm-65.8-2.415H4.1v2.254H8.366a7.59,7.59,0,0,1,2.133.08v7.2h2.455v-7.284h6.4v-1.127c0-.362-.04-.724-.04-1.167h-6.4v-6.721H10.459Zm91.033-1.891c-.04.2-.08,1.046-.08,1.207,0,2.254.04,3.9,0,6.157s1.207,3.22,2.9,3.743a7.539,7.539,0,0,0,3.542.121,3.856,3.856,0,0,0,3.542-4.185v-6.278a5.454,5.454,0,0,0-.08-.8h-2.374v1.368c0,1.891.04,3.783,0,5.674s-.644,2.334-1.891,2.535a4.367,4.367,0,0,1-1.61-.121,1.906,1.906,0,0,1-1.529-1.891v-7.526h-2.415m-42.136,13.4H61.73v-.724c0-6.8,0-13.6-.04-20.444v-.08l-.08-.08H59.4Z" transform="translate(-4.1 -108.3)" fill="#35416a"/></g><g transform="translate(40.521 3.1)"><path d="M130,30v5.111h4.668V37H130v5.111h-1.891V37H123.4V35.151h4.709V30Z" transform="translate(-111.81 -19.174)" fill="#e87830"/><path d="M152.876,52.3v4.548H157.1V58.3h-4.226v4.628h-1.65V58.337H147V56.888h4.226V52.3Z" transform="translate(-125.912 -32.5)" fill="#214880"/><path d="M152.876,21.825h-1.65V17.277H147V15.828h4.226V11.2h1.65v4.185c0,.443,0,.443.443.443H157.1v1.409h-4.226Z" transform="translate(-125.912 -7.94)" fill="#5d899d"/><path d="M107.026,62.925V58.3H102.8V56.888h4.185V52.3h1.65v4.588h4.226V58.3h-4.226v4.628Z" transform="translate(-99.5 -32.5)" fill="#c92237"/><path d="M112.861,15.828V17.2h-4.226v4.628h-1.529V17.237H102.8V15.828h4.266V11.2H108.6v4.628Z" transform="translate(-99.5 -7.94)" fill="#eb9230"/><path d="M132.926,71.62h2.9v1.248h-2.9v3.22h-1.368V72.907H128.7V71.62h2.817V68.4h1.409Z" transform="translate(-114.977 -42.12)" fill="#5d6792"/><path d="M165.357,43.246V40.067H162.5V38.82h2.857V35.6h1.409v3.179h2.817v1.248h-2.817v3.22Z" transform="translate(-135.174 -22.521)" fill="#5b6691"/><path d="M97.457,40.265H94.6V39.259h2.817V36.2H98.5v3.059h2.817v1.006H98.866c-.282,0-.4.08-.4.4s0,1.61.04,2.415-.08.362-.322.362-.724,0-.724-.724Z" transform="translate(-94.6 -22.879)" fill="#719aa6"/><path d="M133.063,6.239h2.817v.926H133.1v3.179h-1.087V7.2H129.2V6.239h2.817V3.1h1.046Z" transform="translate(-115.275 -3.1)" fill="#739ba7"/></g></g></svg>