<svg xmlns="http://www.w3.org/2000/svg" width="100.933" height="101.144" viewBox="0 0 100.933 101.144"><path d="M101.455,50.572v2.739a52.5,52.5,0,0,1-4.847,19.175,50.827,50.827,0,1,1,4.847-21.915Z" transform="translate(-0.522)" fill="#ff7058"/><ellipse cx="40.036" cy="40.036" rx="40.036" ry="40.036" transform="translate(10.325 10.536)" fill="#fff"/><ellipse cx="29.711" cy="29.711" rx="29.711" ry="29.711" transform="translate(20.65 20.861)" fill="#ff7058"/><ellipse cx="19.175" cy="19.175" rx="19.175" ry="19.175" transform="translate(31.186 31.397)" fill="#fff"/><circle cx="8.639" cy="8.639" r="8.639" transform="translate(41.722 41.933)" fill="#ff7058"/><path d="M288.419,238.606a52.5,52.5,0,0,1-4.847,19.175l-7.375-1.9-2.107-7.164-36.875-9.9a3.4,3.4,0,0,1,1.9-6.532l36.665,9.9,5.479-5.268Z" transform="translate(-187.486 -185.295)" fill="#334a5e" opacity="0.2"/><path d="M268.5,95.511a3.571,3.571,0,0,0-4.847,0l-27.6,27.6a3.571,3.571,0,0,0,0,4.847h0a3.571,3.571,0,0,0,4.847,0l27.6-27.6A3.57,3.57,0,0,0,268.5,95.511Z" transform="translate(-187.796 -75.493)" fill="#40596b"/><path d="M379.319,15.559,366.886,27.78l-2.739-11.168L376.579,4.18Z" transform="translate(-290.818 -3.337)" fill="#84dbff"/><path d="M389.11,75.565l12.221-12.222L390.163,60.6,377.731,72.826Z" transform="translate(-301.662 -48.382)" fill="#54c0eb"/></svg>