<svg id="BACKGROUND_2" xmlns="http://www.w3.org/2000/svg" xmlns:xlink="http://www.w3.org/1999/xlink" width="656" height="547.048" viewBox="0 0 656 547.048">
  <defs>
    <clipPath id="clip-path">
      <rect id="Rect치ngulo_87" data-name="Rect치ngulo 87" width="656" height="375.492" transform="translate(0 0)"/>
    </clipPath>
    <linearGradient id="linear-gradient" y1="0.5" x2="1" y2="0.5" gradientUnits="objectBoundingBox">
      <stop offset="0" stop-color="#fff" stop-opacity="0"/>
      <stop offset="1" stop-color="#fff"/>
    </linearGradient>
    <clipPath id="clip-path-2">
      <rect id="Rect치ngulo_88" data-name="Rect치ngulo 88" width="656" height="375.492"/>
    </clipPath>
    <linearGradient id="linear-gradient-3" x1="-4.761" y1="0.5" x2="1.087" y2="0.5" xlink:href="#linear-gradient"/>
    <linearGradient id="linear-gradient-4" x1="-5.449" y1="0.5" x2="1.462" y2="0.5" xlink:href="#linear-gradient"/>
    <linearGradient id="linear-gradient-9" x1="-0.52" y1="21.991" x2="0.938" y2="21.991" xlink:href="#linear-gradient"/>
    <linearGradient id="linear-gradient-10" x1="1.438" y1="-458.98" x2="2.686" y2="-458.98" xlink:href="#linear-gradient"/>
    <linearGradient id="linear-gradient-11" x1="1.343" y1="-561.729" x2="2.592" y2="-561.729" xlink:href="#linear-gradient"/>
    <linearGradient id="linear-gradient-12" x1="0.735" y1="-391.857" x2="1.984" y2="-391.857" xlink:href="#linear-gradient"/>
    <linearGradient id="linear-gradient-13" x1="-2.309" y1="-35.533" x2="0.158" y2="-35.533" xlink:href="#linear-gradient"/>
    <linearGradient id="linear-gradient-14" x1="2.093" y1="-190.057" x2="3.119" y2="-190.057" xlink:href="#linear-gradient"/>
    <linearGradient id="linear-gradient-15" x1="4.486" y1="-77.293" x2="6.042" y2="-77.293" xlink:href="#linear-gradient"/>
    <linearGradient id="linear-gradient-16" x1="0.5" y1="1" x2="0.5" y2="0" xlink:href="#linear-gradient"/>
  </defs>
  <g id="Grupo_98" data-name="Grupo 98" transform="translate(0 171.556)">
    <g id="Grupo_39" data-name="Grupo 39" transform="translate(0 0)" clip-path="url(#clip-path)">
      <ellipse id="Elipse_1" data-name="Elipse 1" cx="267.013" cy="4.674" rx="267.013" ry="4.674" transform="translate(341.221 24.206)" opacity="0.2" fill="url(#linear-gradient)"/>
    </g>
    <g id="Grupo_40" data-name="Grupo 40" transform="translate(0 0)" clip-path="url(#clip-path-2)">
      <path id="Trazado_28" data-name="Trazado 28" d="M309.635,324.607c0,.574-161.815,1.039-361.424,1.039s-361.425-.465-361.425-1.039,161.815-1.039,361.425-1.039S309.635,324.033,309.635,324.607Z" transform="translate(51.79 -310.213)" opacity="0.1" fill="url(#linear-gradient)"/>
    </g>
    <g id="Grupo_41" data-name="Grupo 41" transform="translate(0 0)" clip-path="url(#clip-path-2)">
      <ellipse id="Elipse_2" data-name="Elipse 2" cx="194.162" cy="2.016" rx="194.162" ry="2.016" transform="translate(-59.011 24.302)" opacity="0.1" fill="url(#linear-gradient-3)"/>
    </g>
    <g id="Grupo_42" data-name="Grupo 42" transform="translate(0 0)" clip-path="url(#clip-path-2)">
      <path id="Trazado_29" data-name="Trazado 29" d="M500.273,358.437c0,1.113-94.214,2.016-210.433,2.016s-210.433-.9-210.433-2.016,94.214-2.016,210.433-2.016S500.273,357.324,500.273,358.437Z" transform="translate(-9.952 -318.394)" opacity="0.1" fill="url(#linear-gradient-4)"/>
    </g>
    <g id="Grupo_43" data-name="Grupo 43" transform="translate(0 0)" clip-path="url(#clip-path-2)">
      <ellipse id="Elipse_3" data-name="Elipse 3" cx="242.002" cy="1.181" rx="242.002" ry="1.181" transform="translate(147.844 137.508)" opacity="0.1" fill="url(#linear-gradient)"/>
    </g>
    <g id="Grupo_44" data-name="Grupo 44" transform="translate(0 0)" clip-path="url(#clip-path-2)">
      <ellipse id="Elipse_4" data-name="Elipse 4" cx="131.581" cy="2.804" rx="131.581" ry="2.804" transform="translate(-173.484 135.884)" opacity="0.1" fill="url(#linear-gradient)"/>
    </g>
    <g id="Grupo_45" data-name="Grupo 45" transform="translate(0 0)" clip-path="url(#clip-path-2)">
      <ellipse id="Elipse_5" data-name="Elipse 5" cx="131.581" cy="11.175" rx="131.581" ry="11.175" transform="translate(-173.484 149.567)" opacity="0.1" fill="url(#linear-gradient)"/>
    </g>
    <g id="Grupo_46" data-name="Grupo 46" transform="translate(0 0)" clip-path="url(#clip-path-2)">
      <ellipse id="Elipse_6" data-name="Elipse 6" cx="272.077" cy="1.605" rx="272.077" ry="1.605" transform="translate(-210.663 100.713)" opacity="0.1" fill="url(#linear-gradient)"/>
    </g>
    <g id="Grupo_47" data-name="Grupo 47" transform="translate(0 0)" clip-path="url(#clip-path-2)">
      <path id="Trazado_30" data-name="Trazado 30" d="M589.948,358.849c0-.427,82.028-.774,183.214-.774s183.214.346,183.214.774-82.028.773-183.214.773S589.948,359.276,589.948,358.849Z" transform="translate(-73.94 -318.806)" opacity="0.28" fill="url(#linear-gradient-9)"/>
    </g>
    <g id="Grupo_48" data-name="Grupo 48" transform="translate(0 0)" clip-path="url(#clip-path-2)">
      <path id="Trazado_31" data-name="Trazado 31" d="M514.083,497.313c0-.267-65.6-.484-146.527-.484s-146.527.216-146.527.484,65.6.484,146.527.484S514.083,497.58,514.083,497.313Z" transform="translate(-27.702 -353.358)" opacity="0.2" fill="url(#linear-gradient-10)"/>
    </g>
    <g id="Grupo_49" data-name="Grupo 49" transform="translate(0 0)" clip-path="url(#clip-path-2)">
      <path id="Trazado_32" data-name="Trazado 32" d="M391.62,526.094c0-.267-65.759-.484-146.878-.484s-146.877.216-146.877.484,65.759.484,146.877.484S391.62,526.36,391.62,526.094Z" transform="translate(-12.266 -360.525)" opacity="0.1" fill="url(#linear-gradient-11)"/>
    </g>
    <g id="Grupo_50" data-name="Grupo 50" transform="translate(0 0)" clip-path="url(#clip-path-2)">
      <path id="Trazado_33" data-name="Trazado 33" d="M773.1,478.506c0-.267-127.225-.484-284.166-.484s-284.166.216-284.166.484,127.225.484,284.166.484S773.1,478.773,773.1,478.506Z" transform="translate(-25.664 -348.675)" opacity="0.1" fill="url(#linear-gradient-12)"/>
    </g>
    <g id="Grupo_51" data-name="Grupo 51" transform="translate(0 0)" clip-path="url(#clip-path-2)">
      <path id="Trazado_34" data-name="Trazado 34" d="M170.432,394.36c0-.689,64.392-1.247,143.823-1.247s143.823.558,143.823,1.247-64.392,1.247-143.823,1.247S170.432,395.05,170.432,394.36Z" transform="translate(-21.361 -327.531)" opacity="0.1" fill="url(#linear-gradient-13)"/>
    </g>
    <g id="Grupo_52" data-name="Grupo 52" transform="translate(0 0)" clip-path="url(#clip-path-2)">
      <path id="Trazado_35" data-name="Trazado 35" d="M397.657,453.868c0-.427-76.35-.773-170.535-.773s-170.535.346-170.535.773,76.351.774,170.535.774S397.657,454.3,397.657,453.868Z" transform="translate(-7.092 -342.468)" opacity="0.28" fill="url(#linear-gradient-14)"/>
    </g>
    <g id="Grupo_53" data-name="Grupo 53" transform="translate(0 0)" clip-path="url(#clip-path-2)">
      <ellipse id="Elipse_7" data-name="Elipse 7" cx="83.706" cy="0.774" rx="83.706" ry="0.774" transform="translate(216.759 72.68)" opacity="0.28" fill="url(#linear-gradient-15)"/>
    </g>
    <g id="Grupo_54" data-name="Grupo 54" transform="translate(0 0)" clip-path="url(#clip-path-2)">
      <path id="Trazado_36" data-name="Trazado 36" d="M328.861,575.331H438.91s-2.932-.559-5.233-1.03c-4.149-.849-2.411-6.118-11.039-3.519,0,0-3.936-4.938-10.974-2.4a5.053,5.053,0,0,0-3.179-5.653c-4.087-1.884-7.72.65-8.326,1.884,0,0,.605-6.043-6.584-8.773a12.587,12.587,0,0,0-14.078,3.574s-3.557-5.134-12.488-3.379-7.871,10.4-7.871,10.4a6.349,6.349,0,0,0-7.266-.78c-4.286,2.477-1.514,6.434-1.514,6.434S342.485,572.992,328.861,575.331Z" transform="translate(-41.217 -367.838)" fill="#ededed"/>
    </g>
    <g id="Grupo_55" data-name="Grupo 55" transform="translate(0 0)" clip-path="url(#clip-path-2)">
      <path id="Trazado_37" data-name="Trazado 37" d="M50.591,411.888H168.086s-3.13-.6-5.587-1.1c-4.43-.907-2.574-6.532-11.786-3.756,0,0-4.2-5.273-11.717-2.567a5.4,5.4,0,0,0-3.394-6.036c-4.364-2.012-8.242.694-8.889,2.012,0,0,.646-6.452-7.031-9.366a13.44,13.44,0,0,0-15.03,3.816s-3.8-5.481-13.333-3.608-8.4,11.1-8.4,11.1-3.556-3.261-7.757-.833c-4.576,2.645-1.616,6.868-1.616,6.868S65.137,409.39,50.591,411.888Z" transform="translate(-6.341 -326.795)" fill="#e8e8e8" opacity="0.6"/>
    </g>
    <g id="Grupo_56" data-name="Grupo 56" transform="translate(0 0)" clip-path="url(#clip-path-2)">
      <path id="Trazado_38" data-name="Trazado 38" d="M85.208,502.186H222.817s-3.666-.7-6.544-1.288c-5.189-1.063-3.015-7.65-13.8-4.4,0,0-4.921-6.175-13.723-3.006,0,0,1.135-4.713-3.975-7.07s-9.654.813-10.41,2.357c0,0,.757-7.557-8.234-10.97a15.741,15.741,0,0,0-17.6,4.469s-4.449-6.419-15.615-4.225-9.843,13-9.843,13-4.164-3.819-9.085-.975c-5.36,3.1-1.893,8.044-1.893,8.044S102.244,499.261,85.208,502.186Z" transform="translate(-10.679 -348.354)" fill="#eaeaea" opacity="0.6"/>
    </g>
    <g id="Grupo_57" data-name="Grupo 57" transform="translate(0 0)" clip-path="url(#clip-path-2)">
      <path id="Trazado_39" data-name="Trazado 39" d="M446.53,433.91H561.287s-3.057-.639-5.458-1.178c-4.327-.972-2.514-7-11.511-4.024a9.62,9.62,0,0,0-11.444-2.749,5.974,5.974,0,0,0-3.315-6.466c-4.262-2.155-8.05.743-8.682,2.155,0,0,.631-6.911-6.866-10.033s-13.259,2.007-14.68,4.088c0,0-3.709-5.871-13.023-3.865s-8.208,11.891-8.208,11.891-3.472-3.493-7.577-.892c-4.47,2.833-1.579,7.357-1.579,7.357S460.736,431.235,446.53,433.91Z" transform="translate(-55.965 -331.894)" fill="#e8e8e8" opacity="0.8"/>
    </g>
    <g id="Grupo_58" data-name="Grupo 58" transform="translate(0 0)" clip-path="url(#clip-path-2)">
      <path id="Trazado_40" data-name="Trazado 40" d="M169.005,486.329h69.469a65.025,65.025,0,0,0-9.086-1.937s.9-3.43-4.254-4.98c0,0,.784-2.2-1.869-3.375a5.369,5.369,0,0,0-4.124.166s-.708-3.873-5.542-4.371-5.22,2.6-5.22,2.6a6.3,6.3,0,0,0-4.833-.222,4.419,4.419,0,0,0-3.093,3.32,4.909,4.909,0,0,0-6.315,1.6,6.708,6.708,0,0,0-7.218,1.439C183.376,483.784,180.347,485.112,169.005,486.329Z" transform="translate(-21.182 -347.12)" opacity="0.4" fill="url(#linear-gradient-16)"/>
    </g>
    <g id="Grupo_59" data-name="Grupo 59" transform="translate(0 0)" clip-path="url(#clip-path-2)">
      <path id="Trazado_41" data-name="Trazado 41" d="M573.306,540.561h79.926a62.646,62.646,0,0,0-10.454-2.759s1.038-4.888-4.894-7.1a4.237,4.237,0,0,0-2.15-4.809,5.12,5.12,0,0,0-4.745.237s-.815-5.519-6.376-6.229-6.005,3.705-6.005,3.705a6.016,6.016,0,0,0-5.561-.315,6.175,6.175,0,0,0-3.559,4.73s-4.152-2.838-7.266,2.286c0,0-4.226-2.523-8.3,2.05S586.355,538.826,573.306,540.561Z" transform="translate(-71.854 -359.085)" fill="#ededed" opacity="0.4"/>
    </g>
    <g id="Grupo_60" data-name="Grupo 60" transform="translate(0 0)" clip-path="url(#clip-path-2)">
      <path id="Trazado_42" data-name="Trazado 42" d="M506.635,557.773H642.994s-19.529-4.413-21.242-5.883-.191-8.54-7.21-12.005-15,1.506-15,1.506a5.868,5.868,0,0,0-3.158-6.478c-3.2-1.721-7.018.678-7.018.678s-1.491-8.663-10.089-4.218c0,0-3.334-7.984-16.494-7.683s-23.951,7.231-27.373,11.223a11.676,11.676,0,0,0-1.667,11.675,6.406,6.406,0,0,0-6.755-.075c-3.772,2.109-1.4,5.5-2.194,6.327S514.008,557.357,506.635,557.773Z" transform="translate(-63.498 -360.045)" fill="#efefef"/>
    </g>
    <g id="Grupo_61" data-name="Grupo 61" transform="translate(0 0)" clip-path="url(#clip-path-2)">
      <path id="Trazado_43" data-name="Trazado 43" d="M-86.591,402.506H92.145s-25.6-5.783-27.843-7.712-.251-11.195-9.451-15.736-19.664,1.974-19.664,1.974a7.691,7.691,0,0,0-4.14-8.491c-4.191-2.255-9.2.888-9.2.888S19.893,362.075,8.623,367.9c0,0-4.37-10.466-21.619-10.071s-31.394,9.479-35.88,14.712-3.565,12.539-2.185,15.3a8.4,8.4,0,0,0-8.855-.1c-4.945,2.764-1.84,7.208-2.875,8.294S-76.927,401.961-86.591,402.506Z" transform="translate(10.853 -318.742)" fill="#e8e8e8" opacity="0.4"/>
    </g>
    <g id="Grupo_62" data-name="Grupo 62" transform="translate(0 0)" clip-path="url(#clip-path-2)">
      <path id="Trazado_44" data-name="Trazado 44" d="M794.61,451.586H603.2s27.412-6.078,29.817-8.1.268-11.764,10.121-16.537S664.2,429.02,664.2,429.02a8.017,8.017,0,0,1,4.434-8.923c4.488-2.37,9.852.934,9.852.934s2.093-11.932,14.162-5.81c0,0,4.679-11,23.152-10.584s33.62,9.961,38.422,15.46,3.818,13.177,2.34,16.083a9.134,9.134,0,0,1,9.482-.1c5.3,2.905,1.971,7.574,3.079,8.716S784.26,451.013,794.61,451.586Z" transform="translate(-75.602 -330.398)" fill="#efefef" opacity="0.4"/>
    </g>
    <g id="Grupo_63" data-name="Grupo 63" transform="translate(0 0)" clip-path="url(#clip-path-2)">
      <path id="Trazado_45" data-name="Trazado 45" d="M612.557,625.484l5.6-10.223,2.741-1.838,2.979-12.061a31.984,31.984,0,0,1,3.456-1.608c.358,0,3.456-2.125,4.111-2.125s3.157-3.044,2.8-3.733.358-5.284.358-5.284,4.588-2.355,5.958-3.676.477-6.2.477-8.271-.3-4.882,0-5.169a8.235,8.235,0,0,1,4.051-1.263c1.43.115,7.806.517,8.223.919s1.191,9.993,1.311,10.683a27.529,27.529,0,0,0,2.979,4.939c.417.4,2.026,1.953,2.026,2.3,0,.156.171,3.1.381,6.346,1.141-.683,1.877-1.251,1.877-1.6,0-1.5,2.828-13.777,4.6-15.274s15.2-3.295,15.2-3.295.708-24.259,2.121-26.655,10.959-6.888,10.959-10.482,3.535-21.863,3.535-21.863,14.494-.6,16.261-.6,10.252,14.375,12.02,15.873,10.959,2.995,12.373,2.995,4.242,5.391,4.242,7.188.707,16.772,2.474,16.772,22.271,15.574,22.271,16.772,1.944,31.9,3.181,32.944,10.959,10.482,13.08,11.081,26.513,5.99,27.927,7.188,19.443,9.883,18.382,9.883H641.736s.52-4.836,1.239-10.865H612.557Z" transform="translate(-76.774 -358.046)" fill="#99ddf2"/>
    </g>
    <g id="Grupo_64" data-name="Grupo 64" transform="translate(0 0)" clip-path="url(#clip-path-2)">
      <path id="Trazado_46" data-name="Trazado 46" d="M684.1,641.373v94.243H-57.506l12.954-100.658s34,1.925,45.338,7.056,29.956,5.132,38.861,5.132,33.28,4.011,40.523.4,30.723-7.458,42.867-7.458,44.528,3.207,51.005,5.774,9.715,8.34,29.956,13.472,44.528,14.92,49.386,13.234,52.624-11.813,68.817-9.636,29.956,9.875,38.861,8.592,27.527,5.132,39.67,1.925,42.1-8.2,47.767-10.516,24.289-3.6,34.813-5.521,52.625-8.34,55.863-12.188,6.477-6.976,12.144-7.658,4.048-.682,12.954-2.607,17.812-5.773,22.669-3.849,6.772,5.768,21.6,3.847,23.736-2.563,35.881-.638S684.1,641.373,684.1,641.373Z" transform="translate(7.207 -386.666)" fill="#91cfe8"/>
    </g>
    <g id="Grupo_65" data-name="Grupo 65" transform="translate(0 0)" clip-path="url(#clip-path-2)">
      <path id="Trazado_47" data-name="Trazado 47" d="M684.1,641.373v94.243H-57.506l12.954-100.658s34,1.925,45.338,7.056,29.956,5.132,38.861,5.132,33.28,4.011,40.523.4,30.723-7.458,42.867-7.458,44.528,3.207,51.005,5.774,9.715,8.34,29.956,13.472,44.528,14.92,49.386,13.234,52.624-11.813,68.817-9.636,29.956,9.875,38.861,8.592,27.527,5.132,39.67,1.925,42.1-8.2,47.767-10.516,24.289-3.6,34.813-5.521,52.625-8.34,55.863-12.188,6.477-6.976,12.144-7.658,4.048-.682,12.954-2.607,17.812-5.773,22.669-3.849,6.772,5.768,21.6,3.847,23.736-2.563,35.881-.638S684.1,641.373,684.1,641.373Z" transform="translate(7.207 -386.666)" fill="#bce9f7"/>
    </g>
    <g id="Grupo_66" data-name="Grupo 66" transform="translate(0 0)" clip-path="url(#clip-path-2)">
      <path id="Trazado_48" data-name="Trazado 48" d="M-14.963,655.451c4.812-.208,17.74,11.393,27.937,9.49,6.626-1.237,11.748-3.216,15.061-2.969s76.139,12.035,79.716,14.972,27.448,8.283,33.722,8.283,24.46,2.437,29.813,4.633c7.348,3.014,32.156,19.789,53.9,15.422,6.983-1.4,34.8-10.561,44.994-8.367s24.215.559,37.547,4.163,65.032-1.354,73.659-3.783,54.5-20.014,59.208-18.738,22.743,2.587,29.8,5.458,33.39,5.73,42.016,8.021,29.016-4.222,34.506-3.578,17.253-.644,20.39-.644,58.571-17.59,70.186-14.493,67.36,6.176,67.36,6.176l1.4,101.694L-50.124,792.38V674.341S-20.687,655.7-14.963,655.451Z" transform="translate(6.282 -392.857)" fill="#91083d"/>
    </g>
    <g id="Grupo_67" data-name="Grupo 67" transform="translate(0 0)" clip-path="url(#clip-path-2)">
      <path id="Trazado_49" data-name="Trazado 49" d="M-14.963,655.451c4.812-.208,17.74,11.393,27.937,9.49,6.626-1.237,11.748-3.216,15.061-2.969s76.139,12.035,79.716,14.972,27.448,8.283,33.722,8.283,24.46,2.437,29.813,4.633c7.348,3.014,32.156,19.789,53.9,15.422,6.983-1.4,34.8-10.561,44.994-8.367s24.215.559,37.547,4.163,65.032-1.354,73.659-3.783,54.5-20.014,59.208-18.738,22.743,2.587,29.8,5.458,33.39,5.73,42.016,8.021,29.016-4.222,34.506-3.578,17.253-.644,20.39-.644,58.571-17.59,70.186-14.493,67.36,6.176,67.36,6.176l1.4,101.694L-50.124,792.38V674.341S-20.687,655.7-14.963,655.451Z" transform="translate(6.282 -392.857)" fill="#407184"/>
    </g>
    <g id="Grupo_68" data-name="Grupo 68" transform="translate(0 0)" clip-path="url(#clip-path-2)">
      <path id="Trazado_50" data-name="Trazado 50" d="M883.461,745.522S833.7,684.2,824.375,681.317s-15.549-3.074-23.842-3.074-87.924,6.888-95.5,1.615-40.963-1.989-48.219-3.877-43.907,25.784-56.347,28.249-41.464,12.967-52.866,6.633-37.318-13.114-44.574-13.114-49.756,5.336-53.9,8.224-14.512,12.209-29.025,14.045-68.416,14.86-77.745,13.464-46.061-11.274-46.95-11.893a17.571,17.571,0,0,0-6.1-1.415c-1.524,0-4.318,1.592-5.842,1.238s-10.414-1.061-13.716-1.415S250.7,711.434,247.4,711.08c-6.576-.7-24.732-13.259-35.874-12.288-8.128.707-25.254-3.8-28.811-4.149s-25.254,7.5-28.811,5.9-10.29,2.841-12.831,2.134-10.82-5.8-14.121-5.8-21.913,3.421-28.518,2.713-25.7.33-31.14-.339-20.388-2.9-24.438-4.906-27.513-5.794-31.146-8.914S-14.008,663.141-17.85,662.7s-12.324.334-14.085-.891-20.486-5.8-22.407-7.133-29.129-6.464-33.931-7.356-22.087-1.114-27.528-2.229-28.489-3.121-28.489-3.121V796.442H876.3Z" transform="translate(18.084 -389.499)" fill="#5b99b8"/>
    </g>
    <g id="Grupo_69" data-name="Grupo 69" transform="translate(0 0)" clip-path="url(#clip-path-2)">
      <path id="Trazado_51" data-name="Trazado 51" d="M582.675,688.1c-.529-.842-4.128-.224-4.445.225a9.4,9.4,0,0,0-.423,3.593c.106.842.212,6.68.212,8.364s-3.281,1.291-3.281,1.291a12.506,12.506,0,0,1-.318-2.806c0-1.572.635-18.244.635-20.321s-1.376-2.077-2.858-2.077-3.281.955-3.175,1.74-.318,6.063-.212,8.533.318,10.778.318,10.778c-2.752.225-3.851-.674-3.851-1.46s.147-5.894.147-7.073a1.956,1.956,0,0,0-2.434-1.8,2.256,2.256,0,0,0-2.223,2.021c0,.955-.423,6.175,0,8.083s1.376,2.414,2.646,2.526,6.35-.225,6.35-.225l.212,11.452,4.339.393-.212-7.129s6.72-.926,7.832-1.516.741-4.827.952-6.961S583.2,688.944,582.675,688.1Z" transform="translate(-70.259 -398.067)" fill="#5b99b8"/>
    </g>
    <g id="Grupo_70" data-name="Grupo 70" transform="translate(0 0)" clip-path="url(#clip-path-2)">
      <path id="Trazado_52" data-name="Trazado 52" d="M193.209,712.921c-2.118-.881-7.706-2.468-7.706-2.468a39.33,39.33,0,0,1,7.952,1.072,64.583,64.583,0,0,0-5.6-4.469,68.24,68.24,0,0,1,6.916,3.565c-2.007-3.569-6.861-8.868-6.861-8.868a45.048,45.048,0,0,1,8.457,8.3c-.89-3.817-4.994-15.3-4.994-15.3,2.639,4.117,6.491,13.9,6.491,13.9a73.467,73.467,0,0,1-.08-11.944c.323,1.846,1.848,12.87,1.848,12.87a29.546,29.546,0,0,1,2.569-7.514,54.126,54.126,0,0,0-.975,6.417c1.436-3.017,5.948-7.845,5.948-7.845a85.535,85.535,0,0,0-4.736,9.157,25.913,25.913,0,0,1,10.646-3.941c-3.681,1.156-8.956,5.192-8.956,5.192a36.475,36.475,0,0,1,8.7-1.017,61.005,61.005,0,0,0-8.443,2.5l-4.716,3.008-4.413-1.359c-4.335-.542-7.252-.638-7.252-.638A20.109,20.109,0,0,1,193.209,712.921Z" transform="translate(-23.25 -402.645)" fill="#5b99b8"/>
    </g>
    <g id="Grupo_71" data-name="Grupo 71" transform="translate(0 0)" clip-path="url(#clip-path-2)">
      <path id="Trazado_53" data-name="Trazado 53" d="M598.017,714c-1.024-.72-3.839-2.218-3.839-2.218a21.015,21.015,0,0,1,4.187,1.482,32.668,32.668,0,0,0-2.382-3.075,34.8,34.8,0,0,1,3.239,2.729,33.386,33.386,0,0,0-2.4-5.624,22.878,22.878,0,0,1,3.36,5.49c.1-2.189-.4-8.931-.4-8.931a60.479,60.479,0,0,1,1.428,8.334A42.6,42.6,0,0,1,603,705.643c-.106,1.046-.954,7.249-.954,7.249a18.126,18.126,0,0,1,2.553-3.822,32.361,32.361,0,0,0-1.514,3.4,28.063,28.063,0,0,1,4.452-3.622,53.055,53.055,0,0,0-3.99,4.477,15.261,15.261,0,0,1,6.427-.958,23.94,23.94,0,0,0-5.692,1.832,20.505,20.505,0,0,1,4.917.424,35.792,35.792,0,0,0-5,.419l-3.039,1.115-2.207-1.241c-2.289-.785-3.87-1.166-3.87-1.166A11.35,11.35,0,0,1,598.017,714Z" transform="translate(-74.47 -404.911)" fill="#5b99b8"/>
    </g>
    <g id="Grupo_72" data-name="Grupo 72" transform="translate(0 0)" clip-path="url(#clip-path-2)">
      <path id="Trazado_54" data-name="Trazado 54" d="M522.363,732.868c-1.718.043-6.106.571-6.106.571a39.131,39.131,0,0,1,6.014-1.414,50.247,50.247,0,0,0-4.96-1.081c3.078-.025,5.744.243,5.744.243a42.375,42.375,0,0,0-6.737-3.223,32.007,32.007,0,0,1,7.791,2.5c-1.394-1.91-6.627-7.291-6.627-7.291a61.849,61.849,0,0,1,7.447,6.13,33.4,33.4,0,0,1-2.386-6.661c.6.951,3.858,6.731,3.858,6.731a15.075,15.075,0,0,1,.41-4.854,25.117,25.117,0,0,0,.539,3.837c.46-2.051,2.813-5.895,2.813-5.895a47.522,47.522,0,0,0-1.672,6.322,24.372,24.372,0,0,1,7-4.9,33.236,33.236,0,0,0-5.525,5.172,36.454,36.454,0,0,1,6.155-2.773,58.368,58.368,0,0,0-5.676,3.539l-6.342,3.234c-3.269.794-5.419,1.479-5.419,1.479A20.064,20.064,0,0,1,522.363,732.868Z" transform="translate(-64.704 -409.544)" fill="#5b99b8"/>
    </g>
    <g id="Grupo_73" data-name="Grupo 73" transform="translate(0 0)" clip-path="url(#clip-path-2)">
      <path id="Trazado_55" data-name="Trazado 55" d="M224.851,665.173a2.33,2.33,0,0,1,2.308,2.046c.114,1.072-.114,10.267-.114,11.664s2.26,1.787,2.26,1.787.162-11.923.01-14.62,1.4-4.581,3.935-4.321a4.54,4.54,0,0,1,3.935,4.809c0,2.339-.492,21.085-.492,21.085,1.476-.325,2.422-.747,2.422-1.95s-.114-9.746-.265-10.949.151-2.794,1.816-2.761,2.5,1.559,2.535,3.249-.189,8.675-1.173,11.566-5.593,3.473-5.593,3.473l-1.24,12.626h-3.724l-1.93-19.607c-4.049-.2-5.524-2.891-5.827-4.126s-.605-7.44-.908-10.136S223.6,665.173,224.851,665.173Z" transform="translate(-27.919 -394.415)" fill="#5b99b8"/>
    </g>
    <g id="Grupo_74" data-name="Grupo 74" transform="translate(0 0)" clip-path="url(#clip-path-2)">
      <path id="Trazado_56" data-name="Trazado 56" d="M240.081,715.374l-.8-.27a15.087,15.087,0,0,1,4.595-3.829A28.446,28.446,0,0,0,240.081,715.374Z" transform="translate(-29.99 -406.759)" fill="#5b99b8"/>
      <path id="Trazado_57" data-name="Trazado 57" d="M241.516,705.76a32.049,32.049,0,0,1-2.054,6.053,36.267,36.267,0,0,1,5.148-5.774,77.728,77.728,0,0,0-5.44,7.71l-.568-.191-.234-.078-.352-.118A80.765,80.765,0,0,0,241.516,705.76Z" transform="translate(-29.832 -405.385)" fill="#5b99b8"/>
      <path id="Trazado_58" data-name="Trazado 58" d="M235.143,713.088a25.41,25.41,0,0,0-1.273-5.246,15.061,15.061,0,0,1,2.17,5.548Z" transform="translate(-29.312 -405.904)" fill="#5b99b8"/>
      <path id="Trazado_59" data-name="Trazado 59" d="M236.831,710.395a49.056,49.056,0,0,0,.749-6.13,26.536,26.536,0,0,1,.107,3.991,56.518,56.518,0,0,0,1.428-6.647,35.163,35.163,0,0,1-.508,6.218c.676-2.24,1.43-4.927,1.793-6.878a46.324,46.324,0,0,1-2.326,11.353l-.5-.167-.3-.1-.043-.014-.331-.111-.219-.074-.1-.035-.574-.192a63.929,63.929,0,0,0-.811-8.825A32.227,32.227,0,0,1,236.831,710.395Z" transform="translate(-29.477 -404.187)" fill="#5b99b8"/>
    </g>
    <g id="Grupo_75" data-name="Grupo 75" transform="translate(0 0)" clip-path="url(#clip-path-2)">
      <path id="Trazado_60" data-name="Trazado 60" d="M234.852,711.76l-.856.074a12.369,12.369,0,0,1,2.059-5.206A23.941,23.941,0,0,0,234.852,711.76Z" transform="translate(-29.327 -405.602)" fill="#5b99b8"/>
      <path id="Trazado_61" data-name="Trazado 61" d="M231.6,702.544a31.5,31.5,0,0,1,1.382,6.192,30.57,30.57,0,0,1,1.521-7.154,67.986,67.986,0,0,0-.753,8.991l-.607.052-.249.022-.375.032A75.858,75.858,0,0,0,231.6,702.544Z" transform="translate(-29.027 -404.345)" fill="#5b99b8"/>
      <path id="Trazado_62" data-name="Trazado 62" d="M229.209,712.6a30.181,30.181,0,0,0-3.916-4.172,18.365,18.365,0,0,1,4.874,4.09Z" transform="translate(-28.237 -406.049)" fill="#5b99b8"/>
      <path id="Trazado_63" data-name="Trazado 63" d="M229.94,708.781a52.372,52.372,0,0,0-2.585-5.751,29.924,29.924,0,0,1,2.212,3.511,58.133,58.133,0,0,0-2.254-6.476,38.053,38.053,0,0,1,2.845,5.734c-.586-2.259-1.34-4.945-2.052-6.825a48.008,48.008,0,0,1,3.952,11.017l-.531.046-.325.028-.046,0-.353.031-.234.02-.112.01-.612.053a73.117,73.117,0,0,0-5.4-7.539A38.541,38.541,0,0,1,229.94,708.781Z" transform="translate(-28.13 -403.696)" fill="#5b99b8"/>
    </g>
    <g id="Grupo_76" data-name="Grupo 76" transform="translate(0 0)" clip-path="url(#clip-path-2)">
      <path id="Trazado_64" data-name="Trazado 64" d="M571.933,720.509l-.856.074a12.369,12.369,0,0,1,2.059-5.206A23.947,23.947,0,0,0,571.933,720.509Z" transform="translate(-71.575 -407.78)" fill="#5b99b8"/>
      <path id="Trazado_65" data-name="Trazado 65" d="M568.68,711.293a31.54,31.54,0,0,1,1.383,6.192,30.545,30.545,0,0,1,1.52-7.154,67.99,67.99,0,0,0-.753,8.991l-.607.052-.249.022-.375.032A75.883,75.883,0,0,0,568.68,711.293Z" transform="translate(-71.275 -406.524)" fill="#5b99b8"/>
      <path id="Trazado_66" data-name="Trazado 66" d="M566.29,721.348a30.134,30.134,0,0,0-3.916-4.172,18.374,18.374,0,0,1,4.875,4.09Z" transform="translate(-70.484 -408.228)" fill="#5b99b8"/>
      <path id="Trazado_67" data-name="Trazado 67" d="M567.021,717.53a52.275,52.275,0,0,0-2.585-5.75,29.913,29.913,0,0,1,2.212,3.511,58.129,58.129,0,0,0-2.254-6.477,38.055,38.055,0,0,1,2.845,5.734c-.586-2.259-1.34-4.946-2.052-6.825a48.012,48.012,0,0,1,3.952,11.017l-.532.046-.325.028-.045,0-.353.031-.234.02-.112.01-.612.053a73.124,73.124,0,0,0-5.4-7.539A38.527,38.527,0,0,1,567.021,717.53Z" transform="translate(-70.378 -405.875)" fill="#5b99b8"/>
    </g>
    <g id="Grupo_77" data-name="Grupo 77" transform="translate(0 0)" clip-path="url(#clip-path-2)">
      <path id="Trazado_68" data-name="Trazado 68" d="M616.942,722.567l-.763-.342a15.8,15.8,0,0,1,5.049-3.38A29.871,29.871,0,0,0,616.942,722.567Z" transform="translate(-77.228 -408.643)" fill="#5b99b8"/>
      <path id="Trazado_69" data-name="Trazado 69" d="M619.413,713.089a33.115,33.115,0,0,1-2.8,5.827,38.115,38.115,0,0,1,5.845-5.262,81.379,81.379,0,0,0-6.378,7.16l-.541-.243-.222-.1-.334-.15A84.366,84.366,0,0,0,619.413,713.089Z" transform="translate(-77.077 -407.21)" fill="#5b99b8"/>
      <path id="Trazado_70" data-name="Trazado 70" d="M612.327,719.611a25.011,25.011,0,0,0-.6-5.333,14.613,14.613,0,0,1,1.458,5.716Z" transform="translate(-76.669 -407.506)" fill="#5b99b8"/>
      <path id="Trazado_71" data-name="Trazado 71" d="M614.146,717.271a49.926,49.926,0,0,0,1.517-6.025,26.59,26.59,0,0,1-.4,3.977,57.823,57.823,0,0,0,2.257-6.476,35.478,35.478,0,0,1-1.289,6.134c.955-2.164,2.042-4.765,2.649-6.672a47.429,47.429,0,0,1-3.742,11.07l-.473-.213-.289-.13-.041-.018-.315-.141-.208-.093-.1-.045-.546-.245a63.742,63.742,0,0,0,.305-8.848A31.761,31.761,0,0,1,614.146,717.271Z" transform="translate(-76.85 -405.996)" fill="#5b99b8"/>
    </g>
    <g id="Grupo_78" data-name="Grupo 78" transform="translate(0 0)" clip-path="url(#clip-path-2)">
      <path id="Trazado_72" data-name="Trazado 72" d="M38.047,702.889l-.99-.353a18.973,18.973,0,0,1,5.838-4.669A35.813,35.813,0,0,0,38.047,702.889Z" transform="translate(-4.644 -403.42)" fill="#5b99b8"/>
      <path id="Trazado_73" data-name="Trazado 73" d="M40.083,690.932a40.109,40.109,0,0,1-2.739,7.495,45.634,45.634,0,0,1,6.585-7.079,97.552,97.552,0,0,0-7.006,9.484l-.7-.25-.289-.1-.434-.155A101.759,101.759,0,0,0,40.083,690.932Z" transform="translate(-4.449 -401.693)" fill="#5b99b8"/>
      <path id="Trazado_74" data-name="Trazado 74" d="M31.965,699.878a31.551,31.551,0,0,0-1.428-6.563,18.655,18.655,0,0,1,2.537,6.958Z" transform="translate(-3.827 -402.286)" fill="#5b99b8"/>
      <path id="Trazado_75" data-name="Trazado 75" d="M34.113,696.6a61.391,61.391,0,0,0,1.116-7.62,33.014,33.014,0,0,1,.014,4.973,70.682,70.682,0,0,0,1.978-8.249,43.782,43.782,0,0,1-.82,7.734c.91-2.776,1.929-6.106,2.439-8.529A57.936,57.936,0,0,1,35.6,699l-.615-.219-.375-.134-.053-.019-.408-.146-.27-.1-.129-.046-.708-.252a79.5,79.5,0,0,0-.746-11.01A40.106,40.106,0,0,1,34.113,696.6Z" transform="translate(-4.048 -400.194)" fill="#5b99b8"/>
    </g>
    <g id="Grupo_79" data-name="Grupo 79" transform="translate(0 0)" clip-path="url(#clip-path-2)">
      <path id="Trazado_76" data-name="Trazado 76" d="M356.468,747.25l-.925,0a13.75,13.75,0,0,1,2.814-5.39A26.37,26.37,0,0,0,356.468,747.25Z" transform="translate(-44.561 -414.376)" fill="#5b99b8"/>
      <path id="Trazado_77" data-name="Trazado 77" d="M354.058,737.1a33.322,33.322,0,0,1,.751,6.743,33.57,33.57,0,0,1,2.467-7.52,74.025,74.025,0,0,0-1.862,9.552l-.655,0-.269,0-.406,0A80.908,80.908,0,0,0,354.058,737.1Z" transform="translate(-44.375 -412.996)" fill="#5b99b8"/>
      <path id="Trazado_78" data-name="Trazado 78" d="M350.45,747.476a31.155,31.155,0,0,0-3.7-4.8,18.914,18.914,0,0,1,4.733,4.8Z" transform="translate(-43.46 -414.577)" fill="#5b99b8"/>
      <path id="Trazado_79" data-name="Trazado 79" d="M351.462,743.549a54.593,54.593,0,0,0-2.09-6.375,30.969,30.969,0,0,1,1.953,3.947A60.878,60.878,0,0,0,349.675,734a39.541,39.541,0,0,1,2.369,6.38c-.361-2.467-.853-5.406-1.393-7.478a50.352,50.352,0,0,1,2.933,12.126l-.574,0-.351,0h-.05l-.381,0-.253,0h-.121l-.661,0a75.657,75.657,0,0,0-4.893-8.533A39.566,39.566,0,0,1,351.462,743.549Z" transform="translate(-43.403 -412.144)" fill="#5b99b8"/>
    </g>
    <g id="Grupo_80" data-name="Grupo 80" transform="translate(0 0)" clip-path="url(#clip-path-2)">
      <path id="Trazado_80" data-name="Trazado 80" d="M480.421,709.5c.128-1.748,0-13.169,0-15.518s.954-2.514,1.527-2.514a1.9,1.9,0,0,1,1.7,2.076c0,1.53.147,12.076.019,13.825s.382,2.842,1.336,2.842,1.782-1.311,1.909-3.661.7-24.863.7-27.922,1.273-3.06,2.1-2.9a2.274,2.274,0,0,1,1.527,2.4c0,1.311-.382,21.474-.382,24.426s.255,4.043,1.591,3.934,1.591-1.967,1.591-3.06,0-34.409.064-36.7,2.164-1.967,2.609-1.311.509,3.005.382,7.377-.255,32.333-.509,33.644a7.968,7.968,0,0,0,1.018,4.535c.478.41,1.464-.219,1.464-1.858s.255-22.568.318-24.48,2.609-1.585,3.054-.984.637,1.421.637,4.371-.415,19.3-.415,22.538-.781,3.352-1.952,4.359-3.645.447-4.816,1.676-1.3,12.181-1.3,15.2l-6.471-.439s.573-17.1,0-17.759-3.5-.437-4.965-.437S480.294,711.252,480.421,709.5Z" transform="translate(-60.212 -395.221)" fill="#5b99b8"/>
    </g>
    <g id="Grupo_81" data-name="Grupo 81" transform="translate(0 0)" clip-path="url(#clip-path-2)">
      <path id="Trazado_81" data-name="Trazado 81" d="M368.725,689.9c.407-3.6,3.387-4.4,4.47-2.8s1.761,3.47,1.219,6.806-.542,8.008.407,9.61,6.772,3.2,6.772,3.2.541-8.942.813-14.281,5.012-9.076,9.211-7.073,5.283,8.542,4.47,12.679-2.3,14.013-2.3,14.013c1.355.934,5.689-.8,6.367-2.8s.948-8.008,1.355-10.277,2.032-4.137,3.251-4,3.251,2.135,3.251,3.6-1.355,12.813-1.625,14.814-5.012,6.139-7.856,6.673a41.947,41.947,0,0,1-7.179.4l-2.439,20.019-6.248.1-2.129-29.058c-8.377-.534-11.4-6.273-11.943-7.34S368.318,693.5,368.725,689.9Z" transform="translate(-46.159 -400.169)" fill="#244c59"/>
    </g>
    <g id="Grupo_82" data-name="Grupo 82" transform="translate(0 0)" clip-path="url(#clip-path-2)">
      <path id="Trazado_82" data-name="Trazado 82" d="M647.843,689.152c.565-1.532,4.409-.409,4.749.409a28.518,28.518,0,0,1,.452,6.537c-.113,1.532-.227,12.155-.227,15.219s3.5,2.349,3.5,2.349a38.049,38.049,0,0,0,.339-5.107c0-2.86-.679-33.2-.679-36.976s1.469-3.779,3.053-3.779,3.5,1.736,3.392,3.166.339,11.031.226,15.526-.339,19.611-.339,19.611c2.94.409,4.114-1.226,4.114-2.655s-.157-10.725-.157-12.87,1.131-3.575,2.6-3.268,2.375,1.94,2.375,3.677.452,11.235,0,14.709-1.47,4.392-2.827,4.6a52.825,52.825,0,0,1-6.784-.409l-.227,20.837-4.636.715L657,718.467s-7.179-1.685-8.366-2.758-.792-8.784-1.017-12.666S647.278,690.684,647.843,689.152Z" transform="translate(-81.145 -395.934)" fill="#244c59"/>
    </g>
    <g id="Grupo_83" data-name="Grupo 83" transform="translate(0 0)" clip-path="url(#clip-path-2)">
      <path id="Trazado_83" data-name="Trazado 83" d="M116.428,681.976c.734-1.654,5.724-.442,6.164.442s.734,5.406.587,7.06-.294,13.128-.294,16.437,4.549,2.538,4.549,2.538a34.385,34.385,0,0,0,.44-5.516c0-3.089-.881-35.853-.881-39.934s1.908-4.082,3.962-4.082,4.549,1.875,4.4,3.42.44,11.914.294,16.768-.44,21.181-.44,21.181c3.816.442,5.341-1.324,5.341-2.868s-.2-11.583-.2-13.9,1.468-3.861,3.375-3.53a3.892,3.892,0,0,1,3.081,3.971c0,1.875.587,12.134,0,15.886s-1.908,4.743-3.669,4.964a82.154,82.154,0,0,1-8.805-.441l-.294,22.5-6.017.772.294-14.01s-9.319-1.82-10.86-2.978-1.027-9.487-1.321-13.679S115.695,683.63,116.428,681.976Z" transform="translate(-14.525 -393.721)" fill="#244c59"/>
    </g>
    <g id="Grupo_84" data-name="Grupo 84" transform="translate(0 0)" clip-path="url(#clip-path-2)">
      <path id="Trazado_84" data-name="Trazado 84" d="M601.855,746.92c-3.475-1.57-12.874-4.709-12.874-4.709a84.839,84.839,0,0,1,13.744,2.854c-1.422-1.712-8.531-7.064-8.531-7.064a119.2,119.2,0,0,1,11.137,6.065c-2.448-5.209-9.4-13.272-9.4-13.272a61.26,61.26,0,0,1,12.4,12.773c-.4-5.352-4.107-21.692-4.107-21.692,3.4,6.065,7.188,20.051,7.188,20.051.474-6.992,3.555-16.269,3.555-16.269,0,2.569-.711,17.839-.711,17.839,1.817-4.424,6.871-9.776,6.871-9.776-1.184,1.641-3.712,8.563-3.712,8.563,3.475-3.853,12.954-9.633,12.954-9.633-4.423,3.711-11.216,11.631-11.216,11.631a60.675,60.675,0,0,1,20.062-3.5c-6.871.927-17.456,5.494-17.456,5.494a85.118,85.118,0,0,1,15.718.143,143.946,143.946,0,0,0-15.718,1.926l-16.666.642c-7.5-1.5-12.637-2.14-12.637-2.14A46.873,46.873,0,0,1,601.855,746.92Z" transform="translate(-73.819 -409.398)" fill="#244c59"/>
    </g>
    <g id="Grupo_85" data-name="Grupo 85" transform="translate(0 0)" clip-path="url(#clip-path-2)">
      <path id="Trazado_85" data-name="Trazado 85" d="M653.7,743.443c-1.531-.691-5.669-2.073-5.669-2.073a37.373,37.373,0,0,1,6.051,1.256,42.8,42.8,0,0,0-3.756-3.111,52.417,52.417,0,0,1,4.9,2.671,35.836,35.836,0,0,0-4.139-5.844,26.974,26.974,0,0,1,5.46,5.624c-.174-2.357-1.809-9.551-1.809-9.551,1.5,2.67,3.165,8.828,3.165,8.828a35.822,35.822,0,0,1,1.565-7.164c0,1.131-.313,7.854-.313,7.854a18.206,18.206,0,0,1,3.025-4.3,28.794,28.794,0,0,0-1.635,3.77,35.6,35.6,0,0,1,5.7-4.242,58.6,58.6,0,0,0-4.938,5.121,26.722,26.722,0,0,1,8.833-1.54,38.576,38.576,0,0,0-7.686,2.419,37.477,37.477,0,0,1,6.92.063,63.469,63.469,0,0,0-6.92.848l-7.338.283c-3.3-.659-5.565-.942-5.565-.942A20.719,20.719,0,0,1,653.7,743.443Z" transform="translate(-81.219 -412.023)" fill="#244c59"/>
    </g>
    <g id="Grupo_86" data-name="Grupo 86" transform="translate(0 0)" clip-path="url(#clip-path-2)">
      <path id="Trazado_86" data-name="Trazado 86" d="M685.457,739.887c-2.456-1.236-9.032-3.612-9.032-3.612a47.434,47.434,0,0,1,9.508,1.958,74.472,74.472,0,0,0-6.225-5.837,79.424,79.424,0,0,1,7.934,4.864c-1.981-4.454-7.2-11.225-7.2-11.225a51.7,51.7,0,0,1,9.2,10.672c-.6-4.658-4.117-18.784-4.117-18.784,2.677,5.164,6.109,17.231,6.109,17.231a88.223,88.223,0,0,1,1.418-14.345c.157,2.243.609,15.606.609,15.606a36.768,36.768,0,0,1,4.068-8.8,66.058,66.058,0,0,0-2,7.622c2.125-3.5,8.207-8.916,8.207-8.916a107.6,107.6,0,0,0-6.9,10.593,32.684,32.684,0,0,1,13.41-3.833c-4.61,1.077-11.518,5.476-11.518,5.476a45.09,45.09,0,0,1,10.683-.486,76.868,76.868,0,0,0-10.556,2.293l-11.278,1.208c-5.187-1.017-8.713-1.379-8.713-1.379A24.9,24.9,0,0,1,685.457,739.887Z" transform="translate(-84.779 -408.414)" fill="#244c59"/>
    </g>
    <g id="Grupo_87" data-name="Grupo 87" transform="translate(0 0)" clip-path="url(#clip-path-2)">
      <path id="Trazado_87" data-name="Trazado 87" d="M704.49,736.086c-1.669-1.766-6.492-5.805-6.492-5.805a46.875,46.875,0,0,1,7.536,4.744,58.369,58.369,0,0,0-3.2-6.482,67.7,67.7,0,0,1,5.061,6.353c-.032-3.988-2-10.812-2-10.812a38.682,38.682,0,0,1,3.956,11.1c1.253-3.659,3.558-15.349,3.558-15.349.368,4.755-1.233,14.888-1.233,14.888a68.116,68.116,0,0,1,6.691-10.143c-.716,1.717-5.4,11.778-5.4,11.778a32.968,32.968,0,0,1,6.892-5.117,54.364,54.364,0,0,0-4.638,4.958c3.181-1.859,10.539-3.767,10.539-3.767a101.939,101.939,0,0,0-10.042,5.461,35.959,35.959,0,0,1,13.138,1.8c-4.424-.8-12.114.071-12.114.071a48.072,48.072,0,0,1,9.489,3.339,84.542,84.542,0,0,0-10.066-1.956l-10.283-3.01c-4.131-2.55-7.065-4.039-7.065-4.039A26.548,26.548,0,0,1,704.49,736.086Z" transform="translate(-87.482 -408.89)" fill="#244c59"/>
    </g>
    <g id="Grupo_88" data-name="Grupo 88" transform="translate(0 0)" clip-path="url(#clip-path-2)">
      <path id="Trazado_88" data-name="Trazado 88" d="M377.246,751.245c-2.729-.843-9.989-2.311-9.989-2.311a63.749,63.749,0,0,1,10.424.868,74.948,74.948,0,0,0-7.052-4.433,91.325,91.325,0,0,1,8.86,3.464c-2.373-3.613-8.372-8.922-8.372-8.922a47.389,47.389,0,0,1,10.526,8.286c-.878-3.9-5.4-15.59-5.4-15.59,3.165,4.157,7.489,14.107,7.489,14.107a59.625,59.625,0,0,1,.828-12.288c.282,1.889,1.435,13.187,1.435,13.187.851-3.418,3.982-7.808,3.982-7.808a47.193,47.193,0,0,0-1.791,6.632c2.134-3.147,8.472-8.247,8.472-8.247a94.858,94.858,0,0,0-6.975,9.562,44.306,44.306,0,0,1,14.376-4.37c-4.953,1.3-12.238,5.606-12.238,5.606a62.982,62.982,0,0,1,11.579-1.3,105.257,105.257,0,0,0-11.352,2.826l-12.19,1.966c-5.684-.43-9.532-.442-9.532-.442A34.819,34.819,0,0,1,377.246,751.245Z" transform="translate(-46.029 -412.071)" fill="#244c59"/>
    </g>
    <g id="Grupo_89" data-name="Grupo 89" transform="translate(0 0)" clip-path="url(#clip-path-2)">
      <path id="Trazado_89" data-name="Trazado 89" d="M188.963,754.447c-2.444-1.384-9.141-4.311-9.141-4.311a62.117,62.117,0,0,1,9.929,3,69.974,69.974,0,0,0-5.745-5.77,86.23,86.23,0,0,1,7.75,5.2c-1.4-4.007-5.9-10.413-5.9-10.413a44.2,44.2,0,0,1,8.154,10.237c.131-3.979-1.32-16.293-1.32-16.293,2.03,4.7,3.726,15.28,3.726,15.28a61.237,61.237,0,0,1,3.912-11.792c-.2,1.9-1.936,13.135-1.936,13.135,1.692-3.152,5.851-6.78,5.851-6.78a49.61,49.61,0,0,0-3.42,6.087c2.872-2.623,10.333-6.282,10.333-6.282a101.7,101.7,0,0,0-9.207,7.87,45.312,45.312,0,0,1,15.1-1.289c-5.151.242-13.333,2.933-13.333,2.933a62.941,62.941,0,0,1,11.6,1.12,107.44,107.44,0,0,0-11.766.409l-12.365-.6c-5.426-1.591-9.168-2.4-9.168-2.4A34.782,34.782,0,0,1,188.963,754.447Z" transform="translate(-22.538 -412.939)" fill="#244c59"/>
    </g>
    <g id="Grupo_90" data-name="Grupo 90" transform="translate(0 0)" clip-path="url(#clip-path-2)">
      <path id="Trazado_90" data-name="Trazado 90" d="M135.639,737.051c-2.423-1.413-9.076-4.42-9.076-4.42a61.972,61.972,0,0,1,9.884,3.115,69.654,69.654,0,0,0-5.659-5.839,85.8,85.8,0,0,1,7.672,5.294c-1.338-4.024-5.741-10.484-5.741-10.484a44.025,44.025,0,0,1,8,10.336c.191-3.978-1.078-16.308-1.078-16.308,1.96,4.725,3.5,15.323,3.5,15.323a61.411,61.411,0,0,1,4.086-11.744c-.231,1.9-2.13,13.111-2.13,13.111,1.739-3.131,5.95-6.709,5.95-6.709a49.826,49.826,0,0,0-3.51,6.045c2.911-2.588,10.425-6.157,10.425-6.157a102.077,102.077,0,0,0-9.322,7.758,45.341,45.341,0,0,1,15.118-1.107c-5.154.18-13.375,2.772-13.375,2.772a62.9,62.9,0,0,1,11.585,1.259,107.426,107.426,0,0,0-11.771.267l-12.356-.75c-5.4-1.657-9.132-2.508-9.132-2.508A34.724,34.724,0,0,1,135.639,737.051Z" transform="translate(-15.863 -408.619)" fill="#244c59"/>
    </g>
    <g id="Grupo_91" data-name="Grupo 91" transform="translate(0 0)" clip-path="url(#clip-path-2)">
      <path id="Trazado_91" data-name="Trazado 91" d="M118.683,741.141c-1.832-.7-6.745-2.034-6.745-2.034a43.815,43.815,0,0,1,7.123,1.06,50.734,50.734,0,0,0-4.609-3.363,61.981,61.981,0,0,1,5.906,2.777,42.392,42.392,0,0,0-5.273-6.509,31.979,31.979,0,0,1,6.789,6.167c-.392-2.723-2.867-10.965-2.867-10.965,1.951,3,4.383,10.037,4.383,10.037a41.279,41.279,0,0,1,1.239-8.416c.091,1.313.269,9.135.269,9.135a20.81,20.81,0,0,1,3.165-5.194,32.934,32.934,0,0,0-1.594,4.483c1.639-2.069,6.277-5.3,6.277-5.3a66.868,66.868,0,0,0-5.318,6.268,30.857,30.857,0,0,1,10.127-2.367,44.279,44.279,0,0,0-8.724,3.313,43.619,43.619,0,0,1,8.036-.382,73.287,73.287,0,0,0-7.963,1.439l-8.493.81c-3.887-.548-6.533-.728-6.533-.728A24.175,24.175,0,0,1,118.683,741.141Z" transform="translate(-14.03 -410.992)" fill="#244c59"/>
    </g>
    <g id="Grupo_92" data-name="Grupo 92" transform="translate(0 0)" clip-path="url(#clip-path-2)">
      <path id="Trazado_92" data-name="Trazado 92" d="M-9.192,702.206c6.1,1.518,29.266,6.076,36.584,6.582s32.925,3.544,38.413,3.544,19.511,16.2,25.608,19.238,40.851,1.012,47.558,3.038,13.414,8.1,26.218,11.138,65.85,3.038,99.995,2.531,112.8-13.162,123.773-15.694,20.121-7.649,28.657-6.13,82.312,13.724,90.238,14.737,64.631-6.076,69.508-6.076h31.1c6.707,0,53.656-6.582,66.46-8.606s31.706-14.176,31.706-14.176l-1.829,71.89H-42.117v-81S-15.289,700.687-9.192,702.206Z" transform="translate(5.279 -404.379)" fill="#244c59"/>
    </g>
    <g id="Grupo_93" data-name="Grupo 93" transform="translate(0 0)" clip-path="url(#clip-path-2)">
      <path id="Trazado_93" data-name="Trazado 93" d="M677.4,658.628c.255-3.693,0-27.813,0-32.775s1.916-5.309,3.066-5.309,3.41,1.154,3.41,4.385.294,25.5.039,29.2.767,6,2.682,6,3.577-2.77,3.833-7.732,1.406-52.51,1.406-58.972,2.555-6.463,4.216-6.117,3.066,2.308,3.066,5.078-.766,45.354-.766,51.586.511,8.54,3.193,8.309,3.193-4.154,3.193-6.463,0-72.671.128-77.518,4.344-4.154,5.237-2.77,1.022,6.347.766,15.58-.511,68.286-1.023,71.056,1.086,8.713,2.044,9.579,2.938-.462,2.938-3.924.511-47.662.638-51.7,5.238-3.346,6.131-2.077,1.277,3,1.277,9.233-.833,40.754-.833,47.6-1.567,7.08-3.919,9.2-7.316.944-9.667,3.54-2.613,25.726-2.613,32.1l-12.989-.927s1.149-36.122,0-37.506-7.026-.923-9.964-.923S677.148,662.321,677.4,658.628Z" transform="translate(-84.899 -370.212)" fill="#244c59"/>
    </g>
    <g id="Grupo_94" data-name="Grupo 94" transform="translate(0 0)" clip-path="url(#clip-path-2)">
      <path id="Trazado_94" data-name="Trazado 94" d="M62.591,597.874c2.761,0,4.854,2.493,5.1,5.236s-.251,26.261-.251,29.835,5,4.57,5,4.57.357-30.5.023-37.4,3.1-11.718,8.7-11.053,8.7,6.316,8.7,12.3S88.784,655.3,88.784,655.3c3.263-.831,5.356-1.911,5.356-4.986s-.251-24.932-.586-28.006.335-7.147,4.016-7.064,5.523,3.989,5.607,8.31-.418,22.189-2.594,29.586-12.368,8.884-12.368,8.884l-2.743,32.3H77.235l-4.268-50.156A13.573,13.573,0,0,1,60.08,633.609c-.669-3.158-1.339-19.031-2.008-25.929S59.83,597.874,62.591,597.874Z" transform="translate(-7.264 -376.311)" fill="#244c59"/>
    </g>
    <g id="Grupo_95" data-name="Grupo 95" transform="translate(0 0)" clip-path="url(#clip-path-2)">
      <path id="Trazado_95" data-name="Trazado 95" d="M80.614,711.688l-2.279.3c.328-7.633,4.791-14.858,4.791-14.858C81.25,702.354,80.614,711.688,80.614,711.688Z" transform="translate(-9.818 -403.236)" fill="#244c59"/>
      <path id="Trazado_96" data-name="Trazado 96" d="M70.673,686.128a93.178,93.178,0,0,1,4.542,17.266A89.381,89.381,0,0,1,78.3,683.115c-1.271,9.007-.782,25.363-.782,25.363l-1.615.211-.664.087-1,.131S72.649,694.005,70.673,686.128Z" transform="translate(-8.858 -399.746)" fill="#244c59"/>
      <path id="Trazado_97" data-name="Trazado 97" d="M65.509,714.872s-6.058-7.5-11.037-11.318c0,0,8.834,4.8,13.586,10.985Z" transform="translate(-6.827 -404.836)" fill="#244c59"/>
      <path id="Trazado_98" data-name="Trazado 98" d="M67.2,703.943a152.378,152.378,0,0,0-7.7-15.9,85.822,85.822,0,0,1,6.391,9.638,170.543,170.543,0,0,0-6.912-17.972,110.534,110.534,0,0,1,8.389,15.825c-1.875-6.29-4.258-13.766-6.418-18.975A140.908,140.908,0,0,1,73.02,707.122l-1.414.185-.864.113-.122.016-.941.123-.623.081-.3.039-1.63.213s-8.941-13.555-15.471-20.629A107.6,107.6,0,0,1,67.2,703.943Z" transform="translate(-6.474 -398.114)" fill="#244c59"/>
    </g>
    <g id="Grupo_96" data-name="Grupo 96" transform="translate(0 0)" clip-path="url(#clip-path-2)">
      <path id="Trazado_99" data-name="Trazado 99" d="M429.919,753.52l-2.144-.758c4.459-6.49,12.291-10.78,12.291-10.78C435.577,745.689,429.919,753.52,429.919,753.52Z" transform="translate(-53.614 -414.406)" fill="#244c59"/>
      <path id="Trazado_100" data-name="Trazado 100" d="M433.758,726.457a93.572,93.572,0,0,1-5.494,17.038,100.339,100.339,0,0,1,13.772-16.254c-6.031,7.264-14.551,21.7-14.551,21.7l-1.519-.537-.625-.221-.94-.333S431.168,734.188,433.758,726.457Z" transform="translate(-53.192 -410.539)" fill="#244c59"/>
      <path id="Trazado_101" data-name="Trazado 101" d="M416.706,747.083s-1.163-9.227-3.405-14.767c0,0,5.056,8.117,5.805,15.615Z" transform="translate(-51.8 -411.999)" fill="#244c59"/>
      <path id="Trazado_102" data-name="Trazado 102" d="M421.224,739.5a145.245,145.245,0,0,0,2-17.256,78.5,78.5,0,0,1,.286,11.232,166.542,166.542,0,0,0,3.821-18.711,103.794,103.794,0,0,1-1.361,17.5c1.81-6.306,3.826-13.869,4.8-19.363a136.462,136.462,0,0,1-6.221,31.957l-1.33-.47-.813-.288-.115-.041-.885-.313-.586-.207-.28-.1-1.534-.542s-.36-15.775-2.17-24.84A95.044,95.044,0,0,1,421.224,739.5Z" transform="translate(-52.243 -407.166)" fill="#244c59"/>
    </g>
    <g id="Grupo_97" data-name="Grupo 97" transform="translate(0 0)" clip-path="url(#clip-path-2)">
      <path id="Trazado_103" data-name="Trazado 103" d="M95.2,732.644l-1.99-1.046c5.509-5.794,13.976-8.948,13.976-8.948C102.123,725.691,95.2,732.644,95.2,732.644Z" transform="translate(-11.683 -409.591)" fill="#244c59"/>
      <path id="Trazado_104" data-name="Trazado 104" d="M102.962,706.222A96.552,96.552,0,0,1,94.639,722.3a105.179,105.179,0,0,1,16.37-14.153c-7.193,6.342-18.064,19.428-18.064,19.428l-1.41-.741-.58-.3-.872-.459S99.089,713.5,102.962,706.222Z" transform="translate(-11.29 -405.5)" fill="#244c59"/>
      <path id="Trazado_105" data-name="Trazado 105" d="M83.269,723.557s.417-9.279-.857-15.063c0,0,3.617,8.721,3.084,16.235Z" transform="translate(-10.329 -406.066)" fill="#244c59"/>
      <path id="Trazado_106" data-name="Trazado 106" d="M88.132,717.414a148.02,148.02,0,0,0,4.911-16.774,78.877,78.877,0,0,1-1.625,11.139,170.465,170.465,0,0,0,6.953-17.96,105.281,105.281,0,0,1-4.317,17.107c2.859-5.98,6.136-13.174,8.029-18.468a139.671,139.671,0,0,1-11.574,30.717l-1.235-.65-.755-.4-.107-.056-.821-.432-.543-.285-.26-.137-1.423-.748s2.323-15.638,2.075-24.847A94.109,94.109,0,0,1,88.132,717.414Z" transform="translate(-10.699 -402.073)" fill="#244c59"/>
    </g>
  </g>
  <path id="Trazado_107" data-name="Trazado 107" d="M422.335,244.328H620.783s-5.286-1.288-9.438-2.373c-7.483-1.957-4.347-14.092-19.907-8.1,0,0-7.1-11.376-19.79-5.538,0,0,1.637-8.681-5.733-13.022s-13.921,1.5-15.013,4.341c0,0,1.092-13.92-11.874-20.207s-22.929,4.041-25.386,8.232c0,0-6.415-11.825-22.52-7.784s-14.194,23.949-14.194,23.949-6.005-7.035-13.1-1.8c-7.729,5.705-2.73,14.819-2.73,14.819S446.9,238.939,422.335,244.328Z" transform="translate(-52.933 -72.473)" fill="#e8e8e8" opacity="0.8"/>
  <path id="Trazado_108" data-name="Trazado 108" d="M86.929,36.737H198.655s-2.977-.661-5.314-1.218c-4.213-1-2.447-7.234-11.207-4.161a9.078,9.078,0,0,0-11.142-2.843,6.368,6.368,0,0,0-11.68-4.456,10.787,10.787,0,0,0-6.685-10.374c-7.3-3.228-12.909,2.075-14.292,4.226,0,0-3.611-6.07-12.678-4s-7.992,12.294-7.992,12.294-3.381-3.611-7.377-.922c-4.351,2.929-1.537,7.607-1.537,7.607S100.761,33.971,86.929,36.737Z" transform="translate(-10.895 -12.669)" fill="#e8e8e8" opacity="0.4"/>
</svg>
