<svg xmlns="http://www.w3.org/2000/svg" xmlns:xlink="http://www.w3.org/1999/xlink" width="1920" height="2030.376" viewBox="0 0 1920 2030.376">
  <defs>
    <clipPath id="clip-path">
      <rect id="Rect치ngulo_87" data-name="Rect치ngulo 87" width="1920" height="1280" transform="translate(0 0)"/>
    </clipPath>
    <linearGradient id="linear-gradient" y1="0.5" x2="1" y2="0.5" gradientUnits="objectBoundingBox">
      <stop offset="0" stop-color="#fff" stop-opacity="0"/>
      <stop offset="1" stop-color="#fff"/>
    </linearGradient>
    <clipPath id="clip-path-2">
      <rect id="Rect치ngulo_88" data-name="Rect치ngulo 88" width="1920" height="1280"/>
    </clipPath>
    <linearGradient id="linear-gradient-3" x1="-4.761" y1="0.5" x2="1.087" y2="0.5" xlink:href="#linear-gradient"/>
    <linearGradient id="linear-gradient-4" x1="-5.449" y1="0.5" x2="1.462" y2="0.5" xlink:href="#linear-gradient"/>
    <linearGradient id="linear-gradient-9" x1="-0.52" y1="21.991" x2="0.938" y2="21.991" xlink:href="#linear-gradient"/>
    <linearGradient id="linear-gradient-10" x1="1.438" y1="-458.98" x2="2.686" y2="-458.98" xlink:href="#linear-gradient"/>
    <linearGradient id="linear-gradient-11" x1="1.343" y1="-561.729" x2="2.592" y2="-561.729" xlink:href="#linear-gradient"/>
    <linearGradient id="linear-gradient-12" x1="0.735" y1="-391.857" x2="1.984" y2="-391.857" xlink:href="#linear-gradient"/>
    <linearGradient id="linear-gradient-13" x1="-2.309" y1="-35.533" x2="0.158" y2="-35.533" xlink:href="#linear-gradient"/>
    <linearGradient id="linear-gradient-14" x1="2.093" y1="-190.057" x2="3.119" y2="-190.057" xlink:href="#linear-gradient"/>
    <linearGradient id="linear-gradient-15" x1="4.486" y1="-77.293" x2="6.042" y2="-77.293" xlink:href="#linear-gradient"/>
    <linearGradient id="linear-gradient-16" x1="0.5" y1="1" x2="0.5" y2="0" xlink:href="#linear-gradient"/>
  </defs>
  <g id="BACKGROUND_2" transform="translate(0 -12.669)">
    <g id="Grupo_98" data-name="Grupo 98" transform="translate(0 763.046)">
      <g id="Grupo_39" data-name="Grupo 39" transform="translate(0 0)" clip-path="url(#clip-path)">
        <ellipse id="Elipse_1" data-name="Elipse 1" cx="781.501" cy="15.933" rx="781.501" ry="15.933" transform="translate(998.694 82.516)" opacity="0.2" fill="url(#linear-gradient)"/>
      </g>
      <g id="Grupo_40" data-name="Grupo 40" transform="translate(0 0)" clip-path="url(#clip-path-2)">
        <path id="Trazado_28" data-name="Trazado 28" d="M1702.442,327.108c0,1.956-473.605,3.541-1057.828,3.541s-1057.828-1.585-1057.828-3.541,473.605-3.54,1057.828-3.54S1702.442,325.153,1702.442,327.108Z" transform="translate(-644.614 -278.043)" opacity="0.1" fill="url(#linear-gradient)"/>
      </g>
      <g id="Grupo_41" data-name="Grupo 41" transform="translate(0 0)" clip-path="url(#clip-path-2)">
        <ellipse id="Elipse_2" data-name="Elipse 2" cx="568.279" cy="6.871" rx="568.279" ry="6.871" transform="translate(-172.716 82.842)" opacity="0.1" fill="url(#linear-gradient-3)"/>
      </g>
      <g id="Grupo_42" data-name="Grupo 42" transform="translate(0 0)" clip-path="url(#clip-path-2)">
        <path id="Trazado_29" data-name="Trazado 29" d="M1311.208,363.292c0,3.794-275.748,6.871-615.9,6.871s-615.9-3.077-615.9-6.871,275.748-6.871,615.9-6.871S1311.208,359.5,1311.208,363.292Z" transform="translate(123.877 -226.793)" opacity="0.1" fill="url(#linear-gradient-4)"/>
      </g>
      <g id="Grupo_43" data-name="Grupo 43" transform="translate(0 0)" clip-path="url(#clip-path-2)">
        <ellipse id="Elipse_3" data-name="Elipse 3" cx="708.298" cy="4.024" rx="708.298" ry="4.024" transform="translate(432.714 468.746)" opacity="0.1" fill="url(#linear-gradient)"/>
      </g>
      <g id="Grupo_44" data-name="Grupo 44" transform="translate(0 0)" clip-path="url(#clip-path-2)">
        <ellipse id="Elipse_4" data-name="Elipse 4" cx="385.116" cy="9.559" rx="385.116" ry="9.559" transform="translate(-507.758 463.212)" opacity="0.1" fill="url(#linear-gradient)"/>
      </g>
      <g id="Grupo_45" data-name="Grupo 45" transform="translate(0 0)" clip-path="url(#clip-path-2)">
        <ellipse id="Elipse_5" data-name="Elipse 5" cx="385.116" cy="38.095" rx="385.116" ry="38.095" transform="translate(-507.758 509.852)" opacity="0.1" fill="url(#linear-gradient)"/>
      </g>
      <g id="Grupo_46" data-name="Grupo 46" transform="translate(0 0)" clip-path="url(#clip-path-2)">
        <ellipse id="Elipse_6" data-name="Elipse 6" cx="796.324" cy="5.471" rx="796.324" ry="5.471" transform="translate(-616.576 343.316)" opacity="0.1" fill="url(#linear-gradient)"/>
      </g>
      <g id="Grupo_47" data-name="Grupo 47" transform="translate(0 0)" clip-path="url(#clip-path-2)">
        <path id="Trazado_30" data-name="Trazado 30" d="M589.948,360.712c0-1.457,240.082-2.637,536.236-2.637s536.235,1.18,536.235,2.637-240.082,2.637-536.235,2.637S589.948,362.168,589.948,360.712Z" transform="translate(920.319 -224.213)" opacity="0.28" fill="url(#linear-gradient-9)"/>
      </g>
      <g id="Grupo_48" data-name="Grupo 48" transform="translate(0 0)" clip-path="url(#clip-path-2)">
        <path id="Trazado_31" data-name="Trazado 31" d="M1078.747,498.478c0-.911-192.008-1.649-428.859-1.649s-428.859.737-428.859,1.649,192.008,1.649,428.859,1.649S1078.747,499.389,1078.747,498.478Z" transform="translate(344.805 -7.756)" opacity="0.2" fill="url(#linear-gradient-10)"/>
      </g>
      <g id="Grupo_49" data-name="Grupo 49" transform="translate(0 0)" clip-path="url(#clip-path-2)">
        <path id="Trazado_32" data-name="Trazado 32" d="M957.634,527.259c0-.911-192.466-1.649-429.885-1.649s-429.883.737-429.883,1.649,192.466,1.649,429.883,1.649S957.634,528.167,957.634,527.259Z" transform="translate(152.671 37.142)" opacity="0.1" fill="url(#linear-gradient-11)"/>
      </g>
      <g id="Grupo_50" data-name="Grupo 50" transform="translate(0 0)" clip-path="url(#clip-path-2)">
        <path id="Trazado_33" data-name="Trazado 33" d="M1868.174,479.671c0-.911-372.367-1.649-831.706-1.649s-831.706.737-831.706,1.649,372.367,1.649,831.706,1.649S1868.174,480.582,1868.174,479.671Z" transform="translate(319.43 -37.095)" opacity="0.1" fill="url(#linear-gradient-12)"/>
      </g>
      <g id="Grupo_51" data-name="Grupo 51" transform="translate(0 0)" clip-path="url(#clip-path-2)">
        <path id="Trazado_34" data-name="Trazado 34" d="M170.432,397.365c0-2.347,188.465-4.252,420.946-4.252s420.946,1.9,420.946,4.252-188.465,4.252-420.946,4.252S170.432,399.715,170.432,397.365Z" transform="translate(265.874 -169.553)" opacity="0.1" fill="url(#linear-gradient-13)"/>
      </g>
      <g id="Grupo_52" data-name="Grupo 52" transform="translate(0 0)" clip-path="url(#clip-path-2)">
        <path id="Trazado_35" data-name="Trazado 35" d="M1054.84,455.732c0-1.457-223.465-2.637-499.126-2.637s-499.126,1.18-499.126,2.637,223.465,2.637,499.126,2.637S1054.84,457.188,1054.84,455.732Z" transform="translate(88.277 -75.981)" opacity="0.28" fill="url(#linear-gradient-14)"/>
      </g>
      <g id="Grupo_53" data-name="Grupo 53" transform="translate(0 0)" clip-path="url(#clip-path-2)">
        <ellipse id="Elipse_7" data-name="Elipse 7" cx="244.992" cy="2.637" rx="244.992" ry="2.637" transform="translate(634.417 247.757)" opacity="0.28" fill="url(#linear-gradient-15)"/>
      </g>
      <g id="Grupo_54" data-name="Grupo 54" transform="translate(0 0)" clip-path="url(#clip-path-2)">
        <path id="Trazado_36" data-name="Trazado 36" d="M328.861,624.365H650.955s-8.581-1.9-15.316-3.512c-12.145-2.9-7.055-20.856-32.31-12,0,0-11.52-16.835-32.12-8.2,0,0,2.657-12.849-9.3-19.272s-22.595,2.214-24.369,6.423c0,0,1.771-20.6-19.272-29.906s-37.217,5.98-41.2,12.183c0,0-10.411-17.5-36.552-11.52s-23.037,35.443-23.037,35.443-9.746-10.411-21.266-2.657c-12.544,8.443-4.431,21.932-4.431,21.932S368.736,616.391,328.861,624.365Z" transform="translate(513.023 82.953)" fill="#ededed"/>
      </g>
      <g id="Grupo_55" data-name="Grupo 55" transform="translate(0 0)" clip-path="url(#clip-path-2)">
        <path id="Trazado_37" data-name="Trazado 37" d="M50.591,464.237H394.478s-9.16-2.033-16.353-3.75c-12.966-3.093-7.534-22.267-34.5-12.805,0,0-12.3-17.976-34.294-8.75,0,0,2.839-13.716-9.933-20.577s-24.123,2.365-26.017,6.858c0,0,1.892-22-20.577-31.928s-39.734,6.387-43.991,13.007c0,0-11.116-18.685-39.025-12.3s-24.6,37.842-24.6,37.842-10.406-11.116-22.7-2.839c-13.394,9.016-4.731,23.414-4.731,23.414S93.164,455.722,50.591,464.237Z" transform="translate(78.922 -174.166)" fill="#e8e8e8" opacity="0.6"/>
      </g>
      <g id="Grupo_56" data-name="Grupo 56" transform="translate(0 0)" clip-path="url(#clip-path-2)">
        <path id="Trazado_38" data-name="Trazado 38" d="M85.208,563.494H487.965s-10.729-2.381-19.154-4.39c-15.189-3.622-8.824-26.079-40.4-15,0,0-14.4-21.051-40.164-10.248,0,0,3.323-16.067-11.635-24.1s-28.255,2.77-30.469,8.033c0,0,2.217-25.761-24.1-37.394s-46.536,7.48-51.523,15.234c0,0-13.02-21.883-45.7-14.4s-28.808,44.319-28.808,44.319-12.188-13.018-26.591-3.323c-15.688,10.557-5.54,27.423-5.54,27.423S135.069,553.523,85.208,563.494Z" transform="translate(132.924 -39.104)" fill="#eaeaea" opacity="0.6"/>
      </g>
      <g id="Grupo_57" data-name="Grupo 57" transform="translate(0 0)" clip-path="url(#clip-path-2)">
        <path id="Trazado_39" data-name="Trazado 39" d="M446.53,489.984H782.4s-8.947-2.179-15.974-4.017c-12.664-3.313-7.358-23.852-33.692-13.716,0,0-12.012-19.254-33.495-9.372,0,0,2.773-14.694-9.7-22.042s-23.562,2.534-25.411,7.347c0,0,1.848-23.56-20.1-34.2s-38.807,6.84-42.967,13.934c0,0-10.857-20.014-38.116-13.174s-24.023,40.535-24.023,40.535-10.163-11.907-22.177-3.041c-13.082,9.656-4.621,25.08-4.621,25.08S488.11,480.865,446.53,489.984Z" transform="translate(696.587 -142.223)" fill="#e8e8e8" opacity="0.8"/>
      </g>
      <g id="Grupo_58" data-name="Grupo 58" transform="translate(0 0)" clip-path="url(#clip-path-2)">
        <path id="Trazado_40" data-name="Trazado 40" d="M169.005,521.379H372.328a167.593,167.593,0,0,0-26.593-6.6s2.639-11.694-12.449-16.975a9.853,9.853,0,0,0-5.471-11.5c-5.847-3.018-12.07.566-12.07.566s-2.074-13.2-16.22-14.9-15.278,8.865-15.278,8.865a16.128,16.128,0,0,0-14.147-.755,14.774,14.774,0,0,0-9.052,11.318s-10.563-6.789-18.483,5.471c0,0-10.752-6.036-21.125,4.9S202.2,517.229,169.005,521.379Z" transform="translate(263.648 -46.835)" opacity="0.4" fill="url(#linear-gradient-16)"/>
      </g>
      <g id="Grupo_59" data-name="Grupo 59" transform="translate(0 0)" clip-path="url(#clip-path-2)">
        <path id="Trazado_41" data-name="Trazado 41" d="M573.306,590.506h233.93s-15.624-6.72-30.6-9.405c0,0,3.039-16.663-14.323-24.189,0,0,2.64-10.686-6.292-16.394-6.728-4.3-13.888.806-13.888.806s-2.386-18.813-18.662-21.233S705.9,532.722,705.9,532.722a15.54,15.54,0,0,0-16.276-1.075c-9.331,4.57-10.417,16.125-10.417,16.125s-12.152-9.674-21.266,7.793c0,0-12.37-8.6-24.3,6.989S611.5,584.592,573.306,590.506Z" transform="translate(894.357 28.121)" fill="#ededed" opacity="0.4"/>
      </g>
      <g id="Grupo_60" data-name="Grupo 60" transform="translate(0 0)" clip-path="url(#clip-path-2)">
        <path id="Trazado_42" data-name="Trazado 42" d="M506.635,639.895h399.1s-57.157-15.042-62.172-20.055-.561-29.113-21.1-40.924-43.909,5.135-43.909,5.135,3.136-14.323-9.244-22.082c-9.359-5.865-20.542,2.312-20.542,2.312s-4.365-29.53-29.529-14.38c0,0-9.759-27.218-48.274-26.191s-70.1,24.65-80.115,38.259-7.959,32.612-4.879,39.8c0,0-8.729-7.447-19.771-.256s-4.109,18.744-6.421,21.568S528.216,638.479,506.635,639.895Z" transform="translate(790.351 34.133)" fill="#efefef"/>
      </g>
      <g id="Grupo_61" data-name="Grupo 61" transform="translate(0 0)" clip-path="url(#clip-path-2)">
        <path id="Trazado_43" data-name="Trazado 43" d="M-86.591,510.153H436.54s-74.921-19.715-81.492-26.289-.735-38.162-27.661-53.642-57.554,6.73-57.554,6.73,4.111-18.778-12.117-28.946c-12.268-7.688-26.926,3.029-26.926,3.029s-5.722-38.707-38.707-18.849c0,0-12.79-35.676-63.275-34.33s-91.886,32.312-105.014,50.15S13.359,450.75,17.4,460.176c0,0-11.443-9.761-25.917-.338s-5.386,24.571-8.415,28.273S-58.306,508.294-86.591,510.153Z" transform="translate(-135.082 -224.613)" fill="#e8e8e8" opacity="0.4"/>
      </g>
      <g id="Grupo_62" data-name="Grupo 62" transform="translate(0 0)" clip-path="url(#clip-path-2)">
        <path id="Trazado_44" data-name="Trazado 44" d="M1163.415,564.71H603.2s80.23-20.718,87.268-27.625.786-40.1,29.622-56.374,61.635,7.073,61.635,7.073-4.4-19.733,12.976-30.418c13.135-8.079,28.836,3.182,28.836,3.182s6.126-40.676,41.449-19.807c0,0,13.7-37.494,67.763-36.078s98.4,33.956,112.456,52.7,11.174,44.92,6.848,54.825c0,0,12.255-10.258,27.753-.353s5.768,25.82,9.011,29.711S1133.122,562.757,1163.415,564.71Z" transform="translate(941 -151.595)" fill="#efefef" opacity="0.4"/>
      </g>
      <g id="Grupo_63" data-name="Grupo 63" transform="translate(0 0)" clip-path="url(#clip-path-2)">
        <path id="Trazado_45" data-name="Trazado 45" d="M612.557,890.051,628.949,855.2l8.023-6.264,8.719-41.116s9.067-5.481,10.115-5.481,10.115-7.245,12.032-7.245,9.242-10.376,8.2-12.726,1.047-18.012,1.047-18.012,13.427-8.028,17.439-12.531,1.4-21.146,1.4-28.193-.873-16.643,0-17.621,7.672-4.7,11.858-4.306,22.845,1.761,24.067,3.134,3.487,34.066,3.837,36.416,7.5,15.468,8.719,16.837,5.929,6.656,5.929,7.831c0,.532.5,10.57,1.116,21.632,3.341-2.327,5.494-4.265,5.494-5.44,0-5.1,8.276-46.963,13.45-52.068s44.49-11.231,44.49-11.231,2.071-82.7,6.208-90.862,32.074-23.48,32.074-35.732,10.348-74.529,10.348-74.529,42.422-2.04,47.593-2.04,30.006,49,35.18,54.108,32.074,10.209,36.214,10.209,12.416,18.376,12.416,24.5,2.068,57.172,7.242,57.172,65.183,53.089,65.183,57.173,5.691,108.728,9.311,112.3,32.074,35.732,38.282,37.775,77.6,20.419,81.738,24.5,56.906,33.689,53.8,33.689H697.959s1.521-16.484,3.625-37.035H612.557Z" transform="translate(955.589 21.611)" fill="#99ddf2"/>
      </g>
      <g id="Grupo_64" data-name="Grupo 64" transform="translate(0 0)" clip-path="url(#clip-path-2)">
        <path id="Trazado_46" data-name="Trazado 46" d="M2113.046,667.357V988.62H-57.506l37.914-343.13s99.523,6.561,132.7,24.054,87.675,17.495,113.741,17.495,97.405,13.673,118.6,1.37,89.92-25.423,125.463-25.423S601.241,673.918,620.2,682.666s28.434,28.429,87.675,45.924S838.2,779.449,852.418,773.7s154.022-40.269,201.416-32.85,87.675,33.661,113.741,29.289,80.566,17.5,116.109,6.561,123.218-27.96,139.807-35.848,71.089-12.262,101.893-18.821,154.025-28.429,163.5-41.549,18.957-23.78,35.543-26.1,11.848-2.324,37.914-8.886,52.132-19.681,66.348-13.12,19.82,19.661,63.224,13.112,69.471-8.737,105.016-2.176S2113.046,667.357,2113.046,667.357Z" transform="translate(-89.709 200.905)" fill="#91cfe8"/>
      </g>
      <g id="Grupo_65" data-name="Grupo 65" transform="translate(0 0)" clip-path="url(#clip-path-2)">
        <path id="Trazado_47" data-name="Trazado 47" d="M2113.046,667.357V988.62H-57.506l37.914-343.13s99.523,6.561,132.7,24.054,87.675,17.495,113.741,17.495,97.405,13.673,118.6,1.37,89.92-25.423,125.463-25.423S601.241,673.918,620.2,682.666s28.434,28.429,87.675,45.924S838.2,779.449,852.418,773.7s154.022-40.269,201.416-32.85,87.675,33.661,113.741,29.289,80.566,17.5,116.109,6.561,123.218-27.96,139.807-35.848,71.089-12.262,101.893-18.821,154.025-28.429,163.5-41.549,18.957-23.78,35.543-26.1,11.848-2.324,37.914-8.886,52.132-19.681,66.348-13.12,19.82,19.661,63.224,13.112,69.471-8.737,105.016-2.176S2113.046,667.357,2113.046,667.357Z" transform="translate(-89.709 200.905)" fill="#bce9f7"/>
      </g>
      <g id="Grupo_66" data-name="Grupo 66" transform="translate(0 0)" clip-path="url(#clip-path-2)">
        <path id="Trazado_48" data-name="Trazado 48" d="M52.786,655.458c14.083-.709,51.922,38.838,81.766,32.351,19.395-4.216,34.383-10.962,44.081-10.12s222.845,41.027,233.316,51.039,80.335,28.234,98.7,28.234,71.59,8.307,87.258,15.792c21.507,10.276,94.116,67.459,157.765,52.572,20.439-4.78,101.85-36,131.689-28.521S958.232,798.713,997.251,811s190.339-4.616,215.588-12.895,159.521-68.227,173.291-63.875,66.565,8.819,87.222,18.606,97.728,19.533,122.975,27.341,84.925-14.392,100.994-12.2,50.5-2.194,59.679-2.194,171.428-59.963,205.422-49.405,197.151,21.053,197.151,21.053l4.1,346.662-2213.8,38.136V719.852C-50.119,719.852,36.033,656.3,52.786,655.458Z" transform="translate(-78.194 239.69)" fill="#91083d"/>
      </g>
      <g id="Grupo_67" data-name="Grupo 67" transform="translate(0 0)" clip-path="url(#clip-path-2)">
        <path id="Trazado_49" data-name="Trazado 49" d="M52.786,655.458c14.083-.709,51.922,38.838,81.766,32.351,19.395-4.216,34.383-10.962,44.081-10.12s222.845,41.027,233.316,51.039,80.335,28.234,98.7,28.234,71.59,8.307,87.258,15.792c21.507,10.276,94.116,67.459,157.765,52.572,20.439-4.78,101.85-36,131.689-28.521S958.232,798.713,997.251,811s190.339-4.616,215.588-12.895,159.521-68.227,173.291-63.875,66.565,8.819,87.222,18.606,97.728,19.533,122.975,27.341,84.925-14.392,100.994-12.2,50.5-2.194,59.679-2.194,171.428-59.963,205.422-49.405,197.151,21.053,197.151,21.053l4.1,346.662-2213.8,38.136V719.852C-50.119,719.852,36.033,656.3,52.786,655.458Z" transform="translate(-78.194 239.69)" fill="#407184"/>
      </g>
      <g id="Grupo_68" data-name="Grupo 68" transform="translate(0 0)" clip-path="url(#clip-path-2)">
        <path id="Trazado_50" data-name="Trazado 50" d="M2863.761,994.976s-145.628-209.024-172.934-218.867-45.509-10.478-69.781-10.478-257.339,23.48-279.5,5.507-119.892-6.781-141.13-13.218-128.509,87.893-164.918,96.3-121.357,44.2-154.729,22.612-109.222-44.7-130.46-44.7-145.628,18.191-157.765,28.034-42.475,41.618-84.951,47.877-200.241,50.655-227.546,45.9-134.812-38.431-137.416-40.54-13.381-4.823-17.841-4.823-12.639,5.427-17.1,4.221-30.479-3.617-40.143-4.823-55.764-29.2-65.428-30.4c-19.246-2.4-72.387-45.2-105-41.889-23.79,2.412-73.915-12.938-84.324-14.144s-73.915,25.554-84.324,20.129-30.118,9.684-37.553,7.273-31.667-19.784-41.331-19.784-64.136,11.661-83.466,9.249-75.215,1.126-91.141-1.154-59.674-9.892-71.526-16.724-80.525-19.75-91.159-30.387-75.279-75.988-86.523-77.506-36.07,1.139-41.224-3.039-59.96-19.756-65.582-24.315S33.717,663.241,19.663,660.2s-64.645-3.8-80.571-7.6-83.382-10.639-83.382-10.639v526.592H2842.795Z" transform="translate(-225.093 218.656)" fill="#5b99b8"/>
      </g>
      <g id="Grupo_69" data-name="Grupo 69" transform="translate(0 0)" clip-path="url(#clip-path-2)">
        <path id="Trazado_51" data-name="Trazado 51" d="M625.25,716.362c-1.549-2.87-12.081-.765-13.01.766s-1.549,9.377-1.239,12.247.62,22.771.62,28.513-9.6,4.4-9.6,4.4a49.3,49.3,0,0,1-.929-9.567c0-5.358,1.859-62.19,1.859-69.271s-4.027-7.081-8.364-7.081-9.6,3.254-9.293,5.932-.929,20.667-.62,29.087.929,36.741.929,36.741c-8.054.766-11.272-2.3-11.272-4.976s.43-20.093.43-24.11a5.963,5.963,0,0,0-7.125-6.124,7.15,7.15,0,0,0-6.505,6.889c0,3.254-1.239,21.048,0,27.556s4.027,8.228,7.744,8.612,18.586-.765,18.586-.765l.619,39.037,12.7,1.339-.62-24.3s19.669-3.156,22.922-5.166,2.168-16.456,2.788-23.729S626.8,719.235,625.25,716.362Z" transform="translate(874.503 272.328)" fill="#5b99b8"/>
      </g>
      <g id="Grupo_70" data-name="Grupo 70" transform="translate(0 0)" clip-path="url(#clip-path-2)">
        <path id="Trazado_52" data-name="Trazado 52" d="M208.057,756.683c-6.2-3-22.554-8.412-22.554-8.412a100.063,100.063,0,0,1,23.276,3.656c-2.929-3.85-16.394-15.235-16.394-15.235a191.712,191.712,0,0,1,20.242,12.152c-5.875-12.165-20.081-30.228-20.081-30.228,14.362,12.142,24.753,28.278,24.753,28.278-2.606-13.012-14.618-52.14-14.618-52.14,7.724,14.034,19,47.373,19,47.373-1.8-17.244-.233-40.714-.233-40.714.945,6.292,5.409,43.871,5.409,43.871,1.311-11.279,7.519-25.615,7.519-25.615-1.313,4.308-2.854,21.875-2.854,21.875,4.2-10.284,17.408-26.742,17.408-26.742-5.788,10.163-13.862,31.214-13.862,31.214,16.722-12.163,31.16-13.435,31.16-13.435-10.772,3.94-26.212,17.7-26.212,17.7a92.256,92.256,0,0,1,25.472-3.466c-9.016,1.71-24.712,8.535-24.712,8.535L226.97,765.6l-12.915-4.634c-12.687-1.848-21.225-2.176-21.225-2.176A50.9,50.9,0,0,1,208.057,756.683Z" transform="translate(289.385 301.007)" fill="#5b99b8"/>
      </g>
      <g id="Grupo_71" data-name="Grupo 71" transform="translate(0 0)" clip-path="url(#clip-path-2)">
        <path id="Trazado_53" data-name="Trazado 53" d="M605.414,738.439c-3-2.455-11.236-7.56-11.236-7.56a56.282,56.282,0,0,1,12.255,5.053c-1.1-2.491-6.971-10.483-6.971-10.483a107.927,107.927,0,0,1,9.48,9.3c-1.618-7.427-7.022-19.172-7.022-19.172a81.72,81.72,0,0,1,9.833,18.716c.282-7.462-1.16-30.444-1.16-30.444,2.386,8.691,4.181,28.408,4.181,28.408,1.275-9.672,5.212-22.308,5.212-22.308-.31,3.566-2.793,24.712-2.793,24.712,2.2-6,7.473-13.028,7.473-13.028-1.283,2.186-4.432,11.594-4.432,11.594,3.648-5.074,13.031-12.347,13.031-12.347-4.5,4.8-11.679,15.26-11.679,15.26,10.745-4.459,18.811-3.264,18.811-3.264-6.41.742-16.661,6.244-16.661,6.244a51.876,51.876,0,0,1,14.392,1.444c-5.158-.246-14.641,1.428-14.641,1.428l-8.9,3.8-6.459-4.229c-6.7-2.675-11.328-3.973-11.328-3.973A28.722,28.722,0,0,1,605.414,738.439Z" transform="translate(926.918 315.201)" fill="#5b99b8"/>
      </g>
      <g id="Grupo_72" data-name="Grupo 72" transform="translate(0 0)" clip-path="url(#clip-path-2)">
        <path id="Trazado_54" data-name="Trazado 54" d="M534.128,757.941c-5.028.148-17.871,1.948-17.871,1.948a100.909,100.909,0,0,1,17.6-4.82c-2.783-1.29-14.518-3.686-14.518-3.686a150.156,150.156,0,0,1,16.812.829c-6.326-5.074-19.717-10.987-19.717-10.987a85.007,85.007,0,0,1,22.8,8.517c-4.081-6.51-19.4-24.855-19.4-24.855,7.987,5.573,21.8,20.9,21.8,20.9-4.2-9.114-6.984-22.707-6.984-22.707,1.743,3.241,11.292,22.945,11.292,22.945-.929-6.7,1.2-16.548,1.2-16.548-.238,2.8,1.577,13.079,1.577,13.079,1.347-6.992,8.233-20.094,8.233-20.094-2.524,7.393-4.895,21.55-4.895,21.55,10.171-11.735,20.5-16.707,20.5-16.707-7.2,5.381-16.172,17.631-16.172,17.631a99.562,99.562,0,0,1,18.015-9.452c-6.3,3.618-16.612,12.063-16.612,12.063l-18.562,11.023c-9.569,2.708-15.859,5.043-15.859,5.043A54.839,54.839,0,0,1,534.128,757.941Z" transform="translate(805.361 344.227)" fill="#5b99b8"/>
      </g>
      <g id="Grupo_73" data-name="Grupo 73" transform="translate(0 0)" clip-path="url(#clip-path-2)">
        <path id="Trazado_55" data-name="Trazado 55" d="M228.886,673.529c3.656,0,6.423,3.323,6.756,6.976s-.333,35-.333,39.759,6.615,6.09,6.615,6.09.474-40.645.031-49.838,4.1-15.616,11.517-14.73,11.517,8.417,11.517,16.392-1.439,71.877-1.439,71.877c4.319-1.108,7.089-2.547,7.089-6.646s-.333-33.224-.776-37.322.443-9.526,5.315-9.413,7.309,5.314,7.419,11.074-.553,29.571-3.433,39.427-16.369,11.84-16.369,11.84l-3.63,43.039h-10.9l-5.647-66.839a18,18,0,0,1-17.055-14.065c-.886-4.209-1.772-25.362-2.657-34.552S225.233,673.529,228.886,673.529Z" transform="translate(347.501 249.449)" fill="#5b99b8"/>
      </g>
      <g id="Grupo_74" data-name="Grupo 74" transform="translate(0 0)" clip-path="url(#clip-path-2)">
        <path id="Trazado_56" data-name="Trazado 56" d="M241.625,725.247l-2.345-.919c4.879-7.859,13.448-13.053,13.448-13.053C247.815,715.765,241.625,725.247,241.625,725.247Z" transform="translate(373.277 326.779)" fill="#5b99b8"/>
        <path id="Trazado_57" data-name="Trazado 57" d="M248.255,705.76a122.45,122.45,0,0,1-6.011,20.634,118.828,118.828,0,0,1,15.068-19.684c-6.6,8.8-15.921,26.281-15.921,26.281l-1.661-.65-.684-.266-1.029-.4S245.424,715.122,248.255,705.76Z" transform="translate(371.308 318.176)" fill="#5b99b8"/>
        <path id="Trazado_58" data-name="Trazado 58" d="M237.595,725.724s-1.272-11.174-3.725-17.881c0,0,5.532,9.828,6.351,18.911Z" transform="translate(364.837 321.424)" fill="#5b99b8"/>
        <path id="Trazado_59" data-name="Trazado 59" d="M239.993,733.15a193.6,193.6,0,0,0,2.191-20.9,105.255,105.255,0,0,1,.312,13.6,220.469,220.469,0,0,0,4.18-22.659,139.271,139.271,0,0,1-1.487,21.2c1.979-7.636,4.186-16.8,5.248-23.447a181.269,181.269,0,0,1-6.807,38.7l-1.457-.571-.891-.348-.125-.048-.968-.379-.64-.251-.307-.12-1.679-.655s-.394-19.105-2.373-30.083A125.268,125.268,0,0,1,239.993,733.15Z" transform="translate(366.896 310.669)" fill="#5b99b8"/>
      </g>
      <g id="Grupo_75" data-name="Grupo 75" transform="translate(0 0)" clip-path="url(#clip-path-2)">
        <path id="Trazado_60" data-name="Trazado 60" d="M236.5,724.123l-2.506.251c.763-9.219,6.026-17.746,6.026-17.746C237.693,712.859,236.5,724.123,236.5,724.123Z" transform="translate(365.034 319.53)" fill="#5b99b8"/>
        <path id="Trazado_61" data-name="Trazado 61" d="M231.6,704.861a122.362,122.362,0,0,1,4.045,21.107,118.873,118.873,0,0,1,4.452-24.386c-1.869,10.836-2.2,30.648-2.2,30.648l-1.777.177-.73.074-1.1.11S233.34,714.485,231.6,704.861Z" transform="translate(361.294 311.658)" fill="#5b99b8"/>
        <path id="Trazado_62" data-name="Trazado 62" d="M236.754,722.65s-6.221-9.367-11.461-14.223c0,0,9.4,6.231,14.264,13.942Z" transform="translate(351.457 322.336)" fill="#5b99b8"/>
        <path id="Trazado_63" data-name="Trazado 63" d="M240.533,732.405a194.326,194.326,0,0,0-7.565-19.6,105.346,105.346,0,0,1,6.474,11.968,220.95,220.95,0,0,0-6.6-22.077,138.866,138.866,0,0,1,8.328,19.548c-1.715-7.7-3.922-16.858-6.006-23.265a181.2,181.2,0,0,1,11.566,37.555l-1.554.156-.95.095-.136.013-1.034.105-.684.069-.328.033-1.792.179s-9.052-16.829-15.813-25.7A126.2,126.2,0,0,1,240.533,732.405Z" transform="translate(350.131 307.59)" fill="#5b99b8"/>
      </g>
      <g id="Grupo_76" data-name="Grupo 76" transform="translate(0 0)" clip-path="url(#clip-path-2)">
        <path id="Trazado_64" data-name="Trazado 64" d="M573.583,732.872l-2.506.251c.763-9.219,6.026-17.746,6.026-17.746C574.774,721.611,573.583,732.872,573.583,732.872Z" transform="translate(890.88 333.179)" fill="#5b99b8"/>
        <path id="Trazado_65" data-name="Trazado 65" d="M568.68,713.61a122.5,122.5,0,0,1,4.047,21.107,118.773,118.773,0,0,1,4.449-24.387c-1.869,10.836-2.2,30.648-2.2,30.648l-1.777.177-.729.074-1.1.11S570.421,723.236,568.68,713.61Z" transform="translate(887.141 325.307)" fill="#5b99b8"/>
        <path id="Trazado_66" data-name="Trazado 66" d="M573.835,731.4s-6.221-9.37-11.461-14.223c0,0,9.4,6.231,14.267,13.942Z" transform="translate(877.303 335.985)" fill="#5b99b8"/>
        <path id="Trazado_67" data-name="Trazado 67" d="M577.614,741.153a194,194,0,0,0-7.565-19.6,105.325,105.325,0,0,1,6.474,11.968,220.961,220.961,0,0,0-6.6-22.078,138.849,138.849,0,0,1,8.328,19.548c-1.715-7.7-3.922-16.86-6.006-23.265a181.207,181.207,0,0,1,11.566,37.555l-1.556.156-.95.095-.133.013-1.034.1-.684.069-.328.033-1.792.179s-9.052-16.829-15.813-25.7A126.147,126.147,0,0,1,577.614,741.153Z" transform="translate(875.977 321.24)" fill="#5b99b8"/>
      </g>
      <g id="Grupo_77" data-name="Grupo 77" transform="translate(0 0)" clip-path="url(#clip-path-2)">
        <path id="Trazado_68" data-name="Trazado 68" d="M618.411,731.534l-2.232-1.167c5.7-7.286,14.779-11.523,14.779-11.523C625.589,722.776,618.411,731.534,618.411,731.534Z" transform="translate(961.239 338.587)" fill="#5b99b8"/>
        <path id="Trazado_69" data-name="Trazado 69" d="M627.956,713.089a122.323,122.323,0,0,1-8.207,19.863,118.862,118.862,0,0,1,17.109-17.938c-7.511,8.031-18.668,24.407-18.668,24.407l-1.582-.827-.65-.34-.978-.512S624.128,722.09,627.956,713.089Z" transform="translate(959.367 329.609)" fill="#5b99b8"/>
        <path id="Trazado_70" data-name="Trazado 70" d="M613.492,732.458s-.056-11.246-1.769-18.181c0,0,4.436,10.371,4.267,19.487Z" transform="translate(954.288 331.463)" fill="#5b99b8"/>
        <path id="Trazado_71" data-name="Trazado 71" d="M616.029,739.1a193.509,193.509,0,0,0,4.439-20.539,105.217,105.217,0,0,1-1.16,13.558,219.821,219.821,0,0,0,6.6-22.075,138.7,138.7,0,0,1-3.773,20.91c2.8-7.378,5.978-16.243,7.754-22.743a181.288,181.288,0,0,1-10.952,37.737l-1.385-.725-.847-.443-.12-.061-.922-.481-.609-.318-.292-.154-1.6-.835s1.674-19.033.893-30.162A125.469,125.469,0,0,1,616.029,739.1Z" transform="translate(956.544 321.998)" fill="#5b99b8"/>
      </g>
      <g id="Grupo_78" data-name="Grupo 78" transform="translate(0 0)" clip-path="url(#clip-path-2)">
        <path id="Trazado_72" data-name="Trazado 72" d="M39.955,714.986l-2.9-1.2c6.28-9.664,17.085-15.915,17.085-15.915C47.911,703.333,39.955,714.986,39.955,714.986Z" transform="translate(57.809 305.863)" fill="#5b99b8"/>
        <path id="Trazado_73" data-name="Trazado 73" d="M48.916,690.932A152.369,152.369,0,0,1,40.9,716.481a148.122,148.122,0,0,1,19.274-24.133c-8.445,10.788-20.506,32.33-20.506,32.33l-2.053-.853-.845-.351-1.27-.527S45.145,702.521,48.916,690.932Z" transform="translate(55.378 295.044)" fill="#5b99b8"/>
        <path id="Trazado_74" data-name="Trazado 74" d="M34.717,715.687s-1.3-13.952-4.18-22.372c0,0,6.638,12.385,7.427,23.719Z" transform="translate(47.638 298.762)" fill="#5b99b8"/>
        <path id="Trazado_75" data-name="Trazado 75" d="M37.61,724.763c1.175-6.9,2.952-18.33,3.267-25.974a131.009,131.009,0,0,1,.041,16.952c2.232-8.952,4.764-20.076,5.788-28.119a173.141,173.141,0,0,1-2.4,26.365c2.662-9.462,5.645-20.813,7.14-29.074a225.886,225.886,0,0,1-9.472,48.033l-1.8-.748-1.1-.456-.156-.064-1.2-.5-.791-.328-.379-.156-2.074-.86s0-23.808-2.184-37.532A156.518,156.518,0,0,1,37.61,724.763Z" transform="translate(50.385 285.656)" fill="#5b99b8"/>
      </g>
      <g id="Grupo_79" data-name="Grupo 79" transform="translate(0 0)" clip-path="url(#clip-path-2)">
        <path id="Trazado_76" data-name="Trazado 76" d="M358.249,760.223l-2.706.015c1.749-9.784,8.236-18.373,8.236-18.373C360.66,748.3,358.249,760.223,358.249,760.223Z" transform="translate(554.647 374.5)" fill="#5b99b8"/>
        <path id="Trazado_77" data-name="Trazado 77" d="M354.058,738.974a131.394,131.394,0,0,1,2.2,22.986,127.61,127.61,0,0,1,7.222-25.636c-3.09,11.4-5.45,32.561-5.45,32.561l-1.917.01-.789.005-1.188.008S354.949,749.444,354.058,738.974Z" transform="translate(552.331 365.856)" fill="#5b99b8"/>
        <path id="Trazado_78" data-name="Trazado 78" d="M357.576,759.045s-5.711-10.647-10.824-16.371c0,0,9.426,7.613,13.852,16.353Z" transform="translate(540.933 375.762)" fill="#5b99b8"/>
        <path id="Trazado_79" data-name="Trazado 79" d="M361.408,769.2a208.51,208.51,0,0,0-6.116-21.732,113.132,113.132,0,0,1,5.716,13.456,236.786,236.786,0,0,0-4.831-24.279,148.985,148.985,0,0,1,6.935,21.75c-1.057-8.409-2.5-18.429-4.078-25.493a194.8,194.8,0,0,1,8.584,41.336l-1.679.01-1.027.005h-.146l-1.116.008-.74.005-.353,0-1.935.01s-7.985-18.913-14.321-29.087A135.115,135.115,0,0,1,361.408,769.2Z" transform="translate(540.23 360.516)" fill="#5b99b8"/>
      </g>
      <g id="Grupo_80" data-name="Grupo 80" transform="translate(0 0)" clip-path="url(#clip-path-2)">
        <path id="Trazado_80" data-name="Trazado 80" d="M480.436,816.846c.374-5.96,0-44.892,0-52.9s2.793-8.568,4.47-8.568,4.972,1.864,4.972,7.078.43,41.165.056,47.127,1.119,9.687,3.912,9.687,5.215-4.47,5.589-12.48,2.048-84.754,2.048-95.183,3.725-10.432,6.147-9.871,4.47,3.725,4.47,8.2-1.119,73.2-1.119,83.264.745,13.783,4.657,13.412,4.657-6.7,4.657-10.432,0-117.3.187-125.12,6.333-6.7,7.636-4.469,1.49,10.245,1.119,25.147-.745,110.218-1.49,114.688,1.582,14.062,2.98,15.46,4.285-.745,4.285-6.333.745-76.93.932-83.448,7.636-5.4,8.939-3.353,1.864,4.844,1.864,14.9-1.213,65.779-1.213,76.828-2.286,11.428-5.714,14.858-10.667,1.523-14.1,5.714-3.809,41.523-3.809,51.809l-18.939-1.495s1.677-58.3,0-60.539-10.245-1.49-14.531-1.49S480.065,822.809,480.436,816.846Z" transform="translate(749.444 254.498)" fill="#5b99b8"/>
      </g>
      <g id="Grupo_81" data-name="Grupo 81" transform="translate(0 0)" clip-path="url(#clip-path-2)">
        <path id="Trazado_81" data-name="Trazado 81" d="M369.571,702.149c1.19-12.283,9.912-15.015,13.084-9.554s5.153,11.83,3.569,23.2-1.587,27.3,1.19,32.758,19.822,10.919,19.822,10.919,1.585-30.482,2.378-48.681,14.669-30.938,26.959-24.113,15.462,29.118,13.082,43.22-6.74,47.77-6.74,47.77c3.966,3.185,16.65-2.729,18.634-9.554s2.775-27.3,3.965-35.031,5.947-14.1,9.516-13.647,9.516,7.278,9.516,12.283-3.966,43.676-4.757,50.5-14.669,20.928-22.994,22.748-21.013,1.364-21.013,1.364l-7.137,68.242-18.286.33-6.231-99.054c-24.517-1.82-33.367-21.384-34.954-25.021S368.381,714.432,369.571,702.149Z" transform="translate(574.526 285.494)" fill="#244c59"/>
      </g>
      <g id="Grupo_82" data-name="Grupo 82" transform="translate(0 0)" clip-path="url(#clip-path-2)">
        <path id="Trazado_82" data-name="Trazado 82" d="M648.636,740.576c1.654-5.222,12.905-1.393,13.9,1.393s1.654,17.06,1.324,22.285-.663,41.433-.663,51.881,10.258,8.008,10.258,8.008a150.669,150.669,0,0,0,.993-17.41c0-9.749-1.987-113.162-1.987-126.044s4.3-12.882,8.935-12.882,10.258,5.919,9.927,10.793.993,37.6.661,52.926-.993,66.852-.993,66.852c8.6,1.393,12.042-4.178,12.042-9.052s-.458-36.559-.458-43.873,3.31-12.186,7.611-11.141,6.951,6.615,6.951,12.534,1.324,38.3,0,50.14-4.3,14.971-8.274,15.667S689,811.257,689,811.257l-.663,71.03-13.568,2.437.66-44.219s-21.012-5.745-24.486-9.4-2.317-29.945-2.977-43.177S646.982,745.8,648.636,740.576Z" transform="translate(1009.993 258.966)" fill="#244c59"/>
      </g>
      <g id="Grupo_83" data-name="Grupo 83" transform="translate(0 0)" clip-path="url(#clip-path-2)">
        <path id="Trazado_83" data-name="Trazado 83" d="M117.458,737.514c2.148-5.64,16.753-1.505,18.04,1.505s2.148,18.427,1.718,24.066-.86,44.751-.86,56.031,13.315,8.65,13.315,8.65a136.018,136.018,0,0,0,1.288-18.8c0-10.529-2.578-122.217-2.578-136.131s5.583-13.914,11.6-13.914,13.315,6.392,12.887,11.658,1.288,40.614.86,57.16-1.288,72.2-1.288,72.2c11.169,1.505,15.631-4.513,15.631-9.777s-.6-39.485-.6-47.383,4.3-13.161,9.879-12.034,9.019,7.145,9.019,13.537,1.718,41.365,0,54.152-5.583,16.169-10.739,16.921-25.772-1.5-25.772-1.5L169,890.57l-17.61,2.632.86-47.76s-27.274-6.205-31.785-10.153-3.005-32.34-3.866-46.63S115.31,743.154,117.458,737.514Z" transform="translate(180.795 245.106)" fill="#244c59"/>
      </g>
      <g id="Grupo_84" data-name="Grupo 84" transform="translate(0 0)" clip-path="url(#clip-path-2)">
        <path id="Trazado_84" data-name="Trazado 84" d="M626.662,807.251c-10.171-5.35-37.681-16.054-37.681-16.054a218.56,218.56,0,0,1,40.225,9.731c-4.163-5.837-24.968-24.079-24.968-24.079a337.973,337.973,0,0,1,32.6,20.674c-7.166-17.756-27.51-45.243-27.51-45.243,22.193,19.459,36.293,43.541,36.293,43.541-1.157-18.243-12.022-73.946-12.022-73.946,9.94,20.675,21.038,68.349,21.038,68.349,1.388-23.836,10.4-55.458,10.4-55.458,0,8.758-2.081,60.811-2.081,60.811,5.317-15.081,20.111-33.324,20.111-33.324-3.466,5.594-10.865,29.189-10.865,29.189,10.171-13.135,37.913-32.837,37.913-32.837-12.946,12.649-32.827,39.649-32.827,39.649,32.827-13.135,58.719-11.919,58.719-11.919-20.111,3.162-51.09,18.729-51.09,18.729a214.114,214.114,0,0,1,46,.486c-16.412.486-46,6.566-46,6.566l-48.778,2.189c-21.962-5.107-36.987-7.3-36.987-7.3A117.93,117.93,0,0,1,626.662,807.251Z" transform="translate(918.81 343.315)" fill="#244c59"/>
      </g>
      <g id="Grupo_85" data-name="Grupo 85" transform="translate(0 0)" clip-path="url(#clip-path-2)">
        <path id="Trazado_85" data-name="Trazado 85" d="M664.618,770.007c-4.48-2.355-16.591-7.068-16.591-7.068a96.266,96.266,0,0,1,17.71,4.283c-1.833-2.57-10.993-10.6-10.993-10.6a148.611,148.611,0,0,1,14.351,9.1c-3.156-7.818-12.114-19.92-12.114-19.92a88,88,0,0,1,15.979,19.172c-.509-8.033-5.294-32.558-5.294-32.558,4.378,9.1,9.262,30.1,9.262,30.1.612-10.5,4.58-24.42,4.58-24.42,0,3.855-.917,26.775-.917,26.775,2.34-6.641,8.855-14.674,8.855-14.674-1.526,2.463-4.785,12.851-4.785,12.851,4.48-5.783,16.694-14.459,16.694-14.459-5.7,5.571-14.454,17.456-14.454,17.456,14.454-5.783,25.853-5.248,25.853-5.248-8.855,1.393-22.495,8.246-22.495,8.246a94.267,94.267,0,0,1,20.255.215c-7.227.215-20.255,2.89-20.255,2.89l-21.476.965c-9.669-2.248-16.287-3.213-16.287-3.213A52.134,52.134,0,0,1,664.618,770.007Z" transform="translate(1010.922 359.759)" fill="#244c59"/>
      </g>
      <g id="Grupo_86" data-name="Grupo 86" transform="translate(0 0)" clip-path="url(#clip-path-2)">
        <path id="Trazado_86" data-name="Trazado 86" d="M702.859,792.794c-7.188-4.214-26.434-12.313-26.434-12.313a122.241,122.241,0,0,1,27.827,6.676c-3.133-4.91-18.219-19.9-18.219-19.9a230.275,230.275,0,0,1,23.222,16.581c-5.8-15.183-21.058-38.264-21.058-38.264,16.095,15.99,26.936,36.38,26.936,36.38-1.743-15.88-12.05-64.031-12.05-64.031,7.836,17.605,17.879,58.737,17.879,58.737-.31-20.88,4.15-48.9,4.15-48.9.461,7.647,1.782,53.2,1.782,53.2,2.819-13.409,11.906-30.011,11.906-30.011-2.061,5.043-5.844,25.981-5.844,25.981,6.218-11.929,24.02-30.392,24.02-30.392-8.125,11.633-20.209,36.109-20.209,36.109,21.6-12.956,39.25-13.066,39.25-13.066-13.491,3.671-33.71,18.667-33.71,18.667a113.512,113.512,0,0,1,31.268-1.656c-11.121,1.167-30.9,7.816-30.9,7.816l-33.009,4.119c-15.181-3.466-25.5-4.7-25.5-4.7A62.688,62.688,0,0,1,702.859,792.794Z" transform="translate(1055.223 337.152)" fill="#244c59"/>
      </g>
      <g id="Grupo_87" data-name="Grupo 87" transform="translate(0 0)" clip-path="url(#clip-path-2)">
        <path id="Trazado_87" data-name="Trazado 87" d="M717,775.239c-4.885-6.021-19-19.789-19-19.789a136.9,136.9,0,0,1,22.057,16.172c-1.126-4.9-9.372-22.1-9.372-22.1A229.468,229.468,0,0,1,725.5,771.179c-.095-13.594-5.847-36.856-5.847-36.856,8.8,18.343,11.579,37.832,11.579,37.832,3.666-12.475,10.414-52.321,10.414-52.321,1.078,16.21-3.61,50.75-3.61,50.75,6.546-15.6,19.584-34.575,19.584-34.575-2.1,5.855-15.818,40.151-15.818,40.151,6.833-8.8,20.17-17.444,20.17-17.444-3.441,2.908-13.573,16.9-13.573,16.9,9.311-6.336,30.845-12.841,30.845-12.841-10.877,5.345-29.391,18.616-29.391,18.616,23.045-.891,38.451,6.144,38.451,6.144-12.948-2.721-35.456.243-35.456.243a128.688,128.688,0,0,1,27.773,11.382c-10.066-3.62-29.46-6.666-29.46-6.666l-30.1-10.26c-12.091-8.694-20.677-13.768-20.677-13.768A71.034,71.034,0,0,1,717,775.239Z" transform="translate(1088.877 340.13)" fill="#244c59"/>
      </g>
      <g id="Grupo_88" data-name="Grupo 88" transform="translate(0 0)" clip-path="url(#clip-path-2)">
        <path id="Trazado_88" data-name="Trazado 88" d="M396.492,796.141c-7.987-2.875-29.235-7.877-29.235-7.877a161.067,161.067,0,0,1,30.51,2.959c-3.612-3.861-20.639-15.112-20.639-15.112a246.577,246.577,0,0,1,25.93,11.809c-6.945-12.316-24.5-30.413-24.5-30.413a145.508,145.508,0,0,1,30.807,28.245c-2.57-13.3-15.813-53.146-15.813-53.146,9.262,14.172,21.919,48.089,21.919,48.089-1.226-17.682,2.424-41.887,2.424-41.887.824,6.441,4.2,44.953,4.2,44.953,2.491-11.651,11.656-26.616,11.656-26.616-2.025,4.478-5.243,22.607-5.243,22.607,6.246-10.726,24.8-28.114,24.8-28.114-8.333,10.657-20.413,32.594-20.413,32.594,22.912-13.089,42.076-14.9,42.076-14.9-14.5,4.426-35.819,19.11-35.819,19.11A159.228,159.228,0,0,1,473.034,784c-12.029,2.071-33.226,9.633-33.226,9.633l-35.679,6.7c-16.637-1.467-27.9-1.508-27.9-1.508A88.048,88.048,0,0,1,396.492,796.141Z" transform="translate(572.921 360.057)" fill="#244c59"/>
      </g>
      <g id="Grupo_89" data-name="Grupo 89" transform="translate(0 0)" clip-path="url(#clip-path-2)">
        <path id="Trazado_89" data-name="Trazado 89" d="M206.577,798.659c-7.153-4.718-26.755-14.694-26.755-14.694a163.724,163.724,0,0,1,29.061,10.212c-2.678-4.626-16.814-19.669-16.814-19.669a254.515,254.515,0,0,1,22.682,17.726c-4.091-13.66-17.257-35.5-17.257-35.5a150.47,150.47,0,0,1,23.864,34.9c.384-13.565-3.863-55.542-3.863-55.542,5.942,16.023,10.906,52.086,10.906,52.086,2.642-17.51,11.451-40.2,11.451-40.2-.594,6.469-5.665,44.777-5.665,44.777,4.951-10.744,17.124-23.112,17.124-23.112C248.369,773.52,241.3,790.4,241.3,790.4c8.407-8.942,30.244-21.414,30.244-21.414-10.424,8.374-26.947,26.829-26.947,26.829,25.147-7.24,44.2-4.4,44.2-4.4-15.076.824-39.022,10-39.022,10a159.3,159.3,0,0,1,33.958,3.817c-12.16-.873-34.437,1.4-34.437,1.4L213.1,804.581c-15.882-5.425-26.834-8.172-26.834-8.172A88.025,88.025,0,0,1,206.577,798.659Z" transform="translate(280.522 365.496)" fill="#244c59"/>
      </g>
      <g id="Grupo_90" data-name="Grupo 90" transform="translate(0 0)" clip-path="url(#clip-path-2)">
        <path id="Trazado_90" data-name="Trazado 90" d="M153.128,781.147c-7.091-4.818-26.565-15.068-26.565-15.068A163.918,163.918,0,0,1,155.491,776.7c-2.619-4.664-16.563-19.9-16.563-19.9a254.694,254.694,0,0,1,22.454,18.046c-3.917-13.716-16.8-35.738-16.8-35.738a150.739,150.739,0,0,1,23.416,35.233c.558-13.56-3.156-55.591-3.156-55.591,5.737,16.108,10.243,52.234,10.243,52.234,2.865-17.472,11.96-40.033,11.96-40.033-.676,6.461-6.234,44.693-6.234,44.693,5.089-10.673,17.416-22.869,17.416-22.869-2.99,3.832-10.273,20.608-10.273,20.608,8.52-8.822,30.513-20.987,30.513-20.987-10.529,8.225-27.284,26.447-27.284,26.447,25.236-6.884,44.247-3.773,44.247-3.773-15.084.614-39.145,9.449-39.145,9.449a159.438,159.438,0,0,1,33.907,4.293c-12.15-1.044-34.452.911-34.452.911l-36.163-2.557c-15.811-5.647-26.729-8.548-26.729-8.548A88.025,88.025,0,0,1,153.128,781.147Z" transform="translate(197.438 338.433)" fill="#244c59"/>
      </g>
      <g id="Grupo_91" data-name="Grupo 91" transform="translate(0 0)" clip-path="url(#clip-path-2)">
        <path id="Trazado_91" data-name="Trazado 91" d="M131.681,772.135c-5.361-2.391-19.743-6.932-19.743-6.932a111.631,111.631,0,0,1,20.849,3.615c-2.3-2.842-13.489-11.464-13.489-11.464a171.548,171.548,0,0,1,17.285,9.467c-4.2-8.832-15.434-22.19-15.434-22.19a101.41,101.41,0,0,1,19.871,21.023c-1.147-9.282-8.392-37.379-8.392-37.379,5.709,10.23,12.828,34.214,12.828,34.214-.018-12.226,3.628-28.687,3.628-28.687.266,4.475.788,31.14.788,31.14,2.258-7.885,9.262-17.705,9.262-17.705-1.6,2.975-4.664,15.281-4.664,15.281,4.8-7.053,18.371-18.056,18.371-18.056-6.228,6.9-15.565,21.366-15.565,21.366,16.374-7.818,29.64-8.069,29.64-8.069-10.181,2.294-25.533,11.292-25.533,11.292a109.761,109.761,0,0,1,23.521-1.3c-8.371.8-23.306,4.905-23.306,4.905l-24.858,2.762c-11.377-1.869-19.121-2.483-19.121-2.483A60.86,60.86,0,0,1,131.681,772.135Z" transform="translate(174.623 353.298)" fill="#244c59"/>
      </g>
      <g id="Grupo_92" data-name="Grupo 92" transform="translate(0 0)" clip-path="url(#clip-path-2)">
        <path id="Trazado_92" data-name="Trazado 92" d="M54.249,703.375c17.846,5.176,85.658,20.711,107.075,22.436s96.366,12.081,112.428,12.081,57.106,55.224,74.952,65.579,119.565,3.451,139.195,10.355,39.26,27.612,76.736,37.967,192.732,10.355,292.667,8.63,330.143-44.869,362.263-53.5,58.89-26.074,83.873-20.895,240.914,46.781,264.113,50.235,189.164-20.711,203.438-20.711H1862c19.63,0,157.041-22.436,194.516-29.338s92.8-48.323,92.8-48.323l-5.353,245.064H-42.117V706.827S36.4,698.2,54.249,703.375Z" transform="translate(-65.703 311.875)" fill="#244c59"/>
      </g>
      <g id="Grupo_93" data-name="Grupo 93" transform="translate(0 0)" clip-path="url(#clip-path-2)">
        <path id="Trazado_93" data-name="Trazado 93" d="M677.435,885.348c.747-12.588,0-94.81,0-111.726s5.609-18.1,8.973-18.1,9.981,3.935,9.981,14.948.86,86.94.113,99.53,2.245,20.457,7.851,20.457,10.468-9.441,11.218-26.358,4.114-179,4.114-201.027,7.478-22.031,12.339-20.851S741,650.091,741,659.535s-2.242,154.606-2.242,175.849,1.495,29.112,9.346,28.324,9.347-14.162,9.347-22.031,0-247.726.374-264.248,12.713-14.162,15.329-9.441,2.99,21.637,2.243,53.11S773.9,853.875,772.4,863.316s3.18,29.7,5.983,32.653,8.6-1.574,8.6-13.376,1.495-162.473,1.869-176.243,15.329-11.407,17.946-7.081,3.738,10.23,3.738,31.473S808.1,869.668,808.1,893s-4.587,24.136-11.469,31.378-21.412,3.218-28.293,12.068-7.647,87.7-7.647,109.42l-38.016-3.159s3.364-123.134,0-127.854-20.564-3.146-29.164-3.146S676.687,897.935,677.435,885.348Z" transform="translate(1056.725 97.826)" fill="#244c59"/>
      </g>
      <g id="Grupo_94" data-name="Grupo 94" transform="translate(0 0)" clip-path="url(#clip-path-2)">
        <path id="Trazado_94" data-name="Trazado 94" d="M71.516,619.241c8.082,0,14.205,8.5,14.94,17.848s-.735,89.521-.735,101.7,14.63,15.58,14.63,15.58,1.044-103.969.067-127.483,9.062-39.944,25.472-37.678,25.472,21.529,25.472,41.927S148.177,815,148.177,815c9.551-2.834,15.675-6.515,15.675-17s-.735-84.989-1.715-95.47.98-24.364,11.756-24.079,16.164,13.6,16.41,28.329-1.224,75.64-7.593,100.854-36.2,30.285-36.2,30.285l-8.028,110.093H114.375l-12.49-170.975c-26.207-1.7-35.758-25.213-37.719-35.978s-3.919-64.875-5.878-88.389S63.434,619.241,71.516,619.241Z" transform="translate(90.417 136.036)" fill="#244c59"/>
      </g>
      <g id="Grupo_95" data-name="Grupo 95" transform="translate(0 0)" clip-path="url(#clip-path-2)">
        <path id="Trazado_95" data-name="Trazado 95" d="M85,746.761l-6.669,1.016c.96-26.02,14.024-50.65,14.024-50.65C86.866,714.943,85,746.761,85,746.761Z" transform="translate(122.204 304.71)" fill="#244c59"/>
        <path id="Trazado_96" data-name="Trazado 96" d="M70.673,693.386a359.37,359.37,0,0,1,13.294,58.857A350.726,350.726,0,0,1,93,683.115c-3.72,30.7-2.289,86.459-2.289,86.459l-4.726.719-1.943.3-2.924.446S76.456,720.238,70.673,693.386Z" transform="translate(110.25 282.85)" fill="#244c59"/>
        <path id="Trazado_97" data-name="Trazado 97" d="M86.774,742.136s-17.731-25.577-32.3-38.582c0,0,25.856,16.364,39.764,37.445Z" transform="translate(84.976 314.735)" fill="#244c59"/>
        <path id="Trazado_98" data-name="Trazado 98" d="M97.139,769.9c-5.42-14.758-14.7-38.992-22.523-54.193a299.34,299.34,0,0,1,18.706,32.855C87.6,728.611,80.046,704.094,73.093,687.3a399.742,399.742,0,0,1,24.553,53.944C92.158,719.8,85.184,694.32,78.861,676.561c0,0,23,47.624,35.323,104.179l-4.14.63-2.529.384-.358.054-2.755.42-1.823.276-.87.133-4.772.727s-26.168-46.205-45.281-70.321C51.661,713.046,76.9,737.709,97.139,769.9Z" transform="translate(80.583 272.625)" fill="#244c59"/>
      </g>
      <g id="Grupo_96" data-name="Grupo 96" transform="translate(0 0)" clip-path="url(#clip-path-2)">
        <path id="Trazado_99" data-name="Trazado 99" d="M434.05,781.312l-6.275-2.583c13.051-22.124,35.973-36.746,35.973-36.746C450.61,754.617,434.05,781.312,434.05,781.312Z" transform="translate(667.329 374.684)" fill="#244c59"/>
        <path id="Trazado_100" data-name="Trazado 100" d="M451.786,726.457a358.7,358.7,0,0,1-16.079,58.081,332.428,332.428,0,0,1,40.31-55.408c-17.651,24.763-42.588,73.979-42.588,73.979l-4.447-1.831-1.828-.752-2.752-1.134S444.206,752.81,451.786,726.457Z" transform="translate(662.067 350.463)" fill="#244c59"/>
        <path id="Trazado_101" data-name="Trazado 101" d="M423.267,782.654s-3.4-31.452-9.966-50.337c0,0,14.8,27.669,16.991,53.228Z" transform="translate(644.75 359.605)" fill="#244c59"/>
        <path id="Trazado_102" data-name="Trazado 102" d="M429.679,803.565c2.217-15.649,5.527-41.541,5.865-58.824a311.4,311.4,0,0,1,.837,38.29c4.393-20.324,9.339-45.568,11.182-63.782a411.2,411.2,0,0,1-3.983,59.666c5.3-21.5,11.2-47.278,14.042-66,0,0-2.36,53.363-18.207,108.938l-3.894-1.6-2.381-.98-.338-.138-2.591-1.068-1.715-.707-.819-.338-4.49-1.848s-1.055-53.775-6.351-84.677C416.836,730.487,427.2,765.052,429.679,803.565Z" transform="translate(650.264 329.33)" fill="#244c59"/>
      </g>
      <g id="Grupo_97" data-name="Grupo 97" transform="translate(0 0)" clip-path="url(#clip-path-2)">
        <path id="Trazado_103" data-name="Trazado 103" d="M99.037,756.718l-5.824-3.566c16.123-19.753,40.906-30.5,40.906-30.5C119.292,733.015,99.037,756.718,99.037,756.718Z" transform="translate(145.412 344.524)" fill="#244c59"/>
        <path id="Trazado_104" data-name="Trazado 104" d="M127.776,706.222a353.246,353.246,0,0,1-24.358,54.8,324.974,324.974,0,0,1,47.913-48.246C130.278,734.395,98.459,779,98.459,779l-4.127-2.527-1.7-1.039-2.552-1.564S116.443,731.039,127.776,706.222Z" transform="translate(140.529 318.897)" fill="#244c59"/>
        <path id="Trazado_105" data-name="Trazado 105" d="M84.921,759.842s1.221-31.631-2.509-51.348c0,0,10.586,29.729,9.027,55.342Z" transform="translate(128.563 322.441)" fill="#244c59"/>
        <path id="Trazado_106" data-name="Trazado 106" d="M93.465,777.529c4.472-15.107,11.52-40.159,14.374-57.18a310.838,310.838,0,0,1-4.756,37.973c7.306-19.374,15.875-43.52,20.349-61.222A408.88,408.88,0,0,1,110.8,755.413c8.369-20.385,17.958-44.91,23.5-62.955,0,0-10.115,52.352-33.876,104.709l-3.615-2.214L94.6,793.6l-.312-.192-2.4-1.472-1.59-.973-.76-.466-4.165-2.55s6.8-53.309,6.072-84.7C91.432,703.246,96.629,739.073,93.465,777.529Z" transform="translate(133.169 297.425)" fill="#244c59"/>
      </g>
    </g>
    <path id="Trazado_107" data-name="Trazado 107" d="M422.335,334.665h580.823s-15.473-3.768-27.622-6.945c-21.9-5.727-12.723-41.244-58.263-23.721,0,0-20.772-33.3-57.922-16.21,0,0,4.792-25.408-16.778-38.113s-40.745,4.38-43.94,12.705c0,0,3.195-40.742-34.755-59.144s-67.11,11.827-74.3,24.095c0,0-18.775-34.609-65.912-22.781s-41.544,70.1-41.544,70.1-17.577-20.59-38.349-5.256c-22.623,16.7-7.99,43.372-7.99,43.372S494.24,318.893,422.335,334.665Z" transform="translate(658.843 288.249)" fill="#e8e8e8" opacity="0.8"/>
    <path id="Trazado_108" data-name="Trazado 108" d="M86.929,83.112h327s-8.712-1.935-15.552-3.566c-12.332-2.941-7.163-21.174-32.8-12.178,0,0-11.694-17.093-32.612-8.32,0,0,2.7-13.043-9.446-19.566s-22.94,2.248-24.74,6.523c0,0,1.8-20.915-19.566-30.362s-37.783,6.072-41.83,12.37c0,0-10.57-17.766-37.107-11.694S176.887,52.3,176.887,52.3s-9.894-10.57-21.591-2.7c-12.736,8.573-4.5,22.264-4.5,22.264S127.413,75.015,86.929,83.112Z" transform="translate(135.609 0)" fill="#e8e8e8" opacity="0.4"/>
  </g>
</svg>
