<svg id="calendar" xmlns="http://www.w3.org/2000/svg" width="34" height="34" viewBox="0 0 34 34">
  <g id="Grupo_235" data-name="Grupo 235">
    <g id="Grupo_234" data-name="Grupo 234">
      <path id="Trazado_480" data-name="Trazado 480" d="M30.016,2.656H28.422V0H25.766V2.656H8.234V0H5.578V2.656H3.984A3.989,3.989,0,0,0,0,6.641V30.016A3.989,3.989,0,0,0,3.984,34H30.016A3.989,3.989,0,0,0,34,30.016V6.641A3.989,3.989,0,0,0,30.016,2.656Zm1.328,27.359a1.33,1.33,0,0,1-1.328,1.328H3.984a1.33,1.33,0,0,1-1.328-1.328V12.484H31.344Zm0-20.187H2.656V6.641A1.33,1.33,0,0,1,3.984,5.313H5.578V7.969H8.234V5.313H25.766V7.969h2.656V5.313h1.594a1.33,1.33,0,0,1,1.328,1.328Z" fill="#7d7d7d"/>
    </g>
  </g>
  <g id="Grupo_237" data-name="Grupo 237" transform="translate(5.047 15.273)">
    <g id="Grupo_236" data-name="Grupo 236">
      <rect id="Rectángulo_182" data-name="Rectángulo 182" width="3" height="3" transform="translate(-0.047 -0.273)" fill="#7d7d7d"/>
    </g>
  </g>
  <g id="Grupo_239" data-name="Grupo 239" transform="translate(10.359 15.273)">
    <g id="Grupo_238" data-name="Grupo 238">
      <rect id="Rectángulo_183" data-name="Rectángulo 183" width="3" height="3" transform="translate(-0.359 -0.273)" fill="#7d7d7d"/>
    </g>
  </g>
  <g id="Grupo_241" data-name="Grupo 241" transform="translate(15.672 15.273)">
    <g id="Grupo_240" data-name="Grupo 240">
      <rect id="Rectángulo_184" data-name="Rectángulo 184" width="2" height="3" transform="translate(0.328 -0.273)" fill="#7d7d7d"/>
    </g>
  </g>
  <g id="Grupo_243" data-name="Grupo 243" transform="translate(20.984 15.273)">
    <g id="Grupo_242" data-name="Grupo 242">
      <rect id="Rectángulo_185" data-name="Rectángulo 185" width="3" height="3" transform="translate(0.016 -0.273)" fill="#7d7d7d"/>
    </g>
  </g>
  <g id="Grupo_245" data-name="Grupo 245" transform="translate(26.297 15.273)">
    <g id="Grupo_244" data-name="Grupo 244">
      <rect id="Rectángulo_186" data-name="Rectángulo 186" width="3" height="3" transform="translate(-0.297 -0.273)" fill="#7d7d7d"/>
    </g>
  </g>
  <g id="Grupo_247" data-name="Grupo 247" transform="translate(5.047 20.586)">
    <g id="Grupo_246" data-name="Grupo 246">
      <rect id="Rectángulo_187" data-name="Rectángulo 187" width="3" height="2" transform="translate(-0.047 0.414)" fill="#7d7d7d"/>
    </g>
  </g>
  <g id="Grupo_249" data-name="Grupo 249" transform="translate(10.359 20.586)">
    <g id="Grupo_248" data-name="Grupo 248">
      <rect id="Rectángulo_188" data-name="Rectángulo 188" width="3" height="2" transform="translate(-0.359 0.414)" fill="#7d7d7d"/>
    </g>
  </g>
  <g id="Grupo_251" data-name="Grupo 251" transform="translate(15.672 20.586)">
    <g id="Grupo_250" data-name="Grupo 250">
      <rect id="Rectángulo_189" data-name="Rectángulo 189" width="2" height="2" transform="translate(0.328 0.414)" fill="#7d7d7d"/>
    </g>
  </g>
  <g id="Grupo_253" data-name="Grupo 253" transform="translate(20.984 20.586)">
    <g id="Grupo_252" data-name="Grupo 252">
      <rect id="Rectángulo_190" data-name="Rectángulo 190" width="3" height="2" transform="translate(0.016 0.414)" fill="#7d7d7d"/>
    </g>
  </g>
  <g id="Grupo_255" data-name="Grupo 255" transform="translate(5.047 25.898)">
    <g id="Grupo_254" data-name="Grupo 254">
      <rect id="Rectángulo_191" data-name="Rectángulo 191" width="3" height="3" transform="translate(-0.047 0.102)" fill="#7d7d7d"/>
    </g>
  </g>
  <g id="Grupo_257" data-name="Grupo 257" transform="translate(10.359 25.898)">
    <g id="Grupo_256" data-name="Grupo 256">
      <rect id="Rectángulo_192" data-name="Rectángulo 192" width="3" height="3" transform="translate(-0.359 0.102)" fill="#7d7d7d"/>
    </g>
  </g>
  <g id="Grupo_259" data-name="Grupo 259" transform="translate(15.672 25.898)">
    <g id="Grupo_258" data-name="Grupo 258">
      <rect id="Rectángulo_193" data-name="Rectángulo 193" width="2" height="3" transform="translate(0.328 0.102)" fill="#7d7d7d"/>
    </g>
  </g>
  <g id="Grupo_261" data-name="Grupo 261" transform="translate(20.984 25.898)">
    <g id="Grupo_260" data-name="Grupo 260">
      <rect id="Rectángulo_194" data-name="Rectángulo 194" width="3" height="3" transform="translate(0.016 0.102)" fill="#7d7d7d"/>
    </g>
  </g>
  <g id="Grupo_263" data-name="Grupo 263" transform="translate(26.297 20.586)">
    <g id="Grupo_262" data-name="Grupo 262">
      <rect id="Rectángulo_195" data-name="Rectángulo 195" width="3" height="2" transform="translate(-0.297 0.414)" fill="#7d7d7d"/>
    </g>
  </g>
</svg>
