<svg xmlns="http://www.w3.org/2000/svg" width="20.65" height="17.947" viewBox="0 0 20.65 17.947">
  <g id="diamond" transform="translate(0 -33.5)">
    <path id="Trazado_2330" data-name="Trazado 2330" d="M20.649,38.5a1.894,1.894,0,0,1-.369,1.122l-.006.008L11.725,50.735a1.8,1.8,0,0,1-.62.526,1.727,1.727,0,0,1-1.254.12,1.759,1.759,0,0,1-.927-.647L.369,39.62a1.924,1.924,0,0,1-.117-2.085l1.621-3.141.009-.015A1.749,1.749,0,0,1,3.393,33.5H17.256a1.749,1.749,0,0,1,1.511.878l.017.031L20.4,37.535A1.9,1.9,0,0,1,20.649,38.5Z" fill="#cef8ff"/>
    <path id="Trazado_2331" data-name="Trazado 2331" d="M266.326,38.5a1.894,1.894,0,0,1-.369,1.122l-.006.008L257.4,50.735a1.8,1.8,0,0,1-.62.526,1.715,1.715,0,0,1-.78.186V33.5h6.932a1.749,1.749,0,0,1,1.511.878l.017.031,1.613,3.126A1.9,1.9,0,0,1,266.326,38.5Z" transform="translate(-245.676)" fill="#50e6ff"/>
    <path id="Trazado_2332" data-name="Trazado 2332" d="M20.649,38.5H0a1.9,1.9,0,0,1,.252-.963l1.621-3.141.009-.015A1.749,1.749,0,0,1,3.393,33.5H17.256a1.749,1.749,0,0,1,1.511.878l.017.031L20.4,37.535A1.9,1.9,0,0,1,20.649,38.5Z" transform="translate(0)" fill="#62ebff"/>
    <path id="Trazado_2333" data-name="Trazado 2333" d="M266.325,38.5H256v-5h6.932a1.749,1.749,0,0,1,1.511.878l.017.031,1.613,3.126A1.9,1.9,0,0,1,266.325,38.5Z" transform="translate(-245.675)" fill="#31caff"/>
    <path id="Trazado_2334" data-name="Trazado 2334" d="M152.136,38.5l-4.121,12.883a1.731,1.731,0,0,1-.951,0L142.979,38.5l4.558-5Z" transform="translate(-137.213)" fill="#50e6ff"/>
    <path id="Trazado_2335" data-name="Trazado 2335" d="M260.6,38.5l-4.121,12.883a1.729,1.729,0,0,1-.477.067V33.5Z" transform="translate(-245.675 0)" fill="#31caff"/>
    <path id="Trazado_2336" data-name="Trazado 2336" d="M152.136,38.5h-9.157l4.558-5Z" transform="translate(-137.213)" fill="#cef8ff"/>
    <path id="Trazado_2337" data-name="Trazado 2337" d="M260.6,38.5H256v-5Z" transform="translate(-245.675)" fill="#50e6ff"/>
  </g>
</svg>
