<svg id="document" xmlns="http://www.w3.org/2000/svg" width="108.385" height="101.596" viewBox="0 0 108.385 101.596">
  <path id="Trazado_2217" data-name="Trazado 2217" d="M3.175,30.5A3.175,3.175,0,0,0,0,33.671v88.9a3.175,3.175,0,0,0,3.175,3.174H60.745a3.175,3.175,0,0,0,3.175-3.174V49.546A19.049,19.049,0,0,0,44.871,30.5Zm0,0" transform="translate(0 -24.146)" fill="#25d9f8"/>
  <path id="Trazado_2218" data-name="Trazado 2218" d="M118.35,25.9V86.221a3.144,3.144,0,0,1-3.175,3.174H64.166a3.143,3.143,0,0,1-3.174-3.174V3.675A3.144,3.144,0,0,1,64.166.5H92.952Zm0,0" transform="translate(-48.081 -0.5)" fill="#deecf1"/>
  <path id="Trazado_2219" data-name="Trazado 2219" d="M225.546,25.9V86.221a3.144,3.144,0,0,1-3.175,3.174h-25.4V.5h3.174Zm0,0" transform="translate(-155.276 -0.499)" fill="#c6e2e7"/>
  <path id="Trazado_2220" data-name="Trazado 2220" d="M236.437,20.48,217.389,1.43A3.173,3.173,0,0,0,215.143.5h-3.174V22.724a3.175,3.175,0,0,0,3.174,3.174h22.224V22.724a3.171,3.171,0,0,0-.93-2.244Zm0,0" transform="translate(-167.098 -0.5)" fill="#a8d3d8"/>
  <path id="Trazado_2221" data-name="Trazado 2221" d="M349.71,318.214a3.068,3.068,0,0,1-4.444,0l-8.763-8.763a3.143,3.143,0,1,1,4.445-4.445l8.762,8.763A3.069,3.069,0,0,1,349.71,318.214Zm0,0" transform="translate(-264.519 -239.795)" fill="#c6e2e7"/>
  <path id="Trazado_2222" data-name="Trazado 2222" d="M349.71,321.762a3.068,3.068,0,0,1-4.444,0L336.5,313a3.068,3.068,0,0,1,0-4.445Zm0,0" transform="translate(-264.519 -243.343)" fill="#8ebac5"/>
  <path id="Trazado_2223" data-name="Trazado 2223" d="M385.937,340.979l-15.874-15.874a3.144,3.144,0,0,0-4.509,0l-4.444,4.508-4.508,4.445a3.143,3.143,0,0,0,0,4.508l15.874,15.874a9.519,9.519,0,0,0,13.461-13.461Zm0,0" transform="translate(-280.362 -255.639)" fill="#6e6e6e"/>
  <path id="Trazado_2224" data-name="Trazado 2224" d="M385.937,374.776a9.523,9.523,0,0,1-13.461,0L356.6,358.9a3.143,3.143,0,0,1,0-4.508l4.508-4.445Zm0,0" transform="translate(-280.362 -275.974)" fill="#444"/>
  <path id="Trazado_2225" data-name="Trazado 2225" d="M219.94,188.444a22.18,22.18,0,1,1,0-31.367A22.111,22.111,0,0,1,219.94,188.444Zm0,0" transform="translate(-143.51 -118.787)" fill="#5a5a5a"/>
  <path id="Trazado_2226" data-name="Trazado 2226" d="M219.94,212.742a22.18,22.18,0,0,1-31.367-31.367Zm0,0" transform="translate(-143.51 -143.086)" fill="#444"/>
  <path id="Trazado_2227" data-name="Trazado 2227" d="M239.141,207.645a15.894,15.894,0,1,1,0-22.478A15.983,15.983,0,0,1,239.141,207.645Zm0,0" transform="translate(-167.157 -142.434)" fill="#deecf1"/>
  <path id="Trazado_2228" data-name="Trazado 2228" d="M239.141,224.849a15.894,15.894,0,0,1-22.478-22.478Zm0,0" transform="translate(-167.157 -159.637)" fill="#c6e2e7"/>
</svg>
