<svg xmlns="http://www.w3.org/2000/svg" width="148.565" height="63.667" viewBox="0 0 148.565 63.667">
  <g id="freshmarketer" transform="translate(-1.4 -1.7)">
    <path id="Trazado_995" data-name="Trazado 995" d="M7.937,64.071A4.492,4.492,0,0,0,3.105,68.9v1.421h-.71a.995.995,0,1,0,0,1.989h.71v9.8a1.046,1.046,0,0,0,1.066,1.066,1.007,1.007,0,0,0,1.066-1.066V72.242H7.51a.995.995,0,0,0,0-1.989H5.237V68.831a2.535,2.535,0,0,1,2.771-2.842A1,1,0,0,0,8.15,64a.261.261,0,0,1-.213.071Z" transform="translate(0 -18.036)" fill="#4d4d4d"/>
    <path id="Trazado_996" data-name="Trazado 996" d="M19.684,72.4A4.128,4.128,0,0,0,16.131,74.1v-.568a1.046,1.046,0,0,0-1.066-1.066A1.007,1.007,0,0,0,14,73.535V84.476a1.046,1.046,0,0,0,1.066,1.066,1.007,1.007,0,0,0,1.066-1.066V78.437c0-2.558,1.35-4.05,3.552-4.05a.971.971,0,0,0,.995-.995A1.016,1.016,0,0,0,19.684,72.4Z" transform="translate(-3.648 -20.466)" fill="#4d4d4d"/>
    <path id="Trazado_997" data-name="Trazado 997" d="M35.284,77.793a6.372,6.372,0,0,0-.995-3.41,4.9,4.9,0,0,0-4.334-1.989c-3.624,0-5.755,2.416-5.755,6.608,0,4.334,2.06,6.679,5.968,6.679A6.169,6.169,0,0,0,34.5,84.116a.96.96,0,0,0-.568-1.705.807.807,0,0,0-.568.213,4.966,4.966,0,0,1-3.126,1.137c-2.345,0-3.837-1.563-3.908-4.05H34C35.284,79.64,35.284,78.575,35.284,77.793Zm-5.329-3.552c2.131,0,3.2,1.208,3.268,3.552H26.331c.213-2.274,1.492-3.552,3.624-3.552Z" transform="translate(-6.601 -20.461)" fill="#4d4d4d"/>
    <path id="Trazado_998" data-name="Trazado 998" d="M47.371,77.935c-1.563-.568-2.842-.995-2.842-2.131,0-1.279,1.421-1.421,2.2-1.421a3.745,3.745,0,0,1,2.842,1.066.912.912,0,0,0,.71.284.94.94,0,0,0,.924-.924.771.771,0,0,0-.284-.639,5.128,5.128,0,0,0-4.263-1.776c-2.629,0-4.263,1.279-4.263,3.41,0,2.558,2.274,3.339,4.263,4.05,1.492.5,2.842.924,2.842,2.06,0,1.492-1.705,1.705-2.7,1.705a4.334,4.334,0,0,1-3.268-1.279,1.354,1.354,0,0,0-.71-.355.94.94,0,0,0-.924.924,1.146,1.146,0,0,0,.213.639,5.988,5.988,0,0,0,4.76,1.989c2.984,0,4.76-1.421,4.76-3.695C51.563,79.427,49.289,78.645,47.371,77.935Z" transform="translate(-11.725 -20.46)" fill="#4d4d4d"/>
    <path id="Trazado_999" data-name="Trazado 999" d="M64.571,69.737a4.241,4.241,0,0,0-3.41,1.492V64.266A1.046,1.046,0,0,0,60.095,63.2a.99.99,0,0,0-.995,1.066v17.62a1.032,1.032,0,0,0,.995,1.066,1.046,1.046,0,0,0,1.066-1.066V75.278q0-3.624,3.41-3.624c2.274,0,3.055.995,3.055,3.41v6.821a1.046,1.046,0,0,0,1.066,1.066.99.99,0,0,0,.995-1.066V74.639Q69.686,69.737,64.571,69.737Z" transform="translate(-16.704 -17.804)" fill="#4d4d4d"/>
    <path id="Trazado_1000" data-name="Trazado 1000" d="M91.671,72.393a4.469,4.469,0,0,0-3.908,1.776A5.019,5.019,0,0,0,83.5,72.393a4.1,4.1,0,0,0-3.339,1.492v-.355a1.032,1.032,0,0,0-.995-1.066A1.046,1.046,0,0,0,78.1,73.529V84.471a1.046,1.046,0,0,0,1.066,1.066.99.99,0,0,0,.995-1.066V77.864c0-2.487.995-3.624,3.126-3.624s3.126.995,3.126,3.41v6.821a1.036,1.036,0,1,0,2.06.213V77.3c0-1.989,1.137-3.055,3.2-3.055,2.2,0,3.2,1.066,3.2,3.41v6.821a1.032,1.032,0,0,0,1.066.995.971.971,0,0,0,.995-.995V77.3C96.928,75.022,96,72.393,91.671,72.393Z" transform="translate(-22.205 -20.46)" fill="#4d4d4d"/>
    <path id="Trazado_1001" data-name="Trazado 1001" d="M113.071,72.4c-2.771,0-4.121,1.35-4.618,2.2a1.338,1.338,0,0,0-.142.568.955.955,0,0,0,.924.995h.071a1.013,1.013,0,0,0,.853-.426h0a3.277,3.277,0,0,1,2.984-1.279,2.673,2.673,0,0,1,2.984,2.771V77.8H112.5c-2.984,0-4.9,1.492-4.9,3.979s1.776,4.05,4.831,4.05a4.556,4.556,0,0,0,3.695-1.563v.426a.995.995,0,0,0,1.989,0v-7.6C118.044,74.176,116.126,72.4,113.071,72.4ZM112.5,83.768c-1.35,0-2.913-.355-2.913-2.131s1.776-2.132,2.771-2.132h3.624V80.5c.071,2.274-1.776,3.268-3.481,3.268Z" transform="translate(-30.745 -20.468)" fill="#4d4d4d"/>
    <path id="Trazado_1002" data-name="Trazado 1002" d="M132.013,72.4A4.128,4.128,0,0,0,128.46,74.1v-.568a1.032,1.032,0,0,0-1.066-.995.971.971,0,0,0-.995.995V84.476a1.032,1.032,0,0,0,1.066.995.971.971,0,0,0,.995-.995V78.437c0-2.558,1.35-4.05,3.552-4.05a.995.995,0,1,0,0-1.989Z" transform="translate(-36.188 -20.466)" fill="#4d4d4d"/>
    <path id="Trazado_1003" data-name="Trazado 1003" d="M143.287,75.107l4.263-3.41a1.013,1.013,0,0,0,.426-.853.971.971,0,0,0-.995-.995.912.912,0,0,0-.71.284l-6.11,4.973V64.166a1.031,1.031,0,1,0-2.06-.071h0v17.62a1.031,1.031,0,1,0,2.06.071h0V77.523l1.421-1.137,4.76,5.968h0a1.318,1.318,0,0,0,.853.5.971.971,0,0,0,.995-.995h0a1.146,1.146,0,0,0-.213-.639Z" transform="translate(-39.575 -17.775)" fill="#4d4d4d"/>
    <path id="Trazado_1004" data-name="Trazado 1004" d="M165.113,77.793a6.372,6.372,0,0,0-.995-3.41,4.9,4.9,0,0,0-4.334-1.989c-3.624,0-5.684,2.416-5.684,6.608,0,4.334,2.06,6.679,5.968,6.679a6.169,6.169,0,0,0,4.334-1.563.987.987,0,0,0,.355-.711.957.957,0,0,0-.995-.924.807.807,0,0,0-.568.213,4.966,4.966,0,0,1-3.126,1.137c-2.345,0-3.837-1.563-3.908-4.05h7.673C165.113,79.64,165.113,78.575,165.113,77.793Zm-5.258-3.552c2.132,0,3.2,1.208,3.268,3.552h-6.892c.213-2.274,1.492-3.552,3.624-3.552Z" transform="translate(-44.207 -20.461)" fill="#4d4d4d"/>
    <path id="Trazado_1005" data-name="Trazado 1005" d="M176.767,73.284a.995.995,0,0,0,0-1.989H175.2V68.666a1.08,1.08,0,0,0-.995-1.066,1.032,1.032,0,0,0-.995,1.066v2.7h-.853a.965.965,0,0,0-.213,1.918h1.066v7.247a3.3,3.3,0,0,0,3.481,3.552.995.995,0,0,0,0-1.989h0a1.446,1.446,0,0,1-1.421-1.634V73.284Z" transform="translate(-49.183 -19.078)" fill="#4d4d4d"/>
    <path id="Trazado_1006" data-name="Trazado 1006" d="M193.384,77.793a6.372,6.372,0,0,0-.995-3.41,4.9,4.9,0,0,0-4.334-1.989c-3.624,0-5.755,2.416-5.755,6.608,0,4.334,2.06,6.679,5.968,6.679a6.169,6.169,0,0,0,4.334-1.563.96.96,0,0,0-.568-1.705.807.807,0,0,0-.568.213,4.966,4.966,0,0,1-3.126,1.137c-2.345,0-3.837-1.563-3.908-4.05H192.1C193.384,79.64,193.384,78.575,193.384,77.793Zm-5.329-3.552c2.132,0,3.2,1.208,3.268,3.552h-6.892c.213-2.274,1.492-3.552,3.624-3.552Z" transform="translate(-52.371 -20.461)" fill="#4d4d4d"/>
    <path id="Trazado_1007" data-name="Trazado 1007" d="M206.81,72.4a4.128,4.128,0,0,0-3.552,1.705v-.568a1.036,1.036,0,0,0-2.06-.213V84.4a1.036,1.036,0,0,0,2.06.213V78.436c0-2.558,1.35-4.05,3.552-4.05a.971.971,0,0,0,.995-.995,1.016,1.016,0,0,0-.995-.995Z" transform="translate(-57.839 -20.465)" fill="#4d4d4d"/>
    <path id="Trazado_1008" data-name="Trazado 1008" d="M96.523,1.7h14.992a4.943,4.943,0,0,1,4.973,4.973V21.665A19.907,19.907,0,0,1,96.594,41.559h0A19.907,19.907,0,0,1,76.7,21.665h0A19.816,19.816,0,0,1,96.523,1.7Z" transform="translate(-21.799)" fill="#ee5a24"/>
    <ellipse id="Elipse_12" data-name="Elipse 12" cx="1.137" cy="3.055" rx="1.137" ry="3.055" transform="translate(82.113 17.686)" fill="#fff"/>
    <path id="Trazado_1009" data-name="Trazado 1009" d="M106.475,25.178a22.03,22.03,0,0,1,1.137-7.744.26.26,0,0,0-.142-.355.216.216,0,0,0-.284,0L99.655,20.7a2.4,2.4,0,0,1-1.208.355L96.1,21.27a3.848,3.848,0,0,0-3.41,4.263,3.922,3.922,0,0,0,3.41,3.41h.142l.782,4.263a1.478,1.478,0,1,0,2.913-.5h0L99.37,29.37c.142.071.213.071.355.142l7.531,3.624a.26.26,0,0,0,.355-.142.216.216,0,0,0,0-.284A20.637,20.637,0,0,1,106.475,25.178Z" transform="translate(-26.423 -4.437)" fill="#fff"/>
  </g>
</svg>
