<svg id="html" xmlns="http://www.w3.org/2000/svg" width="20.124" height="19.788" viewBox="0 0 20.124 19.788">
  <path id="Trazado_2468" data-name="Trazado 2468" d="M19.809,4.276H.315A.315.315,0,0,0,0,4.591V23.749a.315.315,0,0,0,.315.315H19.809a.315.315,0,0,0,.315-.315V4.591A.315.315,0,0,0,19.809,4.276Z" transform="translate(0 -4.276)" fill="#e6eaea"/>
  <path id="Trazado_2469" data-name="Trazado 2469" d="M19.809,4.276H.315A.315.315,0,0,0,0,4.591V8.939H20.124V4.591A.315.315,0,0,0,19.809,4.276Z" transform="translate(0 -4.276)" fill="#9baaab"/>
  <path id="Trazado_2470" data-name="Trazado 2470" d="M.315,4.276A.315.315,0,0,0,0,4.591V23.749a.315.315,0,0,0,.315.315h9.747V4.276Z" transform="translate(0 -4.276)" fill="#cdd4d5"/>
  <path id="Trazado_2471" data-name="Trazado 2471" d="M.315,4.276A.315.315,0,0,0,0,4.591V8.939H10.062V4.276Z" transform="translate(0 -4.276)" fill="#687f82"/>
  <path id="Trazado_2472" data-name="Trazado 2472" d="M232.2,29.929a1.323,1.323,0,1,0,1.323,1.323A1.325,1.325,0,0,0,232.2,29.929Z" transform="translate(-221.806 -28.921)" fill="#4acfd9"/>
  <path id="Trazado_2473" data-name="Trazado 2473" d="M138.142,29.929a1.323,1.323,0,1,0,1.323,1.323A1.325,1.325,0,0,0,138.142,29.929Z" transform="translate(-131.441 -28.921)" fill="#ff8c29"/>
  <path id="Trazado_2474" data-name="Trazado 2474" d="M44.079,29.929A1.323,1.323,0,1,0,45.4,31.252,1.325,1.325,0,0,0,44.079,29.929Z" transform="translate(-41.076 -28.921)" fill="#f0353d"/>
  <g id="Grupo_1203" data-name="Grupo 1203" transform="translate(12.772 1.344)">
    <path id="Trazado_2475" data-name="Trazado 2475" d="M328.955,39.11h-3.7a.315.315,0,0,1,0-.63h3.7a.315.315,0,1,1,0,.63Z" transform="translate(-324.943 -38.48)" fill="#fff"/>
    <path id="Trazado_2476" data-name="Trazado 2476" d="M445.647,39.11h-.672a.315.315,0,1,1,0-.63h.672a.315.315,0,1,1,0,.63Z" transform="translate(-439.955 -38.48)" fill="#fff"/>
  </g>
  <g id="Grupo_1204" data-name="Grupo 1204" transform="translate(7.436 7.982)">
    <path id="Trazado_2477" data-name="Trazado 2477" d="M347.9,210.646l-3.193-3.025a.945.945,0,1,0-1.3,1.372l2.448,2.319-2.428,2.172a.945.945,0,0,0,.63,1.65h0a.944.944,0,0,0,.63-.241l3.193-2.857a.945.945,0,0,0,.02-1.391Z" transform="translate(-337.065 -207.362)" fill="#fd6a33"/>
    <path id="Trazado_2478" data-name="Trazado 2478" d="M193.808,216.046a.946.946,0,0,0-1.291.348l-3.193,5.546a.945.945,0,1,0,1.638.943l3.193-5.546a.945.945,0,0,0-.348-1.291Z" transform="translate(-189.199 -215.584)" fill="#fd6a33"/>
  </g>
  <g id="Grupo_1205" data-name="Grupo 1205" transform="translate(1.554 7.982)">
    <path id="Trazado_2479" data-name="Trazado 2479" d="M189.324,262.94a.945.945,0,1,0,1.638.943l.861-1.5V258.6Z" transform="translate(-183.317 -256.584)" fill="#f0353d"/>
    <path id="Trazado_2480" data-name="Trazado 2480" d="M44.632,208.333a.945.945,0,0,0-1.6-.712l-3.193,3.025a.945.945,0,0,0,.02,1.391l3.193,2.857a.944.944,0,0,0,.63.241h0a.945.945,0,0,0,.63-1.65l-2.428-2.172,2.448-2.319A.939.939,0,0,0,44.632,208.333Z" transform="translate(-39.549 -207.362)" fill="#f0353d"/>
  </g>
</svg>
