<svg id="idea" xmlns="http://www.w3.org/2000/svg" width="38.438" height="57.491" viewBox="0 0 38.438 57.491">
  <g id="Grupo_13" data-name="Grupo 13" transform="translate(0 0)">
    <g id="Grupo_11" data-name="Grupo 11">
      <g id="Grupo_10" data-name="Grupo 10">
        <path id="Trazado_12" data-name="Trazado 12" d="M36.425,15.716,9.767.333A2.517,2.517,0,0,0,7.1.439h0L1.244,3.818l2.721,3.69L4.979,8.671v26.41a4.4,4.4,0,0,0,2.2,3.813L27.132,50.429l.2,1.11,4.072,5.7,6.262-3.681.032-.018.042-.025v0A2,2,0,0,0,38.7,51.8V19.651A4.54,4.54,0,0,0,36.425,15.716Z" transform="translate(-0.26 0)" fill="#f79a70"/>
        <path id="Trazado_13" data-name="Trazado 13" d="M29.933,20.317,2.96,4.753A1.974,1.974,0,0,0,0,6.464V38.75a4.4,4.4,0,0,0,2.2,3.812L29.169,58.154A2.024,2.024,0,0,0,32.206,56.4V24.251A4.543,4.543,0,0,0,29.933,20.317Z" transform="translate(0 -0.938)" fill="#f47835"/>
      </g>
    </g>
    <g id="Grupo_12" data-name="Grupo 12" transform="translate(31.144 18.162)">
      <path id="Trazado_14" data-name="Trazado 14" d="M39.42,72.349l-.039.023,0,0C39.391,72.359,39.406,72.357,39.42,72.349Z" transform="translate(-39.378 -33.29)" fill="#bbcee0"/>
      <path id="Trazado_15" data-name="Trazado 15" d="M40.455,60.266V28.115a4.474,4.474,0,0,0-.308-1.549l6.256-3.6a4.485,4.485,0,0,1,.284,1.49V56.6a2,2,0,0,1-.955,1.715v0l-.042.024-.032.018-6.209,3.65A2,2,0,0,0,40.455,60.266Z" transform="translate(-39.393 -22.963)" fill="#d66634"/>
    </g>
  </g>
  <g id="Grupo_38" data-name="Grupo 38" transform="translate(5.345 14.387)">
    <g id="Grupo_15" data-name="Grupo 15" transform="translate(14.206 15.054)">
      <g id="Grupo_14" data-name="Grupo 14" transform="translate(0)">
        <path id="Trazado_16" data-name="Trazado 16" d="M25.331,37.552c-.14-.267-.366-.4-.505-.292s-.14.407,0,.674l.017.032a.691.691,0,0,0,.244.27.219.219,0,0,0,.261,0C25.482,38.122,25.475,37.816,25.331,37.552Z" transform="translate(-24.72 -37.224)" fill="#fff"/>
      </g>
    </g>
    <g id="Grupo_17" data-name="Grupo 17" transform="translate(9.578 10.764)">
      <g id="Grupo_16" data-name="Grupo 16">
        <path id="Trazado_17" data-name="Trazado 17" d="M23.381,35.216c-.2-.3-.414-.59-.625-.852A6.359,6.359,0,0,0,19.12,31.8c-.188-.031-.294.176-.236.46a.716.716,0,0,0,.448.572,5.441,5.441,0,0,1,3.1,2.194c.18.224.368.481.544.743a.65.65,0,0,0,.2.2.209.209,0,0,0,.3-.038A.7.7,0,0,0,23.381,35.216Z" transform="translate(-18.869 -31.8)" fill="#fff"/>
      </g>
    </g>
    <g id="Grupo_19" data-name="Grupo 19" transform="translate(2.282 3.251)">
      <g id="Grupo_18" data-name="Grupo 18">
        <path id="Trazado_18" data-name="Trazado 18" d="M24.7,41.275a11.665,11.665,0,0,1-.394-1.541,6.7,6.7,0,0,0-.431-4.533,14.434,14.434,0,0,0-5.218-6.7,4.86,4.86,0,0,0-2.947-.747,7.263,7.263,0,0,0-3.01-5.084c-1.688-.974-3.061.063-3.061,2.313a7.754,7.754,0,0,0,1.463,4.327,1.521,1.521,0,0,1,.345.907V33a1.738,1.738,0,0,0,.724,1.383l.123.069a16.476,16.476,0,0,0,2.156,6.62,2.179,2.179,0,0,1-.1.87,13.986,13.986,0,0,1-.43,1.337c-.1.278-.187.519-.239.709a.735.735,0,0,0,.052.456.756.756,0,0,0,.289.361l5.1,2.946c.168.1.4.13.543-.263a4.084,4.084,0,0,0,.148-.636c.043-.233.142-.779.241-.795a.128.128,0,0,1,.02.013.576.576,0,0,0,.055.038c.535.308.971.593,1.356.844,1.13.736,1.812,1.18,2.411.376a4.136,4.136,0,0,0,.233-2.2,11.436,11.436,0,0,1,0-1.346,1.542,1.542,0,0,1,.316-.132c.337-.114.656-.221.656-.664A7.737,7.737,0,0,0,24.7,41.275ZM11.481,28.71a5.942,5.942,0,0,1-1.122-3.316c0-1.724,1.052-2.52,2.346-1.773A5.626,5.626,0,0,1,15.05,28.1c0,1.1-.419,1.853-1.122,2.021a.8.8,0,0,0-.626.66l-.6-.345-.6-.344A3.423,3.423,0,0,0,11.481,28.71Zm1.761,2.99v.7l-1.073-.62v-.7l1.073.62Zm-1.065,1.733a.026.026,0,0,1-.009-.017v-.685l1.073.62v.685c0,.006,0,.009-.009.007Zm11.869,9.2c-.308.1-.573.194-.613.539a11.136,11.136,0,0,0-.009,1.6,4.174,4.174,0,0,1-.107,1.683c-.356.478-.664.307-1.783-.423-.369-.24-.828-.539-1.372-.854a.474.474,0,0,0-.8.17,3.741,3.741,0,0,0-.241.9,4.646,4.646,0,0,1-.106.489l-4.475-2.584.048-.134c.515-1.432.842-2.511.345-3.37a14.7,14.7,0,0,1-1.916-5.776l.213.123c.4.23.724-.015.724-.547V31.66c.021-.294.081-.446.345-.509.846-.2,1.377-1.059,1.454-2.316a4.124,4.124,0,0,1,2.907.616,12.981,12.981,0,0,1,4.624,5.936,5.455,5.455,0,0,1,.355,3.628,5.04,5.04,0,0,0,.418,2.3c.114.384.278.938.322,1.178A1.727,1.727,0,0,1,24.046,42.631Z" transform="translate(-9.643 -22.301)" fill="#fff"/>
      </g>
    </g>
    <g id="Grupo_21" data-name="Grupo 21" transform="translate(5.816 6.199)">
      <g id="Grupo_20" data-name="Grupo 20">
        <path id="Trazado_19" data-name="Trazado 19" d="M15.392,27.865a3.744,3.744,0,0,0-.759-1.647c-.176-.221-.391-.255-.482-.073a.78.78,0,0,0,.154.731,1.868,1.868,0,0,1,.4.838,1.517,1.517,0,0,1-.1.928.729.729,0,0,0,.109.721.614.614,0,0,0,.192.186.209.209,0,0,0,.3-.046A2.5,2.5,0,0,0,15.392,27.865Z" transform="translate(-14.112 -26.028)" fill="#fff"/>
      </g>
    </g>
    <g id="Grupo_23" data-name="Grupo 23" transform="translate(4.986 0.549)">
      <g id="Grupo_22" data-name="Grupo 22">
        <path id="Trazado_20" data-name="Trazado 20" d="M13.419,18.928c-.2-.114-.357.007-.357.27v1.359a.857.857,0,0,0,.357.683c.2.114.357-.007.357-.27V19.611A.856.856,0,0,0,13.419,18.928Z" transform="translate(-13.062 -18.885)" fill="#fff"/>
      </g>
    </g>
    <g id="Grupo_25" data-name="Grupo 25" transform="translate(0 4.318)">
      <g id="Grupo_24" data-name="Grupo 24">
        <path id="Trazado_21" data-name="Trazado 21" d="M8.135,24.281l-1.019-.588c-.2-.114-.357.007-.357.27a.857.857,0,0,0,.357.683l1.019.588c.2.114.357-.007.357-.27A.856.856,0,0,0,8.135,24.281Z" transform="translate(-6.758 -23.65)" fill="#fff"/>
      </g>
    </g>
    <g id="Grupo_27" data-name="Grupo 27" transform="translate(2.494)">
      <g id="Grupo_26" data-name="Grupo 26">
        <path id="Trazado_22" data-name="Trazado 22" d="M11.087,20.121l-.509-1.47c-.1-.285-.317-.49-.488-.456s-.229.29-.13.576l.509,1.47a.787.787,0,0,0,.31.418.261.261,0,0,0,.179.039C11.127,20.663,11.186,20.406,11.087,20.121Z" transform="translate(-9.911 -18.191)" fill="#fff"/>
      </g>
    </g>
    <g id="Grupo_29" data-name="Grupo 29" transform="translate(0.668 1.379)">
      <g id="Grupo_28" data-name="Grupo 28">
        <path id="Trazado_23" data-name="Trazado 23" d="M9.021,21.333l-.883-1.189c-.171-.23-.39-.278-.488-.108a.754.754,0,0,0,.13.727l.883,1.189a.6.6,0,0,0,.179.167.208.208,0,0,0,.31-.059A.752.752,0,0,0,9.021,21.333Z" transform="translate(-7.602 -19.935)" fill="#fff"/>
      </g>
    </g>
    <g id="Grupo_31" data-name="Grupo 31" transform="translate(8.422 6.366)">
      <g id="Grupo_30" data-name="Grupo 30">
        <path id="Trazado_24" data-name="Trazado 24" d="M18.955,26.7c-.1-.285-.317-.49-.488-.456l-.883.17c-.171.033-.229.291-.13.576a.787.787,0,0,0,.31.418.261.261,0,0,0,.179.039l.883-.17C19,27.242,19.054,26.984,18.955,26.7Z" transform="translate(-17.406 -26.24)" fill="#fff"/>
      </g>
    </g>
    <g id="Grupo_33" data-name="Grupo 33" transform="translate(0.668 7.858)">
      <g id="Grupo_32" data-name="Grupo 32">
        <path id="Trazado_25" data-name="Trazado 25" d="M9.152,28.585c-.1-.285-.317-.489-.488-.456l-.883.17c-.171.033-.229.29-.131.576a.784.784,0,0,0,.31.418.261.261,0,0,0,.179.039l.883-.17C9.193,29.128,9.251,28.87,9.152,28.585Z" transform="translate(-7.603 -28.126)" fill="#fff"/>
      </g>
    </g>
    <g id="Grupo_35" data-name="Grupo 35" transform="translate(2.493 10.76)">
      <g id="Grupo_34" data-name="Grupo 34">
        <path id="Trazado_26" data-name="Trazado 26" d="M10.882,32c-.171-.23-.39-.278-.488-.108l-.436.755a.754.754,0,0,0,.13.727.6.6,0,0,0,.179.167.208.208,0,0,0,.31-.059l.436-.755A.752.752,0,0,0,10.882,32Z" transform="translate(-9.91 -31.795)" fill="#fff"/>
      </g>
    </g>
    <g id="Grupo_37" data-name="Grupo 37" transform="translate(6.97 2.879)">
      <g id="Grupo_36" data-name="Grupo 36">
        <path id="Trazado_27" data-name="Trazado 27" d="M16.616,22.041c-.171-.23-.39-.278-.488-.108l-.509.882a.754.754,0,0,0,.13.727.6.6,0,0,0,.179.167.208.208,0,0,0,.31-.059l.509-.882A.756.756,0,0,0,16.616,22.041Z" transform="translate(-15.57 -21.831)" fill="#fff"/>
      </g>
    </g>
  </g>
</svg>
