<svg id="idea" xmlns="http://www.w3.org/2000/svg" width="28.855" height="43.157" viewBox="0 0 28.855 43.157">
  <g id="Grupo_13" data-name="Grupo 13" transform="translate(0 0)">
    <g id="Grupo_11" data-name="Grupo 11">
      <g id="Grupo_10" data-name="Grupo 10">
        <path id="Trazado_12" data-name="Trazado 12" d="M27.654,11.8,7.642.25a1.889,1.889,0,0,0-2,.08h0L1.244,2.866l2.043,2.77.761.872V26.335A3.307,3.307,0,0,0,5.7,29.2l14.978,8.659.153.833,3.056,4.282,4.7-2.763.024-.014.031-.018v0a1.5,1.5,0,0,0,.717-1.288V14.751A3.408,3.408,0,0,0,27.654,11.8Z" transform="translate(-0.505 0)" fill="#f79a70"/>
        <path id="Trazado_13" data-name="Trazado 13" d="M22.47,16.37,2.222,4.687A1.482,1.482,0,0,0,0,5.971V30.208a3.3,3.3,0,0,0,1.652,2.862L21.9,44.774a1.519,1.519,0,0,0,2.28-1.315V19.323A3.411,3.411,0,0,0,22.47,16.37Z" transform="translate(0 -1.823)" fill="#f47835"/>
      </g>
    </g>
    <g id="Grupo_12" data-name="Grupo 12" transform="translate(23.379 13.634)">
      <path id="Trazado_14" data-name="Trazado 14" d="M39.409,72.349l-.029.017,0,0C39.388,72.357,39.4,72.355,39.409,72.349Z" transform="translate(-39.378 -43.028)" fill="#bbcee0"/>
      <path id="Trazado_15" data-name="Trazado 15" d="M40.2,50.966V26.83a3.359,3.359,0,0,0-.232-1.162l4.7-2.7a3.367,3.367,0,0,1,.213,1.119V48.216a1.5,1.5,0,0,1-.717,1.287v0l-.031.018-.024.014-4.661,2.74A1.5,1.5,0,0,0,40.2,50.966Z" transform="translate(-39.407 -22.963)" fill="#d66634"/>
    </g>
  </g>
  <g id="Grupo_38" data-name="Grupo 38" transform="translate(4.012 10.8)">
    <g id="Grupo_15" data-name="Grupo 15" transform="translate(10.664 11.3)">
      <g id="Grupo_14" data-name="Grupo 14" transform="translate(0)">
        <path id="Trazado_16" data-name="Trazado 16" d="M25.178,37.47c-.105-.2-.275-.3-.379-.219s-.105.306,0,.506l.012.024a.519.519,0,0,0,.183.2.164.164,0,0,0,.2,0C25.292,37.9,25.287,37.668,25.178,37.47Z" transform="translate(-24.72 -37.224)" fill="#fff"/>
      </g>
    </g>
    <g id="Grupo_17" data-name="Grupo 17" transform="translate(7.19 8.08)">
      <g id="Grupo_16" data-name="Grupo 16">
        <path id="Trazado_17" data-name="Trazado 17" d="M22.256,34.364c-.154-.228-.311-.443-.469-.639A4.773,4.773,0,0,0,19.058,31.8c-.141-.023-.221.132-.177.346a.538.538,0,0,0,.336.429,4.084,4.084,0,0,1,2.329,1.647c.135.168.276.361.408.557a.488.488,0,0,0,.15.149.157.157,0,0,0,.222-.028A.528.528,0,0,0,22.256,34.364Z" transform="translate(-18.869 -31.8)" fill="#fff"/>
      </g>
    </g>
    <g id="Grupo_19" data-name="Grupo 19" transform="translate(1.713 2.44)">
      <g id="Grupo_18" data-name="Grupo 18">
        <path id="Trazado_18" data-name="Trazado 18" d="M20.949,36.545a8.757,8.757,0,0,1-.3-1.157,5.027,5.027,0,0,0-.324-3.4,10.836,10.836,0,0,0-3.917-5.032,3.648,3.648,0,0,0-2.212-.56,5.452,5.452,0,0,0-2.26-3.816c-1.267-.731-2.3.047-2.3,1.737a5.821,5.821,0,0,0,1.1,3.248,1.142,1.142,0,0,1,.259.681v2.094a1.3,1.3,0,0,0,.543,1.038l.093.052A12.368,12.368,0,0,0,13.255,36.4a1.636,1.636,0,0,1-.073.653,10.5,10.5,0,0,1-.323,1c-.075.209-.14.389-.179.532a.552.552,0,0,0,.039.342.567.567,0,0,0,.217.271l3.831,2.212c.126.072.3.1.407-.2a3.066,3.066,0,0,0,.111-.477c.032-.175.107-.585.181-.6l.015.01a.432.432,0,0,0,.042.028c.4.232.729.445,1.018.633.848.553,1.36.886,1.81.283a3.1,3.1,0,0,0,.175-1.655,8.585,8.585,0,0,1,0-1.011,1.158,1.158,0,0,1,.237-.1c.253-.085.492-.166.492-.5A5.808,5.808,0,0,0,20.949,36.545Zm-9.926-9.433a4.461,4.461,0,0,1-.842-2.489c0-1.294.79-1.892,1.761-1.331A4.223,4.223,0,0,1,13.7,26.655c0,.823-.315,1.391-.842,1.517a.6.6,0,0,0-.47.5l-.448-.259-.448-.258A2.569,2.569,0,0,0,11.023,27.112Zm1.322,2.245v.523l-.806-.465v-.523l.806.465Zm-.8,1.3a.02.02,0,0,1-.007-.012v-.514l.806.465v.514s0,.007-.007.005Zm8.91,6.9c-.231.078-.43.145-.46.4a8.36,8.36,0,0,0-.007,1.2,3.134,3.134,0,0,1-.08,1.263c-.267.359-.5.23-1.339-.318-.277-.18-.622-.4-1.03-.641a.356.356,0,0,0-.6.128,2.809,2.809,0,0,0-.181.679,3.488,3.488,0,0,1-.08.367l-3.359-1.94.036-.1c.387-1.075.632-1.885.259-2.53a11.034,11.034,0,0,1-1.438-4.336l.16.092c.3.173.543-.011.543-.411V29.327c.016-.221.061-.335.259-.382.635-.152,1.034-.795,1.091-1.738a3.1,3.1,0,0,1,2.182.463,9.745,9.745,0,0,1,3.471,4.456,4.1,4.1,0,0,1,.267,2.723,3.784,3.784,0,0,0,.314,1.725c.085.288.209.7.242.885A1.3,1.3,0,0,1,20.455,37.562Z" transform="translate(-9.643 -22.301)" fill="#fff"/>
      </g>
    </g>
    <g id="Grupo_21" data-name="Grupo 21" transform="translate(4.366 4.653)">
      <g id="Grupo_20" data-name="Grupo 20">
        <path id="Trazado_19" data-name="Trazado 19" d="M15.073,27.407a2.81,2.81,0,0,0-.57-1.236c-.132-.166-.293-.191-.362-.055a.585.585,0,0,0,.116.549,1.4,1.4,0,0,1,.3.629,1.139,1.139,0,0,1-.074.7.547.547,0,0,0,.082.541.461.461,0,0,0,.144.14.157.157,0,0,0,.227-.034A1.877,1.877,0,0,0,15.073,27.407Z" transform="translate(-14.112 -26.028)" fill="#fff"/>
      </g>
    </g>
    <g id="Grupo_23" data-name="Grupo 23" transform="translate(3.743 0.412)">
      <g id="Grupo_22" data-name="Grupo 22">
        <path id="Trazado_20" data-name="Trazado 20" d="M13.33,18.917c-.148-.085-.268.005-.268.2v1.02a.643.643,0,0,0,.268.513c.148.085.268-.005.268-.2V19.43A.642.642,0,0,0,13.33,18.917Z" transform="translate(-13.062 -18.885)" fill="#fff"/>
      </g>
    </g>
    <g id="Grupo_25" data-name="Grupo 25" transform="translate(0 3.241)">
      <g id="Grupo_24" data-name="Grupo 24">
        <path id="Trazado_21" data-name="Trazado 21" d="M7.792,24.124l-.765-.442c-.148-.085-.268.005-.268.2a.643.643,0,0,0,.268.513l.765.442c.148.085.268-.005.268-.2A.642.642,0,0,0,7.792,24.124Z" transform="translate(-6.758 -23.65)" fill="#fff"/>
      </g>
    </g>
    <g id="Grupo_27" data-name="Grupo 27" transform="translate(1.872)">
      <g id="Grupo_26" data-name="Grupo 26">
        <path id="Trazado_22" data-name="Trazado 22" d="M10.794,19.639l-.382-1.1c-.074-.214-.238-.368-.366-.343s-.172.218-.1.432l.382,1.1a.591.591,0,0,0,.233.313.2.2,0,0,0,.134.029C10.824,20.047,10.868,19.854,10.794,19.639Z" transform="translate(-9.911 -18.191)" fill="#fff"/>
      </g>
    </g>
    <g id="Grupo_29" data-name="Grupo 29" transform="translate(0.501 1.036)">
      <g id="Grupo_28" data-name="Grupo 28">
        <path id="Trazado_23" data-name="Trazado 23" d="M8.667,20.985,8,20.092c-.128-.173-.293-.209-.366-.081a.566.566,0,0,0,.1.546l.663.892a.452.452,0,0,0,.134.125.156.156,0,0,0,.233-.045A.565.565,0,0,0,8.667,20.985Z" transform="translate(-7.602 -19.935)" fill="#fff"/>
      </g>
    </g>
    <g id="Grupo_31" data-name="Grupo 31" transform="translate(6.322 4.779)">
      <g id="Grupo_30" data-name="Grupo 30">
        <path id="Trazado_24" data-name="Trazado 24" d="M18.569,26.585c-.074-.214-.238-.368-.366-.343l-.663.128c-.128.025-.172.218-.1.432a.591.591,0,0,0,.233.313.2.2,0,0,0,.134.029l.663-.128C18.6,26.992,18.643,26.8,18.569,26.585Z" transform="translate(-17.406 -26.24)" fill="#fff"/>
      </g>
    </g>
    <g id="Grupo_33" data-name="Grupo 33" transform="translate(0.502 5.899)">
      <g id="Grupo_32" data-name="Grupo 32">
        <path id="Trazado_25" data-name="Trazado 25" d="M8.766,28.471c-.074-.214-.238-.367-.366-.343l-.663.128c-.128.025-.172.218-.1.432A.589.589,0,0,0,7.871,29a.2.2,0,0,0,.134.029l.663-.128C8.8,28.878,8.84,28.685,8.766,28.471Z" transform="translate(-7.603 -28.126)" fill="#fff"/>
      </g>
    </g>
    <g id="Grupo_35" data-name="Grupo 35" transform="translate(1.872 8.077)">
      <g id="Grupo_34" data-name="Grupo 34">
        <path id="Trazado_26" data-name="Trazado 26" d="M10.64,31.952c-.128-.173-.293-.209-.366-.081l-.327.567a.566.566,0,0,0,.1.546.452.452,0,0,0,.134.125.156.156,0,0,0,.233-.045l.327-.567A.564.564,0,0,0,10.64,31.952Z" transform="translate(-9.91 -31.795)" fill="#fff"/>
      </g>
    </g>
    <g id="Grupo_37" data-name="Grupo 37" transform="translate(5.232 2.161)">
      <g id="Grupo_36" data-name="Grupo 36">
        <path id="Trazado_27" data-name="Trazado 27" d="M16.355,21.988c-.128-.173-.293-.209-.366-.081l-.382.662a.566.566,0,0,0,.1.546.451.451,0,0,0,.134.125.156.156,0,0,0,.233-.045l.382-.662A.567.567,0,0,0,16.355,21.988Z" transform="translate(-15.57 -21.831)" fill="#fff"/>
      </g>
    </g>
  </g>
</svg>
