<svg id="idea" xmlns="http://www.w3.org/2000/svg" width="39.404" height="58.934" viewBox="0 0 39.404 58.934">
  <g id="Grupo_13" data-name="Grupo 13" transform="translate(0 0)">
    <g id="Grupo_11" data-name="Grupo 11">
      <g id="Grupo_10" data-name="Grupo 10">
        <path id="Trazado_12" data-name="Trazado 12" d="M37.308,16.111,9.981.341A2.58,2.58,0,0,0,7.245.45h0l-6,3.465L4.034,7.7,5.073,8.888V35.962a4.515,4.515,0,0,0,2.256,3.909L27.782,51.7l.209,1.137,4.174,5.848,6.419-3.773.032-.019.043-.025v0a2.052,2.052,0,0,0,.979-1.759V20.144A4.654,4.654,0,0,0,37.308,16.111Z" transform="translate(-0.235 0)" fill="#f79a70"/>
        <path id="Trazado_13" data-name="Trazado 13" d="M30.685,20.714,3.035,4.76A2.024,2.024,0,0,0,0,6.514v33.1a4.513,4.513,0,0,0,2.256,3.908L29.9,59.5a2.075,2.075,0,0,0,3.113-1.8V24.747A4.657,4.657,0,0,0,30.685,20.714Z" transform="translate(0 -0.849)" fill="#f47835"/>
      </g>
    </g>
    <g id="Grupo_12" data-name="Grupo 12" transform="translate(31.926 18.618)">
      <path id="Trazado_14" data-name="Trazado 14" d="M39.421,72.349l-.04.024,0,0C39.392,72.36,39.407,72.357,39.421,72.349Z" transform="translate(-39.378 -32.309)" fill="#bbcee0"/>
      <path id="Trazado_15" data-name="Trazado 15" d="M40.48,61.2V28.244a4.587,4.587,0,0,0-.316-1.587l6.413-3.694a4.6,4.6,0,0,1,.291,1.527V57.448a2.05,2.05,0,0,1-.979,1.758v0l-.043.024-.032.019L39.45,62.994A2.054,2.054,0,0,0,40.48,61.2Z" transform="translate(-39.392 -22.963)" fill="#d66634"/>
    </g>
  </g>
  <g id="Grupo_38" data-name="Grupo 38" transform="translate(5.479 14.748)">
    <g id="Grupo_15" data-name="Grupo 15" transform="translate(14.563 15.431)">
      <g id="Grupo_14" data-name="Grupo 14" transform="translate(0)">
        <path id="Trazado_16" data-name="Trazado 16" d="M25.346,37.56c-.144-.273-.375-.407-.518-.3s-.144.418,0,.691l.017.032a.709.709,0,0,0,.251.276.224.224,0,0,0,.268,0C25.5,38.144,25.494,37.83,25.346,37.56Z" transform="translate(-24.72 -37.224)" fill="#fff"/>
      </g>
    </g>
    <g id="Grupo_17" data-name="Grupo 17" transform="translate(9.819 11.034)">
      <g id="Grupo_16" data-name="Grupo 16">
        <path id="Trazado_17" data-name="Trazado 17" d="M23.494,35.3c-.21-.311-.425-.6-.64-.873A6.518,6.518,0,0,0,19.127,31.8c-.193-.032-.3.18-.242.472a.734.734,0,0,0,.459.586,5.578,5.578,0,0,1,3.18,2.249c.184.229.377.493.558.761a.667.667,0,0,0,.205.2.214.214,0,0,0,.3-.039A.721.721,0,0,0,23.494,35.3Z" transform="translate(-18.869 -31.8)" fill="#fff"/>
      </g>
    </g>
    <g id="Grupo_19" data-name="Grupo 19" transform="translate(2.339 3.333)">
      <g id="Grupo_18" data-name="Grupo 18">
        <path id="Trazado_18" data-name="Trazado 18" d="M25.082,41.752a11.958,11.958,0,0,1-.4-1.579,6.864,6.864,0,0,0-.442-4.647,14.8,14.8,0,0,0-5.349-6.872,4.982,4.982,0,0,0-3.021-.765,7.446,7.446,0,0,0-3.086-5.212c-1.73-1-3.138.065-3.138,2.371a7.948,7.948,0,0,0,1.5,4.436,1.559,1.559,0,0,1,.353.93v2.86a1.782,1.782,0,0,0,.742,1.418l.126.071a16.89,16.89,0,0,0,2.21,6.786,2.234,2.234,0,0,1-.1.892,14.337,14.337,0,0,1-.441,1.371c-.1.285-.191.532-.245.726a.753.753,0,0,0,.054.467.775.775,0,0,0,.3.371l5.231,3.02c.172.1.408.133.556-.27a4.187,4.187,0,0,0,.152-.652c.044-.239.146-.8.247-.815a.132.132,0,0,1,.02.013.59.59,0,0,0,.057.039c.548.316,1,.608,1.39.865,1.159.755,1.857,1.21,2.471.386A4.24,4.24,0,0,0,24.5,45.7a11.723,11.723,0,0,1,0-1.38,1.581,1.581,0,0,1,.324-.135c.345-.117.672-.227.672-.681A7.932,7.932,0,0,0,25.082,41.752ZM11.527,28.871a6.091,6.091,0,0,1-1.15-3.4c0-1.767,1.078-2.583,2.4-1.818a5.767,5.767,0,0,1,2.4,4.594c0,1.125-.43,1.9-1.15,2.071a.821.821,0,0,0-.642.676l-.612-.353-.611-.353A3.509,3.509,0,0,0,11.527,28.871Zm1.8,3.065v.714l-1.1-.636V31.3l1.1.636Zm-1.091,1.776a.027.027,0,0,1-.009-.017v-.7l1.1.636v.7c0,.006,0,.01-.009.007Zm12.167,9.429c-.315.107-.588.2-.628.553a11.415,11.415,0,0,0-.01,1.638,4.279,4.279,0,0,1-.109,1.725c-.365.49-.68.315-1.828-.434-.379-.246-.849-.553-1.407-.876a.486.486,0,0,0-.818.174,3.835,3.835,0,0,0-.247.928,4.762,4.762,0,0,1-.109.5L14.664,44.7l.049-.138c.528-1.467.863-2.574.353-3.455A15.067,15.067,0,0,1,13.1,35.189l.218.126c.409.236.742-.015.742-.561V31.9c.022-.3.083-.457.353-.522.868-.208,1.412-1.086,1.49-2.374a4.228,4.228,0,0,1,2.98.632,13.307,13.307,0,0,1,4.74,6.086,5.592,5.592,0,0,1,.364,3.719,5.167,5.167,0,0,0,.429,2.356c.117.393.285.962.33,1.208A1.77,1.77,0,0,1,24.408,43.142Z" transform="translate(-9.643 -22.301)" fill="#fff"/>
      </g>
    </g>
    <g id="Grupo_21" data-name="Grupo 21" transform="translate(5.962 6.355)">
      <g id="Grupo_20" data-name="Grupo 20">
        <path id="Trazado_19" data-name="Trazado 19" d="M15.425,27.911a3.838,3.838,0,0,0-.778-1.688c-.18-.227-.4-.261-.494-.075a.8.8,0,0,0,.158.749,1.915,1.915,0,0,1,.406.859,1.555,1.555,0,0,1-.1.951.747.747,0,0,0,.112.739.629.629,0,0,0,.2.191.215.215,0,0,0,.31-.047A2.564,2.564,0,0,0,15.425,27.911Z" transform="translate(-14.112 -26.028)" fill="#fff"/>
      </g>
    </g>
    <g id="Grupo_23" data-name="Grupo 23" transform="translate(5.111 0.563)">
      <g id="Grupo_22" data-name="Grupo 22">
        <path id="Trazado_20" data-name="Trazado 20" d="M13.428,18.929c-.2-.117-.366.007-.366.277V20.6a.878.878,0,0,0,.366.7c.2.117.366-.007.366-.277V19.629A.877.877,0,0,0,13.428,18.929Z" transform="translate(-13.062 -18.885)" fill="#fff"/>
      </g>
    </g>
    <g id="Grupo_25" data-name="Grupo 25" transform="translate(0 4.426)">
      <g id="Grupo_24" data-name="Grupo 24">
        <path id="Trazado_21" data-name="Trazado 21" d="M8.17,24.3l-1.045-.6c-.2-.117-.366.007-.366.277a.878.878,0,0,0,.366.7l1.045.6c.2.117.366-.007.366-.277A.877.877,0,0,0,8.17,24.3Z" transform="translate(-6.758 -23.65)" fill="#fff"/>
      </g>
    </g>
    <g id="Grupo_27" data-name="Grupo 27" transform="translate(2.556)">
      <g id="Grupo_26" data-name="Grupo 26">
        <path id="Trazado_22" data-name="Trazado 22" d="M11.117,20.169l-.522-1.507c-.1-.292-.325-.5-.5-.468s-.235.3-.134.59l.522,1.507a.807.807,0,0,0,.318.428.268.268,0,0,0,.183.04C11.158,20.725,11.218,20.462,11.117,20.169Z" transform="translate(-9.911 -18.191)" fill="#fff"/>
      </g>
    </g>
    <g id="Grupo_29" data-name="Grupo 29" transform="translate(0.684 1.414)">
      <g id="Grupo_28" data-name="Grupo 28">
        <path id="Trazado_23" data-name="Trazado 23" d="M9.057,21.368l-.9-1.219c-.175-.236-.4-.285-.5-.11a.773.773,0,0,0,.134.745L8.69,22a.617.617,0,0,0,.183.171.213.213,0,0,0,.318-.061A.771.771,0,0,0,9.057,21.368Z" transform="translate(-7.602 -19.935)" fill="#fff"/>
      </g>
    </g>
    <g id="Grupo_31" data-name="Grupo 31" transform="translate(8.633 6.526)">
      <g id="Grupo_30" data-name="Grupo 30">
        <path id="Trazado_24" data-name="Trazado 24" d="M18.994,26.711c-.1-.292-.325-.5-.5-.468l-.9.174c-.175.034-.235.3-.134.59a.807.807,0,0,0,.318.428.268.268,0,0,0,.183.04l.9-.174C19.036,27.267,19.1,27,18.994,26.711Z" transform="translate(-17.406 -26.24)" fill="#fff"/>
      </g>
    </g>
    <g id="Grupo_33" data-name="Grupo 33" transform="translate(0.685 8.055)">
      <g id="Grupo_32" data-name="Grupo 32">
        <path id="Trazado_25" data-name="Trazado 25" d="M9.191,28.6c-.1-.292-.325-.5-.5-.468l-.9.174c-.175.034-.235.3-.135.59a.8.8,0,0,0,.318.428.268.268,0,0,0,.183.04l.9-.174C9.233,29.153,9.293,28.889,9.191,28.6Z" transform="translate(-7.603 -28.126)" fill="#fff"/>
      </g>
    </g>
    <g id="Grupo_35" data-name="Grupo 35" transform="translate(2.556 11.03)">
      <g id="Grupo_34" data-name="Grupo 34">
        <path id="Trazado_26" data-name="Trazado 26" d="M10.906,32.01c-.175-.236-.4-.285-.5-.11l-.447.774a.772.772,0,0,0,.134.745.617.617,0,0,0,.183.171.213.213,0,0,0,.318-.061l.447-.774A.771.771,0,0,0,10.906,32.01Z" transform="translate(-9.91 -31.795)" fill="#fff"/>
      </g>
    </g>
    <g id="Grupo_37" data-name="Grupo 37" transform="translate(7.145 2.951)">
      <g id="Grupo_36" data-name="Grupo 36">
        <path id="Trazado_27" data-name="Trazado 27" d="M16.642,22.046c-.175-.236-.4-.285-.5-.11l-.522.9a.772.772,0,0,0,.134.745.617.617,0,0,0,.183.171.213.213,0,0,0,.318-.061l.522-.9A.775.775,0,0,0,16.642,22.046Z" transform="translate(-15.57 -21.831)" fill="#fff"/>
      </g>
    </g>
  </g>
</svg>
