<svg id="network" xmlns="http://www.w3.org/2000/svg" width="38.438" height="57.491" viewBox="0 0 38.438 57.491">
  <g id="Grupo_9" data-name="Grupo 9" transform="translate(0 0)">
    <g id="Grupo_7" data-name="Grupo 7">
      <g id="Grupo_6" data-name="Grupo 6">
        <path id="Trazado_7" data-name="Trazado 7" d="M36.425,15.716,9.767.333A2.517,2.517,0,0,0,7.1.439h0L1.244,3.818l2.721,3.69L4.979,8.671v26.41a4.4,4.4,0,0,0,2.2,3.813L27.132,50.429l.2,1.11,4.072,5.7,6.262-3.681.032-.018.042-.025v0A2,2,0,0,0,38.7,51.8V19.651A4.54,4.54,0,0,0,36.425,15.716Z" transform="translate(-0.26 0)" fill="#7ac1dd"/>
        <path id="Trazado_8" data-name="Trazado 8" d="M29.933,20.317,2.96,4.753A1.974,1.974,0,0,0,0,6.464V38.75a4.4,4.4,0,0,0,2.2,3.812L29.169,58.154A2.024,2.024,0,0,0,32.206,56.4V24.251A4.543,4.543,0,0,0,29.933,20.317Z" transform="translate(0 -0.938)" fill="#5b99b8"/>
      </g>
    </g>
    <g id="Grupo_8" data-name="Grupo 8" transform="translate(31.144 18.162)">
      <path id="Trazado_9" data-name="Trazado 9" d="M39.42,72.349l-.039.023,0,0C39.391,72.359,39.406,72.357,39.42,72.349Z" transform="translate(-39.378 -33.29)" fill="#bbcee0"/>
      <path id="Trazado_10" data-name="Trazado 10" d="M40.455,60.267V28.115a4.474,4.474,0,0,0-.308-1.549l6.256-3.6a4.485,4.485,0,0,1,.284,1.49V56.6a2,2,0,0,1-.955,1.715v0l-.042.024-.032.018-6.209,3.65A2,2,0,0,0,40.455,60.267Z" transform="translate(-39.393 -22.963)" fill="#4c8196"/>
    </g>
  </g>
  <path id="Trazado_11" data-name="Trazado 11" d="M24.606,26.42c-1.11-.641-2.014.042-2.014,1.522a4.6,4.6,0,0,0,.244,1.42l-3.3,2.494a4.973,4.973,0,0,0-1.643-1.7,1.766,1.766,0,0,0-1.643-.194l-2.574-4.918a1.538,1.538,0,0,0,.191-.793,3.218,3.218,0,0,0-1.342-2.565c-.74-.427-1.342.028-1.342,1.015a3.218,3.218,0,0,0,1.342,2.565.953.953,0,0,0,.678.138l2.574,4.918a2.8,2.8,0,0,0-.566,1.865,6.441,6.441,0,0,0,.566,2.518l-4.25,3.213a3.892,3.892,0,0,0-1.351-1.479c-1.11-.641-2.014.042-2.014,1.522a4.83,4.83,0,0,0,2.014,3.848c1.11.641,2.014-.042,2.014-1.522a4.6,4.6,0,0,0-.244-1.42l4.306-3.255a5.358,5.358,0,0,0,1.308,1.48v4.546c-.951-.335-1.678.348-1.678,1.676a4.83,4.83,0,0,0,2.014,3.848c1.11.641,2.014-.042,2.014-1.522a5.015,5.015,0,0,0-1.678-3.614V37.475a1.609,1.609,0,0,0,1.308.031l2.574,4.918a1.533,1.533,0,0,0-.191.794,3.218,3.218,0,0,0,1.342,2.565c.74.427,1.342-.028,1.342-1.015A3.218,3.218,0,0,0,23.263,42.2a.953.953,0,0,0-.678-.138l-2.574-4.918a2.8,2.8,0,0,0,.566-1.865,6.441,6.441,0,0,0-.566-2.518l3.243-2.452a3.888,3.888,0,0,0,1.35,1.478c1.11.641,2.014-.042,2.014-1.522A4.831,4.831,0,0,0,24.606,26.42ZM11.853,23.085c0-.494.3-.721.671-.508A1.61,1.61,0,0,1,13.2,23.86c0,.494-.3.721-.671.508A1.61,1.61,0,0,1,11.853,23.085ZM10.175,40.91a3.218,3.218,0,0,1-1.342-2.565c0-.987.6-1.443,1.342-1.015A3.22,3.22,0,0,1,11.517,39.9C11.517,40.882,10.915,41.337,10.175,40.91Zm9.061,4.336c0,.987-.6,1.443-1.342,1.015A3.22,3.22,0,0,1,16.552,43.7c0-.987.6-1.443,1.342-1.015A3.22,3.22,0,0,1,19.236,45.247Zm-1.342-8.83a4.83,4.83,0,0,1-2.014-3.848c0-1.481.9-2.163,2.014-1.522a4.83,4.83,0,0,1,2.014,3.848C19.908,36.375,19,37.058,17.894,36.417Zm6.041,7.963c0,.494-.3.721-.671.508a1.61,1.61,0,0,1-.671-1.283c0-.494.3-.721.671-.508A1.612,1.612,0,0,1,23.935,44.38Zm.671-13.485a3.218,3.218,0,0,1-1.342-2.565c0-.987.6-1.443,1.342-1.015a3.22,3.22,0,0,1,1.342,2.565C25.948,30.867,25.347,31.323,24.606,30.895Z" transform="translate(-1.707 -4.5)" fill="#fff"/>
</svg>
