<svg id="network" xmlns="http://www.w3.org/2000/svg" width="40.241" height="60.187" viewBox="0 0 40.241 60.187">
  <g id="Grupo_9" data-name="Grupo 9" transform="translate(0 0)">
    <g id="Grupo_7" data-name="Grupo 7">
      <g id="Grupo_6" data-name="Grupo 6">
        <path id="Trazado_7" data-name="Trazado 7" d="M38.075,16.453,10.166.349A2.635,2.635,0,0,0,7.373.46h0L1.244,4,4.093,7.861,5.155,9.077V36.726a4.611,4.611,0,0,0,2.3,3.992L28.346,52.794l.214,1.162,4.262,5.972,6.555-3.853.033-.019.044-.026v0a2.1,2.1,0,0,0,1-1.8V20.572A4.753,4.753,0,0,0,38.075,16.453Z" transform="translate(-0.214 0)" fill="#7ac1dd"/>
        <path id="Trazado_8" data-name="Trazado 8" d="M31.337,21.059,3.1,4.766A2.067,2.067,0,0,0,0,6.557v33.8a4.609,4.609,0,0,0,2.3,3.991L30.537,60.671a2.119,2.119,0,0,0,3.179-1.834V25.178A4.756,4.756,0,0,0,31.337,21.059Z" transform="translate(0 -0.772)" fill="#5b99b8"/>
      </g>
    </g>
    <g id="Grupo_8" data-name="Grupo 8" transform="translate(32.605 19.013)">
      <path id="Trazado_9" data-name="Trazado 9" d="M39.422,72.349l-.041.024,0,0C39.392,72.36,39.408,72.357,39.422,72.349Z" transform="translate(-39.378 -31.458)" fill="#bbcee0"/>
      <path id="Trazado_10" data-name="Trazado 10" d="M40.5,62.016V28.357a4.684,4.684,0,0,0-.323-1.621l6.549-3.772a4.7,4.7,0,0,1,.3,1.56V58.181a2.093,2.093,0,0,1-1,1.8v0L45.983,60l-.033.019-6.5,3.821A2.1,2.1,0,0,0,40.5,62.016Z" transform="translate(-39.39 -22.963)" fill="#4c8196"/>
    </g>
  </g>
  <path id="Trazado_11" data-name="Trazado 11" d="M25.378,26.65c-1.162-.672-2.108.044-2.108,1.594a4.81,4.81,0,0,0,.255,1.487l-3.454,2.611a5.207,5.207,0,0,0-1.721-1.784,1.849,1.849,0,0,0-1.721-.2l-2.694-5.148a1.61,1.61,0,0,0,.2-.83A3.369,3.369,0,0,0,12.73,21.69c-.775-.447-1.405.029-1.405,1.062a3.369,3.369,0,0,0,1.405,2.685,1,1,0,0,0,.71.144l2.694,5.148a2.927,2.927,0,0,0-.593,1.952,6.743,6.743,0,0,0,.593,2.636l-4.45,3.364a4.074,4.074,0,0,0-1.414-1.548c-1.163-.672-2.108.044-2.108,1.594a5.057,5.057,0,0,0,2.108,4.028c1.162.672,2.108-.044,2.108-1.594a4.81,4.81,0,0,0-.255-1.487l4.508-3.407A5.609,5.609,0,0,0,18,37.818v4.759c-1-.351-1.757.364-1.757,1.755a5.056,5.056,0,0,0,2.108,4.028c1.162.672,2.108-.044,2.108-1.594A5.25,5.25,0,0,0,18.7,42.983V38.223a1.685,1.685,0,0,0,1.369.032L22.766,43.4a1.605,1.605,0,0,0-.2.831,3.369,3.369,0,0,0,1.405,2.685c.775.447,1.405-.029,1.405-1.062a3.369,3.369,0,0,0-1.405-2.685,1,1,0,0,0-.71-.144l-2.694-5.148a2.927,2.927,0,0,0,.593-1.952,6.743,6.743,0,0,0-.593-2.636l3.4-2.567a4.07,4.07,0,0,0,1.413,1.548c1.163.672,2.108-.044,2.108-1.594A5.057,5.057,0,0,0,25.378,26.65ZM12.026,23.158c0-.517.315-.755.7-.532a1.686,1.686,0,0,1,.7,1.343c0,.517-.315.755-.7.532A1.686,1.686,0,0,1,12.026,23.158ZM10.269,41.819a3.369,3.369,0,0,1-1.405-2.685c0-1.033.63-1.51,1.405-1.062a3.371,3.371,0,0,1,1.405,2.685C11.674,41.79,11.044,42.267,10.269,41.819Zm9.486,4.54c0,1.033-.63,1.51-1.405,1.062a3.371,3.371,0,0,1-1.405-2.685c0-1.033.63-1.51,1.405-1.062A3.371,3.371,0,0,1,19.756,46.359ZM18.35,37.116a5.056,5.056,0,0,1-2.108-4.028c0-1.55.946-2.265,2.108-1.594a5.057,5.057,0,0,1,2.108,4.028C20.459,37.072,19.513,37.787,18.35,37.116Zm6.324,8.336c0,.517-.315.755-.7.532a1.686,1.686,0,0,1-.7-1.343c0-.517.315-.755.7-.532A1.687,1.687,0,0,1,24.675,45.452Zm.7-14.117a3.369,3.369,0,0,1-1.405-2.685c0-1.033.63-1.51,1.405-1.062a3.371,3.371,0,0,1,1.405,2.685C26.783,31.306,26.153,31.782,25.378,31.335Z" transform="translate(-1.404 -3.702)" fill="#fff"/>
</svg>
