<svg id="network" xmlns="http://www.w3.org/2000/svg" width="28.855" height="43.157" viewBox="0 0 28.855 43.157">
  <g id="Grupo_9" data-name="Grupo 9" transform="translate(0 0)">
    <g id="Grupo_7" data-name="Grupo 7">
      <g id="Grupo_6" data-name="Grupo 6">
        <path id="Trazado_7" data-name="Trazado 7" d="M27.654,11.8,7.642.25a1.889,1.889,0,0,0-2,.08h0L1.244,2.866l2.043,2.77.761.872V26.335A3.307,3.307,0,0,0,5.7,29.2l14.978,8.659.153.833,3.056,4.282,4.7-2.763.024-.014.031-.018v0a1.5,1.5,0,0,0,.717-1.288V14.751A3.408,3.408,0,0,0,27.654,11.8Z" transform="translate(-0.505 0)" fill="#7ac1dd"/>
        <path id="Trazado_8" data-name="Trazado 8" d="M22.47,16.37,2.222,4.687A1.482,1.482,0,0,0,0,5.971V30.208a3.3,3.3,0,0,0,1.652,2.862L21.9,44.774a1.519,1.519,0,0,0,2.28-1.315V19.323A3.411,3.411,0,0,0,22.47,16.37Z" transform="translate(0 -1.823)" fill="#5b99b8"/>
      </g>
    </g>
    <g id="Grupo_8" data-name="Grupo 8" transform="translate(23.379 13.634)">
      <path id="Trazado_9" data-name="Trazado 9" d="M39.409,72.349l-.029.017,0,0C39.388,72.357,39.4,72.355,39.409,72.349Z" transform="translate(-39.378 -43.028)" fill="#bbcee0"/>
      <path id="Trazado_10" data-name="Trazado 10" d="M40.2,50.966V26.83a3.359,3.359,0,0,0-.232-1.162l4.7-2.7a3.367,3.367,0,0,1,.213,1.119V48.216a1.5,1.5,0,0,1-.717,1.287v0l-.031.018-.024.014-4.661,2.74A1.5,1.5,0,0,0,40.2,50.966Z" transform="translate(-39.407 -22.963)" fill="#4c8196"/>
    </g>
  </g>
  <path id="Trazado_11" data-name="Trazado 11" d="M20.507,25.2c-.834-.482-1.512.031-1.512,1.143a3.449,3.449,0,0,0,.183,1.066L16.7,29.28A3.733,3.733,0,0,0,15.468,28a1.326,1.326,0,0,0-1.234-.145L12.3,24.163a1.155,1.155,0,0,0,.143-.6,2.416,2.416,0,0,0-1.008-1.925c-.556-.321-1.008.021-1.008.762a2.416,2.416,0,0,0,1.008,1.925.716.716,0,0,0,.509.1l1.932,3.692a2.1,2.1,0,0,0-.425,1.4,4.835,4.835,0,0,0,.425,1.89l-3.191,2.412a2.921,2.921,0,0,0-1.014-1.11c-.834-.482-1.512.031-1.512,1.143a3.626,3.626,0,0,0,1.512,2.888c.834.482,1.512-.031,1.512-1.143A3.449,3.449,0,0,0,11,34.539L14.235,32.1a4.022,4.022,0,0,0,.982,1.111V36.62c-.714-.252-1.26.261-1.26,1.258a3.626,3.626,0,0,0,1.512,2.888c.834.481,1.512-.031,1.512-1.143a3.764,3.764,0,0,0-1.26-2.713V33.5a1.208,1.208,0,0,0,.982.023l1.932,3.692a1.151,1.151,0,0,0-.143.6A2.416,2.416,0,0,0,19.5,39.734c.556.321,1.008-.021,1.008-.762A2.416,2.416,0,0,0,19.5,37.047a.716.716,0,0,0-.509-.1l-1.932-3.692a2.1,2.1,0,0,0,.425-1.4,4.835,4.835,0,0,0-.425-1.89l2.435-1.841a2.919,2.919,0,0,0,1.013,1.11c.834.482,1.512-.031,1.512-1.143A3.626,3.626,0,0,0,20.507,25.2Zm-9.574-2.5c0-.37.226-.541.5-.381a1.209,1.209,0,0,1,.5.963c0,.37-.226.541-.5.381A1.209,1.209,0,0,1,10.933,22.7ZM9.673,36.076a2.416,2.416,0,0,1-1.008-1.925c0-.741.452-1.083,1.008-.762a2.417,2.417,0,0,1,1.008,1.925C10.681,36.056,10.229,36.4,9.673,36.076Zm6.8,3.255c0,.741-.452,1.083-1.008.762a2.417,2.417,0,0,1-1.008-1.925c0-.741.452-1.083,1.008-.762A2.417,2.417,0,0,1,16.475,39.332ZM15.468,32.7a3.626,3.626,0,0,1-1.512-2.888c0-1.111.678-1.624,1.512-1.143a3.626,3.626,0,0,1,1.512,2.888C16.979,32.672,16.3,33.185,15.468,32.7ZM20,38.681c0,.37-.226.541-.5.381a1.209,1.209,0,0,1-.5-.963c0-.37.226-.541.5-.381A1.21,1.21,0,0,1,20,38.681Zm.5-10.123A2.416,2.416,0,0,1,19.5,26.633c0-.741.452-1.083,1.008-.762A2.417,2.417,0,0,1,21.514,27.8C21.514,28.537,21.062,28.879,20.507,28.558Z" transform="translate(-3.316 -8.744)" fill="#fff"/>
</svg>
