<svg id="Objects" xmlns="http://www.w3.org/2000/svg" width="247.211" height="221.435" viewBox="0 0 247.211 221.435">
  <g id="Grupo_392" data-name="Grupo 392" transform="translate(18.549 63.025)">
    <ellipse id="Elipse_23" data-name="Elipse 23" cx="11.623" cy="4.151" rx="11.623" ry="4.151" transform="translate(0 63.456)" opacity="0.1"/>
    <g id="Grupo_391" data-name="Grupo 391" transform="translate(1.784)">
      <g id="Grupo_388" data-name="Grupo 388" transform="translate(4.545 26.421)">
        <path id="Trazado_1196" data-name="Trazado 1196" d="M486.814,1786.906c-.064.646-.426.709-1.526.383s-7.373-1.98-7.479-3.725a2.176,2.176,0,0,1,1.2-2.264,3.839,3.839,0,0,0,2.931,1.625C482.208,1783.479,486.878,1786.253,486.814,1786.906Z" transform="translate(-477.802 -1747.466)" fill="#073c5c"/>
        <path id="Trazado_1197" data-name="Trazado 1197" d="M521.327,1313.973a87.363,87.363,0,0,1-1.632,11.6c-.248,1.228-3.647,6.9-5.826,10.744h0a8.876,8.876,0,0,1-3.669-1.235c1.192-3.5,3.037-8.721,3.839-10a6.026,6.026,0,0,1,2.484-2.455l-2.136-15.831,5.627-2.292A33.389,33.389,0,0,1,521.327,1313.973Z" transform="translate(-507.901 -1304.5)" fill="#063f61"/>
        <path id="Trazado_1198" data-name="Trazado 1198" d="M497.731,1740.382a3.861,3.861,0,0,1-2.931-1.625s.454-1.384,1.093-3.257a8.811,8.811,0,0,0,3.669,1.235A16.518,16.518,0,0,0,497.731,1740.382Z" transform="translate(-493.594 -1704.916)" fill="#fbc3b1"/>
      </g>
      <g id="Grupo_389" data-name="Grupo 389" transform="translate(6.09 27.954)">
        <path id="Trazado_1199" data-name="Trazado 1199" d="M512.167,1851.777a1.828,1.828,0,0,1-.8,2.923c-2.136.263-2.76-1.49-3.186-2.235s-1.646-1.646-2.079-2.342-.213-1.646.426-2.924a2.454,2.454,0,0,0,3.037,1.2C509.974,1849.705,510.954,1850.116,512.167,1851.777Z" transform="translate(-505.431 -1810.222)" fill="#073c5c"/>
        <path id="Trazado_1200" data-name="Trazado 1200" d="M500.03,1335.148c-1.221-5.691.355-9.048.355-9.048l6.919.305c.305,1.852.5,6.2.5,6.2s-1.072,11.581-1.284,14.5c-.156,2.093-1.717,8.487-2.519,12.716a10.029,10.029,0,0,1-2.938-.185c.106-3.044-.021-7.053-.121-7.955-.156-1.384,1.377-5.748,1.377-5.748S501.251,1340.839,500.03,1335.148Z" transform="translate(-499.567 -1326.1)" fill="#004e78"/>
        <path id="Trazado_1201" data-name="Trazado 1201" d="M517.974,1802.7a4.293,4.293,0,0,0,.163.83,2.454,2.454,0,0,1-3.037-1.2,12.29,12.29,0,0,0,.4-3.435,10.034,10.034,0,0,0,2.938.185A17.05,17.05,0,0,0,517.974,1802.7Z" transform="translate(-513.998 -1765.349)" fill="#fbc3b1"/>
      </g>
      <g id="Grupo_390" data-name="Grupo 390" transform="translate(13.403 11.683)">
        <path id="Trazado_1202" data-name="Trazado 1202" d="M609.668,1107.274a5.961,5.961,0,0,0-1.5,2.171,10.224,10.224,0,0,1-2.434-1.739c-.795-1.107-2.633-6.606-3.023-8.217a2.752,2.752,0,0,1,.852-2.64,1.947,1.947,0,0,1,2.306,1.639c.355,1.249.9,5.549,1.93,6.834A22.223,22.223,0,0,0,609.668,1107.274Z" transform="translate(-602.63 -1096.808)" fill="#cc2468"/>
        <path id="Trazado_1203" data-name="Trazado 1203" d="M690.726,1249.267c-.177.4-1.142,1.824-2.214,1.568a9.076,9.076,0,0,1-3.5-2s-2.427-1.206-4.414-2.363a5.761,5.761,0,0,1,1.5-2.171c1.6,1.511,3.619,3.193,4.3,3.222,1.036.035,2.931-.93,3.037-.469s-1.178,1.107-1.178,1.107S690.9,1248.877,690.726,1249.267Z" transform="translate(-675.067 -1233.834)" fill="#fbc3b1"/>
      </g>
      <path id="Trazado_1204" data-name="Trazado 1204" d="M496.4,980.1c-.362.234-1.483.362-1.221,2.682s1.547,1.923,1.547,1.923-1.242,2.5,2.143,3.115l3.967-4.485-1.59-1.76-1.973-1.313-1.568-.043Z" transform="translate(-489.368 -976.698)" fill="#f99f1b"/>
      <path id="Trazado_1205" data-name="Trazado 1205" d="M531.971,959.881a3.431,3.431,0,0,1,4.265,2.995c.227,2.583-.27,4.038-.859,4.173s-3.718.411-4.854-3.584S531.971,959.881,531.971,959.881Z" transform="translate(-521.969 -957.849)" fill="#fbc3b1"/>
      <path id="Trazado_1206" data-name="Trazado 1206" d="M539.215,1013.336a11.322,11.322,0,0,0-.5,4.172s-2.583.844-3.718-.518l.908-5.791Z" transform="translate(-526.396 -1005.591)" fill="#fbc3b1"/>
      <path id="Trazado_1207" data-name="Trazado 1207" d="M505.632,936.083c-.043-1.05.106-3.647,3.158-3.066,0,0,.426-1.306,2.349-.688s2.888,2.491,2.3,3.5-2.569,0-3.03-.362c0,0-.106,1.845-1.426,2.079,0,0,.255,2.1-1.178,2.207l-.092,2.186-1.561-4.166Z" transform="translate(-499.107 -932.164)" fill="#f99f1b"/>
      <path id="Trazado_1208" data-name="Trazado 1208" d="M479.888,1087.588a32.315,32.315,0,0,0,.021,5.656,8.506,8.506,0,0,1-9.75,1.533s1.306-5.024.5-6.422-2.363-3.087-2.881-4.3-1.171-2.455-.362-3.13a34.7,34.7,0,0,1,3.193-2.3c.766,1.3,2.853,4.251,5.691,3.548,2.6-.646.937-3.513-.2-5.074a5.793,5.793,0,0,1,2.242.284c.312.341,3.335,3.967,3.2,5.294S480.2,1086.1,479.888,1087.588Z" transform="translate(-463.251 -1066.815)" fill="#b01e5a"/>
      <path id="Trazado_1209" data-name="Trazado 1209" d="M522.991,1082.046c-2.839.7-4.925-2.25-5.691-3.548a10.3,10.3,0,0,1,2.768-1.355,14.581,14.581,0,0,1,2.718-.17C523.935,1078.541,525.6,1081.407,522.991,1082.046Z" transform="translate(-509.952 -1066.695)" fill="#fbc3b1"/>
      <path id="Trazado_1210" data-name="Trazado 1210" d="M419.093,1138.969c-1.27,2.122-2.391,3.569-2.093,4.1.128.227.7,1.462,1.433,2.874a4.825,4.825,0,0,0-2.512,1.526c-1.171-1.462-2.122-2.9-2.171-3.747-.121-2.271,2.64-7.955,3.321-9.573s1.341-.873,2.022-.369C419.8,1134.3,420.356,1136.84,419.093,1138.969Z" transform="translate(-413.746 -1118.899)" fill="#cc2468"/>
      <path id="Trazado_1211" data-name="Trazado 1211" d="M452.674,1320.617c-.383.291-2.888.411-3.775-.766a64.738,64.738,0,0,1-4.5-4.925,4.825,4.825,0,0,1,2.512-1.526c.965,1.866,2.207,4.023,3.03,4.506,0,0,2.533-.234,2.739.412S453.057,1320.318,452.674,1320.617Z" transform="translate(-442.225 -1286.347)" fill="#fbc3b1"/>
    </g>
  </g>
  <g id="Grupo_398" data-name="Grupo 398" transform="translate(214.879 99.06)">
    <ellipse id="Elipse_24" data-name="Elipse 24" cx="11.992" cy="4.279" rx="11.992" ry="4.279" transform="translate(6.988 67.074)" opacity="0.1"/>
    <g id="Grupo_397" data-name="Grupo 397">
      <g id="Grupo_395" data-name="Grupo 395" transform="translate(2.159 30.543)">
        <g id="Grupo_393" data-name="Grupo 393" transform="translate(11.694)">
          <path id="Trazado_1212" data-name="Trazado 1212" d="M3426.055,2345.233c1.881.454,4.229-.752,5.031-1.455s3-.873,3.754-2.278-.653-3.2-.653-3.2c-.922,1.256-3.576.923-3.576.923s-.4.553-1.227,1.809S3424.181,2344.779,3426.055,2345.233Z" transform="translate(-3420.267 -2305.097)" fill="#473212"/>
          <path id="Trazado_1213" data-name="Trazado 1213" d="M3355.792,1889.524a80.182,80.182,0,0,0,5.074,14.994s2.654.333,3.576-.923c0,0-1.44-11.24-4.605-14.93,0,0-1.157-15.036-3.427-17.542,0,0-3.74.17-5.776-.724A29.994,29.994,0,0,0,3355.792,1889.524Z" transform="translate(-3350.529 -1870.4)" fill="#364e66"/>
        </g>
        <g id="Grupo_394" data-name="Grupo 394" transform="translate(0 1.59)">
          <path id="Trazado_1214" data-name="Trazado 1214" d="M3186.1,1930.644c.809.958,1.88.923,3.945,1.072s2.541,1.327,4.457,1.072,1.292-3.733,1.292-3.733,5.159-11.567,5.9-13.447a15.072,15.072,0,0,0,.7-4.683s6.2-11.794,6.521-14.277a5.535,5.535,0,0,0-.667-3.846h-6.933s-4.7,16.392-5.1,17.5-3.385,17.421-3.385,17.421c-1.256,1.8-6.032,1.412-6.4,1.561S3185.284,1929.686,3186.1,1930.644Z" transform="translate(-3185.741 -1892.8)" fill="#3f5d7a"/>
          <path id="Trazado_1215" data-name="Trazado 1215" d="M3186.1,2387.818c.809.958,1.88.923,3.946,1.072s2.54,1.327,4.456,1.072,1.292-3.733,1.292-3.733a4.982,4.982,0,0,0-2.959-1.334c-1.256,1.8-6.031,1.412-6.4,1.561S3185.287,2386.86,3186.1,2387.818Z" transform="translate(-3185.744 -2349.974)" fill="#473212"/>
        </g>
      </g>
      <path id="Trazado_1216" data-name="Trazado 1216" d="M3263.9,1606.574a6.893,6.893,0,0,1,2.76,2.384h0a11.74,11.74,0,0,0,1.547-1.625,4.937,4.937,0,0,0,.631-1.064s3.349-6.237,2.81-9.949a2.944,2.944,0,0,0-1.348-2.32s-.929.213-2.207,4.428-1.852,5.712-1.852,5.712-.376.305-.866.788A13.254,13.254,0,0,0,3263.9,1606.574Z" transform="translate(-3256.195 -1583.071)" fill="#6666ae"/>
      <path id="Trazado_1217" data-name="Trazado 1217" d="M3263.9,1749.089a6.893,6.893,0,0,1,2.76,2.384h0a4.291,4.291,0,0,0,1.6-1.476.934.934,0,0,0-.057-.149,4.375,4.375,0,0,0-2.831-2.406l-.128-.042A5.9,5.9,0,0,0,3263.9,1749.089Z" transform="translate(-3256.195 -1725.585)" fill="#7575af"/>
      <path id="Trazado_1218" data-name="Trazado 1218" d="M3333.458,1585.683c.312,2.9,1.5,8.586,1.185,10.957-.3,2.228-.34,3.9,3.463,4.591l.121.021c.213.035.433.071.667.1,4.605.6,7.259.66,7.117-1.675s-.8-6.145-.419-7.259,2.164-5.436,2.334-7.167a4.764,4.764,0,0,0-1.881-4.279,38.981,38.981,0,0,0-3.534-2.413,26.818,26.818,0,0,0-7.493.965C3334.189,1579.956,3333.146,1582.781,3333.458,1585.683Z" transform="translate(-3320.765 -1568.7)" fill="#5c5c9c"/>
      <path id="Trazado_1219" data-name="Trazado 1219" d="M3402.619,1582.5l-1.519,1.178a3.4,3.4,0,0,1,1.81-2.781Z" transform="translate(-3383.659 -1570.9)" fill="#6666ae"/>
      <path id="Trazado_1220" data-name="Trazado 1220" d="M3542.679,1840.323c.724.028.944.078,1.263.4s1.611.674,1.88,0-.461-1.05-.617-1.455.376-1.831-.6-3.037c0,0,.788-3.292,1.355-6.131a4.1,4.1,0,0,0-3.257-.8c-.241,3.094-.575,7.231-.575,7.231a11.448,11.448,0,0,0-.376,1.639C3541.686,1838.84,3541.955,1840.3,3542.679,1840.323Z" transform="translate(-3514.324 -1801.627)" fill="#fbc3b1"/>
      <path id="Trazado_1221" data-name="Trazado 1221" d="M3490.14,1636.787c1.32,1.746,4.116,4.953,4.087,5.812,0,.106-.021.369-.042.731-.043.6-.107,1.511-.185,2.526v.007a4.071,4.071,0,0,1,3.257.8c.192-.979.362-1.909.468-2.625a5.447,5.447,0,0,0,.085-1.277c-.184-1.292-3.789-8.516-4.57-9.651s-2.15-1.753-3.094-.922A3.529,3.529,0,0,0,3490.14,1636.787Z" transform="translate(-3465.603 -1618.193)" fill="#6666ae"/>
      <path id="Trazado_1222" data-name="Trazado 1222" d="M3553.009,1796.134h0a4.1,4.1,0,0,1,3.257.8,5.582,5.582,0,0,0,.674-2.4,1.225,1.225,0,0,0-.206-.227,5.273,5.273,0,0,0-3.534-.7.742.742,0,0,0-.206.057C3552.6,1793.877,3552.98,1796.006,3553.009,1796.134Z" transform="translate(-3524.611 -1768.464)" fill="#7575af"/>
      <path id="Trazado_1223" data-name="Trazado 1223" d="M3155.331,1778.9c.227.426,2.739,1.661,3.782.617a18.869,18.869,0,0,0,2.043-2.583,30.928,30.928,0,0,0,4.619-3.25,6.843,6.843,0,0,0-2.76-2.384c-.028.036-.056.078-.085.121-.965,1.348-2.547,4.009-3.59,4.13s-2.973-.078-3.052.27,1.661.731,1.661.731S3155.1,1778.474,3155.331,1778.9Z" transform="translate(-3155.318 -1747.789)" fill="#fbc3b1"/>
      <g id="Grupo_396" data-name="Grupo 396" transform="translate(17.311 11.582)">
        <path id="Trazado_1224" data-name="Trazado 1224" d="M3399.3,1624.141l.121.021c-.036-1.4-.071-3.676.028-4.293.142-.866.447-5.755.667-9.317l.035-.617a35.129,35.129,0,0,1,1.107-6.7l-.114-.036a34.693,34.693,0,0,0-1.107,6.727l-.035.618c-.22,3.562-.525,8.444-.667,9.3A38.93,38.93,0,0,0,3399.3,1624.141Z" transform="translate(-3399.262 -1603.2)" fill="#454676"/>
      </g>
      <path id="Trazado_1225" data-name="Trazado 1225" d="M3408,1637.406c-.042.17.007.334.121.362s.234-.092.277-.263-.007-.333-.12-.362S3408.045,1637.229,3408,1637.406Z" transform="translate(-3390.057 -1623.148)" fill="#454676"/>
      <path id="Trazado_1226" data-name="Trazado 1226" d="M3399.347,1709.234c.021.177.135.312.248.3s.185-.17.156-.348-.135-.312-.248-.3S3399.325,1709.057,3399.347,1709.234Z" transform="translate(-3382.026 -1689.804)" fill="#454676"/>
      <path id="Trazado_1227" data-name="Trazado 1227" d="M3395.054,1785.885c-.021.177.057.333.17.348s.22-.121.234-.3-.057-.334-.17-.348S3395.076,1785.707,3395.054,1785.885Z" transform="translate(-3378.039 -1761.061)" fill="#454676"/>
      <path id="Trazado_1228" data-name="Trazado 1228" d="M3389.254,1866.185c-.021.177.057.333.17.348s.22-.121.234-.3-.057-.333-.17-.348S3389.275,1866.007,3389.254,1866.185Z" transform="translate(-3372.651 -1835.663)" fill="#454676"/>
      <path id="Trazado_1229" data-name="Trazado 1229" d="M3360.8,1440.264a.138.138,0,0,0,.007.05,3.221,3.221,0,0,0,1.228,2.129l1.625,4.265,4.137.759c1.717-.738,1.98-3.513,1.724-4.641s-.8-1.192-.8-1.192a1.493,1.493,0,0,0-.305-1.1c-1.1-.887-2.3-.553-4.144-.085a6.147,6.147,0,0,1-3.427-.177l-.014-.007Z" transform="translate(-3346.219 -1439.979)" fill="#553631"/>
      <path id="Trazado_1230" data-name="Trazado 1230" d="M3378.137,1462.06c-1.072.05-2.839.22-2.91,1.5s.114,5.932,1.334,7.117c0,0,4.08.461,4.25-3.541S3379.741,1461.989,3378.137,1462.06Z" transform="translate(-3359.61 -1460.49)" fill="#fbc3b1"/>
      <path id="Trazado_1231" data-name="Trazado 1231" d="M3383.274,1460.784a13.863,13.863,0,0,1-.816-3.555s-2.832.8-4.258-.355c0,0,.3-1.675,3.356-1.32s2.867,4.449,2.867,4.449Z" transform="translate(-3362.385 -1454.403)" fill="#553631"/>
      <path id="Trazado_1232" data-name="Trazado 1232" d="M3449.7,1512.616s.774-1.966,1.526-1.1-.709,2.307-1.526,1.916Z" transform="translate(-3428.811 -1506.235)" fill="#fbc3b1"/>
      <path id="Trazado_1233" data-name="Trazado 1233" d="M3403.837,1537.7s.262,2.143.837,2.689c0,0-.277,2.285-3.165,2.257a7.049,7.049,0,0,0-1.71-2.86Z" transform="translate(-3382.451 -1530.766)" fill="#fbc3b1"/>
      <path id="Trazado_1234" data-name="Trazado 1234" d="M3426.9,1597.612l-.4.312.4.9.972-.355.348-.7.014-.568Z" transform="translate(-3407.256 -1586.043)" fill="#5c5c9c"/>
      <path id="Trazado_1235" data-name="Trazado 1235" d="M3434.811,1573l-2.611,2.129s1.2,2.086,1.193,2.044,2.313-3.151,2.313-3.151Z" transform="translate(-3412.552 -1563.561)" fill="#6666ae"/>
    </g>
  </g>
  <g id="Grupo_402" data-name="Grupo 402" transform="translate(0 144.531)">
    <ellipse id="Elipse_25" data-name="Elipse 25" cx="12.255" cy="4.371" rx="12.255" ry="4.371" transform="translate(2.697 65.28)" opacity="0.1"/>
    <g id="Grupo_401" data-name="Grupo 401">
      <g id="Grupo_399" data-name="Grupo 399" transform="translate(0 13.432)">
        <path id="Trazado_1236" data-name="Trazado 1236" d="M130.413,2280.194c-.639,1.057.5,6.947.6,7.458a8.939,8.939,0,0,1-2.611.66c-.114-.78-1.178-7.9-1.206-9.083-.028-1.256,4.343-8.061,4.832-8.7a1.134,1.134,0,0,1,1.852,0c.639.724,1.391,2.342,1.072,3.179S131.08,2279.094,130.413,2280.194Z" transform="translate(-127.198 -2270.05)" fill="#4f88c7"/>
        <path id="Trazado_1237" data-name="Trazado 1237" d="M140.059,2521.237c-.4.206-1.1-1.015-1.1-1.015s0,2.633-.589,2.952a3.228,3.228,0,0,1-2.533-.206c-.667-.376.4-4.137.4-4.137a.581.581,0,0,0-.007-.071,9,9,0,0,0,2.611-.66.084.084,0,0,0,.007.035C139.569,2518.945,140.463,2521.031,140.059,2521.237Z" transform="translate(-135.02 -2500.498)" fill="#fbc3b1"/>
      </g>
      <path id="Trazado_1238" data-name="Trazado 1238" d="M273.4,2099.9c1.37.5,3.633.121,2.356,6.209,0,0-.553,2.6-1.157,2.7a3.706,3.706,0,0,1-3.03-1.611C270.683,2105.924,273.4,2099.9,273.4,2099.9Z" transform="translate(-261.16 -2098.542)" fill="#fbc3b1"/>
      <path id="Trazado_1239" data-name="Trazado 1239" d="M246.772,2199.564s.383-2.462,1.37-2.974l-4.031-1.49-.511,3.6Z" transform="translate(-235.34 -2186.986)" fill="#fbc3b1"/>
      <path id="Trazado_1240" data-name="Trazado 1240" d="M200.066,2241.3a14.641,14.641,0,0,1,5.819,2.5,6.482,6.482,0,0,1,1.6,6c-.518,2.477-.873,5.031-.326,6.685s1.086,3.8,1.086,3.8-6.961,2.5-10.9-.922a17.311,17.311,0,0,0,0-6.443c-.731-2.64-2.555-6.195-1.71-9.189C196.475,2240.76,200.066,2241.3,200.066,2241.3Z" transform="translate(-190.578 -2229.872)" fill="#3c77bc"/>
      <path id="Trazado_1241" data-name="Trazado 1241" d="M333.243,2292.473a5.287,5.287,0,0,1-1.277,2.129s-6.252-2.8-7.692-4.052-4.236-6.145-4.918-7.146a2.851,2.851,0,0,1,.192-3.073c.944-.823,1.178-1.064,2.455.745s3.066,6.024,4.563,7.053,6.578,4.322,6.578,4.322A.321.321,0,0,0,333.243,2292.473Z" transform="translate(-305.384 -2265.59)" fill="#4f88c7"/>
      <path id="Trazado_1242" data-name="Trazado 1242" d="M505.66,2463.8c-.248.653-2.093,1.66-2.228,1.22s.433-1.114.433-1.114-1.739-1.036-2.065-2.178a5.287,5.287,0,0,0,1.277-2.129c.454.085,2.249.433,2.583,1.1A5.3,5.3,0,0,1,505.66,2463.8Z" transform="translate(-475.218 -2432.718)" fill="#fbc3b1"/>
      <path id="Trazado_1243" data-name="Trazado 1243" d="M229.276,2529.582a7.04,7.04,0,0,1-3.115.873,16.063,16.063,0,0,0-.454-3.761c-.6-1.469-2.207-2.994-2.973-4.847s.284-5.868.284-5.868-4.875-6.755-7.423-11.347-.788-8.132-.788-8.132l7.167.639s4.272,16.165,4.527,17.605,1.916,12.9,2.739,14.753A.431.431,0,0,0,229.276,2529.582Z" transform="translate(-208.037 -2466.999)" fill="#66481c"/>
      <path id="Trazado_1244" data-name="Trazado 1244" d="M393.556,2975.71c-.511,1.15-3.378.767-4.272,1.554s-3.186,1.249-4.08.313a2.906,2.906,0,0,1-.5-1.5c2.555.241,3.626-.9,4.009-1.518a7.219,7.219,0,0,0,3.385-.071C393.109,2974.369,394.06,2974.561,393.556,2975.71Z" transform="translate(-366.427 -2911.04)" fill="#4c3718"/>
      <path id="Trazado_1245" data-name="Trazado 1245" d="M386.658,2963.543c-.383.618-1.455,1.76-4.009,1.519-.071-.482-.114-1.029-.149-1.59a7.038,7.038,0,0,0,3.115-.873A1.869,1.869,0,0,0,386.658,2963.543Z" transform="translate(-364.383 -2900.023)" fill="#fbc3b1"/>
      <g id="Grupo_400" data-name="Grupo 400" transform="translate(0.529 29.856)">
        <path id="Trazado_1246" data-name="Trazado 1246" d="M143.191,3011.035c.057.61-2.746,1.384-3.917.554s-5.209-5.677-4.542-6.848a2.593,2.593,0,0,1,1.6-1.341,6.1,6.1,0,0,0,3.427,3.307c.326,1.476.9,2.9,1.384,3.222C142.077,3010.539,143.134,3010.432,143.191,3011.035Z" transform="translate(-134.659 -2967.784)" fill="#4c3718"/>
        <path id="Trazado_1247" data-name="Trazado 1247" d="M183.022,2521.411c-4.754,9.182-7.465,14.377-8.3,15.6a.988.988,0,0,0-.128.277,17.648,17.648,0,0,0-2.3-1.724s1.441-8.118,3.7-11.389,3.328-3.867,3.328-3.867-2.058-12.227-1.341-15.541,1.341-3.264,1.341-3.264l7.437.568C186.769,2502.074,187.784,2512.228,183.022,2521.411Z" transform="translate(-169.629 -2501.499)" fill="#805a24"/>
        <path id="Trazado_1248" data-name="Trazado 1248" d="M161.627,2986.461a6.1,6.1,0,0,1-3.427-3.307l.993-1.554a17.117,17.117,0,0,1,2.3,1.724A6.712,6.712,0,0,0,161.627,2986.461Z" transform="translate(-156.529 -2947.532)" fill="#fbc3b1"/>
      </g>
      <path id="Trazado_1249" data-name="Trazado 1249" d="M223.824,2084.675c-.582,1.823-2.022,1.546-1.98,2.789a3.475,3.475,0,0,1-3.25,3.158s-1.6,8.806,0,12.752c-.156-.135-6.585-5.982-2.555-14.143l.071-.958s-1.533-3.5-.071-5.911a3.386,3.386,0,0,1,4.087-1.384C222.76,2081.992,224.413,2082.851,223.824,2084.675Z" transform="translate(-208.504 -2080.762)" fill="#87574e"/>
      <path id="Trazado_1250" data-name="Trazado 1250" d="M236.622,2188.16l-.568.7a3.58,3.58,0,0,0-2.555-1.4l.071-.958C236.062,2186.89,236.622,2188.16,236.622,2188.16Z" transform="translate(-225.957 -2178.997)" fill="#50332e"/>
    </g>
  </g>
  <g id="Grupo_428" data-name="Grupo 428" transform="translate(51.445 41.512)">
    <g id="Grupo_405" data-name="Grupo 405" transform="translate(0 63.709)">
      <path id="Trazado_1251" data-name="Trazado 1251" d="M852.2,2319.139v-2.562l1.228-.177.121,3.484-.568,1.675Z" transform="translate(-852.198 -2260.369)" fill="#616161"/>
      <path id="Trazado_1252" data-name="Trazado 1252" d="M990.068,1587.182l-33.125-19.124c-4.52-2.611-11.893-2.611-16.385,0l-85.033,49.417c-4.492,2.611-4.463,6.876.057,9.488l33.125,19.124c4.52,2.611,11.893,2.611,16.385,0l85.033-49.418C994.609,1594.059,994.581,1589.794,990.068,1587.182Z" transform="translate(-852.174 -1563.311)" fill="#616161"/>
      <path id="Trazado_1253" data-name="Trazado 1253" d="M1027.268,1609.182l-33.125-19.124c-4.52-2.611-11.893-2.611-16.385,0l-85.033,49.418c-4.492,2.611-4.463,6.876.057,9.488l33.125,19.124c4.52,2.611,11.893,2.611,16.385,0l85.033-49.417C1031.809,1616.066,1031.788,1611.794,1027.268,1609.182Z" transform="translate(-886.734 -1583.75)" fill="#1e1e1e" opacity="0.1"/>
      <path id="Trazado_1254" data-name="Trazado 1254" d="M2803.451,1895.361l-.007-2.661-3.044,1.412,1.121,2.9Z" transform="translate(-2662.152 -1866.735)" fill="#616161"/>
      <g id="Grupo_404" data-name="Grupo 404">
        <g id="Grupo_403" data-name="Grupo 403">
          <path id="Trazado_1255" data-name="Trazado 1255" d="M870.619,1592.964a1.146,1.146,0,0,1-.014-2.164,4.134,4.134,0,0,1,3.74,0l8.714,5.031a1.146,1.146,0,0,1,.014,2.164,4.133,4.133,0,0,1-3.74,0l-8.714-5.031ZM859.137,1579.4a.667.667,0,0,1-.007-1.263l81.371-47.288a2.419,2.419,0,0,1,2.186,0l43.826,25.3a.667.667,0,0,1,.007,1.263l-81.371,47.289a2.42,2.42,0,0,1-2.186,0l-43.826-25.3ZM961.6,1538.111a.473.473,0,0,1,0-.894,1.7,1.7,0,0,1,1.547,0l9.566,5.521a.474.474,0,0,1,.007.894,1.7,1.7,0,0,1-1.547,0l-9.573-5.521Zm12.134,7.1a.529.529,0,0,1-.007-1,1.894,1.894,0,0,1,1.724,0,.526.526,0,0,1,.007.994,1.874,1.874,0,0,1-1.724.007Zm16.328,2.668-33.125-19.124c-4.52-2.611-11.893-2.611-16.385,0l-85.026,49.418c-4.492,2.611-4.463,6.876.057,9.487l33.125,19.124c4.52,2.611,11.893,2.611,16.385,0l85.033-49.418c4.485-2.6,4.456-6.876-.064-9.487Z" transform="translate(-852.174 -1526.8)" fill="#343434"/>
          <path id="Trazado_1256" data-name="Trazado 1256" d="M1071.706,1605.691l-43.826-25.3a2.419,2.419,0,0,0-2.186,0l-81.371,47.288a.667.667,0,0,0,.007,1.263l43.826,25.3a2.42,2.42,0,0,0,2.186,0l81.371-47.289a.667.667,0,0,0-.007-1.263Z" transform="translate(-937.368 -1576.341)" fill="#b4dbf4"/>
          <path id="Trazado_1257" data-name="Trazado 1257" d="M1114.243,2427.878l-8.714-5.031a4.135,4.135,0,0,0-3.74,0,1.145,1.145,0,0,0,.014,2.165l8.714,5.031a4.133,4.133,0,0,0,3.74,0,1.143,1.143,0,0,0-.014-2.164Z" transform="translate(-1083.366 -2358.847)" fill="#575757"/>
          <path id="Trazado_1258" data-name="Trazado 1258" d="M2401.032,1676.682l-9.566-5.521a1.7,1.7,0,0,0-1.547,0,.473.473,0,0,0,0,.894l9.573,5.521a1.7,1.7,0,0,0,1.547,0,.474.474,0,0,0-.007-.894Z" transform="translate(-2280.502 -1660.744)" fill="#575757"/>
          <path id="Trazado_1259" data-name="Trazado 1259" d="M2562.1,1769.583a1.9,1.9,0,0,0-1.724,0,.529.529,0,0,0,.007,1,1.894,1.894,0,0,0,1.724,0,.529.529,0,0,0-.007-1Z" transform="translate(-2438.833 -1752.161)" fill="#575757"/>
        </g>
      </g>
    </g>
    <g id="Grupo_427" data-name="Grupo 427" transform="translate(36.746)">
      <g id="Grupo_406" data-name="Grupo 406" transform="translate(5.701 90.96)" opacity="0.1">
        <path id="Trazado_1260" data-name="Trazado 1260" d="M1453.421,1934.092l37.233-21.494a16.311,16.311,0,0,1,14.788,0c4.073,2.363,4.052,6.2-.043,8.565l-37.234,21.494a16.311,16.311,0,0,1-14.788,0c-4.073-2.363-4.052-6.2.043-8.565Z" transform="translate(-1450.337 -1910.825)"/>
      </g>
      <g id="Grupo_426" data-name="Grupo 426">
        <g id="Grupo_412" data-name="Grupo 412" transform="translate(27.235 18.322)">
          <g id="Grupo_407" data-name="Grupo 407" transform="translate(0 74.084)">
            <path id="Trazado_1261" data-name="Trazado 1261" d="M1767.524,1939.176,1753.8,1931.2l.036,12.191,13.724,7.969Z" transform="translate(-1753.8 -1931.2)" fill="#e44e57"/>
          </g>
          <g id="Grupo_408" data-name="Grupo 408" transform="translate(0 44.571)">
            <path id="Trazado_1262" data-name="Trazado 1262" d="M1783.6,1523.276l-13.724-7.976a35.379,35.379,0,0,1-4.18,17.35,30.907,30.907,0,0,1-11.9,12.156l13.724,7.976a30.857,30.857,0,0,0,11.9-12.156A35.3,35.3,0,0,0,1783.6,1523.276Z" transform="translate(-1753.8 -1515.3)" fill="#cf464f"/>
          </g>
          <g id="Grupo_409" data-name="Grupo 409" transform="translate(15.973 6.216)">
            <path id="Trazado_1263" data-name="Trazado 1263" d="M1992.624,982.776,1978.9,974.8l.114,38.362,13.717,7.969Z" transform="translate(-1978.9 -974.8)" fill="#cf464f"/>
          </g>
          <g id="Grupo_410" data-name="Grupo 410" transform="translate(15.973)">
            <path id="Trazado_1264" data-name="Trazado 1264" d="M2003.389,895.176l-13.724-7.976-10.765,6.216,13.724,7.976Z" transform="translate(-1978.9 -887.2)" fill="#e44e57"/>
          </g>
          <g id="Grupo_411" data-name="Grupo 411" transform="translate(13.724 7.969)">
            <path id="Trazado_1265" data-name="Trazado 1265" d="M1963.173,1005.723l.106,38.355a35.379,35.379,0,0,1-4.18,17.35,30.906,30.906,0,0,1-11.9,12.156l.035,12.191A52.393,52.393,0,0,0,1970.93,1057a59.565,59.565,0,0,0,3.115-19.564l-.106-37.936Z" transform="translate(-1947.2 -999.5)" fill="#e44e57"/>
          </g>
        </g>
        <g id="Grupo_416" data-name="Grupo 416" transform="translate(43.159)">
          <g id="Grupo_413" data-name="Grupo 413" transform="translate(0 6.216)">
            <path id="Trazado_1266" data-name="Trazado 1266" d="M1991.924,724.569,1978.2,716.6l.05,18.322,13.724,7.976Z" transform="translate(-1978.2 -716.6)" fill="#d9dcdf"/>
          </g>
          <g id="Grupo_414" data-name="Grupo 414">
            <path id="Trazado_1267" data-name="Trazado 1267" d="M2002.689,636.976,1988.965,629l-10.765,6.216,13.724,7.969Z" transform="translate(-1978.2 -629)" fill="#f9f9fa"/>
          </g>
          <g id="Grupo_415" data-name="Grupo 415" transform="translate(13.724 7.976)">
            <path id="Trazado_1268" data-name="Trazado 1268" d="M2171.6,747.609l.05,18.329,10.765-6.216-.05-18.322Z" transform="translate(-2171.6 -741.4)" fill="#f0f3f5"/>
          </g>
        </g>
        <g id="Grupo_425" data-name="Grupo 425" transform="translate(0 24.915)">
          <g id="Grupo_417" data-name="Grupo 417" transform="translate(15.541 67.484)">
            <path id="Trazado_1269" data-name="Trazado 1269" d="M1589,1932.959l13.724,7.976q4.226,2.459,11.7-1.859L1600.7,1931.1Q1593.219,1935.432,1589,1932.959Z" transform="translate(-1589 -1931.1)" fill="#315e77"/>
          </g>
          <g id="Grupo_418" data-name="Grupo 418" transform="translate(0.163 62.474)">
            <path id="Trazado_1270" data-name="Trazado 1270" d="M1379.765,1880.859l13.724,7.976a11.748,11.748,0,0,1-4.251-4.449q-3.183-5.535-3.215-15.909L1372.3,1860.5q.032,10.367,3.215,15.91A11.749,11.749,0,0,0,1379.765,1880.859Z" transform="translate(-1372.3 -1860.5)" fill="#315e77"/>
          </g>
          <g id="Grupo_419" data-name="Grupo 419" transform="translate(0.05 24.546)">
            <path id="Trazado_1271" data-name="Trazado 1271" d="M1384.424,1333.969,1370.7,1326l.113,37.936,13.717,7.969Z" transform="translate(-1370.7 -1326)" fill="#315e77"/>
          </g>
          <g id="Grupo_420" data-name="Grupo 420" transform="translate(0.05 18.329)">
            <path id="Trazado_1272" data-name="Trazado 1272" d="M1395.189,1246.376l-13.724-7.976-10.765,6.216,13.724,7.969Z" transform="translate(-1370.7 -1238.4)" fill="#366680"/>
          </g>
          <g id="Grupo_421" data-name="Grupo 421" transform="translate(13.774 26.312)">
            <path id="Trazado_1273" data-name="Trazado 1273" d="M1564.1,1357.1l.106,37.936q.032,10.367,3.215,15.909a10.909,10.909,0,0,0,9.267,5.89q6.078.352,14.625-4.584l-.028-12.191q-7.77,4.481-12.021,1.653t-4.293-12.461l-.106-38.354Z" transform="translate(-1564.1 -1350.9)" fill="#366680"/>
          </g>
          <g id="Grupo_422" data-name="Grupo 422" transform="translate(0 6.216)">
            <path id="Trazado_1274" data-name="Trazado 1274" d="M1383.724,1075.676,1370,1067.7l.049,18.329,13.724,7.969Z" transform="translate(-1370 -1067.7)" fill="#d9dcdf"/>
          </g>
          <g id="Grupo_423" data-name="Grupo 423">
            <path id="Trazado_1275" data-name="Trazado 1275" d="M1394.489,988.076l-13.724-7.976L1370,986.316l13.724,7.976Z" transform="translate(-1370 -980.1)" fill="#f9f9fa"/>
          </g>
          <g id="Grupo_424" data-name="Grupo 424" transform="translate(13.724 7.976)">
            <path id="Trazado_1276" data-name="Trazado 1276" d="M1563.4,1098.716l.05,18.322,10.765-6.209-.05-18.329Z" transform="translate(-1563.4 -1092.5)" fill="#f0f3f5"/>
          </g>
        </g>
      </g>
    </g>
  </g>
  <ellipse id="Elipse_26" data-name="Elipse 26" cx="14.937" cy="5.329" rx="14.937" ry="5.329" transform="translate(147.38 210.776)" opacity="0.1"/>
  <g id="Grupo_431" data-name="Grupo 431" transform="translate(145.104 146.326)">
    <g id="Grupo_429" data-name="Grupo 429" transform="translate(22.861 13.204)">
      <path id="Trazado_1277" data-name="Trazado 1277" d="M2495.117,2296.41a75.141,75.141,0,0,1,3.484,8.906,14.775,14.775,0,0,1,3.74-1.441c-.731-3.3-3.477-9.168-3.981-10.445a1.941,1.941,0,0,0-2.81-1.043C2494.273,2293.274,2494.238,2294.92,2495.117,2296.41Z" transform="translate(-2494.492 -2292.126)" fill="#72164c"/>
      <path id="Trazado_1278" data-name="Trazado 1278" d="M2495.919,2468.422c.9-.17,5.833-6.756,6.266-8.991a4.8,4.8,0,0,0-.142-1.731,14.394,14.394,0,0,0-3.74,1.44c.007.029.014.064.021.085.305,1.15-4.1,6.933-4.1,6.933C2494.01,2467.039,2495.018,2468.593,2495.919,2468.422Z" transform="translate(-2494.194 -2445.951)" fill="#fbc3b1"/>
    </g>
    <path id="Trazado_1279" data-name="Trazado 1279" d="M2358.366,2133.212c-2.242.632-3.144,2.356-2.732,4.981a9.066,9.066,0,0,0,2.065,4.748,4.185,4.185,0,0,0,4.137-2.924S2363.561,2131.743,2358.366,2133.212Z" transform="translate(-2342.515 -2131.122)" fill="#fbc3b1"/>
    <path id="Trazado_1280" data-name="Trazado 1280" d="M2398.721,2227.9l.192,3.924-4.194.9-1.519-4.073Z" transform="translate(-2377.505 -2219.253)" fill="#fbc3b1"/>
    <path id="Trazado_1281" data-name="Trazado 1281" d="M2353.5,2272.284c-3.321.546-6.677,2.533-6.933,3.307s-.773,11.687-.852,13.568.149,8.884.149,8.884,8.48,2.214,12.908-2.689a36.894,36.894,0,0,1,0-7.522c.482-2.434,2.25-13.2.255-14.526S2353.5,2272.284,2353.5,2272.284Z" transform="translate(-2333.377 -2260.458)" fill="#4f0a33"/>
    <path id="Trazado_1282" data-name="Trazado 1282" d="M2274.5,2628.32a4.944,4.944,0,0,0,3.222.717h0a45.565,45.565,0,0,1,1.838-6.209c.7-1.341,2.427-4.322,1.852-7.678,0,0,4.151-6.535,4.818-8.16,0,0,1.057,8.643,1.54,10.758.454,1.979,4.172,13.028,4.158,14.845a9.418,9.418,0,0,0,4.165-1.029s-1.859-6.238-1.462-8.161a12.286,12.286,0,0,0-2.093-8.253s1.717-8.834,1.263-13.475a9.027,9.027,0,0,0-1.185-3.974l-12.908,2.689s-2.725,10.439-3.016,13.128S2274.5,2628.32,2274.5,2628.32Z" transform="translate(-2267.229 -2562.812)" fill="#004051"/>
    <path id="Trazado_1283" data-name="Trazado 1283" d="M2210.158,3011.1a2.88,2.88,0,0,0,1.355-2.207s.071-.312.191-.8a4.942,4.942,0,0,1-3.221-.717s-3.456-1.845-4.7-1.654S2204.829,3011.1,2210.158,3011.1Z" transform="translate(-2201.219 -2941.862)" fill="#09263a"/>
    <path id="Trazado_1284" data-name="Trazado 1284" d="M2449.837,3079.8c.766.383,5.415,1.058,6.45,0s3.626-.213,3.343-1.788a11.848,11.848,0,0,0-1.057-3.009,9.55,9.55,0,0,1-4.166,1.029.347.347,0,0,1-.057.234c-.575.561-2.4,2.483-3.74,2.483S2449.07,3079.414,2449.837,3079.8Z" transform="translate(-2429.707 -3006.242)" fill="#09263a"/>
    <path id="Trazado_1285" data-name="Trazado 1285" d="M2351.24,2113.643c-.788.085-1.15.312-1.313-.412s-.014-3.144-1.263-3.279-.638-1.589.064-2.065,3.917-2.264,5.57-1.739,2.668,1.249,2.526,2.668c0,0,1.852.724,1.476,2.406s-1.412,3.569-1.313,4.406-2.874,1.433-3.442,1.249S2351.24,2113.643,2351.24,2113.643Z" transform="translate(-2335.461 -2106.053)" fill="#6b461b"/>
    <path id="Trazado_1286" data-name="Trazado 1286" d="M2386.02,2202.118s1.547-2.661,0-3.058-1.441,2.207-1.441,2.207Z" transform="translate(-2369.495 -2192.421)" fill="#fbc3b1"/>
    <g id="Grupo_430" data-name="Grupo 430" transform="translate(0 14.967)">
      <path id="Trazado_1287" data-name="Trazado 1287" d="M2286.7,2325.6a6.087,6.087,0,0,0,2.207,3.47,67.266,67.266,0,0,0,4.84-7.671c.568-1.05.575-3.115-.156-3.846a1.471,1.471,0,0,0-2.427.121C2290.61,2318.353,2286.7,2325.6,2286.7,2325.6Z" transform="translate(-2278.563 -2316.967)" fill="#72164c"/>
      <path id="Trazado_1288" data-name="Trazado 1288" d="M2174.043,2322.853s4.158,10.169,6.01,10.077c.568-.028,1.412-.852,2.321-2.015a6.089,6.089,0,0,1-2.207-3.47s-3.449-4.087-3.818-5.144.71-2.491-.709-3.108-1.207.135-1.05.39a8.3,8.3,0,0,0-2.356-.319C2171.779,2319.419,2171.963,2322.051,2174.043,2322.853Z" transform="translate(-2172.029 -2318.813)" fill="#fbc3b1"/>
    </g>
  </g>
  <g id="Grupo_438" data-name="Grupo 438" transform="translate(100.339 25.269)">
    <g id="Grupo_437" data-name="Grupo 437">
      <g id="Grupo_432" data-name="Grupo 432" transform="translate(3.129 15.051)">
        <path id="Trazado_1289" data-name="Trazado 1289" d="M1596.4,616.429l4.946-4.229-11.105,16.3-4.939,4.222Z" transform="translate(-1585.3 -612.2)" fill="#e6c804"/>
      </g>
      <g id="Grupo_433" data-name="Grupo 433" transform="translate(7.054 12.489)">
        <path id="Trazado_1290" data-name="Trazado 1290" d="M1640.6,580.329l4.939-4.229,7.181,2.562-4.946,4.229Z" transform="translate(-1640.6 -576.1)" fill="#fdea76"/>
      </g>
      <g id="Grupo_434" data-name="Grupo 434" transform="translate(7.054 2.2)">
        <path id="Trazado_1291" data-name="Trazado 1291" d="M1642.878,435.329l4.939-4.229-2.278,10.289-4.939,4.229Z" transform="translate(-1640.6 -431.1)" fill="#e6c804"/>
      </g>
      <g id="Grupo_435" data-name="Grupo 435" transform="translate(3.151)">
        <path id="Trazado_1292" data-name="Trazado 1292" d="M1585.6,404.322l4.946-4.222,6.174,2.2-4.939,4.229Z" transform="translate(-1585.6 -400.1)" fill="#fdea76"/>
      </g>
      <g id="Grupo_436" data-name="Grupo 436" transform="translate(0 4.222)">
        <path id="Trazado_1293" data-name="Trazado 1293" d="M1555.428,474.658l-11.1,16.293,2.931-15.207-6.06-2.157,3.151-13.986,6.181,2.207-2.278,10.289Z" transform="translate(-1541.2 -459.6)" fill="#fedc00"/>
      </g>
    </g>
  </g>
  <g id="Grupo_445" data-name="Grupo 445" transform="translate(78.384 27.228)">
    <g id="Grupo_444" data-name="Grupo 444" transform="translate(0 0)">
      <g id="Grupo_439" data-name="Grupo 439" transform="translate(0 16.385)">
        <path id="Trazado_1294" data-name="Trazado 1294" d="M1237.278,661.786,1231.8,658.6l13.511,13.7,5.478,3.186Z" transform="translate(-1231.8 -658.6)" fill="#fedc00"/>
      </g>
      <g id="Grupo_440" data-name="Grupo 440" transform="translate(0 12.674)">
        <path id="Trazado_1295" data-name="Trazado 1295" d="M1243.714,609.486l-5.478-3.186-6.436,3.711,5.478,3.186Z" transform="translate(-1231.8 -606.3)" fill="#fdea76"/>
      </g>
      <g id="Grupo_441" data-name="Grupo 441" transform="translate(2.441 3.193)">
        <path id="Trazado_1296" data-name="Trazado 1296" d="M1271.685,475.886,1266.2,472.7l3.995,9.48,5.478,3.186Z" transform="translate(-1266.2 -472.7)" fill="#fedc00"/>
      </g>
      <g id="Grupo_442" data-name="Grupo 442" transform="translate(2.441)">
        <path id="Trazado_1297" data-name="Trazado 1297" d="M1277.22,430.886l-5.478-3.186-5.542,3.193,5.485,3.186Z" transform="translate(-1266.2 -427.7)" fill="#fdea76"/>
      </g>
      <g id="Grupo_443" data-name="Grupo 443" transform="translate(5.478 3.186)">
        <path id="Trazado_1298" data-name="Trazado 1298" d="M1309,488.985l13.511,13.7-5.478-14.079,5.428-3.136-5.478-12.865-5.535,3.193,3.988,9.48Z" transform="translate(-1309 -472.6)" fill="#e6c804"/>
      </g>
    </g>
  </g>
  <g id="Grupo_452" data-name="Grupo 452" transform="translate(141.795 0)">
    <g id="Grupo_451" data-name="Grupo 451">
      <g id="Grupo_446" data-name="Grupo 446" transform="translate(3.129 15.051)">
        <path id="Trazado_1299" data-name="Trazado 1299" d="M2180.6,260.329l4.939-4.229-11.1,16.3-4.939,4.229Z" transform="translate(-2169.5 -256.1)" fill="#e6c804"/>
      </g>
      <g id="Grupo_447" data-name="Grupo 447" transform="translate(7.054 12.496)">
        <path id="Trazado_1300" data-name="Trazado 1300" d="M2224.8,224.322l4.939-4.222,7.174,2.555-4.939,4.229Z" transform="translate(-2224.8 -220.1)" fill="#fdea76"/>
      </g>
      <g id="Grupo_448" data-name="Grupo 448" transform="translate(7.054 2.2)">
        <path id="Trazado_1301" data-name="Trazado 1301" d="M2227.071,79.229,2232.017,75l-2.278,10.3-4.939,4.222Z" transform="translate(-2224.8 -75)" fill="#e6c804"/>
      </g>
      <g id="Grupo_449" data-name="Grupo 449" transform="translate(3.151)">
        <path id="Trazado_1302" data-name="Trazado 1302" d="M2169.8,48.222,2174.746,44l6.174,2.2-4.946,4.229Z" transform="translate(-2169.8 -44)" fill="#fdea76"/>
      </g>
      <g id="Grupo_450" data-name="Grupo 450" transform="translate(0 4.222)">
        <path id="Trazado_1303" data-name="Trazado 1303" d="M2139.628,118.558l-11.1,16.3,2.931-15.207-6.06-2.164,3.151-13.986,6.174,2.207L2132.453,116Z" transform="translate(-2125.4 -103.5)" fill="#fedc00"/>
      </g>
    </g>
  </g>
  <g id="Grupo_459" data-name="Grupo 459" transform="translate(119.833 1.959)">
    <g id="Grupo_458" data-name="Grupo 458" transform="translate(0)">
      <g id="Grupo_453" data-name="Grupo 453" transform="translate(0 16.385)">
        <path id="Trazado_1304" data-name="Trazado 1304" d="M1821.385,305.693,1815.9,302.5l13.511,13.7,5.485,3.186Z" transform="translate(-1815.9 -302.5)" fill="#fedc00"/>
      </g>
      <g id="Grupo_454" data-name="Grupo 454" transform="translate(0 12.674)">
        <path id="Trazado_1305" data-name="Trazado 1305" d="M1827.822,253.386l-5.485-3.186-6.436,3.711,5.485,3.193Z" transform="translate(-1815.9 -250.2)" fill="#fdea76"/>
      </g>
      <g id="Grupo_455" data-name="Grupo 455" transform="translate(2.448 3.2)">
        <path id="Trazado_1306" data-name="Trazado 1306" d="M1855.885,119.886,1850.4,116.7l3.988,9.473,5.485,3.186Z" transform="translate(-1850.4 -116.7)" fill="#fedc00"/>
      </g>
      <g id="Grupo_456" data-name="Grupo 456" transform="translate(2.448)">
        <path id="Trazado_1307" data-name="Trazado 1307" d="M1861.42,74.786l-5.485-3.186-5.535,3.2,5.485,3.186Z" transform="translate(-1850.4 -71.6)" fill="#fdea76"/>
      </g>
      <g id="Grupo_457" data-name="Grupo 457" transform="translate(5.485 3.186)">
        <path id="Trazado_1308" data-name="Trazado 1308" d="M1893.2,132.892l13.511,13.688-5.478-14.079,5.428-3.136-5.478-12.865-5.535,3.2,3.988,9.473Z" transform="translate(-1893.2 -116.5)" fill="#e6c804"/>
      </g>
    </g>
  </g>
  <ellipse id="Elipse_27" data-name="Elipse 27" cx="4.946" cy="2.548" rx="4.946" ry="2.548" transform="translate(137.715 45.195)" opacity="0.1"/>
</svg>
