<svg xmlns="http://www.w3.org/2000/svg" width="94.273" height="141" viewBox="0 0 94.273 141">
  <g id="programing" transform="translate(0 0)">
    <g id="Grupo_4" data-name="Grupo 4" transform="translate(0 0)">
      <g id="Grupo_2" data-name="Grupo 2">
        <g id="Grupo_1" data-name="Grupo 1">
          <path id="Trazado_1" data-name="Trazado 1" d="M87.527,38.545,22.147.817a6.173,6.173,0,0,0-6.545.26l0,0L1.244,9.365l6.675,9.051,2.487,2.849V86.039a10.8,10.8,0,0,0,5.4,9.351l48.934,28.291.5,2.721,9.986,13.991,15.357-9.027c.027-.016.052-.029.078-.045l.1-.06v-.008a4.91,4.91,0,0,0,2.341-4.207l0-78.852A11.135,11.135,0,0,0,87.527,38.545Z" transform="translate(1.169 0)" fill="#8c64ab"/>
          <path id="Trazado_2" data-name="Trazado 2" d="M73.413,43.311,7.26,5.141A4.842,4.842,0,0,0,0,9.337V88.521a10.8,10.8,0,0,0,5.4,9.35l66.143,38.24a4.964,4.964,0,0,0,7.449-4.3l0-78.854A11.143,11.143,0,0,0,73.413,43.311Z" transform="translate(0 4.216)" fill="#7f4d9e"/>
        </g>
      </g>
      <g id="Grupo_3" data-name="Grupo 3" transform="translate(76.383 44.542)">
        <path id="Trazado_3" data-name="Trazado 3" d="M39.481,72.349l-.1.056-.008-.012C39.411,72.374,39.448,72.368,39.481,72.349Z" transform="translate(-39.378 23.447)" fill="#bbcee0"/>
        <path id="Trazado_4" data-name="Trazado 4" d="M41.915,114.452l0-78.854a10.974,10.974,0,0,0-.756-3.8L56.5,22.963a11,11,0,0,1,.7,3.654l0,78.85a4.9,4.9,0,0,1-2.341,4.205v.01l-.1.058c-.025.016-.052.031-.078.045L39.45,118.737A4.914,4.914,0,0,0,41.915,114.452Z" transform="translate(-39.31 -22.963)" fill="#713d97"/>
      </g>
    </g>
    <g id="Grupo_5" data-name="Grupo 5" transform="translate(13.89 41.746)">
      <path id="Trazado_5" data-name="Trazado 5" d="M14.935,22.292c-.729.745-1.078,2.192-1.084,4.322l-.027,9.464v.241q-.009,2.7-1.73,2.894c-1.148.128-2.793-.425-4.913-1.649l-.019,6.587a16.612,16.612,0,0,1,4.908,4.042,8.119,8.119,0,0,1,1.709,5.142l-.027,9.353a13.345,13.345,0,0,0,1.055,5.579,14.026,14.026,0,0,0,3.375,4.543,35.532,35.532,0,0,0,6.4,4.508l.017-6.236A10.475,10.475,0,0,1,21.028,67.9a7.128,7.128,0,0,1-.927-3.724l.025-8.958,0-.351c.01-3.579-1.951-6.822-5.924-9.8l0-.351c3.918,1.6,5.893.5,5.961-3.288l.025-8.958c0-1.449.332-2.316.964-2.632s1.819.016,3.557.954l.017-6.236A25.181,25.181,0,0,0,18.365,21.7C16.776,21.332,15.645,21.536,14.935,22.292Z" transform="translate(-7.161 -21.522)" fill="#fff"/>
      <path id="Trazado_6" data-name="Trazado 6" d="M36.364,56.627a7.726,7.726,0,0,1-1.67-4.857v-.241l.027-9.464A12.707,12.707,0,0,0,32.294,34.2c-1.62-2.19-4.428-4.425-8.44-6.742l-.017,6.236a10.55,10.55,0,0,1,3.571,3.16,6.968,6.968,0,0,1,.927,3.724l-.025,8.958q.1,5.8,5.98,10.182v.351c-1.949-.774-3.443-.931-4.458-.44-1.036.5-1.554,1.631-1.56,3.431l0,.264-.025,8.96c0,1.449-.312,2.347-.945,2.663-.632.295-1.837-.027-3.577-.964l-.017,6.236c3.994,2.306,6.8,3.29,8.451,2.987,1.627-.314,2.456-1.99,2.463-5.065l.027-9.353c.006-1.953.582-3.007,1.693-3.179,1.129-.161,2.754.38,4.913,1.627l.019-6.587A16.615,16.615,0,0,1,36.364,56.627Z" transform="translate(8.388 -15.946)" fill="#fff"/>
    </g>
  </g>
</svg>
