<svg id="programing" xmlns="http://www.w3.org/2000/svg" width="28.132" height="43.157" viewBox="0 0 28.132 43.157">
  <g id="Grupo_4" data-name="Grupo 4">
    <g id="Grupo_2" data-name="Grupo 2">
      <g id="Grupo_1" data-name="Grupo 1">
        <path id="Trazado_1" data-name="Trazado 1" d="M26.992,11.8,7.482.25a1.8,1.8,0,0,0-1.953.08h0L1.244,2.867,3.236,5.637l.742.872V26.338A3.323,3.323,0,0,0,5.588,29.2l14.6,8.66.149.833,2.98,4.283L27.9,40.213l.023-.014.031-.018v0a1.512,1.512,0,0,0,.7-1.288V14.753A3.426,3.426,0,0,0,26.992,11.8Z" transform="translate(-0.524 0)" fill="#8c64ab"/>
        <path id="Trazado_2" data-name="Trazado 2" d="M21.908,16.39,2.167,4.687A1.445,1.445,0,0,0,0,5.974V30.25a3.328,3.328,0,0,0,1.61,2.866L21.348,44.84a1.482,1.482,0,0,0,2.223-1.317V19.348A3.434,3.434,0,0,0,21.908,16.39Z" transform="translate(0 -1.889)" fill="#7f4d9e"/>
      </g>
    </g>
    <g id="Grupo_3" data-name="Grupo 3" transform="translate(22.794 14.373)">
      <path id="Trazado_3" data-name="Trazado 3" d="M39.409,72.349l-.028.017,0,0C39.388,72.357,39.4,72.355,39.409,72.349Z" transform="translate(-39.378 -43.762)" fill="#bbcee0"/>
      <path id="Trazado_4" data-name="Trazado 4" d="M40.186,50.265V26.734a3.275,3.275,0,0,0-.226-1.133l4.579-2.637a3.283,3.283,0,0,1,.208,1.091v23.53a1.464,1.464,0,0,1-.7,1.255v0l-.031.017-.023.013L39.45,51.543A1.466,1.466,0,0,0,40.186,50.265Z" transform="translate(-39.408 -22.963)" fill="#713d97"/>
    </g>
  </g>
  <g id="Grupo_5" data-name="Grupo 5" transform="translate(4.145 13.07)">
    <path id="Trazado_5" data-name="Trazado 5" d="M9.481,21.752a1.89,1.89,0,0,0-.324,1.29l-.008,2.824v.072q0,.806-.516.864a2.7,2.7,0,0,1-1.466-.492l-.006,1.966a4.957,4.957,0,0,1,1.464,1.206,2.423,2.423,0,0,1,.51,1.535l-.008,2.791a3.982,3.982,0,0,0,.315,1.665,4.186,4.186,0,0,0,1.007,1.356,10.6,10.6,0,0,0,1.91,1.345l.005-1.861a3.126,3.126,0,0,1-1.065-.949,2.127,2.127,0,0,1-.277-1.111l.008-2.673v-.1a3.682,3.682,0,0,0-1.768-2.924v-.1c1.169.478,1.759.149,1.779-.981l.008-2.673c0-.432.1-.691.288-.785s.543,0,1.062.285l.005-1.861a7.514,7.514,0,0,0-1.9-.854A1.012,1.012,0,0,0,9.481,21.752Z" transform="translate(-7.161 -21.522)" fill="#fff"/>
    <path id="Trazado_6" data-name="Trazado 6" d="M27.484,36.16a2.305,2.305,0,0,1-.5-1.449v-.072l.008-2.824a3.792,3.792,0,0,0-.724-2.348,8.262,8.262,0,0,0-2.519-2.012l-.005,1.861a3.148,3.148,0,0,1,1.066.943,2.079,2.079,0,0,1,.277,1.111l-.008,2.673a3.848,3.848,0,0,0,1.785,3.038v.1a1.727,1.727,0,0,0-1.33-.131c-.309.15-.464.487-.465,1.024v.079l-.008,2.674c0,.432-.093.7-.282.795s-.548-.008-1.067-.288L23.707,43.2a4.554,4.554,0,0,0,2.522.891c.486-.094.733-.594.735-1.511l.008-2.791c0-.583.174-.9.505-.949a2.581,2.581,0,0,1,1.466.486l.006-1.966A4.958,4.958,0,0,1,27.484,36.16Z" transform="translate(-14.129 -24.02)" fill="#fff"/>
  </g>
</svg>
