<svg id="programing" xmlns="http://www.w3.org/2000/svg" width="39.449" height="59.002" viewBox="0 0 39.449 59.002">
  <g id="Grupo_4" data-name="Grupo 4">
    <g id="Grupo_2" data-name="Grupo 2">
      <g id="Grupo_1" data-name="Grupo 1">
        <path id="Trazado_1" data-name="Trazado 1" d="M37.35,16.129,9.991.342A2.583,2.583,0,0,0,7.252.45h0L1.244,3.919,4.037,7.706,5.078,8.9V36a4.52,4.52,0,0,0,2.258,3.913L27.812,51.755l.209,1.139L32.2,58.749l6.426-3.778.032-.019.043-.025v0a2.055,2.055,0,0,0,.98-1.761v-33A4.66,4.66,0,0,0,37.35,16.129Z" transform="translate(-0.234 0)" fill="#8c64ab"/>
        <path id="Trazado_2" data-name="Trazado 2" d="M30.72,20.733,3.038,4.76A2.026,2.026,0,0,0,0,6.516V39.651a4.518,4.518,0,0,0,2.258,3.912l27.678,16a2.077,2.077,0,0,0,3.117-1.8v-33A4.663,4.663,0,0,0,30.72,20.733Z" transform="translate(0 -0.845)" fill="#7f4d9e"/>
      </g>
    </g>
    <g id="Grupo_3" data-name="Grupo 3" transform="translate(31.963 18.639)">
      <path id="Trazado_3" data-name="Trazado 3" d="M39.421,72.349l-.04.024,0,0C39.392,72.36,39.407,72.357,39.421,72.349Z" transform="translate(-39.378 -32.263)" fill="#bbcee0"/>
      <path id="Trazado_4" data-name="Trazado 4" d="M40.482,61.247v-33a4.592,4.592,0,0,0-.317-1.589l6.421-3.7a4.6,4.6,0,0,1,.291,1.529v33a2.052,2.052,0,0,1-.98,1.76v0l-.043.024-.032.019L39.45,63.04A2.056,2.056,0,0,0,40.482,61.247Z" transform="translate(-39.392 -22.963)" fill="#713d97"/>
    </g>
  </g>
  <g id="Grupo_5" data-name="Grupo 5" transform="translate(5.813 17.469)">
    <path id="Trazado_5" data-name="Trazado 5" d="M10.414,21.844a2.651,2.651,0,0,0-.454,1.808l-.011,3.96v.1q0,1.13-.724,1.211a3.787,3.787,0,0,1-2.056-.69l-.008,2.757a6.952,6.952,0,0,1,2.054,1.692,3.4,3.4,0,0,1,.715,2.152l-.011,3.914a5.584,5.584,0,0,0,.442,2.334,5.869,5.869,0,0,0,1.412,1.9A14.869,14.869,0,0,0,14.45,44.87l.007-2.61a4.383,4.383,0,0,1-1.494-1.331,2.983,2.983,0,0,1-.388-1.558l.011-3.748v-.147c0-1.5-.817-2.855-2.479-4.1v-.147c1.64.67,2.466.209,2.494-1.376l.011-3.748c0-.606.139-.969.4-1.1s.761.006,1.489.4l.007-2.61a10.537,10.537,0,0,0-2.664-1.2A1.419,1.419,0,0,0,10.414,21.844Z" transform="translate(-7.161 -21.522)" fill="#fff"/>
    <path id="Trazado_6" data-name="Trazado 6" d="M29,39.662a3.233,3.233,0,0,1-.7-2.032v-.1l.011-3.96A5.317,5.317,0,0,0,27.3,30.276a11.586,11.586,0,0,0-3.532-2.821l-.007,2.61a4.415,4.415,0,0,1,1.494,1.322,2.916,2.916,0,0,1,.388,1.558l-.011,3.748a5.4,5.4,0,0,0,2.5,4.261V41.1a2.421,2.421,0,0,0-1.865-.184c-.433.21-.65.683-.653,1.436v.11l-.011,3.749c0,.606-.131.982-.4,1.114s-.769-.011-1.5-.4l-.007,2.61c1.671.965,2.847,1.377,3.537,1.25s1.028-.833,1.031-2.119l.011-3.914c0-.817.244-1.258.709-1.33a3.619,3.619,0,0,1,2.056.681l.008-2.757A6.953,6.953,0,0,1,29,39.662Z" transform="translate(-10.277 -22.639)" fill="#fff"/>
  </g>
</svg>
