<svg id="programing" xmlns="http://www.w3.org/2000/svg" width="37.476" height="57.491" viewBox="0 0 37.476 57.491">
  <g id="Grupo_4" data-name="Grupo 4">
    <g id="Grupo_2" data-name="Grupo 2">
      <g id="Grupo_1" data-name="Grupo 1">
        <path id="Trazado_1" data-name="Trazado 1" d="M35.544,15.718,9.553.333a2.4,2.4,0,0,0-2.6.106h0L1.244,3.819,3.9,7.51l.989,1.162V35.085A4.427,4.427,0,0,0,7.031,38.9L26.483,50.435l.2,1.11,3.97,5.705,6.1-3.681.031-.018.041-.025v0a2.014,2.014,0,0,0,.931-1.716V19.653A4.563,4.563,0,0,0,35.544,15.718Z" transform="translate(-0.285 0)" fill="#8c64ab"/>
        <path id="Trazado_2" data-name="Trazado 2" d="M29.183,20.343,2.886,4.754A1.925,1.925,0,0,0,0,6.467V38.807a4.433,4.433,0,0,0,2.145,3.818L28.439,58.243A1.974,1.974,0,0,0,31.4,56.488v-32.2A4.575,4.575,0,0,0,29.183,20.343Z" transform="translate(0 -1.027)" fill="#7f4d9e"/>
      </g>
    </g>
    <g id="Grupo_3" data-name="Grupo 3" transform="translate(30.364 19.147)">
      <path id="Trazado_3" data-name="Trazado 3" d="M39.419,72.349l-.038.022,0,0C39.391,72.359,39.406,72.357,39.419,72.349Z" transform="translate(-39.378 -34.268)" fill="#bbcee0"/>
      <path id="Trazado_4" data-name="Trazado 4" d="M40.43,59.332V27.986a4.362,4.362,0,0,0-.3-1.51l6.1-3.513a4.373,4.373,0,0,1,.277,1.453V55.761a1.95,1.95,0,0,1-.931,1.672v0l-.041.023-.031.018L39.45,61.036A1.953,1.953,0,0,0,40.43,59.332Z" transform="translate(-39.394 -22.963)" fill="#713d97"/>
    </g>
  </g>
  <g id="Grupo_5" data-name="Grupo 5" transform="translate(5.522 17.411)">
    <path id="Trazado_5" data-name="Trazado 5" d="M10.252,21.828a2.518,2.518,0,0,0-.431,1.718L9.81,27.308v.1q0,1.073-.688,1.15A3.6,3.6,0,0,1,7.169,27.9l-.008,2.619a6.6,6.6,0,0,1,1.951,1.607,3.228,3.228,0,0,1,.679,2.044L9.78,37.887A5.305,5.305,0,0,0,10.2,40.1a5.576,5.576,0,0,0,1.342,1.806A14.125,14.125,0,0,0,14.085,43.7l.007-2.479a4.164,4.164,0,0,1-1.419-1.265,2.833,2.833,0,0,1-.369-1.48l.01-3.561v-.14c0-1.423-.776-2.712-2.355-3.895v-.14c1.558.637,2.343.2,2.37-1.307l.01-3.561c0-.576.132-.921.383-1.046s.723.006,1.414.379l.007-2.479a10.01,10.01,0,0,0-2.531-1.137A1.348,1.348,0,0,0,10.252,21.828Z" transform="translate(-7.161 -21.522)" fill="#fff"/>
    <path id="Trazado_6" data-name="Trazado 6" d="M28.738,39.051a3.071,3.071,0,0,1-.664-1.931v-.1l.011-3.762a5.051,5.051,0,0,0-.965-3.128,11.006,11.006,0,0,0-3.355-2.68l-.007,2.479a4.194,4.194,0,0,1,1.42,1.256,2.77,2.77,0,0,1,.369,1.48l-.01,3.561a5.127,5.127,0,0,0,2.377,4.047v.14a2.3,2.3,0,0,0-1.772-.175c-.412.2-.618.648-.62,1.364v.1l-.01,3.562c0,.576-.124.933-.376,1.059s-.73-.011-1.422-.383l-.007,2.479c1.588.917,2.7,1.308,3.36,1.187s.976-.791.979-2.013l.011-3.718c0-.776.231-1.2.673-1.264a3.438,3.438,0,0,1,1.953.647l.008-2.619A6.6,6.6,0,0,1,28.738,39.051Z" transform="translate(-10.949 -22.88)" fill="#fff"/>
  </g>
</svg>
