<svg id="surface1" xmlns="http://www.w3.org/2000/svg" width="101.717" height="101.717" viewBox="0 0 101.717 101.717">
  <path id="Trazado_2774" data-name="Trazado 2774" d="M86.821,14.9A50.859,50.859,0,0,0,14.9,86.821,50.859,50.859,0,0,0,86.821,14.9Zm0,0" transform="translate(0 0)" fill="#ebf6ff"/>
  <path id="Trazado_2775" data-name="Trazado 2775" d="M291.963,14.9A50.528,50.528,0,0,0,256,0V101.717A50.859,50.859,0,0,0,291.963,14.9Zm0,0" transform="translate(-205.141 0)" fill="#b2dcff"/>
  <path id="Trazado_2776" data-name="Trazado 2776" d="M143.387,14.9a50.859,50.859,0,0,0-71.925,0,2.981,2.981,0,0,0,0,4.214L82.747,30.4a2.98,2.98,0,0,0,4.215,0,28.939,28.939,0,0,1,40.926,0,2.98,2.98,0,0,0,4.214,0L143.387,19.11a2.979,2.979,0,0,0,0-4.214Zm0,0" transform="translate(-56.566 0)" fill="#ffd12b"/>
  <path id="Trazado_2777" data-name="Trazado 2777" d="M291.963,14.9A50.528,50.528,0,0,0,256,0V21.919A28.751,28.751,0,0,1,276.463,30.4a2.98,2.98,0,0,0,4.214,0l11.285-11.284a2.98,2.98,0,0,0,0-4.215Zm0,0" transform="translate(-205.141 0)" fill="#ff8e1d"/>
  <path id="Trazado_2778" data-name="Trazado 2778" d="M21.92,107.422A28.751,28.751,0,0,1,30.4,86.958a2.977,2.977,0,0,0,0-4.214L19.111,71.459a2.98,2.98,0,0,0-4.215,0,50.859,50.859,0,0,0,0,71.925,2.979,2.979,0,0,0,4.214,0L30.4,132.1a2.979,2.979,0,0,0,0-4.214A28.753,28.753,0,0,1,21.92,107.422Zm0,0" transform="translate(0 -56.563)" fill="#80d398"/>
  <path id="Trazado_2779" data-name="Trazado 2779" d="M370.982,71.459a2.979,2.979,0,0,0-4.214,0L355.483,82.744a2.979,2.979,0,0,0,0,4.214,28.942,28.942,0,0,1,0,40.927,2.979,2.979,0,0,0,0,4.214l11.285,11.285a2.979,2.979,0,0,0,4.214,0,50.859,50.859,0,0,0,0-71.925Zm0,0" transform="translate(-284.161 -56.563)" fill="#ff39b1"/>
  <path id="Trazado_2780" data-name="Trazado 2780" d="M244.544,208.93c-4.662-1.353-28.151-8.1-32.749-8.1a10.96,10.96,0,0,0,0,21.92c4.6,0,28.087-6.745,32.749-8.1a2.98,2.98,0,0,0,0-5.724Zm0,0" transform="translate(-160.937 -160.933)" fill="#00345c"/>
  <path id="Trazado_2781" data-name="Trazado 2781" d="M200.836,211.792a10.972,10.972,0,0,0,10.959,10.96v-21.92A10.972,10.972,0,0,0,200.836,211.792Zm0,0" transform="translate(-160.937 -160.933)" fill="#005ab1"/>
  <path id="Trazado_2782" data-name="Trazado 2782" d="M223.928,360.569h-13.22a2.98,2.98,0,1,1,0-5.96h13.22a2.98,2.98,0,1,1,0,5.96Zm0,0" transform="translate(-166.459 -284.16)" fill="#005ab1"/>
  <path id="Trazado_2783" data-name="Trazado 2783" d="M262.61,354.609H256v5.96h6.61a2.98,2.98,0,0,0,0-5.96Zm0,0" transform="translate(-205.141 -284.16)" fill="#00345c"/>
</svg>
