<svg xmlns="http://www.w3.org/2000/svg" width="100.436" height="101.552" viewBox="0 0 100.436 101.552">
  <g id="training" transform="translate(-3 -2)">
    <path id="Trazado_3737" data-name="Trazado 3737" d="M48.82,57.083l-5.646-16A20.087,20.087,0,0,0,3,41.087v58.03a2.231,2.231,0,0,0,2.232,2.232H32.015a2.231,2.231,0,0,0,2.232-2.232V98L24.2,87.957V75.682H40.942a2.231,2.231,0,0,0,2.232-2.232V60.058h3.541a2.232,2.232,0,0,0,2.1-2.975Z" transform="translate(0 2.203)" fill="#6ebaed"/>
    <g id="Grupo_2125" data-name="Grupo 2125" transform="translate(3 2)">
      <path id="Trazado_3738" data-name="Trazado 3738" d="M32.015,94.391H5.232A2.231,2.231,0,0,1,3,92.16V81H24.2L34.247,91.044V92.16A2.231,2.231,0,0,1,32.015,94.391Z" transform="translate(-3 7.161)" fill="#316596"/>
      <path id="Trazado_3739" data-name="Trazado 3739" d="M41.992,6.791,37.528,2.327A1.116,1.116,0,1,0,35.95,3.9l2.559,2.559h-10.7A7.82,7.82,0,0,0,20,14.276V31.015a1.116,1.116,0,1,0,2.232,0V14.276a5.586,5.586,0,0,1,5.58-5.58h10.7L35.95,11.255a1.116,1.116,0,1,0,1.578,1.578l4.464-4.464a1.115,1.115,0,0,0,0-1.578Z" transform="translate(-1.029 -2)" fill="#316596"/>
      <path id="Trazado_3740" data-name="Trazado 3740" d="M21.116,41.928A1.116,1.116,0,0,1,20,40.812v-6.7a1.116,1.116,0,1,1,2.232,0v6.7A1.116,1.116,0,0,1,21.116,41.928Z" transform="translate(-1.029 1.595)" fill="#316596"/>
      <path id="Trazado_3741" data-name="Trazado 3741" d="M21.116,53.928A1.116,1.116,0,0,1,20,52.812v-6.7a1.116,1.116,0,0,1,2.232,0v6.7A1.116,1.116,0,0,1,21.116,53.928Z" transform="translate(-1.029 2.986)" fill="#316596"/>
    </g>
    <path id="Trazado_3742" data-name="Trazado 3742" d="M57.6,53.087l-5.646,16a2.232,2.232,0,0,0,2.1,2.975H57.6V85.45a2.231,2.231,0,0,0,2.232,2.232H76.571V97.725A2.231,2.231,0,0,0,78.8,99.957H95.542a2.231,2.231,0,0,0,2.232-2.232V53.087a20.087,20.087,0,0,0-40.174,0Z" transform="translate(5.662 3.595)" fill="#ef6662"/>
    <path id="Trazado_3743" data-name="Trazado 3743" d="M75.116,53.928A1.116,1.116,0,0,1,74,52.812v-6.7a1.116,1.116,0,0,1,2.232,0v6.7A1.116,1.116,0,0,1,75.116,53.928Z" transform="translate(8.233 4.986)" fill="#316596"/>
    <path id="Trazado_3744" data-name="Trazado 3744" d="M75.116,65.928A1.116,1.116,0,0,1,74,64.812v-6.7a1.116,1.116,0,1,1,2.232,0v6.7A1.116,1.116,0,0,1,75.116,65.928Z" transform="translate(8.233 6.378)" fill="#316596"/>
    <path id="Trazado_3745" data-name="Trazado 3745" d="M72.131,6.464H69.245L65.108,2.327A1.116,1.116,0,0,0,63.53,3.9l2.559,2.559H55.853L51.717,2.327A1.116,1.116,0,0,0,50.139,3.9L52.7,6.464H43.116a1.116,1.116,0,1,0,0,2.232H52.7l-2.559,2.559a1.116,1.116,0,1,0,1.578,1.578L55.853,8.7H66.089L63.53,11.255a1.116,1.116,0,1,0,1.578,1.578L69.245,8.7h2.886a5.586,5.586,0,0,1,5.58,5.58V44.406a1.116,1.116,0,1,0,2.232,0V14.276a7.82,7.82,0,0,0-7.812-7.812Z" transform="translate(4.522 0)" fill="#316596"/>
    <circle id="Elipse_71" data-name="Elipse 71" cx="4.5" cy="4.5" r="4.5" transform="translate(19 57)" fill="#ef6662"/>
    <circle id="Elipse_72" data-name="Elipse 72" cx="4.5" cy="4.5" r="4.5" transform="translate(19 43)" fill="#ef6662"/>
    <circle id="Elipse_73" data-name="Elipse 73" cx="4.5" cy="4.5" r="4.5" transform="translate(19 30)" fill="#ef6662"/>
    <circle id="Elipse_74" data-name="Elipse 74" cx="4.5" cy="4.5" r="4.5" transform="translate(79 70)" fill="#f2be07"/>
    <circle id="Elipse_75" data-name="Elipse 75" cx="4.5" cy="4.5" r="4.5" transform="translate(79 57)" fill="#f2be07"/>
    <circle id="Elipse_76" data-name="Elipse 76" cx="4.5" cy="4.5" r="4.5" transform="translate(79 43)" fill="#f2be07"/>
    <ellipse id="Elipse_77" data-name="Elipse 77" cx="1.5" cy="1" rx="1.5" ry="1" transform="translate(6 94)" fill="#215682"/>
    <circle id="Elipse_78" data-name="Elipse 78" cx="1" cy="1" r="1" transform="translate(11 94)" fill="#215682"/>
    <ellipse id="Elipse_79" data-name="Elipse 79" cx="1.5" cy="1" rx="1.5" ry="1" transform="translate(15 94)" fill="#215682"/>
  </g>
</svg>
