<svg xmlns="http://www.w3.org/2000/svg" width="374.544" height="361.136" viewBox="0 0 374.544 361.136"><g transform="matrix(0.966, -0.259, 0.259, 0.966, -106.08, 7.275)"><g transform="translate(61.036 143.46)"><g transform="translate(0 0)"><path d="M212.361,461.52,61.036,451.363V262.758l151.325,10.156Z" transform="translate(-61.036 -222.281)" fill="#8a3824"/><path d="M355.245,461.52,506.57,451.363V262.758L355.245,272.914Z" transform="translate(-172.57 -222.281)" fill="#8a3824"/><g transform="translate(150.978 50.633)"><path d="M336.24,467.72c-12.131,5.814-19.915,5.813-32.045,0V279.115c12.13,5.812,19.914,5.813,32.045,0Z" transform="translate(-304.195 -279.115)" fill="#8a3824"/></g><path d="M212.361,458.52,61.036,448.363V259.758l151.325,10.156Z" transform="translate(-61.036 -221.144)" fill="#c4533a"/><path d="M355.245,458.52,506.57,448.363V259.758L355.245,269.914Z" transform="translate(-172.57 -221.144)" fill="#c4533a"/><g transform="translate(150.978 48.771)"><path d="M336.24,464.72c-12.131,5.814-19.915,5.813-32.045,0V276.115c12.13,5.812,19.914,5.813,32.045,0Z" transform="translate(-304.195 -276.115)" fill="#c4533a"/></g><g transform="translate(151.325 42.088)"><path d="M304.755,269.639c11.868-5.717,19.483-5.716,31.349,0V455.1c-11.866-5.715-19.481-5.716-31.349,0Z" transform="translate(-304.755 -265.352)" fill="#f3f0db"/></g><g transform="translate(10.915 24.368)"><path d="M234.173,449.821c-50.619-15.55-101.158-25.718-155.557-24.265V236.951c54.4-1.453,104.938,8.716,155.557,24.265Q234.174,355.518,234.173,449.821Z" transform="translate(-78.616 -236.813)" fill="#f3f0db"/></g><g transform="translate(24.848 11.14)"><path d="M242.68,441.744c-46.086-19.9-92.1-34.41-141.624-37.631q0-94.3,0-188.605c49.527,3.222,95.539,17.732,141.624,37.631Q242.681,347.441,242.68,441.744Z" transform="translate(-101.056 -215.508)" fill="#ded1c5"/></g><g transform="translate(166.473 24.368)"><path d="M329.152,449.821c50.96-15.55,101.838-25.718,156.6-24.265V236.951c-54.765-1.453-105.644,8.716-156.6,24.265Q329.151,355.518,329.152,449.821Z" transform="translate(-329.152 -236.813)" fill="#f3f0db"/></g><g transform="translate(166.473 11.14)"><path d="M329.152,441.744c46.4-19.9,92.717-34.41,142.577-37.631V215.508c-49.86,3.222-96.182,17.732-142.577,37.631Q329.151,347.441,329.152,441.744Z" transform="translate(-329.152 -215.508)" fill="#ded1c5"/></g><g transform="translate(37.142)"><path d="M250.186,434.943c-42.085-23.523-84.1-41.654-129.331-48.77V197.567c45.228,7.117,87.246,25.246,129.331,48.77Q250.187,340.64,250.186,434.943Z" transform="translate(-120.855 -197.567)" fill="#f3f0db"/></g><g transform="translate(166.473)"><path d="M329.152,434.943c42.368-23.523,84.669-41.654,130.2-48.77V197.567c-45.532,7.117-87.833,25.246-130.2,48.77Q329.151,340.64,329.152,434.943Z" transform="translate(-329.152 -197.567)" fill="#f3f0db"/></g><path d="M146.937,234.3v17.286c33.79,7.355,65.958,20.666,97.937,37.479V271.778C212.895,254.964,180.727,241.653,146.937,234.3Z" transform="translate(-93.601 -211.492)" fill="#ded1c5"/><path d="M146.937,281.764v17.286c33.79,7.355,65.958,20.666,97.937,37.479V319.243C212.895,302.43,180.727,289.119,146.937,281.764Z" transform="translate(-93.601 -229.486)" fill="#ded1c5"/><path d="M146.937,329.229v17.286c33.79,7.355,65.958,20.666,97.937,37.479V366.708C212.895,349.9,180.727,336.584,146.937,329.229Z" transform="translate(-93.601 -247.48)" fill="#ded1c5"/><path d="M146.937,376.7v17.286c33.79,7.355,65.958,20.666,97.937,37.479V414.174C212.895,397.361,180.727,384.05,146.937,376.7Z" transform="translate(-93.601 -265.474)" fill="#ded1c5"/><path d="M146.937,424.161v17.286c33.79,7.355,65.958,20.666,97.937,37.479V461.64C212.895,444.827,180.727,431.516,146.937,424.161Z" transform="translate(-93.601 -283.469)" fill="#ded1c5"/><path d="M459,234.3v17.286c-33.79,7.355-65.958,20.666-97.937,37.479V271.778C393.043,254.964,425.211,241.653,459,234.3Z" transform="translate(-174.777 -211.492)" fill="#ded1c5"/><path d="M459,281.764v17.286c-33.79,7.355-65.958,20.666-97.937,37.479V319.243C393.043,302.43,425.211,289.119,459,281.764Z" transform="translate(-174.777 -229.486)" fill="#ded1c5"/><path d="M459,329.229v17.286c-33.79,7.355-65.958,20.666-97.937,37.479V366.708C393.043,349.9,425.211,336.584,459,329.229Z" transform="translate(-174.777 -247.48)" fill="#ded1c5"/><path d="M459,376.7v17.286c-33.79,7.355-65.958,20.666-97.937,37.479V414.174C393.043,397.361,425.211,384.05,459,376.7Z" transform="translate(-174.777 -265.474)" fill="#ded1c5"/><path d="M459,424.161v17.286c-33.79,7.355-65.958,20.666-97.937,37.479V461.64C393.043,444.827,425.211,431.516,459,424.161Z" transform="translate(-174.777 -283.469)" fill="#ded1c5"/></g></g><g transform="translate(143.764 54.841)"><g transform="translate(0)"><g transform="translate(5.989)"><path d="M212.017,54.841a9.753,9.753,0,0,1-8.1,9.579,9.752,9.752,0,0,1,8.1,9.579,9.753,9.753,0,0,1,8.1-9.579A9.753,9.753,0,0,1,212.017,54.841Z" transform="translate(-203.92 -54.841)" fill="#fffce1"/></g><g transform="translate(0 27.022)"><path d="M200.263,98.361a7.215,7.215,0,0,1-5.989,7.086,7.215,7.215,0,0,1,5.989,7.086,7.215,7.215,0,0,1,5.989-7.086A7.215,7.215,0,0,1,200.263,98.361Z" transform="translate(-194.274 -98.361)" fill="#fffce1"/></g><g transform="translate(143.013 18.808)"><path d="M432.7,85.132a9.754,9.754,0,0,1-8.1,9.579,9.753,9.753,0,0,1,8.1,9.579,9.753,9.753,0,0,1,8.1-9.579A9.753,9.753,0,0,1,432.7,85.132Z" transform="translate(-424.605 -85.132)" fill="#fffce1"/></g><g transform="translate(157.975 37.068)"><path d="M453.461,114.542a5.731,5.731,0,0,1-4.758,5.629,5.731,5.731,0,0,1,4.758,5.629,5.731,5.731,0,0,1,4.758-5.629A5.731,5.731,0,0,1,453.461,114.542Z" transform="translate(-448.703 -114.542)" fill="#fffce1"/></g><g transform="translate(141.957 59.303)"><path d="M425.753,150.352a3.432,3.432,0,0,1-2.849,3.371,3.432,3.432,0,0,1,2.849,3.371,3.433,3.433,0,0,1,2.849-3.371A3.434,3.434,0,0,1,425.753,150.352Z" transform="translate(-422.904 -150.352)" fill="#fffce1"/></g></g></g><path d="M413.215,463.105a13.771,13.771,0,0,1-4.957-2.887,3.035,3.035,0,0,1-.587-.818c-.469-.127-.9-.256-1.286-.394a3.033,3.033,0,0,1-1.095-.672c-4.683.377-8.623,2.864-10.425,6.311a21.816,21.816,0,0,0-6.4-.948c-9.665,0-17.6,6.171-18.43,14.039h-.077c-10.221,0-18.507,6.9-18.507,15.411a13.43,13.43,0,0,0,2.472,7.692,78.936,78.936,0,0,0,60.89-37.139C414.257,463.478,413.695,463.3,413.215,463.105Z" transform="translate(-110.095 -152.964)" fill="#f3f0db"/><path d="M406.6,458.247c-.023,0-.046,0-.07,0-5.179,0-9.631,2.579-11.614,6.279a21.893,21.893,0,0,0-6.342-.927c-9.693,0-17.648,6.19-18.485,14.081h-.077c-10.251,0-18.562,6.921-18.562,15.457a13.138,13.138,0,0,0,.081,1.421c.882-8.327,9.274-14.858,19.5-14.858h.081c.883-8.326,9.275-14.856,19.5-14.856a23.112,23.112,0,0,1,6.691.977,13.256,13.256,0,0,1,9.761-6.424A5.6,5.6,0,0,1,406.6,458.247Z" transform="translate(-110.095 -152.93)" fill="#ede4de"/><path d="M485.654,449.062a13.835,13.835,0,0,0-2.116,2.108c-.361-.173-.731-.335-1.111-.482-4.868-1.884-9.995-1.059-13.174,1.727a21.812,21.812,0,0,0-5.629-3.2c-9.014-3.489-18.637-.6-22.256,6.438l-.071-.029c-9.532-3.69-19.75-.247-22.823,7.69a13.427,13.427,0,0,0-.471,8.065,78.909,78.909,0,0,0,67.651-10.811Z" transform="translate(-135.172 -148.947)" fill="#f3f0db"/><path d="M485.918,449.046a13.835,13.835,0,0,0-2.116,2.108c-.361-.173-.731-.335-1.111-.482-4.829-1.87-9.913-1.072-13.1,1.662a21.9,21.9,0,0,0-5.579-3.154c-9.04-3.5-18.692-.6-22.321,6.457l-.071-.029c-9.56-3.7-19.808-.248-22.89,7.713a12.922,12.922,0,0,0-.437,1.355c3.828-7.446,14.012-10.508,23.551-6.815l.075.031c3.829-7.445,14.012-10.506,23.55-6.813a23.123,23.123,0,0,1,5.888,3.327c3.36-2.884,8.723-3.726,13.819-1.753.255.1.5.212.742.323v-3.93Z" transform="translate(-135.436 -148.93)" fill="#ede4de"/><g transform="translate(196.2 62.973)"><path d="M298.738,194.621a5.673,5.673,0,0,0-.091-1.562,22.224,22.224,0,0,0-2.034-5.46c-2.041-3.995-4.369-8.108-5.228-12.562-.921-4.773,0-9.581-.385-14.388-.1-1.207-.24-2.409-.4-3.608-7.123,5.7-11.873,15.929-11.873,27.6a38.64,38.64,0,0,0,5.575,20.418,14.486,14.486,0,0,1,13.967-10.452C298.426,194.609,298.582,194.616,298.738,194.621Z" transform="translate(-278.726 -101.717)" fill="#e8833c"/><path d="M351.465,194.621a5.65,5.65,0,0,1,.091-1.562,22.249,22.249,0,0,1,2.033-5.46c2.041-3.995,4.369-8.108,5.229-12.562.921-4.773,0-9.581.385-14.388.1-1.207.24-2.409.4-3.608,7.124,5.7,11.873,15.929,11.873,27.6a38.645,38.645,0,0,1-5.574,20.418,14.487,14.487,0,0,0-13.967-10.452C351.776,194.609,351.621,194.616,351.465,194.621Z" transform="translate(-306.295 -101.717)" fill="#f68c3b"/><path d="M374.31,193.182c0,1.458-.058,2.9-.163,4.323a40.719,40.719,0,0,0,2.049-12.863c0-11.672-4.749-21.9-11.873-27.6-.161,1.2-.3,2.4-.4,3.608-.01.124-.016.248-.024.371C370.322,169.189,374.31,180.579,374.31,193.182Z" transform="translate(-311.015 -101.717)" fill="#f9a353"/><path d="M295.465,244.691a58.989,58.989,0,0,0,44.805-.442A32.708,32.708,0,0,1,328.2,219.161a31.342,31.342,0,0,1,1.088-8.195,38.3,38.3,0,0,0-9.948-1.3,37.9,37.9,0,0,0-12.176,1.973,31.361,31.361,0,0,1,.912,7.517A32.786,32.786,0,0,1,295.465,244.691Z" transform="translate(-285.072 -121.669)" fill="#f3f0db"/><path d="M340.929,210.087a37.4,37.4,0,0,0-.161,7.719,38.77,38.77,0,0,0,14.989,27.263c.55-.214,1.1-.433,1.64-.663a32.708,32.708,0,0,1-12.072-25.088,31.342,31.342,0,0,1,1.088-8.195A37.648,37.648,0,0,0,340.929,210.087Z" transform="translate(-302.198 -121.827)" fill="#ede4de"/><path d="M321.206,93.6c-9.908,7.848-16.879,26.535-16.879,48.343,0,13.11,2.52,25.09,6.682,34.268a45.884,45.884,0,0,0,20.394,0c4.162-9.178,6.683-21.158,6.683-34.268C338.085,120.135,331.114,101.448,321.206,93.6Z" transform="translate(-288.431 -77.666)" fill="#c5713b"/><path d="M309.611,172.855a71.7,71.7,0,0,0,23.189,0,87.555,87.555,0,0,0,5.285-30.911c0-21.808-6.972-40.495-16.88-48.343-9.908,7.848-16.879,26.535-16.879,48.343A87.557,87.557,0,0,0,309.611,172.855Z" transform="translate(-288.431 -77.667)" fill="#b46835"/><path d="M317.84,67.938c-13.144,8.83-22.393,29.857-22.393,54.4,0,14.751,3.344,28.231,8.865,38.558a71.5,71.5,0,0,0,27.056,0c5.522-10.326,8.865-23.807,8.865-38.558C340.232,97.8,330.984,76.769,317.84,67.938Z" transform="translate(-285.065 -67.938)" fill="#f68c3b"/><path d="M361.409,140.8c.115.093,1.55,1.522,2.01,2.1a65.128,65.128,0,0,0,.273-7.691A86.151,86.151,0,0,0,357.33,101.9a98,98,0,0,1,4.475,29.779A71.046,71.046,0,0,1,361.409,140.8Z" transform="translate(-308.525 -80.812)" fill="#f9a353"/><path d="M309.855,83.624a27.687,27.687,0,0,0,26.893,0c-3.651-6.78-8.242-12.19-13.446-15.686C318.1,71.434,313.505,76.844,309.855,83.624Z" transform="translate(-290.527 -67.938)" fill="#c5713b"/><path d="M299.534,129.987c0-25.882,9.554-48.136,23.245-57.979a34.31,34.31,0,0,0-4.94-4.069c-13.144,8.83-22.393,29.857-22.393,54.4,0,14.751,3.344,28.231,8.865,38.558.061.012.124.022.184.034A95.409,95.409,0,0,1,299.534,129.987Z" transform="translate(-285.065 -67.938)" fill="#d77c3c"/><path d="M322.251,68.679q-.421.308-.836.633l-.12.1q-.383.3-.761.621l-.139.116q-.412.35-.818.716l-.145.132q-.4.367-.8.749l-.027.025c-.275.267-.548.541-.818.818l-.129.133q-.822.854-1.614,1.776l-.08.093q-.4.468-.79.952l-.043.053q-.8,1-1.568,2.064l-.045.063q-.768,1.075-1.5,2.216l-.025.038q-1.117,1.749-2.14,3.648a25.713,25.713,0,0,0,6.007,2.489,46.014,46.014,0,0,1,12.378-14.1c-.036-.035-.07-.071-.106-.106-.106-.1-.214-.207-.321-.309-.175-.168-.352-.333-.529-.5-.108-.1-.216-.2-.325-.3q-.328-.294-.659-.577l-.289-.244c-.227-.19-.456-.378-.687-.56l-.136-.109q-.4-.314-.808-.611l-.223-.163c-.284-.2-.568-.405-.856-.6-.291.195-.579.4-.866.606C322.375,68.589,322.313,68.634,322.251,68.679Z" transform="translate(-290.528 -67.939)" fill="#a96436"/><circle cx="7.427" cy="7.427" r="7.427" transform="translate(22.27 42.125) rotate(-45)" fill="#bcbec0"/><path d="M333.932,131.987a6.216,6.216,0,1,0-6.216,6.216A6.216,6.216,0,0,0,333.932,131.987Z" transform="translate(-294.942 -89.862)" fill="#fff"/><path d="M322.444,133.446a6.725,6.725,0,0,1,9.239-6.244,6.215,6.215,0,0,0-8.752,8.751A6.7,6.7,0,0,1,322.444,133.446Z" transform="translate(-294.942 -89.862)" fill="#eaeaea"/><path d="M333.576,172.616a5.3,5.3,0,1,0-5.3,5.3A5.3,5.3,0,0,0,333.576,172.616Z" transform="translate(-295.501 -105.612)" fill="#bcbec0"/><path d="M333.239,173.143a4.436,4.436,0,1,0-4.436,4.436A4.436,4.436,0,0,0,333.239,173.143Z" transform="translate(-296.028 -106.139)" fill="#fff"/><path d="M325.04,174.185a4.8,4.8,0,0,1,6.593-4.457,4.435,4.435,0,0,0-6.246,6.246A4.786,4.786,0,0,1,325.04,174.185Z" transform="translate(-296.028 -106.139)" fill="#eaeaea"/></g><path d="M272.974,489.485l-.082,0c-.295-8.439-8.272-15.608-18.562-16.337a23.278,23.278,0,0,0-6.889.527c-.089-.2-.189-.4-.29-.6-4.515,1.683-9.936-2.458-14.471-2.674a24.93,24.93,0,0,0-2.985.03q-1.155.262-2.335.477c-.833.15-1.653.319-2.468.493a20.2,20.2,0,0,0-3.422,1.517c-1.978,1.106-3.892,2.32-5.836,3.482a76.311,76.311,0,0,0,75.677,32.453,13.954,13.954,0,0,0,.2-1.563C292.156,498.227,283.855,490.256,272.974,489.485Z" transform="translate(-58.608 -157.526)" fill="#f3f0db"/><path d="M288.146,488.335l-.082,0c-.3-8.465-8.3-15.654-18.616-16.385a23.4,23.4,0,0,0-6.822.508,12.137,12.137,0,0,0-4.38-5.038,10.949,10.949,0,0,1-2.439,1.233,12.667,12.667,0,0,1,4.174,5,24.643,24.643,0,0,1,7.2-.536c10.889.771,19.33,8.356,19.642,17.287.029,0,.058,0,.087,0,10.889.771,19.331,8.357,19.642,17.289a13.887,13.887,0,0,0,.193-1.507C307.385,497.1,299.06,489.108,288.146,488.335Z" transform="translate(-73.837 -156.407)" fill="#ede4de"/><path d="M195.723,454.64l-.079.023c-3.01-7.89-12.877-12.092-22.849-9.453a23.289,23.289,0,0,0-6.349,2.728c-3.044-3.331-8.385-4.809-13.771-3.384-.422.112-.833.24-1.236.381-3.512-5.561-10.835-8.6-18.646-7.582V457.2a76.322,76.322,0,0,0,86.547,9.836,14.047,14.047,0,0,0-.314-1.545C216.7,456.706,206.268,451.849,195.723,454.64Z" transform="translate(-27.203 -144.936)" fill="#f3f0db"/><path d="M195.658,454.63l-.079.022c-3.018-7.913-12.915-12.127-22.917-9.48a23.36,23.36,0,0,0-6.29,2.688c-3.056-3.275-8.354-4.721-13.7-3.306-.422.112-.833.24-1.236.381-3.512-5.561-10.835-8.6-18.646-7.582v1.216c6.683.232,12.6,3.282,15.709,8.2.425-.149.859-.284,1.3-.4,5.637-1.492,11.228.033,14.451,3.488a24.63,24.63,0,0,1,6.637-2.836c10.552-2.793,20.994,1.653,24.178,10l.084-.024c10.553-2.793,21,1.653,24.179,10a13.9,13.9,0,0,0-.3-1.488C216.7,456.7,206.235,451.83,195.658,454.63Z" transform="translate(-27.203 -144.936)" fill="#ede4de"/></g></svg>
