<svg xmlns="http://www.w3.org/2000/svg" width="469.146" height="307.909" viewBox="0 0 469.146 307.909"><g transform="translate(20.163 -239.123) rotate(19)"><path d="M277.97,439.121c-11.155,15.629-52.155,5.492-91.571-22.643s-62.327-63.611-51.171-79.24l92.736-129.927L370.707,309.193Z" fill="#fddfd0" fill-rule="evenodd"/><path d="M277.97,439.121c-8.753,12.259-35.864,8.661-66.173-7.037L323.54,275.529l47.166,33.664Z" fill="#fdd3be" fill-rule="evenodd"/><path d="M319.533,229.951c39.419,28.136,62.329,63.611,51.173,79.242s-52.154,5.492-91.571-22.644-62.327-63.612-51.172-79.238S280.114,201.818,319.533,229.951Z" fill="#fff" fill-rule="evenodd"/><path d="M313.177,238.858c31.061,22.171,50.046,48.827,42.4,59.537s-39.024,1.422-70.087-20.75-50.046-48.826-42.4-59.537S282.116,216.687,313.177,238.858Z" fill="#fbc5a9" fill-rule="evenodd"/><path d="M209.537,273.3l-15.951-6a23.691,23.691,0,0,0-28.162,8.612l-18.2,25.5a8.721,8.721,0,0,0-1.591,3.6,9.377,9.377,0,0,0,2.234,7.335,8.728,8.728,0,0,0,3.35,2.152l18.929,7.085c9.539,3.57.3,28.194-9.233,24.625l-18.927-7.084a34.828,34.828,0,0,1-16.191-53.007l18.2-25.5a50.144,50.144,0,0,1,58.9-17.888l15.949,6C228.374,252.309,219.056,276.879,209.537,273.3Z" fill="#fff" fill-rule="evenodd"/><path d="M357.605,301.668c-3.519.246-7.84.721-12.552,1.158l-.006,0c-11.734.433-30.5-6.457-50.117-18.837l0,0c2.181-15.635,25.542-28.285,38.158-35.052,8.679-5.311,13.744-13.341,21.163-20.393,5.285-5.021,16.273-14.664,24.073-11.225,8.054,3.552.683,16.149,12.929,15.289,4.757-.333,9.541-1.1,14.307-1.539,29.665-2.355,67.68.121,89.716,22.733,18.855,22.039,11.223,46.075-13.871,58.131-14.055,7.184,2.218,16.238-7.031,29.394-7.535,10.72-25.724,9.4-31.1-3.541-3.09-7.438-1.8-10.043-7.3-17.606l-1.032-1.046-.561-.524A51.363,51.363,0,0,0,418.4,308.8c-13.375-4.688-31.8-7.448-45.9-7.6-5-.052-9.9.139-14.892.469Zm172.579-28.145a13.894,13.894,0,1,1-13.893,13.894,13.892,13.892,0,0,1,13.893-13.894Zm-35.336,40.472a5.939,5.939,0,1,0,5.939,5.939,5.939,5.939,0,0,0-5.939-5.939ZM449.3,351.243a2.467,2.467,0,1,0,2.466,2.466,2.467,2.467,0,0,0-2.466-2.466Zm26.021,30.3a4.833,4.833,0,1,1-4.831,4.833,4.832,4.832,0,0,1,4.831-4.833Zm-4.175-26.276a10.722,10.722,0,1,1-10.723,10.723,10.721,10.721,0,0,1,10.723-10.723Zm-51.6-142.354a3.019,3.019,0,1,0,3.018,3.02,3.021,3.021,0,0,0-3.018-3.02Zm-28.49-11.88a9.565,9.565,0,1,0,9.564,9.565A9.566,9.566,0,0,0,391.051,201.036Z" fill="#562712" fill-rule="evenodd"/><path d="M405.336,235.952c14.38-.628,57.331-1.607,64.076,14.09,5.411,12.593-39.542,14.765-47.094,15.683-6.451.782-88.463,10.244-75.1-10.752C356.032,241.132,390.147,236.944,405.336,235.952Z" fill="#6b3417" fill-rule="evenodd"/></g></svg>