<svg xmlns="http://www.w3.org/2000/svg" xmlns:xlink="http://www.w3.org/1999/xlink" width="2088.038" height="639.975" viewBox="0 0 2088.038 639.975"><defs><clipPath id="a"><path d="M197.75-5.833s113.167-42.7,212.16,94.627C235.077,84.3,197.75-5.833,197.75-5.833Z" transform="translate(-197.75 12.109)"/></clipPath><clipPath id="b"><path d="M697.736-39.778s-3.477,43.441,9.149,95.265c9.594,39.379-23.266,48.3-35.723,21.009,6.052,56.591-21.066,93.586-40.019,82.39s-14.372-31.049-14.372-31.049-50.4,83.405-77.915,61.885,29.671-77.6,29.671-77.6-46.2,6.923-48.258-17.6,76.066-56.208,76.066-56.208-45.407-14.79-21.948-34.772C597.809-16.407,638.5-6.336,697.736-39.778Z" transform="translate(-520.229 39.778)"/></clipPath><clipPath id="o"><path d="M546.743,148.466s4.932-57.386,8.714-86.417-40.943-66.671-67.443-87.94c-10.231,53.132-21.305,75.615,4.249,104.139S546.743,148.466,546.743,148.466Z" transform="translate(-476.602 25.891)"/></clipPath><clipPath id="p"><path d="M228.524,128.217s-1.2-39.768-.927-59.989-33.42-42.474-53.3-54.95c-2.775,37.272-8.576,53.584,11.234,71.113S228.524,128.217,228.524,128.217Z" transform="translate(-171.315 -13.278)"/></clipPath></defs><g transform="translate(41.285 39.778)"><g transform="translate(120.989 272.712)"><g transform="translate(0 0)"><path d="M29.74,108.612a2.388,2.388,0,0,1,4.764.337" transform="translate(-22.392 -69.797)" fill="#005e00"/><path d="M38.422,91.07s-24.892,22.3-2.243,47.083C59.321,114.362,38.422,91.07,38.422,91.07Z" transform="translate(-26.663 -91.07)" fill="#005e00"/></g></g><g transform="translate(1668.545 234.637)"><g transform="translate(0 0)"><path d="M1021.952,306.834a2.386,2.386,0,0,1-2.3-1.736c-.146-.516-15.182-52.163-62.845-101.923-43.952-45.884-125.5-99.547-264.349-94.525a2.389,2.389,0,1,1-.174-4.774c140.727-5.053,223.5,49.5,268.134,96.168,48.4,50.608,63.679,103.227,63.827,103.753a2.39,2.39,0,0,1-1.648,2.947A2.329,2.329,0,0,1,1021.952,306.834Z" transform="translate(-653.399 -35.672)" fill="#005e00"/><path d="M866.37,187.889s-26.915,33.069-69.334-7.981C845.065,163.018,866.37,187.889,866.37,187.889Z" transform="translate(-504.796 62.167)" fill="#005e00"/><path d="M846.409,167.99s-16.044,26.136-52.046,4.7C823.836,144.614,846.409,167.99,846.409,167.99Z" transform="translate(-508.506 41.118)" fill="#005e00"/><path d="M772.432,86.054s9.882,21.73-19.621,35.634C747.521,90.446,772.432,86.054,772.432,86.054Z" transform="translate(-567.212 -59.958)" fill="#005e00"/><path d="M822.731,203.8s-13.434-40.914,22.9-57.29C864.981,182.263,822.731,203.8,822.731,203.8Z" transform="translate(-472.496 23.969)" fill="#005e00"/><path d="M815.837,188.59s32.723-26.745,9.13-55.535C798.558,157.947,815.837,188.59,815.837,188.59Z" transform="translate(-486.403 5.288)" fill="#005e00"/><path d="M844.027,154.662s-24.24-23.051-65.343,1.918C815.959,185.083,844.027,154.662,844.027,154.662Z" transform="translate(-530.272 21.818)" fill="#005e00"/><path d="M793.143,142.789s-25.212.373-31.952,40.449C800.006,175.149,793.143,142.789,793.143,142.789Z" transform="translate(-554.555 18.801)" fill="#005e00"/><path d="M698.964,89.3s-10.128,23.727,15.072,36.771C721.535,96.533,698.964,89.3,698.964,89.3Z" transform="translate(-643.73 -55.447)" fill="#005e00"/><path d="M748.888,75.127s-17.006,19.4,2.887,39.634C768.092,89.014,748.888,75.127,748.888,75.127Z" transform="translate(-581.032 -75.127)" fill="#005e00"/><path d="M674.667,112.094s24.82,22.38,47.055-2.777C695.6,88.837,674.667,112.094,674.667,112.094Z" transform="translate(-674.667 -39.373)" fill="#005e00"/><path d="M774.892,112s-31.407-2.118-45.211,29.707C766.337,148.381,774.892,112,774.892,112Z" transform="translate(-598.297 -23.985)" fill="#005e00"/><path d="M801.557,179.638s39.353-23.743,15.884-67.9C781.453,140.82,801.557,179.638,801.557,179.638Z" transform="translate(-506.291 -24.303)" fill="#005e00"/><path d="M763.361,158.832s.862-24.644-25.859-27.037C740.024,156.489,763.361,158.832,763.361,158.832Z" transform="translate(-587.44 3.539)" fill="#005e00"/><path d="M775.051,144.395s-23.552-7.3-32.878,17.852C766.664,166.3,775.051,144.395,775.051,144.395Z" transform="translate(-580.956 19.662)" fill="#005e00"/><path d="M757.558,133.916s6.835,27.4,31.9,20.932C785.027,130.754,757.558,133.916,757.558,133.916Z" transform="translate(-559.599 6.294)" fill="#005e00"/><path d="M793.1,160.906s24.978-26.43-3.919-52.715C766.842,132.615,793.1,160.906,793.1,160.906Z" transform="translate(-528.202 -29.228)" fill="#005e00"/><path d="M729.7,105.339s-27.4-.872-30.32,25.377C727.775,134.262,729.7,105.339,729.7,105.339Z" transform="translate(-640.355 -33.192)" fill="#005e00"/><path d="M788.047,155.01s15.251-33.1-21.912-56.574C752.375,138.694,788.047,155.01,788.047,155.01Z" transform="translate(-552.075 -42.77)" fill="#005e00"/><path d="M791.764,120.028s-3.289,26.576-42.082,20.085C764.023,109.43,791.764,120.028,791.764,120.028Z" transform="translate(-570.532 -15.251)" fill="#005e00"/><path d="M757.4,148.579s-15.655,12.466-32.971-11.287C748.138,128.414,757.4,148.579,757.4,148.579Z" transform="translate(-605.582 8.036)" fill="#005e00"/><path d="M760.571,97.092s-23.113,11.63-38.591-18.482C753.59,70.548,760.571,97.092,760.571,97.092Z" transform="translate(-608.988 -72.408)" fill="#005e00"/><path d="M751.094,107.938s-1.048,28.83-33.458,24.651C727.991,101.788,751.094,107.938,751.094,107.938Z" transform="translate(-615.018 -30.274)" fill="#005e00"/><path d="M776.566,109.349S757.585,125.806,736.3,99.072C766.694,87.578,776.566,109.349,776.566,109.349Z" transform="translate(-589.11 -46.537)" fill="#005e00"/><path d="M712.192,92.821s31.916,5.087,27.049,32C709.871,118.6,712.192,92.821,712.192,92.821Z" transform="translate(-622.635 -50.564)" fill="#005e00"/></g><path d="M781.589,157.774a2.4,2.4,0,0,1-2.307-3.014c.463-1.734,10.587-42.283-43.962-67.266a2.389,2.389,0,1,1,1.989-4.344c30.366,13.909,41.44,32.885,45.383,46.355,4.308,14.718,1.328,26.029,1.2,26.5A2.388,2.388,0,0,1,781.589,157.774Z" transform="translate(-592.404 -64.293)" fill="#005e00"/><path d="M800.5,160.073c-18.5,0-40.556-3.107-66.256-11.654a2.387,2.387,0,0,1,1.507-4.53c89.357,29.721,134.321-8.984,134.766-9.381a2.387,2.387,0,0,1,3.181,3.561C872.33,139.286,848.331,160.073,800.5,160.073Z" transform="translate(-594.238 6.465)" fill="#005e00"/></g><g transform="translate(-41.285 6.768)"><g transform="translate(1495.008)"><path d="M598.123,241.761a2.388,2.388,0,0,1-2.032-3.637c43.2-70.337,94.5-125.688,152.493-164.513C795.02,42.521,845.809,21.9,899.544,12.33c91.515-16.3,160.854,5.474,161.542,5.691a2.388,2.388,0,0,1-1.462,4.547c-.681-.217-69.078-21.656-159.476-5.5C847.1,26.554,796.959,46.942,751.108,77.666,693.749,116.1,642.964,170.927,600.16,240.622A2.382,2.382,0,0,1,598.123,241.761Z" transform="translate(-569.414 57.169)" fill="#005e00"/><path d="M814.271,9.614s16.806,54.164-59.9,70.915C771.035,14.892,814.271,9.614,814.271,9.614Z" transform="translate(-349.204 61.798)" fill="#005e00"/><path d="M773.2,7.964s17.13,37.019-33.124,61.109C730.688,15.752,773.2,7.964,773.2,7.964Z" transform="translate(-370.924 59.507)" fill="#005e00"/><path d="M628.7,13.062s31.347,5.058,25.016,47.976C615.215,43.886,628.7,13.062,628.7,13.062Z" transform="translate(-526.835 66.584)" fill="#005e00"/><path d="M793.231,47.269s-55.208-15.251-46.586-67.557C800.488-15.387,793.231,47.269,793.231,47.269Z" transform="translate(-361.195 20.288)" fill="#005e00"/><path d="M775.33,37.027s-5.524-55.939-54.785-51.014C728.667,33.6,775.33,37.027,775.33,37.027Z" transform="translate(-396.157 28.608)" fill="#005e00"/><path d="M757.32,9.1s-43.381,9.873-46,73.788C770.34,62.594,757.32,9.1,757.32,9.1Z" transform="translate(-408.962 61.086)" fill="#005e00"/><path d="M702.921,39.371s-18.155,28.2,21.269,65.178C743.818,55.6,702.921,39.371,702.921,39.371Z" transform="translate(-426.416 103.106)" fill="#005e00"/><path d="M584.715,88.691s18.819,28.694,51.826,10.386C609.342,69.015,584.715,88.691,584.715,88.691Z" transform="translate(-584.715 162.793)" fill="#005e00"/><path d="M603.742,23.237s8.963,33.124,46.025,25.991C633.27,12.2,603.742,23.237,603.742,23.237Z" transform="translate(-558.302 78.571)" fill="#005e00"/><path d="M586.361,154.1s43.069-11.01,31.579-54.164C576.02,113.78,586.361,154.1,586.361,154.1Z" transform="translate(-583.997 187.182)" fill="#005e00"/><path d="M653.9,45.431s-25.475,33.227-.394,71.951C687.9,81.7,653.9,45.431,653.9,45.431Z" transform="translate(-504.547 111.518)" fill="#005e00"/><path d="M751.988,50.448s2.684-61.073-63.507-67.6C694.191,44.129,751.988,50.448,751.988,50.448Z" transform="translate(-440.668 24.644)" fill="#005e00"/><path d="M710.008,72.391s-26.659-19.106-48.989,8.729C690.229,96.514,710.008,72.391,710.008,72.391Z" transform="translate(-478.791 140.067)" fill="#005e00"/><path d="M695.327,60.766s-25.434,20.706-4.442,49.562C713.411,86.186,695.327,60.766,695.327,60.766Z" transform="translate(-448.856 132.806)" fill="#005e00"/><path d="M678.052,64.931s35.381,12.607,46.68-19.92C694.781,32.179,678.052,64.931,678.052,64.931Z" transform="translate(-455.145 106.797)" fill="#005e00"/><path d="M730.35,39.241S719.472-7.89,669.081,4.758C679.68,47.49,730.35,39.241,730.35,39.241Z" transform="translate(-467.599 52.064)" fill="#005e00"/><path d="M617.582,81s-21.147,29.714,5.777,52.27C648.194,104.438,617.582,81,617.582,81Z" transform="translate(-550.049 160.895)" fill="#005e00"/><path d="M722.6,39.8s-25.432-41.273-78.8-17.4C678.261,67.291,722.6,39.8,722.6,39.8Z" transform="translate(-502.681 69.23)" fill="#005e00"/><path d="M678.847,29.9s27.01,23.216-8.748,61.4C646.675,52.818,678.847,29.9,678.847,29.9Z" transform="translate(-478.045 89.957)" fill="#005e00"/><path d="M692.813,78.2s2.278,26.521-36.783,28.2C663.651,73.616,692.813,78.2,692.813,78.2Z" transform="translate(-485.716 156.708)" fill="#005e00"/><path d="M638.591,38.421S634.45,72.586,589.7,67.552C604.051,26.6,638.591,38.421,638.591,38.421Z" transform="translate(-577.795 99.59)" fill="#005e00"/><path d="M635.683,61.032s31.159,22.392,2.661,55.213C611.856,82.089,635.683,61.032,635.683,61.032Z" transform="translate(-527.627 133.176)" fill="#005e00"/><path d="M662.773,32.735s4.249,33.143-41.039,37.031C631.387,27.636,662.773,32.735,662.773,32.735Z" transform="translate(-533.326 93.625)" fill="#005e00"/><path d="M599.194,81.075s29.138-31.605,55.361-6.391C626.04,102.633,599.194,81.075,599.194,81.075Z" transform="translate(-564.615 138.579)" fill="#005e00"/><path d="M718.438,56.255a2.388,2.388,0,0,1-1.8-.812c-1.576-1.791-39.412-43.4-107.884-1a2.388,2.388,0,1,1-2.515-4.06C678.278,5.776,719.825,51.827,720.236,52.3a2.387,2.387,0,0,1-1.8,3.957Z" transform="translate(-556.402 91.405)" fill="#005e00"/><path d="M667.555,178.242a2.388,2.388,0,0,1-1.471-4.27c99.3-77.525,89.268-156.114,89.156-156.9a2.387,2.387,0,1,1,4.726-.681c.117.812,10.518,82.132-90.945,161.344A2.362,2.362,0,0,1,667.555,178.242Z" transform="translate(-473.037 68.369)" fill="#005e00"/></g><path d="M423.335,241.761a2.389,2.389,0,0,0,2.032-3.637c-43.2-70.337-94.5-125.688-152.493-164.513C226.439,42.519,175.649,21.9,121.915,12.33,30.4-3.97-38.939,17.8-39.627,18.021a2.387,2.387,0,0,0-1.543,3,2.389,2.389,0,0,0,3,1.543c.681-.217,69.078-21.656,159.476-5.5C174.355,26.554,224.5,46.942,270.35,77.666,327.71,116.1,378.495,170.927,421.3,240.622A2.382,2.382,0,0,0,423.335,241.761Z" transform="translate(41.285 57.169)" fill="#005e00"/><path d="M-28.544,9.614s-16.806,54.164,59.9,70.915C14.692,14.892-28.544,9.614-28.544,9.614Z" transform="translate(56.807 61.798)" fill="#005e00"/><path d="M-1.523,7.964S-18.653,44.983,31.6,69.073C40.99,15.752-1.523,7.964-1.523,7.964Z" transform="translate(92.575 59.507)" fill="#005e00"/><path d="M137.665,13.062s-31.347,5.058-25.016,47.976C151.146,43.886,137.665,13.062,137.665,13.062Z" transform="translate(253.803 66.584)" fill="#005e00"/><path d="M-15.43,47.269S39.778,32.018,31.157-20.288C-22.687-15.387-15.43,47.269-15.43,47.269Z" transform="translate(76.723 20.288)" fill="#005e00"/><path d="M6.515,37.027S12.039-18.912,61.3-13.988C53.178,33.6,6.515,37.027,6.515,37.027Z" transform="translate(107.641 28.608)" fill="#005e00"/><path d="M20.128,9.1s43.381,9.873,46,73.788C7.1,62.594,20.128,9.1,20.128,9.1Z" transform="translate(124.843 61.086)" fill="#005e00"/><path d="M64.965,39.371S83.12,67.568,43.7,104.549C24.07,55.6,64.965,39.371,64.965,39.371Z" transform="translate(151.859 103.106)" fill="#005e00"/><path d="M195.41,88.691s-18.819,28.694-51.826,10.386C170.783,69.015,195.41,88.691,195.41,88.691Z" transform="translate(297.919 162.793)" fill="#005e00"/><path d="M173.011,23.237s-8.963,33.124-46.025,25.991C143.484,12.2,173.011,23.237,173.011,23.237Z" transform="translate(274.878 78.571)" fill="#005e00"/><path d="M183.785,154.1s-43.069-11.01-31.579-54.164C194.123,113.78,183.785,154.1,183.785,154.1Z" transform="translate(307.182 187.182)" fill="#005e00"/><path d="M111.461,45.431s25.475,33.227.394,71.951C77.462,81.7,111.461,45.431,111.461,45.431Z" transform="translate(232.511 111.518)" fill="#005e00"/><path d="M34.935,50.448S32.25-10.625,98.442-17.15C92.734,44.129,34.935,50.448,34.935,50.448Z" transform="translate(147.072 24.644)" fill="#005e00"/><path d="M68.468,72.391s26.659-19.106,48.989,8.729C88.247,96.514,68.468,72.391,68.468,72.391Z" transform="translate(193.644 140.067)" fill="#005e00"/><path d="M66.072,60.766s25.434,20.706,4.442,49.562C47.989,86.186,66.072,60.766,66.072,60.766Z" transform="translate(180.786 132.806)" fill="#005e00"/><path d="M99.082,64.931S63.7,77.538,52.4,45.011C82.352,32.179,99.082,64.931,99.082,64.931Z" transform="translate(171.341 106.797)" fill="#005e00"/><path d="M55.264,39.241S66.142-7.89,116.535,4.758C105.934,47.49,55.264,39.241,55.264,39.241Z" transform="translate(175.314 52.064)" fill="#005e00"/><path d="M146.013,81s21.147,29.714-5.777,52.27C115.4,104.438,146.013,81,146.013,81Z" transform="translate(279.783 160.895)" fill="#005e00"/><path d="M73.2,39.8s25.432-41.273,78.8-17.4C117.541,67.291,73.2,39.8,73.2,39.8Z" transform="translate(200.208 69.23)" fill="#005e00"/><path d="M86.888,29.9s-27.01,23.216,8.748,61.4C119.06,52.818,86.888,29.9,86.888,29.9Z" transform="translate(205.639 89.957)" fill="#005e00"/><path d="M78.582,78.2s-2.278,26.521,36.783,28.2C107.745,73.616,78.582,78.2,78.582,78.2Z" transform="translate(207.65 156.708)" fill="#005e00"/><path d="M139.828,38.421s4.141,34.165,48.891,29.131C174.368,26.6,139.828,38.421,139.828,38.421Z" transform="translate(292.705 99.59)" fill="#005e00"/><path d="M128.568,61.032s-31.161,22.392-2.66,55.213C152.395,82.089,128.568,61.032,128.568,61.032Z" transform="translate(256.705 133.176)" fill="#005e00"/><path d="M111.144,32.735S106.9,65.878,152.182,69.766C142.529,27.636,111.144,32.735,111.144,32.735Z" transform="translate(252.738 93.625)" fill="#005e00"/><path d="M182.984,81.075s-29.138-31.605-55.358-6.391C156.139,102.633,182.984,81.075,182.984,81.075Z" transform="translate(275.766 138.579)" fill="#005e00"/><path d="M98.824,56.255a2.388,2.388,0,0,0,1.8-.812c1.576-1.791,39.412-43.4,107.884-1a2.388,2.388,0,1,0,2.515-4.06C138.984,5.776,97.437,51.827,97.026,52.3a2.387,2.387,0,0,0,1.8,3.957Z" transform="translate(232.469 91.405)" fill="#005e00"/><path d="M137.757,178.242a2.388,2.388,0,0,0,1.471-4.27C39.922,96.447,49.957,17.859,50.07,17.073a2.387,2.387,0,1,0-4.726-.681c-.117.812-10.518,82.132,90.945,161.344A2.368,2.368,0,0,0,137.757,178.242Z" transform="translate(161.054 68.369)" fill="#005e00"/></g><path d="M418.551,73.21S440.52,1.99,529.26-16.053C497.094,71.441,418.551,73.21,418.551,73.21Z" transform="translate(638.34 32.935)" fill="#499334"/><path d="M435.079,79.478s-3.943-38.5,34.825-65.131C472.271,62.7,435.079,79.478,435.079,79.478Z" transform="translate(661.129 75.136)" fill="#499334"/><path d="M158.236,98.776s-19.2-72.013,46.41-134.426C223.849,55.567,158.236,98.776,158.236,98.776Z" transform="translate(273.339 5.73)" fill="#499334"/><path d="M681.521,123.882s31.3,1.963,47.429,36.48C689.992,155.834,681.521,123.882,681.521,123.882Z" transform="translate(1003.393 227.191)" fill="#82ae31"/><g transform="translate(529.576 26.3)"><path d="M197.75-5.833s113.167-42.7,212.16,94.627C235.077,84.3,197.75-5.833,197.75-5.833Z" transform="translate(-197.75 12.109)" fill="#499334"/><g clip-path="url(#a)"><path d="M259.412-1.136C234.554-11.589,208.4-21.6,181.488-19.907,196.333-9.222,216.16-9.666,233.775-4.735c25.988,7.277,46.885,26.246,70.955,38.45,15.913,8.067,33.134,13.13,50.011,18.914a597.155,597.155,0,0,1,141.842,70.915c-53.584-.716-101.075-32.1-147.989-58S245.554,18.015,195.681,37.625c33.74,11.234,71.142,5.937,105.183,16.221,34.961,10.558,62.833,36.3,92.905,57.028,16.541,11.4,58.785,40.728,78.342,23.574,24.534-21.52-18.5-38.235-32.854-46.489A1622.686,1622.686,0,0,0,259.412-1.136Z" transform="translate(-220.325 1.024)" fill="#005e00" opacity="0.5"/></g></g><g transform="translate(1664.297 393.088)"><path d="M748.264,209.307c5.514-2.491,12.084-1.865,17.6.628,22.869,10.338,32.57,45.915-.153,46.677C741.568,257.173,720.031,222.069,748.264,209.307Z" transform="translate(-586.843 -49.51)" fill="#896bba" opacity="0.3"/><path d="M768.291,214.86a26.671,26.671,0,0,0,15.8,1.036c5.17-1.414,9.854-5.094,11.717-10.121,5.923-15.991-6.771-42.617-26.17-34.28C751.762,179.178,748.428,207.819,768.291,214.86Z" transform="translate(-559.237 -101.993)" fill="#896bba" opacity="0.3"/><path d="M721.459,198.212a14.153,14.153,0,0,0,15.979,2.407c3.831-2.054,6.348-5.858,8.7-9.512a19.228,19.228,0,0,0,3.014-6.2,14.047,14.047,0,0,0-1.588-9.018,18.238,18.238,0,0,0-7.477-8.191,15.624,15.624,0,0,0-15.719,1.068C715.464,174.765,713.468,190.582,721.459,198.212Z" transform="translate(-612.422 -107.347)" fill="#896bba" opacity="0.3"/><path d="M729.379,195.4a10.655,10.655,0,0,0-2.916,11.817c1.273,3.016,3.953,5.168,6.527,7.188a14.469,14.469,0,0,0,4.44,2.691,10.588,10.588,0,0,0,6.873-.564,13.733,13.733,0,0,0,6.663-5.039,11.773,11.773,0,0,0,.294-11.862C747.379,192.534,735.655,189.938,729.379,195.4Z" transform="translate(-599.534 -70.688)" fill="#896bba" opacity="0.3"/><path d="M761.049,199.87a10.654,10.654,0,0,0-2.916,11.817c1.275,3.016,3.953,5.168,6.527,7.188a14.469,14.469,0,0,0,4.44,2.691,10.588,10.588,0,0,0,6.873-.564,13.733,13.733,0,0,0,6.663-5.039,11.773,11.773,0,0,0,.294-11.862C779.049,197,767.326,194.406,761.049,199.87Z" transform="translate(-555.57 -64.485)" fill="#896bba" opacity="0.3"/><path d="M721.9,165.709c2.3,5.006,7.8,8.051,13.29,8.473a13.286,13.286,0,0,0,6.023-.776c3.685-1.5,6.188-5.192,6.947-9.094a21.276,21.276,0,0,0-1.478-11.678c-2.959-7.575-11.807-14.625-20.1-9.3C720.588,147.188,719.141,159.709,721.9,165.709Z" transform="translate(-606.718 -141.475)" fill="#896bba" opacity="0.3"/><path d="M694.2,177.24a17.116,17.116,0,0,0,11.492,3.738,18.685,18.685,0,0,0,7.912-2.7,14.1,14.1,0,0,0,4.932-4.4,13.413,13.413,0,0,0,1.817-6.195,21.366,21.366,0,0,0-6.861-17.5c-6.947-6.08-19.342-6.212-25.487,1.359C681.986,158.958,687.591,172.184,694.2,177.24Z" transform="translate(-655.466 -135.558)" fill="#896bba" opacity="0.3"/><path d="M690.784,170.349c-.81,2.7-1.464,6.045.59,7.969a5.241,5.241,0,0,0,2.2,1.154,7.749,7.749,0,0,0,8.034-2.436,6.494,6.494,0,0,0-.167-8.172c-2.02-2.173-6.212-2.935-8.2-.736-.478.528-1.349.955-2.087,1.784" transform="translate(-649.128 -106.306)" fill="#896bba" opacity="0.3"/><path d="M706.079,171.476c-1.07,3.563-1.932,7.988.781,10.53a6.965,6.965,0,0,0,2.909,1.526,10.244,10.244,0,0,0,10.618-3.219,8.582,8.582,0,0,0-.222-10.8c-2.67-2.871-8.208-3.878-10.842-.972-.63.7-1.784,1.263-2.758,2.357" transform="translate(-628.241 -106.323)" fill="#896bba" opacity="0.3"/><path d="M673.917,164.979c-1.07,3.563-1.932,7.988.781,10.53a6.938,6.938,0,0,0,2.909,1.526,10.239,10.239,0,0,0,10.616-3.219,8.582,8.582,0,0,0-.222-10.8c-2.67-2.871-8.208-3.878-10.842-.972-.63.7-1.784,1.263-2.758,2.357" transform="translate(-672.888 -115.342)" fill="#896bba" opacity="0.3"/><path d="M709.729,194.271c-.363,1.206-.654,2.706.265,3.566a2.347,2.347,0,0,0,.986.516,3.471,3.471,0,0,0,3.6-1.091,2.907,2.907,0,0,0-.074-3.659c-.905-.972-2.78-1.314-3.673-.33-.215.236-.6.427-.934.8" transform="translate(-622.23 -70.387)" fill="#896bba" opacity="0.3"/><path d="M752.372,190.991c-.363,1.206-.654,2.706.265,3.566a2.347,2.347,0,0,0,.986.516,3.471,3.471,0,0,0,3.6-1.091,2.911,2.911,0,0,0-.074-3.659c-.905-.972-2.78-1.314-3.673-.33-.215.236-.6.427-.934.8" transform="translate(-563.033 -74.941)" fill="#896bba" opacity="0.3"/></g><g transform="translate(1299.718 -39.778)"><path d="M697.736-39.778s-3.477,43.441,9.149,95.265c9.594,39.379-23.266,48.3-35.723,21.009,6.052,56.591-21.066,93.586-40.019,82.39s-14.372-31.049-14.372-31.049-50.4,83.405-77.915,61.885,29.671-77.6,29.671-77.6-46.2,6.923-48.258-17.6,76.066-56.208,76.066-56.208-45.407-14.79-21.948-34.772C597.809-16.407,638.5-6.336,697.736-39.778Z" transform="translate(-520.229 39.778)" fill="#559351"/><g clip-path="url(#b)"><path d="M586.125,14.651c-2.443-5.536-1.755-12.1.786-17.591,10.546-22.774,46.207-32.157,46.675.573C633.929,21.777,598.634,43,586.125,14.651Z" transform="translate(-430.859 62.24)" fill="#896bba" opacity="0.3"/></g><g clip-path="url(#b)"><path d="M591.851-10.764a26.676,26.676,0,0,0,1.18-15.788c-1.366-5.182-5.006-9.9-10.016-11.807C567.078-44.426,540.338-31.974,548.5-12.5,556.021,5.442,584.634,9.034,591.851-10.764Z" transform="translate(-483.086 39.602)" fill="#896bba" opacity="0.3"/></g><g clip-path="url(#b)"><path d="M617.292,52.98a26.676,26.676,0,0,0,1.18-15.788c-1.366-5.182-5.006-9.9-10.014-11.807-15.936-6.066-42.677,6.386-34.514,25.862C581.461,69.186,610.072,72.78,617.292,52.98Z" transform="translate(-447.766 128.091)" fill="#896bba" opacity="0.3"/></g><g clip-path="url(#b)"><path d="M574.809,30.4a14.151,14.151,0,0,0,2.551-15.958c-2.02-3.85-5.8-6.4-9.433-8.791a19.262,19.262,0,0,0-6.171-3.071,14.062,14.062,0,0,0-9.032,1.507,18.249,18.249,0,0,0-8.258,7.4,15.621,15.621,0,0,0,.927,15.726C551.312,36.188,567.109,38.325,574.809,30.4Z" transform="translate(-488.947 98.248)" fill="#896bba" opacity="0.3"/></g><g clip-path="url(#b)"><path d="M572.093,19.02a10.661,10.661,0,0,0,11.791,3.023c3.028-1.247,5.2-3.9,7.248-6.462a14.513,14.513,0,0,0,2.732-4.416,10.589,10.589,0,0,0-.5-6.878,13.74,13.74,0,0,0-4.977-6.708,11.77,11.77,0,0,0-11.86-.4C569.392,1,566.689,12.694,572.093,19.02Z" transform="translate(-452.197 89.129)" fill="#896bba" opacity="0.3"/></g><g clip-path="url(#b)"><path d="M576.848-12.61a10.661,10.661,0,0,0,11.791,3.023c3.028-1.247,5.2-3.9,7.248-6.462a14.533,14.533,0,0,0,2.732-4.413,10.59,10.59,0,0,0-.5-6.878,13.73,13.73,0,0,0-4.977-6.708,11.77,11.77,0,0,0-11.86-.4C574.145-30.634,571.441-18.934,576.848-12.61Z" transform="translate(-445.599 45.223)" fill="#896bba" opacity="0.3"/></g><g clip-path="url(#b)"><path d="M542.336,26.728c5.027-2.257,8.122-7.723,8.593-13.214a13.341,13.341,0,0,0-.721-6.03c-1.464-3.7-5.135-6.236-9.032-7.031a21.264,21.264,0,0,0-11.69,1.373c-7.6,2.892-14.73,11.676-9.479,20.013C523.806,27.874,536.313,29.433,542.336,26.728Z" transform="translate(-523.047 95.178)" fill="#896bba" opacity="0.3"/></g><g clip-path="url(#b)"><path d="M553.6,58.639a17.1,17.1,0,0,0,3.84-11.459,18.689,18.689,0,0,0-2.625-7.936,14.073,14.073,0,0,0-4.351-4.97,13.372,13.372,0,0,0-6.178-1.872,21.357,21.357,0,0,0-17.563,6.7c-6.142,6.892-6.386,19.285,1.13,25.5C535.206,70.685,548.482,65.2,553.6,58.639Z" transform="translate(-517.548 139.872)" fill="#896bba" opacity="0.3"/></g><g clip-path="url(#b)"><path d="M546.725,49.276c2.689.833,6.03,1.517,7.974-.521a5.265,5.265,0,0,0,1.175-2.19,7.747,7.747,0,0,0-2.364-8.055,6.494,6.494,0,0,0-8.175.093c-2.19,2-2.99,6.185-.81,8.2.523.482.943,1.359,1.765,2.1" transform="translate(-488.289 146.512)" fill="#896bba" opacity="0.3"/></g><g clip-path="url(#b)"><path d="M547.979,36.4c3.554,1.1,7.969,2.006,10.537-.685a6.947,6.947,0,0,0,1.552-2.894,10.245,10.245,0,0,0-3.124-10.647,8.58,8.58,0,0,0-10.8.124c-2.894,2.646-3.953,8.175-1.07,10.833.693.638,1.247,1.8,2.333,2.78" transform="translate(-488.107 123.215)" fill="#896bba" opacity="0.3"/></g><g clip-path="url(#b)"><path d="M541.193,68.506c3.551,1.1,7.969,2,10.537-.685a6.947,6.947,0,0,0,1.552-2.894,10.245,10.245,0,0,0-3.124-10.647,8.58,8.58,0,0,0-10.8.124c-2.894,2.646-3.953,8.175-1.07,10.833.693.638,1.247,1.8,2.333,2.78" transform="translate(-497.527 167.779)" fill="#896bba" opacity="0.3"/></g><g clip-path="url(#b)"><path d="M570.833,26.4c1.2.373,2.7.678,3.57-.232a2.359,2.359,0,0,0,.525-.982,3.473,3.473,0,0,0-1.058-3.606,2.9,2.9,0,0,0-3.659.043c-.979.9-1.337,2.768-.363,3.668.234.217.423.609.79.941" transform="translate(-452.146 124.085)" fill="#896bba" opacity="0.3"/></g><g clip-path="url(#b)"><path d="M567.939-16.271c1.2.373,2.7.678,3.568-.232a2.374,2.374,0,0,0,.525-.982,3.468,3.468,0,0,0-1.058-3.606,2.9,2.9,0,0,0-3.659.043c-.982.9-1.337,2.768-.363,3.668.234.215.423.609.791.941" transform="translate(-456.168 64.849)" fill="#896bba" opacity="0.3"/></g></g><g transform="translate(1195.528 -6.613)"><path d="M546.743,148.466s4.932-57.386,8.714-86.417-40.943-66.671-67.443-87.94c-10.231,53.132-21.305,75.615,4.249,104.139S546.743,148.466,546.743,148.466Z" transform="translate(-476.602 25.891)" fill="#82ae31"/><g clip-path="url(#o)"><path d="M565.2,248.791A1289.7,1289.7,0,0,0,489.983,24.736C479.212.333,467.4-26.073,473.5-52.042A2277.472,2277.472,0,0,1,584.572,278.866" transform="translate(-483.224 -10.412)" fill="#896bba" opacity="0.3"/></g></g><g transform="translate(466.445 86.93)"><path d="M228.524,128.217s-1.2-39.768-.927-59.989-33.42-42.474-53.3-54.95c-2.775,37.272-8.576,53.584,11.234,71.113S228.524,128.217,228.524,128.217Z" transform="translate(-171.315 -13.278)" fill="#82ae31"/><g transform="translate(0 0)" clip-path="url(#p)"><path d="M251.52,195.127A890.828,890.828,0,0,0,182.009,47.406c-9.34-15.881-19.552-33.057-17.446-51.363A1573.2,1573.2,0,0,1,267.215,214.214" transform="translate(-181.076 -37.203)" fill="#896bba" opacity="0.3"/></g></g><path d="M687.068,209.275c5.672-2.787,8.734-9.577,8.091-15.862-1.194-11.688-18.494-11.91-23.844-3.25C665.345,199.829,676.025,214.7,687.068,209.275Z" transform="translate(986.845 310.787)" fill="#c5d462"/><g transform="translate(558.048 119.854)"><path d="M241.206,72.511c10.238-5.03,15.769-17.288,14.609-28.637-2.157-21.1-33.389-21.5-43.047-5.868C201.989,55.459,221.267,82.305,241.206,72.511Z" transform="translate(-209.672 -27.064)" fill="#c5d462"/><path d="M228.534,51.917c4.3-2.111,6.62-7.258,6.133-12.022-.905-8.858-14.016-9.025-18.071-2.462C212.07,44.759,220.164,56.029,228.534,51.917Z" transform="translate(-201.865 -19.048)" fill="#fff"/></g><g transform="translate(75.001 216.86)"><path d="M38.941,113.13C49.179,108.1,54.71,95.842,53.549,84.493c-2.159-21.1-33.389-21.5-43.047-5.868C-.276,96.078,19,122.924,38.941,113.13Z" transform="translate(-7.407 -67.683)" fill="#c5d462"/><path d="M26.269,92.536c4.3-2.111,6.62-7.258,6.133-12.022-.905-8.858-14.016-9.025-18.071-2.462C9.8,85.378,17.9,96.648,26.269,92.536Z" transform="translate(0.4 -59.667)" fill="#fff"/></g><g transform="translate(1377.567 192.397)"><path d="M584.361,102.887C594.6,97.858,600.131,85.6,598.97,74.25c-2.159-21.1-33.389-21.5-43.047-5.868C545.143,85.835,564.422,112.683,584.361,102.887Z" transform="translate(-552.826 -57.44)" fill="#c5d462"/><path d="M571.688,82.293c4.3-2.111,6.62-7.258,6.133-12.022-.905-8.858-14.016-9.025-18.072-2.462C555.226,75.135,563.317,86.405,571.688,82.293Z" transform="translate(-545.02 -49.424)" fill="#fff"/></g><path d="M459.413,38.852c1.739,6.386,8.115,10.888,14.709,11.475,12.261,1.094,15.927-16.658,8.079-23.882C473.444,18.385,456.027,26.414,459.413,38.852Z" transform="translate(694.467 87.428)" fill="#c5d462"/><path d="M178.268,74.206a8.61,8.61,0,0,0,7.556,5.894c6.3.561,8.182-8.557,4.151-12.268C185.477,63.69,176.529,67.815,178.268,74.206Z" transform="translate(304.474 147.069)" fill="#c5d462"/><path d="M666.53,177.341a8.61,8.61,0,0,0,7.556,5.894c6.3.561,8.182-8.557,4.151-12.268C673.739,166.828,664.791,170.952,666.53,177.341Z" transform="translate(982.275 290.243)" fill="#c5d462"/><path d="M21.948,60.694A8.61,8.61,0,0,0,29.5,66.588c6.3.561,8.182-8.557,4.151-12.268C29.155,50.178,20.207,54.3,21.948,60.694Z" transform="translate(87.472 128.312)" fill="#c5d462"/></g></svg>