<svg id="Layer_1" data-name="Layer 1" xmlns="http://www.w3.org/2000/svg" xmlns:xlink="http://www.w3.org/1999/xlink" viewBox="0 0 1920 585"><defs><style>.cls-1{fill:none;}.cls-2{clip-path:url(#clip-path);}.cls-3,.cls-7{fill:#185f30;}.cls-4{fill:#499243;}.cls-5{fill:#80ae40;}.cls-6{clip-path:url(#clip-path-2);}.cls-7{opacity:0.5;}.cls-7,.cls-8{isolation:isolate;}.cls-8{fill:#886bae;opacity:0.3;}.cls-9{fill:#559251;}.cls-10{clip-path:url(#clip-path-3);}.cls-11{clip-path:url(#clip-path-13);}.cls-12{clip-path:url(#clip-path-14);}.cls-13{fill:#c3d262;}.cls-14{fill:#fff;}</style><clipPath id="clip-path"><rect class="cls-1" y="-0.08" width="1920" height="584.85"/></clipPath><clipPath id="clip-path-2"><path class="cls-1" d="M550.36,17.15S663-25.55,761.61,111.78C587.53,107.28,550.36,17.15,550.36,17.15Z"/></clipPath><clipPath id="clip-path-3"><path class="cls-1" d="M1493.93-55.21s-3.46,43.45,9.11,95.27c9.55,39.38-23.17,48.3-35.57,21,6,56.59-21,93.58-39.85,82.39s-14.31-31.05-14.31-31.05-50.18,83.4-77.58,61.88,29.55-77.6,29.55-77.6-46,6.93-48-17.6S1393,22.89,1393,22.89s-45.22-14.79-21.86-34.78S1435-21.76,1493.93-55.21Z"/></clipPath><clipPath id="clip-path-13"><path class="cls-1" d="M1283.28,152.32s4.92-57.39,8.68-86.42S1251.19-.77,1224.81-22c-10.19,53.13-21.22,75.61,4.23,104.14S1283.28,152.32,1283.28,152.32Z"/></clipPath><clipPath id="clip-path-14"><path class="cls-1" d="M544.46,186.44s-1.19-39.77-.92-60S510.26,84,490.47,71.5c-2.76,37.27-8.54,53.59,11.18,71.12S544.46,186.44,544.46,186.44Z"/></clipPath></defs><title>Artboard 1</title><g class="cls-2"><path class="cls-3" d="M150.85,296.1a2.38,2.38,0,1,1,4.74.34"/><path class="cls-3" d="M155.24,257.28s-24.79,22.3-2.23,47.09C176.05,280.58,155.24,257.28,155.24,257.28Z"/><path class="cls-3" d="M2051.39,490.37a2.39,2.39,0,0,1-2.29-1.73c-.14-.52-15.11-52.17-62.57-101.93-43.76-45.88-125-99.54-263.21-94.52a2.39,2.39,0,0,1-.26-4.77h.08c140.13-5.05,222.54,49.5,267,96.17,48.2,50.61,63.41,103.23,63.56,103.75a2.4,2.4,0,0,1-1.64,2.95A2.37,2.37,0,0,1,2051.39,490.37Z"/><path class="cls-3" d="M1888.76,245.31s9.84,21.73-19.53,35.63C1864,249.7,1888.76,245.31,1888.76,245.31Z"/><path class="cls-3" d="M1922,380.8s-25.11.37-31.82,40.45C1928.82,413.16,1922,380.8,1922,380.8Z"/><path class="cls-3" d="M1739.42,253.06s-10.08,23.73,15,36.77C1761.9,260.3,1739.42,253.06,1739.42,253.06Z"/><path class="cls-3" d="M1851.56,219.21s-16.93,19.4,2.87,39.63C1870.68,233.1,1851.56,219.21,1851.56,219.21Z"/><path class="cls-3" d="M1684.43,291.93s24.71,22.38,46.85-2.78C1705.27,268.67,1684.43,291.93,1684.43,291.93Z"/><path class="cls-3" d="M1860.26,307.22s-31.27-2.11-45,29.71C1851.74,343.61,1860.26,307.22,1860.26,307.22Z"/><path class="cls-3" d="M1859.59,381.58s.86-24.64-25.75-27C1836.35,379.24,1859.59,381.58,1859.59,381.58Z"/><path class="cls-3" d="M1877.69,383.27s-23.45-7.3-32.74,17.85C1869.34,405.17,1877.69,383.27,1877.69,383.27Z"/><path class="cls-3" d="M1881.53,359.42s6.81,27.4,31.77,20.93C1908.88,356.26,1881.53,359.42,1881.53,359.42Z"/><path class="cls-3" d="M1773.39,291.36s-27.29-.88-30.19,25.37C1771.47,320.28,1773.39,291.36,1773.39,291.36Z"/><path class="cls-3" d="M1919.38,331.45s15.19-33.1-21.81-56.57C1883.86,315.13,1919.38,331.45,1919.38,331.45Z"/><path class="cls-3" d="M1904.71,324s-3.28,26.57-41.9,20.08C1877.08,313.39,1904.71,324,1904.71,324Z"/><path class="cls-3" d="M1835.59,375.82s-15.59,12.47-32.83-11.28C1826.37,355.66,1835.59,375.82,1835.59,375.82Z"/><path class="cls-3" d="M1835.36,243.89s-23,11.63-38.43-18.48C1828.41,217.35,1835.36,243.89,1835.36,243.89Z"/><path class="cls-3" d="M1819.92,296.87s-1.05,28.83-33.32,24.65C1796.91,290.72,1819.92,296.87,1819.92,296.87Z"/><path class="cls-3" d="M1871.08,282s-18.9,16.46-40.1-10.28C1861.25,260.25,1871.08,282,1871.08,282Z"/><path class="cls-3" d="M1773.6,261.47s31.78,5.08,26.93,32C1771.29,287.25,1773.6,261.47,1773.6,261.47Z"/><path class="cls-3" d="M1872.8,312.69a2.4,2.4,0,0,1-2.38-2.41,2.35,2.35,0,0,1,.08-.6c.46-1.74,10.54-42.29-43.77-67.27a2.39,2.39,0,0,1,1.93-4.37l0,0C1858.94,252,1870,271,1873.9,284.42c4.28,14.72,1.32,26,1.19,26.5A2.38,2.38,0,0,1,1872.8,312.69Z"/><path class="cls-3" d="M1889.8,385.75c-18.42,0-40.38-3.11-66-11.66a2.39,2.39,0,0,1,1.5-4.53c89,29.72,133.74-9,134.19-9.38a2.36,2.36,0,0,1,3.35.19,2.39,2.39,0,0,1-.19,3.37h0C1961.32,365,1937.43,385.75,1889.8,385.75Z"/><path class="cls-3" d="M1499.11,290.27a2.38,2.38,0,0,1-2.37-2.39,2.41,2.41,0,0,1,.35-1.25c43-70.33,94.09-125.68,151.84-164.51,46.23-31.09,96.8-51.71,150.31-61.28,91.12-16.3,160.16,5.47,160.84,5.69a2.39,2.39,0,0,1-1.45,4.55h0c-.68-.22-68.78-21.66-158.79-5.5-52.82,9.48-102.75,29.87-148.4,60.6-57.11,38.43-107.68,93.26-150.3,163A2.37,2.37,0,0,1,1499.11,290.27Z"/><path class="cls-3" d="M1933.59,62.75s16.74,54.17-59.64,70.92C1890.54,68,1933.59,62.75,1933.59,62.75Z"/><path class="cls-3" d="M1871.07,58.81s17.06,37-33,61.11C1828.74,66.6,1871.07,58.81,1871.07,58.81Z"/><path class="cls-3" d="M1572,71s31.21,5.05,24.9,48C1558.53,101.81,1572,71,1572,71Z"/><path class="cls-3" d="M1900.71,58.9s-55-15.25-46.39-67.56C1907.93-3.76,1900.71,58.9,1900.71,58.9Z"/><path class="cls-3" d="M1848.07,57S1842.57,1,1793.52,6C1801.61,53.55,1848.07,57,1848.07,57Z"/><path class="cls-3" d="M1817.39,61.53s-43.2,9.87-45.8,73.78C1830.35,115,1817.39,61.53,1817.39,61.53Z"/><path class="cls-3" d="M1745.84,133.82S1727.77,162,1767,199C1786.56,150.05,1745.84,133.82,1745.84,133.82Z"/><path class="cls-3" d="M1470.53,242.82s18.74,28.7,51.6,10.39C1495.05,223.15,1470.53,242.82,1470.53,242.82Z"/><path class="cls-3" d="M1515.77,93.15s8.93,33.12,45.83,26C1545.17,82.11,1515.77,93.15,1515.77,93.15Z"/><path class="cls-3" d="M1472.88,332.62s42.89-11,31.45-54.16C1462.59,292.3,1472.88,332.62,1472.88,332.62Z"/><path class="cls-3" d="M1619.24,148.29s-25.37,33.23-.39,72C1653.09,184.56,1619.24,148.29,1619.24,148.29Z"/><path class="cls-3" d="M1780.51,66.43s2.67-61.07-63.23-67.6C1723,60.11,1780.51,66.43,1780.51,66.43Z"/><path class="cls-3" d="M1700.75,203.8s-26.54-19.11-48.78,8.73C1681.06,227.92,1700.75,203.8,1700.75,203.8Z"/><path class="cls-3" d="M1715.94,184.91s-25.33,20.71-4.42,49.56C1734,210.33,1715.94,184.91,1715.94,184.91Z"/><path class="cls-3" d="M1692.48,163.07s35.23,12.61,46.48-19.92C1709.13,130.32,1692.48,163.07,1692.48,163.07Z"/><path class="cls-3" d="M1732.15,82.65s-10.83-47.14-61-34.49C1681.7,90.89,1732.15,82.65,1732.15,82.65Z"/><path class="cls-3" d="M1537.77,233.24s-21,29.71,5.75,52.27C1568.25,256.67,1537.77,233.24,1537.77,233.24Z"/><path class="cls-3" d="M1689.5,100.37S1664.18,59.1,1611,83C1645.35,127.86,1689.5,100.37,1689.5,100.37Z"/><path class="cls-3" d="M1670.47,111.2s26.89,23.21-8.71,61.4C1638.43,134.12,1670.47,111.2,1670.47,111.2Z"/><path class="cls-3" d="M1676.73,226.25s2.27,26.52-36.62,28.2C1647.7,221.66,1676.73,226.25,1676.73,226.25Z"/><path class="cls-3" d="M1531.06,129.35s-4.12,34.17-48.68,29.13C1496.67,117.53,1531.06,129.35,1531.06,129.35Z"/><path class="cls-3" d="M1578.12,185.55s31,22.39,2.65,55.21C1554.4,206.61,1578.12,185.55,1578.12,185.55Z"/><path class="cls-3" d="M1599.42,117.7s4.23,33.14-40.86,37C1568.17,112.6,1599.42,117.7,1599.42,117.7Z"/><path class="cls-3" d="M1505,211s29-31.6,55.12-6.39C1531.69,232.55,1505,211,1505,211Z"/><path class="cls-3" d="M1631.87,139a2.35,2.35,0,0,1-1.79-.81c-1.57-1.79-39.25-43.4-107.42-1a2.39,2.39,0,0,1-2.54-4l0,0c71.73-44.61,113.1,1.44,113.51,1.92a2.39,2.39,0,0,1-1.79,3.95Z"/><path class="cls-3" d="M1664.21,238a2.39,2.39,0,0,1-1.46-4.27c98.87-77.52,88.88-156.11,88.77-156.9a2.37,2.37,0,1,1,4.7-.68c.12.81,10.48,82.13-90.55,161.34A2.36,2.36,0,0,1,1664.21,238Z"/><path class="cls-3" d="M444.58,290.27a2.38,2.38,0,0,0,2.37-2.39,2.41,2.41,0,0,0-.35-1.25c-43-70.33-94.09-125.68-151.84-164.51C248.53,91,198,70.41,144.45,60.84,53.33,44.54-15.71,66.31-16.39,66.53a2.39,2.39,0,0,0-1.54,3,2.38,2.38,0,0,0,3,1.54c.67-.21,68.78-21.65,158.79-5.5,52.82,9.49,102.75,29.88,148.4,60.61,57.11,38.43,107.68,93.26,150.3,163A2.37,2.37,0,0,0,444.58,290.27Z"/><path class="cls-3" d="M10.1,62.75s-16.74,54.17,59.64,70.92C53.15,68,10.1,62.75,10.1,62.75Z"/><path class="cls-3" d="M72.62,58.81s-17.06,37,33,61.11C115,66.6,72.62,58.81,72.62,58.81Z"/><path class="cls-3" d="M371.74,71S340.53,76,346.83,119C385.16,101.81,371.74,71,371.74,71Z"/><path class="cls-3" d="M43,58.9S98,43.65,89.37-8.66C35.76-3.76,43,58.9,43,58.9Z"/><path class="cls-3" d="M95.62,57S101.12,1,150.17,6C142.08,53.55,95.62,57,95.62,57Z"/><path class="cls-3" d="M126.3,61.53s43.2,9.87,45.8,73.78C113.33,115,126.3,61.53,126.3,61.53Z"/><path class="cls-3" d="M197.85,133.82S215.92,162,176.67,199C157.13,150.05,197.85,133.82,197.85,133.82Z"/><path class="cls-3" d="M473.16,242.82s-18.74,28.7-51.6,10.39C448.64,223.15,473.16,242.82,473.16,242.82Z"/><path class="cls-3" d="M427.92,93.15s-8.93,33.12-45.83,26C398.52,82.11,427.92,93.15,427.92,93.15Z"/><path class="cls-3" d="M470.81,332.62s-42.88-11-31.44-54.16C481.1,292.3,470.81,332.62,470.81,332.62Z"/><path class="cls-3" d="M324.45,148.29s25.36,33.23.39,72C290.59,184.56,324.45,148.29,324.45,148.29Z"/><path class="cls-3" d="M163.18,66.43s-2.67-61.07,63.23-67.6C220.73,60.11,163.18,66.43,163.18,66.43Z"/><path class="cls-3" d="M242.94,203.8s26.54-19.11,48.78,8.73C262.63,227.92,242.94,203.8,242.94,203.8Z"/><path class="cls-3" d="M227.75,184.91s25.33,20.71,4.42,49.56C209.75,210.33,227.75,184.91,227.75,184.91Z"/><path class="cls-3" d="M251.21,163.07S216,175.68,204.73,143.15C234.56,130.32,251.21,163.07,251.21,163.07Z"/><path class="cls-3" d="M211.54,82.65s10.83-47.14,61-34.49C262,90.89,211.54,82.65,211.54,82.65Z"/><path class="cls-3" d="M405.92,233.24S427,263,400.17,285.51C375.44,256.67,405.92,233.24,405.92,233.24Z"/><path class="cls-3" d="M254.19,100.37S279.51,59.1,332.65,83C298.34,127.86,254.19,100.37,254.19,100.37Z"/><path class="cls-3" d="M273.22,111.2s-26.89,23.21,8.71,61.4C305.26,134.12,273.22,111.2,273.22,111.2Z"/><path class="cls-3" d="M267,226.25s-2.27,26.52,36.62,28.2C296,221.66,267,226.25,267,226.25Z"/><path class="cls-3" d="M412.63,129.35s4.12,34.17,48.68,29.13C447,117.53,412.63,129.35,412.63,129.35Z"/><path class="cls-3" d="M365.57,185.55s-31,22.39-2.65,55.21C389.29,206.61,365.57,185.55,365.57,185.55Z"/><path class="cls-3" d="M344.27,117.7s-4.22,33.14,40.86,37C375.52,112.6,344.27,117.7,344.27,117.7Z"/><path class="cls-3" d="M438.73,211s-29-31.6-55.12-6.39C412,232.55,438.73,211,438.73,211Z"/><path class="cls-3" d="M311.82,139a2.35,2.35,0,0,0,1.79-.81c1.57-1.79,39.25-43.4,107.42-1a2.39,2.39,0,0,0,2.54-4l0,0c-71.73-44.61-113.1,1.44-113.51,1.92a2.39,2.39,0,0,0,1.79,3.95Z"/><path class="cls-3" d="M279.48,238a2.39,2.39,0,0,0,1.46-4.27c-98.87-77.52-88.88-156.11-88.77-156.9a2.38,2.38,0,1,0-4.71-.68h0c-.11.81-10.47,82.13,90.56,161.35A2.41,2.41,0,0,0,279.48,238Z"/><path class="cls-4" d="M1075.4,90.72s21.88-71.22,110.24-89.27C1153.61,89,1075.4,90.72,1075.4,90.72Z"/><path class="cls-4" d="M1114.55,139.19s-3.92-38.5,34.68-65.13C1151.58,122.41,1114.55,139.19,1114.55,139.19Z"/><path class="cls-4" d="M452.78,89.08S433.66,17.07,499-45.35C518.11,45.87,452.78,89.08,452.78,89.08Z"/><path class="cls-5" d="M1700.72,335.65s31.17,2,47.23,36.48C1709.16,367.6,1700.72,335.65,1700.72,335.65Z"/><path class="cls-4" d="M550.36,17.15S663-25.55,761.61,111.78C587.53,107.28,550.36,17.15,550.36,17.15Z"/><g class="cls-6"><path class="cls-7" d="M589.28,10.76C564.53.31,538.49-9.7,511.69-8,526.47,2.67,546.21,2.23,563.75,7.16c25.88,7.28,46.68,26.25,70.65,38.45,15.85,8.07,33,13.13,49.8,18.92a593.4,593.4,0,0,1,141.23,70.91c-53.36-.72-100.64-32.1-147.35-58S575.48,29.91,525.82,49.52c33.6,11.24,70.84,5.94,104.73,16.22,34.81,10.56,62.56,36.3,92.51,57,16.47,11.4,58.53,40.73,78,23.57,24.43-21.52-18.42-38.23-32.71-46.48A1611.57,1611.57,0,0,0,589.28,10.76Z"/></g><path class="cls-8" d="M1840.92,537.46c5.49-2.49,12-1.87,17.53.63,22.77,10.33,32.43,45.91-.16,46.67C1834.26,585.32,1812.81,550.22,1840.92,537.46Z"/><path class="cls-8" d="M1888.35,490.53a26.44,26.44,0,0,0,15.73,1c5.15-1.41,9.81-5.09,11.67-10.12,5.9-16-6.74-42.61-26.06-34.28C1871.89,454.85,1868.57,483.49,1888.35,490.53Z"/><path class="cls-8" d="M1788.76,468.53a14,14,0,0,0,15.91,2.4c3.82-2.05,6.33-5.86,8.67-9.51a19.37,19.37,0,0,0,3-6.2,14.15,14.15,0,0,0-1.58-9,18.25,18.25,0,0,0-7.45-8.19,15.5,15.5,0,0,0-15.65,1.07C1782.8,445.08,1780.81,460.9,1788.76,468.53Z"/><path class="cls-8" d="M1809.48,502.37a10.69,10.69,0,0,0-2.9,11.82c1.27,3,3.94,5.17,6.5,7.19a14.53,14.53,0,0,0,4.42,2.69,10.51,10.51,0,0,0,6.84-.57,13.65,13.65,0,0,0,6.64-5,11.83,11.83,0,0,0,.29-11.87C1827.41,499.51,1815.73,496.91,1809.48,502.37Z"/><path class="cls-8" d="M1884.79,513.05a10.68,10.68,0,0,0-2.9,11.81c1.27,3,3.93,5.17,6.5,7.19a14.22,14.22,0,0,0,4.42,2.69,10.45,10.45,0,0,0,6.84-.56,13.73,13.73,0,0,0,6.64-5,11.83,11.83,0,0,0,.29-11.86C1902.71,510.18,1891,507.58,1884.79,513.05Z"/><path class="cls-8" d="M1794.88,401.89c2.29,5,7.77,8.06,13.24,8.48a13.15,13.15,0,0,0,6-.78c3.67-1.5,6.16-5.19,6.92-9.09a21.43,21.43,0,0,0-1.47-11.68c-3-7.58-11.76-14.63-20-9.3C1793.58,383.37,1792.14,395.89,1794.88,401.89Z"/><path class="cls-8" d="M1718.76,419.34a17,17,0,0,0,11.45,3.74,18.43,18.43,0,0,0,7.87-2.7A14.05,14.05,0,0,0,1743,416a13.5,13.5,0,0,0,1.8-6.19,21.38,21.38,0,0,0-6.83-17.5c-6.91-6.08-19.26-6.22-25.37,1.35S1712.18,414.29,1718.76,419.34Z"/><path class="cls-8" d="M1721.67,441.7c-.8,2.7-1.45,6.05.59,8a5.28,5.28,0,0,0,2.19,1.16,7.7,7.7,0,0,0,8-2.44,6.52,6.52,0,0,0-.17-8.17c-2-2.17-6.18-2.94-8.16-.74-.48.53-1.34,1-2.08,1.79"/><path class="cls-8" d="M1757.7,442.81c-1.07,3.57-1.92,8,.78,10.53a6.85,6.85,0,0,0,2.89,1.53,10.19,10.19,0,0,0,10.58-3.22,8.61,8.61,0,0,0-.23-10.8c-2.65-2.87-8.17-3.88-10.79-1-.63.7-1.78,1.26-2.75,2.36"/><path class="cls-8" d="M1681.22,427.3c-1.06,3.56-1.92,8,.78,10.53a6.92,6.92,0,0,0,2.9,1.52,10.15,10.15,0,0,0,10.57-3.22,8.61,8.61,0,0,0-.23-10.8c-2.65-2.87-8.17-3.87-10.79-1-.63.7-1.78,1.27-2.75,2.36"/><path class="cls-8" d="M1767.32,501.54c-.36,1.21-.65,2.71.26,3.57a2.33,2.33,0,0,0,1,.52,3.48,3.48,0,0,0,3.59-1.09,2.92,2.92,0,0,0-.07-3.66c-.91-1-2.77-1.32-3.66-.33a11.81,11.81,0,0,0-.93.8"/><path class="cls-8" d="M1868.72,493.71c-.36,1.21-.65,2.71.26,3.57a2.46,2.46,0,0,0,1,.51,3.43,3.43,0,0,0,3.58-1.09,2.92,2.92,0,0,0-.07-3.66c-.9-1-2.77-1.31-3.66-.33-.21.24-.6.43-.93.8"/><path class="cls-9" d="M1493.93-55.21s-3.46,43.45,9.11,95.27c9.55,39.38-23.17,48.3-35.57,21,6,56.59-21,93.58-39.85,82.39s-14.31-31.05-14.31-31.05-50.18,83.4-77.58,61.88,29.55-77.6,29.55-77.6-46,6.93-48-17.6S1393,22.89,1393,22.89s-45.22-14.79-21.86-34.78S1435-21.76,1493.93-55.21Z"/><g class="cls-10"><path class="cls-8" d="M1471.78,21.69c-2.43-5.54-1.74-12.1.79-17.6,10.5-22.77,46-32.15,46.47.58C1519.38,28.81,1484.24,50,1471.78,21.69Z"/></g><g class="cls-10"><path class="cls-8" d="M1486,125.87a26.73,26.73,0,0,0,1.18-15.79c-1.36-5.18-5-9.9-10-11.81-15.87-6.07-42.5,6.39-34.37,25.86C1450.31,142.07,1478.79,145.67,1486,125.87Z"/></g><g class="cls-10"><path class="cls-8" d="M1402.68,73.44a14.21,14.21,0,0,0,2.54-16c-2-3.85-5.78-6.4-9.39-8.79a19.4,19.4,0,0,0-6.15-3.07,13.92,13.92,0,0,0-9,1.51,18.2,18.2,0,0,0-8.22,7.4,15.69,15.69,0,0,0,.92,15.73C1379.28,79.23,1395,81.37,1402.68,73.44Z"/></g><g class="cls-10"><path class="cls-8" d="M1436.57,52.94a10.58,10.58,0,0,0,11.74,3c3-1.25,5.17-3.9,7.21-6.47a14.26,14.26,0,0,0,2.72-4.41,10.62,10.62,0,0,0-.49-6.88,13.74,13.74,0,0,0-5-6.71,11.7,11.7,0,0,0-11.81-.4C1433.88,34.92,1431.19,46.62,1436.57,52.94Z"/></g><g class="cls-10"><path class="cls-8" d="M1336.39,66.7c5-2.26,8.09-7.72,8.56-13.21a13.42,13.42,0,0,0-.72-6,12.18,12.18,0,0,0-9-7,21,21,0,0,0-11.64,1.37c-7.57,2.89-14.67,11.67-9.44,20C1317.94,67.85,1330.4,69.41,1336.39,66.7Z"/></g><g class="cls-10"><path class="cls-8" d="M1353.08,143.31a17.2,17.2,0,0,0,3.83-11.46,18.8,18.8,0,0,0-2.62-7.94,14,14,0,0,0-4.33-5,13.27,13.27,0,0,0-6.15-1.87,21.22,21.22,0,0,0-17.49,6.7c-6.11,6.89-6.36,19.28,1.13,25.5C1334.77,155.35,1348,149.87,1353.08,143.31Z"/></g><g class="cls-10"><path class="cls-8" d="M1375.37,140.58c2.68.84,6,1.52,7.94-.52a5.23,5.23,0,0,0,1.17-2.19,7.75,7.75,0,0,0-2.35-8.05,6.43,6.43,0,0,0-8.14.09c-2.18,2-3,6.18-.81,8.2.52.48.94,1.36,1.76,2.1"/></g><g class="cls-10"><path class="cls-8" d="M1376.8,104.41c3.54,1.1,7.94,2,10.49-.69a7,7,0,0,0,1.55-2.89,10.3,10.3,0,0,0-3.11-10.65,8.52,8.52,0,0,0-10.76.13c-2.88,2.64-3.93,8.17-1.06,10.83.69.64,1.24,1.8,2.32,2.78"/></g><g class="cls-10"><path class="cls-8" d="M1360.66,181.08c3.54,1.1,7.94,2,10.5-.69a7,7,0,0,0,1.54-2.89,10.28,10.28,0,0,0-3.11-10.65,8.51,8.51,0,0,0-10.75.13c-2.88,2.64-3.94,8.17-1.07,10.83.69.64,1.24,1.8,2.33,2.78"/></g><g class="cls-10"><path class="cls-8" d="M1435.36,95.28c1.2.37,2.69.68,3.56-.23a2.33,2.33,0,0,0,.52-1,3.5,3.5,0,0,0-1-3.61,2.88,2.88,0,0,0-3.65,0c-1,.9-1.33,2.77-.36,3.67.24.22.42.61.79.94"/></g><path class="cls-5" d="M1283.28,152.32s4.92-57.39,8.68-86.42S1251.19-.77,1224.81-22c-10.19,53.13-21.22,75.61,4.23,104.14S1283.28,152.32,1283.28,152.32Z"/><g class="cls-11"><path class="cls-8" d="M1295.07,216.34A1295.1,1295.1,0,0,0,1220.18-7.72c-10.73-24.4-22.49-50.81-16.42-76.77a2283.62,2283.62,0,0,1,110.6,330.9"/></g><path class="cls-5" d="M544.46,186.44s-1.19-39.77-.92-60S510.26,84,490.47,71.5c-2.76,37.27-8.54,53.59,11.18,71.12S544.46,186.44,544.46,186.44Z"/><g class="cls-12"><path class="cls-8" d="M557.64,229.43A892.34,892.34,0,0,0,488.43,81.71c-9.3-15.89-19.47-33.06-17.37-51.37A1575.73,1575.73,0,0,1,573.27,248.51"/></g><path class="cls-13" d="M1689.77,504.63c5.65-2.78,8.7-9.57,8.06-15.86-1.19-11.69-18.42-11.91-23.74-3.25C1668.14,495.19,1678.78,510.06,1689.77,504.63Z"/><path class="cls-13" d="M610.11,149.87c10.19-5,15.7-17.28,14.54-28.63-2.14-21.1-33.24-21.5-42.86-5.87C571.06,132.82,590.25,159.67,610.11,149.87Z"/><path class="cls-14" d="M605.26,137.3c4.28-2.12,6.59-7.26,6.11-12-.9-8.85-14-9-18-2.46C588.87,130.14,596.93,141.41,605.26,137.3Z"/><path class="cls-13" d="M129.14,246.88c10.19-5,15.7-17.29,14.54-28.64-2.15-21.1-33.24-21.5-42.86-5.87C90.09,229.83,109.28,256.67,129.14,246.88Z"/><path class="cls-14" d="M124.29,234.3c4.29-2.11,6.6-7.26,6.11-12-.9-8.86-14-9-18-2.46C107.9,227.14,116,238.41,124.29,234.3Z"/><path class="cls-13" d="M1426.1,222.42c10.19-5,15.7-17.29,14.55-28.64-2.15-21.1-33.25-21.5-42.87-5.87C1387.05,205.36,1406.25,232.21,1426.1,222.42Z"/><path class="cls-14" d="M1421.25,209.84c4.29-2.11,6.6-7.26,6.11-12-.9-8.86-14-9-18-2.47C1404.86,202.68,1412.92,214,1421.25,209.84Z"/><path class="cls-13" d="M1172,110.85c1.73,6.39,8.08,10.89,14.64,11.48,12.21,1.09,15.86-16.66,8.05-23.88C1186,90.39,1168.6,98.41,1172,110.85Z"/><path class="cls-13" d="M503.73,205.85a8.57,8.57,0,0,0,7.52,5.89c6.27.56,8.15-8.56,4.13-12.27C510.9,195.33,502,199.46,503.73,205.85Z"/><path class="cls-13" d="M1664.77,452.16a8.58,8.58,0,0,0,7.52,5.89c6.28.56,8.15-8.56,4.14-12.27C1672,441.64,1663,445.77,1664.77,452.16Z"/><path class="cls-13" d="M132,173.58a8.58,8.58,0,0,0,7.52,5.89c6.27.56,8.15-8.55,4.13-12.27C139.19,163.06,130.28,167.18,132,173.58Z"/></g></svg>