<svg xmlns="http://www.w3.org/2000/svg" width="101.131" height="101.132" viewBox="0 0 101.131 101.132"><path d="M65.968,215.176a2.963,2.963,0,0,1-1.712-5.385l16.984-10.942a2.965,2.965,0,0,1,3.42,4.844L67.675,214.635a2.965,2.965,0,0,1-1.707.541Zm0,0" transform="translate(-50.557 -159.139)" fill="#c4b3af"/><path d="M205.813,166.6a2.963,2.963,0,0,1-.607-5.862l15.069-3.484a2.963,2.963,0,1,1,1.221,5.8l-15.069,3.484a2.973,2.973,0,0,1-.613.063Zm0,0" transform="translate(-162.785 -126.144)" fill="#c4b3af"/><path d="M333.892,72.672a2.963,2.963,0,0,1-1.967-5.176L349.73,51.669a2.961,2.961,0,0,1,3.935,4.427L335.859,71.923A2.945,2.945,0,0,1,333.892,72.672Zm0,0" transform="translate(-265.563 -40.859)" fill="#c4b3af"/><path d="M17.777,361H2.963A2.933,2.933,0,0,0,0,363.963v23.9a2.934,2.934,0,0,0,2.963,2.963H17.777a2.934,2.934,0,0,0,2.963-2.963v-23.9A2.933,2.933,0,0,0,17.777,361Zm0,0" transform="translate(0 -289.694)" fill="#4a696f"/><path d="M153.777,271H138.963A2.933,2.933,0,0,0,136,273.963V315.64a2.934,2.934,0,0,0,2.963,2.963h14.814a2.934,2.934,0,0,0,2.963-2.963V273.963A2.933,2.933,0,0,0,153.777,271Zm0,0" transform="translate(-109.137 -217.471)" fill="#ffd400"/><path d="M288.777,241H273.963A2.934,2.934,0,0,0,271,243.963v47.6a2.934,2.934,0,0,0,2.963,2.963h14.814a2.934,2.934,0,0,0,2.963-2.963v-47.6A2.934,2.934,0,0,0,288.777,241Zm0,0" transform="translate(-217.471 -193.397)" fill="#90e36a"/><path d="M424.777,121H409.963A2.933,2.933,0,0,0,407,123.963v71.306a2.934,2.934,0,0,0,2.963,2.963h14.814a2.934,2.934,0,0,0,2.963-2.963V123.963A2.933,2.933,0,0,0,424.777,121Zm0,0" transform="translate(-326.608 -97.1)" fill="#ff8597"/><g transform="translate(1.679)"><path d="M17.389,241a8.889,8.889,0,1,0,8.889,8.889A8.876,8.876,0,0,0,17.389,241Zm0,0" transform="translate(-8.5 -193.397)" fill="#dfd7d5"/><path d="M152.389,151a8.889,8.889,0,1,0,8.889,8.889A8.876,8.876,0,0,0,152.389,151Zm0,0" transform="translate(-116.834 -121.174)" fill="#dfd7d5"/><path d="M287.389,121a8.889,8.889,0,1,0,8.888,8.889A8.876,8.876,0,0,0,287.389,121Zm0,0" transform="translate(-225.169 -97.1)" fill="#dfd7d5"/><path d="M422.388,0a8.889,8.889,0,1,0,8.888,8.889A8.876,8.876,0,0,0,422.388,0Zm0,0" transform="translate(-333.503)" fill="#dfd7d5"/></g><path d="M458.5,17.777V0a8.889,8.889,0,0,1,0,17.777Zm0,0" transform="translate(-367.936)" fill="#d2c5c2"/><path d="M446.463,35.926a2.963,2.963,0,1,1,2.963-2.963A2.967,2.967,0,0,1,446.463,35.926Zm0,0" transform="translate(-355.899 -24.074)" fill="#4a696f"/><path d="M461.463,32.963A2.967,2.967,0,0,0,458.5,30v5.926A2.967,2.967,0,0,0,461.463,32.963Zm0,0" transform="translate(-367.936 -24.074)" fill="#3e5959"/><path d="M469.87,123.963v71.306a2.934,2.934,0,0,1-2.963,2.963H459.5V121h7.407A2.933,2.933,0,0,1,469.87,123.963Zm0,0" transform="translate(-368.738 -97.1)" fill="#ff4949"/><path d="M323.5,138.777V121a8.889,8.889,0,0,1,0,17.777Zm0,0" transform="translate(-259.602 -97.1)" fill="#d2c5c2"/><path d="M311.463,156.926a2.963,2.963,0,1,1,2.963-2.963A2.967,2.967,0,0,1,311.463,156.926Zm0,0" transform="translate(-247.564 -121.174)" fill="#4a696f"/><path d="M326.463,153.963A2.967,2.967,0,0,0,323.5,151v5.926A2.967,2.967,0,0,0,326.463,153.963Zm0,0" transform="translate(-259.602 -121.174)" fill="#3e5959"/><path d="M333.87,243.963v47.6a2.934,2.934,0,0,1-2.963,2.963H323.5V241h7.407A2.933,2.933,0,0,1,333.87,243.963Zm0,0" transform="translate(-259.602 -193.397)" fill="#56c225"/><path d="M188.5,168.777V151a8.889,8.889,0,0,1,0,17.777Zm0,0" transform="translate(-151.267 -121.174)" fill="#d2c5c2"/><path d="M176.463,186.926a2.963,2.963,0,1,1,2.963-2.963A2.967,2.967,0,0,1,176.463,186.926Zm0,0" transform="translate(-139.23 -145.248)" fill="#4a696f"/><path d="M191.463,183.963A2.967,2.967,0,0,0,188.5,181v5.926A2.967,2.967,0,0,0,191.463,183.963Zm0,0" transform="translate(-151.267 -145.248)" fill="#3e5959"/><path d="M198.87,273.963V315.64a2.934,2.934,0,0,1-2.963,2.963H188.5V271h7.407A2.933,2.933,0,0,1,198.87,273.963Zm0,0" transform="translate(-151.267 -217.471)" fill="#ff9f00"/><path d="M53.5,258.777V241a8.889,8.889,0,0,1,0,17.777Zm0,0" transform="translate(-42.933 -193.397)" fill="#d2c5c2"/><path d="M41.463,276.926a2.963,2.963,0,1,1,2.963-2.963A2.967,2.967,0,0,1,41.463,276.926Zm0,0" transform="translate(-30.895 -217.471)" fill="#4a696f"/><path d="M56.463,273.963A2.967,2.967,0,0,0,53.5,271v5.926A2.967,2.967,0,0,0,56.463,273.963Zm0,0" transform="translate(-42.933 -217.471)" fill="#3e5959"/><path d="M62.87,363.963v23.9a2.934,2.934,0,0,1-2.963,2.963H52.5V361h7.407A2.933,2.933,0,0,1,62.87,363.963Zm0,0" transform="translate(-42.13 -289.694)" fill="#3e5959"/></svg>