<svg xmlns="http://www.w3.org/2000/svg" width="34" height="34" viewBox="0 0 34 34"><path d="M30.016,2.656H28.422V0H25.766V2.656H8.234V0H5.578V2.656H3.984A3.989,3.989,0,0,0,0,6.641V30.016A3.989,3.989,0,0,0,3.984,34H30.016A3.989,3.989,0,0,0,34,30.016V6.641A3.989,3.989,0,0,0,30.016,2.656Zm1.328,27.359a1.33,1.33,0,0,1-1.328,1.328H3.984a1.33,1.33,0,0,1-1.328-1.328V12.484H31.344Zm0-20.187H2.656V6.641A1.33,1.33,0,0,1,3.984,5.313H5.578V7.969H8.234V5.313H25.766V7.969h2.656V5.313h1.594a1.33,1.33,0,0,1,1.328,1.328Z" fill="#7d7d7d"/><g transform="translate(5.047 15.273)"><rect width="3" height="3" transform="translate(-0.047 -0.273)" fill="#7d7d7d"/></g><g transform="translate(10.359 15.273)"><rect width="3" height="3" transform="translate(-0.359 -0.273)" fill="#7d7d7d"/></g><g transform="translate(15.672 15.273)"><rect width="2" height="3" transform="translate(0.328 -0.273)" fill="#7d7d7d"/></g><g transform="translate(20.984 15.273)"><rect width="3" height="3" transform="translate(0.016 -0.273)" fill="#7d7d7d"/></g><g transform="translate(26.297 15.273)"><rect width="3" height="3" transform="translate(-0.297 -0.273)" fill="#7d7d7d"/></g><g transform="translate(5.047 20.586)"><rect width="3" height="2" transform="translate(-0.047 0.414)" fill="#7d7d7d"/></g><g transform="translate(10.359 20.586)"><rect width="3" height="2" transform="translate(-0.359 0.414)" fill="#7d7d7d"/></g><g transform="translate(15.672 20.586)"><rect width="2" height="2" transform="translate(0.328 0.414)" fill="#7d7d7d"/></g><g transform="translate(20.984 20.586)"><rect width="3" height="2" transform="translate(0.016 0.414)" fill="#7d7d7d"/></g><g transform="translate(5.047 25.898)"><rect width="3" height="3" transform="translate(-0.047 0.102)" fill="#7d7d7d"/></g><g transform="translate(10.359 25.898)"><rect width="3" height="3" transform="translate(-0.359 0.102)" fill="#7d7d7d"/></g><g transform="translate(15.672 25.898)"><rect width="2" height="3" transform="translate(0.328 0.102)" fill="#7d7d7d"/></g><g transform="translate(20.984 25.898)"><rect width="3" height="3" transform="translate(0.016 0.102)" fill="#7d7d7d"/></g><g transform="translate(26.297 20.586)"><rect width="3" height="2" transform="translate(-0.297 0.414)" fill="#7d7d7d"/></g></svg>