<svg xmlns="http://www.w3.org/2000/svg" width="100.045" height="101.712" viewBox="0 0 100.045 101.712"><path d="M112,158.67V152h10v6.67" transform="translate(-88.656 -120.319)" fill="#bc8f6f"/><path d="M112,158.67V152h6.67v6.67" transform="translate(-88.656 -120.319)" fill="#cb9e78"/><path d="M368,120h23.344v6.67H368Zm0,0" transform="translate(-291.299 -94.989)" fill="#bc8f6f"/><path d="M368,120h15.007v6.67H368Zm0,0" transform="translate(-291.299 -94.989)" fill="#cb9e78"/><path d="M400.674,152H384v61.694a8.337,8.337,0,0,0,16.674,0Zm0,0" transform="translate(-303.964 -120.319)" fill="#bab8b9"/><path d="M389.836,221.608a8.31,8.31,0,0,0,5.836-7.914V152H384v61.694A8.313,8.313,0,0,0,389.836,221.608Zm0,0" transform="translate(-303.964 -120.319)" fill="#d9d7d8"/><path d="M392.337,310.688a8.338,8.338,0,0,0,8.337-8.337V264H384v38.351A8.338,8.338,0,0,0,392.337,310.688Zm0,0" transform="translate(-303.964 -208.975)" fill="#d46b69"/><path d="M389.836,310.264a8.31,8.31,0,0,0,5.836-7.914V264H384v38.351A8.313,8.313,0,0,0,389.836,310.264Zm0,0" transform="translate(-303.964 -208.975)" fill="#ed7775"/><path d="M50.084,247.362a6.67,6.67,0,0,0,6.67-6.67v-1.634a6.677,6.677,0,0,0-.813-3.193l-19.2-35.191V184H20.085v16.674L.892,235.865a6.683,6.683,0,0,0-.814,3.193v1.634a6.67,6.67,0,0,0,6.67,6.67Zm0,0" transform="translate(-0.062 -145.649)" fill="#bab8b9"/><path d="M51.752,240.692v-1.634a6.677,6.677,0,0,0-.813-3.193l-19.2-35.191V184H20.085v16.674L.892,235.865a6.683,6.683,0,0,0-.814,3.193v1.634a6.67,6.67,0,0,0,6.67,6.67H45.082a6.67,6.67,0,0,0,6.67-6.67Zm0,0" transform="translate(-0.062 -145.649)" fill="#d9d7d8"/><path d="M56.754,354.678v-1.634a6.677,6.677,0,0,0-.813-3.193L44.021,328H41.461a3.335,3.335,0,0,0-2.358.977l-1.381,1.381a3.335,3.335,0,0,1-2.358.977h-.572a3.335,3.335,0,0,1-2.358-.977l-1.381-1.381A3.342,3.342,0,0,0,28.694,328h-.572a3.335,3.335,0,0,0-2.358.977l-1.381,1.381a3.342,3.342,0,0,1-2.359.977h-.572a3.335,3.335,0,0,1-2.358-.977l-1.381-1.381A3.342,3.342,0,0,0,15.355,328H12.811L.892,349.851a6.683,6.683,0,0,0-.814,3.193v1.634a6.67,6.67,0,0,0,6.67,6.67H50.084a6.67,6.67,0,0,0,6.67-6.67Zm0,0" transform="translate(-0.062 -259.636)" fill="#599072"/><path d="M218,280v14.211a15.007,15.007,0,1,0,10,0V280" transform="translate(-164.647 -221.641)" fill="#bab8b9"/><path d="M208,308.346a15.005,15.005,0,0,0,13.339,14.908,14.995,14.995,0,0,0,3.335-29.043V280H218v14.211A15,15,0,0,0,208,308.346Zm0,0" transform="translate(-164.647 -221.641)" fill="#d9d7d8"/><path d="M238.014,409.667a14.838,14.838,0,0,0-.1-1.667h-1.851a3.335,3.335,0,0,0-2.358.977l-1.381,1.381a3.335,3.335,0,0,1-2.358.977h-.572a3.335,3.335,0,0,1-2.358-.977l-1.381-1.381a3.342,3.342,0,0,0-2.359-.977h-.572a3.335,3.335,0,0,0-2.358.977l-1.381,1.381a3.342,3.342,0,0,1-2.359.977h-.572a3.335,3.335,0,0,1-2.358-.977l-1.381-1.381a3.342,3.342,0,0,0-2.359-.977H208.1a14.831,14.831,0,0,0-.1,1.667,15.007,15.007,0,0,0,30.013,0Zm0,0" transform="translate(-164.647 -322.962)" fill="#85b6cf"/><path d="M221.339,425.753a15.005,15.005,0,0,0,13.339-14.908c0-.445-.04-.88-.081-1.314a3.317,3.317,0,0,0-.9.624l-1.381,1.381a3.335,3.335,0,0,1-2.358.977h-.572a3.316,3.316,0,0,1-1.381-.31,3.329,3.329,0,0,1-1.382.31h-.572a3.335,3.335,0,0,1-2.358-.977l-1.381-1.381a3.332,3.332,0,0,0-.977-.667,3.354,3.354,0,0,0-.977.667l-1.381,1.381a3.342,3.342,0,0,1-2.359.977h-.572a3.316,3.316,0,0,1-1.381-.31,3.33,3.33,0,0,1-1.382.31h-.572a3.335,3.335,0,0,1-2.358-.977l-1.381-1.381a3.318,3.318,0,0,0-.9-.624c-.043.434-.083.869-.083,1.314A15.005,15.005,0,0,0,221.339,425.753Zm0,0" transform="translate(-164.647 -324.14)" fill="#94cce7"/><path d="M102.67,411.335A3.335,3.335,0,1,1,99.335,408,3.335,3.335,0,0,1,102.67,411.335Zm0,0" transform="translate(-75.991 -322.962)" fill="#70b48f"/><path d="M158.67,379.335A3.335,3.335,0,1,1,155.335,376,3.335,3.335,0,0,1,158.67,379.335Zm0,0" transform="translate(-120.319 -297.632)" fill="#70b48f"/><path d="M38.67,427.335A3.335,3.335,0,1,1,35.335,424,3.335,3.335,0,0,1,38.67,427.335Zm0,0" transform="translate(-25.33 -335.627)" fill="#70b48f"/><path d="M13.339,14.67A6.67,6.67,0,1,1,6.67,8,6.67,6.67,0,0,1,13.339,14.67Zm0,0" transform="translate(0 -6.333)" fill="#599072"/><path d="M54.67,107.335A3.335,3.335,0,1,1,51.335,104,3.335,3.335,0,0,1,54.67,107.335Zm0,0" transform="translate(-37.996 -82.324)" fill="#85b6cf"/><path d="M10,173a5,5,0,1,1-5-5A5,5,0,0,1,10,173Zm0,0" transform="translate(0 -132.984)" fill="#cb9e78"/><path d="M232,272h20.009v3.335H232Zm0,0" transform="translate(-183.645 -215.308)"/><path d="M232,272h20.009v3.335H232Zm0,0" transform="translate(-183.645 -215.308)" fill="#bc8f6f"/><path d="M232,272h15.007v3.335H232Zm0,0" transform="translate(-183.645 -215.308)" fill="#cb9e78"/><path d="M256,304h10v3.335H256Zm0,0" transform="translate(-202.643 -240.638)" fill="#bc8f6f"/><path d="M256,304h6.67v3.335H256Zm0,0" transform="translate(-202.643 -240.638)" fill="#cb9e78"/><path d="M72,208H98.679v3.335H72Zm0,0" transform="translate(-56.993 -164.647)" fill="#bc8f6f"/><path d="M72,208H88.674v3.335H72Zm0,0" transform="translate(-56.993 -164.647)" fill="#cb9e78"/><path d="M176,448h3.335v3.335H176Zm0,0" transform="translate(-139.317 -354.625)" fill="#70b48f"/><path d="M160,432h3.335v3.335H160Zm0,0" transform="translate(-126.652 -341.96)" fill="#70b48f"/><path d="M144,448h3.335v3.335H144Zm0,0" transform="translate(-113.987 -354.625)" fill="#70b48f"/><path d="M80,376h3.335v3.335H80Zm0,0" transform="translate(-63.326 -297.632)" fill="#70b48f"/><g transform="translate(85.038 65.029)"><path d="M408,440h3.335v3.335H408Zm0,0" transform="translate(-408 -413.321)" fill="#d46b69"/><path d="M424,408h3.335v3.335H424Zm0,0" transform="translate(-420.665 -387.991)" fill="#d46b69"/><path d="M408,376h3.335v3.335H408Zm0,0" transform="translate(-408 -362.661)" fill="#d46b69"/><path d="M424,344h3.335v3.335H424Zm0,0" transform="translate(-420.665 -337.33)" fill="#d46b69"/><path d="M408,312h3.335v3.335H408Zm0,0" transform="translate(-408 -312)" fill="#d46b69"/></g><path d="M155.335,26.679H152V5a5.009,5.009,0,0,1,5-5h56.692a5.009,5.009,0,0,1,5,5V20.009h-3.335V5a1.67,1.67,0,0,0-1.667-1.667H157A1.67,1.67,0,0,0,155.335,5Zm0,0" transform="translate(-120.319)" fill="#ed7775"/><path d="M147.353,104.018h-3.335V69a1.67,1.67,0,0,0-1.667-1.667H109A1.67,1.67,0,0,0,107.335,69v8.337H104V69a5.009,5.009,0,0,1,5-5h33.348a5.009,5.009,0,0,1,5,5Zm0,0" transform="translate(-82.324 -50.661)" fill="#599072"/><path d="M251.335,78.688H248V37a5.009,5.009,0,0,1,5-5h20.009a5.009,5.009,0,0,1,5,5v8.337h-3.335V37a1.67,1.67,0,0,0-1.667-1.667H253A1.67,1.67,0,0,0,251.335,37Zm0,0" transform="translate(-196.31 -25.33)" fill="#94cce7"/></svg>