<svg xmlns="http://www.w3.org/2000/svg" width="139.4" height="54.3" viewBox="0 0 139.4 54.3"><path d="M76.6,9.1a5.7,5.7,0,0,0-5.4,2.3v-.6h0V0L65.6.7V26.8h5.5V25.3a15.021,15.021,0,0,0,2.3,1.5c3.2,1.1,7.5.2,9-4.1a15.342,15.342,0,0,0,.2-8.5C81.9,11.2,79.8,9.5,76.6,9.1Zm.8,11.3a2.822,2.822,0,0,1-3.2,2.5,2.016,2.016,0,0,1-1.1-.3,3.776,3.776,0,0,1-1.8-2.9h0c-.1-1.2-.2-3.8.4-5a3.069,3.069,0,0,1,2.6-1.5,2.7,2.7,0,0,1,3.1,2.5A18.465,18.465,0,0,1,77.4,20.4Z" fill="#3b5998"/><path d="M96.2,9.4a11.4,11.4,0,0,0-5.8,0A7.082,7.082,0,0,0,85,14.9a15.543,15.543,0,0,0-.3,4.8,7.292,7.292,0,0,0,6.1,7.1H91c.1,0,.3.1.4.1h.1c.2,0,.4.1.6.1a8.854,8.854,0,0,0,2.3,0h.1a7.589,7.589,0,0,0,7.3-6.1,11.791,11.791,0,0,0,0-5.9A7.161,7.161,0,0,0,96.2,9.4Zm.3,10.7a.756.756,0,0,1-.1.4A2.934,2.934,0,0,1,93.3,23a2.842,2.842,0,0,1-3-2.8,24.1,24.1,0,0,1,0-3.8,2.988,2.988,0,0,1,3.2-3,2.819,2.819,0,0,1,2.9,2.4A15.934,15.934,0,0,1,96.5,20.1Z" fill="#3b5998"/><path d="M13,9.3H9V6.6c.3-2.5,4.4-2,4.4-2V4.4h0V.3h0c-.1,0-8.2-1.9-9.8,4.2h0a26.773,26.773,0,0,0-.2,4.8H0V14H3.6V26.7H8.9V14H13l.5-4.7Z" fill="#3b5998"/><path d="M25.6,11.6l-.2-.2h0l-.1-.1h0a5.833,5.833,0,0,0-2.7-1.9,6.67,6.67,0,0,0-8.5,4.7,12.88,12.88,0,0,0-.3,7c.9,5.1,4.7,6.8,8.7,6a5.215,5.215,0,0,0,3-2.1,1.238,1.238,0,0,0,.2-.3V27h5.1V9.4H25.5l.1,2.2Zm-.3,8.8a2.936,2.936,0,0,1-3,2.6,2.844,2.844,0,0,1-2.9-2.5,16.333,16.333,0,0,1,.1-4.9,2.926,2.926,0,0,1,3-2.2A2.841,2.841,0,0,1,25.4,16C25.4,17.4,25.4,18.9,25.3,20.4Z" fill="#3b5998"/><path d="M46.6,25.6c-.3-.9-.5-1.7-.8-2.6l-.3-1S39,25.1,38,19.2a9.307,9.307,0,0,1,.1-2.9,3.075,3.075,0,0,1,3.1-2.9,5.462,5.462,0,0,1,1.8.1c.8.1,1.6.4,2.5.6.3-1,.7-1.9,1-2.8,0-.2.1-.3.1-.4h0l.2-.6c0-.1-.1-.2-.3-.2h0l-.8-.4c-.2-.1-.3-.1-.5-.2-.2,0-.2-.1-.2-.1h0A12.981,12.981,0,0,0,39.8,9a7.465,7.465,0,0,0-7,6.3,12.633,12.633,0,0,0,.1,5.8,7.257,7.257,0,0,0,5.2,5.6,11.9,11.9,0,0,0,5.6.3,18.044,18.044,0,0,0,2.8-.9l.3-.1-.2-.4Z" fill="#3b5998"/><path d="M63.7,18.8a21.145,21.145,0,0,0-.2-3.6,6.688,6.688,0,0,0-5.7-5.9A16.117,16.117,0,0,0,54,9.2a7.051,7.051,0,0,0-6.6,5.7,20.063,20.063,0,0,0-.1,6c.4,2.9,1.8,4.8,4.3,5.7h0c1.1.4,6.7,1.8,11.5-.7l-.2-.8h0a22.881,22.881,0,0,0-.8-2.8v-.1a.774.774,0,0,0-.3.1h0a6.373,6.373,0,0,1-.7.2H61a18.361,18.361,0,0,1-2.9.6,14.054,14.054,0,0,1-2.9,0c-1.5-.3-2.8-1-2.7-3H63.4v-.2Zm-5-2.4h-6c0-1.2.2-2.3,1.2-2.9a3.007,3.007,0,0,1,3.5-.1C58.7,13.9,58.8,15.1,58.7,16.4Z" fill="#3b5998"/><path d="M139.4,9.6h-5.9l-5.2,7.9V.1l-5.5.6V26.9h5.5v-8l5.2,8h5.9l-5.7-8.7Z" fill="#3b5998"/><path d="M115.1,9.4a11.4,11.4,0,0,0-5.8,0,6.946,6.946,0,0,0-5.4,5.5,15.543,15.543,0,0,0-.3,4.8,7.292,7.292,0,0,0,6.1,7.1h.2c.1,0,.3.1.4.1h.1c.2,0,.4.1.6.1a8.854,8.854,0,0,0,2.3,0h.1a7.589,7.589,0,0,0,7.3-6.1,11.791,11.791,0,0,0,0-5.9A7.161,7.161,0,0,0,115.1,9.4Zm.3,10.7a.756.756,0,0,1-.1.4,2.934,2.934,0,0,1-3.1,2.5,2.842,2.842,0,0,1-3-2.8,24.1,24.1,0,0,1,0-3.8,2.988,2.988,0,0,1,3.2-3,2.819,2.819,0,0,1,2.9,2.4A15.934,15.934,0,0,1,115.4,20.1Z" fill="#3b5998"/><path d="M111.1,53.8l-1.5-5.3h-8.1L100,53.8H98l6.5-21.6h2.2l6.5,21.6Zm-5.6-19.4-3.7,12.5h7.3Z" fill="#828282"/><path d="M124.6,53.8V51.5a5.113,5.113,0,0,1-4.2,2.8c-3.5,0-5.5-3.3-5.5-8.2s2-8.2,5.5-8.2a4.961,4.961,0,0,1,4.2,2.8V32.3h1.6V53.9l-1.6-.1Zm0-3.9V42.2a4.71,4.71,0,0,0-3.9-2.9c-2.8,0-4.1,3.1-4.1,6.7s1.2,6.7,4.1,6.7A4.6,4.6,0,0,0,124.6,49.9Z" fill="#828282"/><path d="M129.5,52l.9-1.1a5.057,5.057,0,0,0,4,2c2,0,3.3-1.1,3.3-2.9,0-4.1-7.8-2.8-7.8-8.2,0-2.2,1.8-4,4.7-4a5.64,5.64,0,0,1,4.5,2l-.9,1.1a4.323,4.323,0,0,0-3.6-1.7c-1.9,0-3,1.1-3,2.6,0,3.8,7.8,2.7,7.8,8.2,0,2.5-1.9,4.3-4.8,4.3A6.468,6.468,0,0,1,129.5,52Z" fill="#828282"/></svg>