<svg xmlns="http://www.w3.org/2000/svg" width="290.762" height="194.137" viewBox="0 0 290.762 194.137"><g transform="translate(202.301 107.64)"><g transform="translate(3.288 8.031)" opacity="0.1"><path d="M5242.762,2069.7l63.548-36.361a7.1,7.1,0,0,1,6.412,0c1.758,1.019,1.751,2.692-.023,3.719l-63.548,36.361c-1.766,1.019-14.706,6.925-16.465,5.906s8.311-8.6,10.077-9.625Z" transform="translate(-5232.482 -2032.575)"/></g><path d="M5397.975,1978.161a3.412,3.412,0,0,1-.833,2.451l-.949.552-55.79,32.206-6.3-10.411,56.4-32.564c.031-.023.07-.039.109-.062a3.122,3.122,0,0,1,3.035.335c.1.054.2.125.3.187a9.713,9.713,0,0,1,4.007,6.871A4.01,4.01,0,0,1,5397.975,1978.161Z" transform="translate(-5322.905 -1966.907)" fill="#476eb5"/><g transform="translate(10.035 35.701)"><path d="M5323.534,2388.776c-2.381-1.377-4.326-.272-4.334,2.467a9.495,9.495,0,0,0,4.3,7.454c2.381,1.377,4.327.272,4.334-2.467a9.5,9.5,0,0,0-4.3-7.454Z" transform="translate(-5319.2 -2388.183)" fill="#f9d9c2"/></g><path d="M5207.716,2406.9s-5.625,1.455-10.489,2.443c-3.812.77-7.159,1.253-7,.529.148-.654,1.859-2.817,3.875-5.206,3.1-3.673,6.941-7.866,6.941-7.866C5208.525,2398.831,5207.716,2406.9,5207.716,2406.9Z" transform="translate(-5190.227 -2360.428)" fill="#f9d9c2"/><path d="M5197.228,2502.477c-3.812.77-7.159,1.253-7,.529.148-.653,1.859-2.817,3.875-5.205A5,5,0,0,1,5197.228,2502.477Z" transform="translate(-5190.227 -2453.57)" fill="#565656"/><path d="M6120.2,1930.088s6.194-2.327,8.809,1.346c1.844,2.6-.249,7.773-2.9,9.306Z" transform="translate(-6047.838 -1929.361)" fill="#dd7ab1"/><path d="M6072.468,1943.568a2.915,2.915,0,0,1-1.409,2.848c-.007.008-.007.008-.015.008l-4.015,2.319a3.43,3.43,0,0,0,.832-2.451c0-.14-.007-.288-.016-.428a9.714,9.714,0,0,0-4.007-6.871,3.261,3.261,0,0,0-.3-.187,3.083,3.083,0,0,0-3.035-.335l4.427-2.56a2.935,2.935,0,0,1,3.237.2A9.474,9.474,0,0,1,6072.468,1943.568Z" transform="translate(-5992.784 -1935.037)" fill="#e5e5e5"/><path d="M5387.647,2027.326s-.848,4.108,2.964,4.777l56.436-32.354a10.235,10.235,0,0,0-2.4-4.349Q5416.149,2011.367,5387.647,2027.326Z" transform="translate(-5372.211 -1990.261)" fill="#334f82"/></g><g transform="translate(201.98 1.821)"><g transform="translate(0 5.781)"><g transform="translate(2.132 26.393)" opacity="0.1"><path d="M5213.5,993.56l18.348-10.66,16.722,9.656-18.348,10.66Z" transform="translate(-5213.5 -982.9)"/></g><g transform="translate(15.687 9.057)"><path d="M5387.778,770.1l17.2-10-.069,25.856-17.2,10Z" transform="translate(-5387.7 -760.1)" fill="#e89524"/></g><g transform="translate(0.07)"><path d="M5187,653.7l17.2-10,15.687,9.057-17.2,10Z" transform="translate(-5187 -643.7)" fill="#f9ac3d"/></g><g transform="translate(0 9.999)"><path d="M5201.864,781.257l-.078,25.856-15.687-9.065.07-25.849Z" transform="translate(-5186.1 -772.2)" fill="#f99f1b"/></g></g><g transform="translate(25.055 3.953)"><g transform="translate(1.439 42.936)" opacity="0.1"><path d="M5526.6,1182.66l18.347-10.66,16.722,9.648-18.348,10.66Z" transform="translate(-5526.601 -1172)"/></g><g transform="translate(15.694 9.057)"><path d="M5709.916,746.6l17.2-10L5727,779.411l-17.2,10Z" transform="translate(-5709.8 -736.6)" fill="#69b7ca"/></g><g transform="translate(0.125)"><path d="M5509.7,630.191l17.2-9.991,15.694,9.057-17.2,10Z" transform="translate(-5509.7 -620.2)" fill="#8ed3e4"/></g><g transform="translate(0 9.991)"><path d="M5523.911,757.665l-.117,42.811-15.694-9.065.125-42.811Z" transform="translate(-5508.1 -748.6)" fill="#76cfe4"/></g></g><g transform="translate(51.549)"><g transform="translate(2.163 62.692)" opacity="0.1"><path d="M5876.4,1385.76l18.348-10.66,16.722,9.656-18.348,10.66Z" transform="translate(-5876.4 -1375.1)"/></g><g transform="translate(15.671 9.049)"><path d="M6050.179,695.7l17.2-10-.179,62.093-17.2,10Z" transform="translate(-6050 -685.7)" fill="#7fab53"/></g><g transform="translate(0.171)"><path d="M5850.8,579.4l17.2-10,15.679,9.049-17.2,10Z" transform="translate(-5850.8 -569.4)" fill="#a0cf6b"/></g><g transform="translate(0 9.999)"><path d="M5864.45,706.949l-.18,62.093-15.67-9.049.171-62.093Z" transform="translate(-5848.601 -697.9)" fill="#90c160"/></g></g></g><g transform="translate(47.955 9.657)"><g transform="translate(24.524 31.66)" opacity="0.1"><path d="M3536.83,1085.167c12.893-7.446,28.549-9.843,33.435-7s-.133,13.7-13.026,21.149-28.774,8.652-33.661,5.8.358-12.5,13.251-19.951Z" transform="translate(-3521.771 -1077.005)"/></g><g transform="translate(43.726 21.42)"><path d="M3845.577,1176.237a3.142,3.142,0,0,0-.521,2.894c.56,1.6,6.5,2.3,9.75.436s4.061-4.225,4.031-5.5-2.016-1.766-2.016-1.766Z" transform="translate(-3838.951 -1154.645)" opacity="0.1"/><path d="M3842.885,1173.9a2.97,2.97,0,0,0-.49,2.724c.529,1.51,6.108,2.155,9.158.4s3.821-3.968,3.79-5.174a1.976,1.976,0,0,0-1.292-1.657Z" transform="translate(-3836.509 -1152.708)" fill="#ee1f56"/><path d="M3786.1,962.9s-2.264,7.244-11.166,3.7c0,0-.342-7.244-2.226-11.913a7.147,7.147,0,0,0-2.373-3.4c-4-2.568,0-.428,0-.428l11.547-5.454s.778,1.969,1.665,4.848A56.223,56.223,0,0,1,3786.1,962.9Z" transform="translate(-3768.555 -945.4)" fill="#cc1f4b"/><path d="M3783.537,950.239c-3.556,3.307-6.209,5-10.831,4.443a7.152,7.152,0,0,0-2.374-3.4c-4-2.568,0-.428,0-.428l11.547-5.455C3781.872,945.392,3782.651,947.361,3783.537,950.239Z" transform="translate(-3768.556 -945.4)" opacity="0.1"/></g><g transform="translate(59.642 0.237)"><g transform="translate(0.716)"><path d="M3987.575,673.879c-2.9-1.673-5.268-.327-5.275,3a11.551,11.551,0,0,0,5.237,9.073c2.9,1.673,5.26.335,5.275-3a11.537,11.537,0,0,0-5.237-9.073Z" transform="translate(-3982.3 -673.16)" fill="#d41e4e"/></g><path d="M3975.605,676l-2.505.973s7.672,7.921,6.38,14.317l3.5-2.467S3980.406,678.194,3975.605,676Z" transform="translate(-3973.1 -675.779)" fill="#d41d4e"/></g><path d="M3428.98,686.552a3.944,3.944,0,0,1-1.564,2.832c-.848.607-4.925,2.793-8.808,5.315-3.027,1.961-5.929,4.116-7.1,5.89-2.646,4.038-11.376,21.732-15.251,23.623l-21.46-47.83s18.706,3.307,25.934,1.019a39.732,39.732,0,0,0,4.91-1.984c5.33-2.513,10.271-5.595,14.613-4.762C3425.914,671.737,3430.24,679.09,3428.98,686.552Z" transform="translate(-3361.712 -670.485)" fill="#f7f7f7"/><path d="M3812.149,686.182a3.943,3.943,0,0,1-1.564,2.832c-.848.607-4.926,2.793-8.808,5.314-.319-12.566-7.275-18.286-11.477-20,5.33-2.513,8.785-4.879,13.135-4.046C3809.083,671.367,3813.41,678.72,3812.149,686.182Z" transform="translate(-3744.882 -670.115)" fill="#ee1f56"/><g transform="translate(56.221 6.397)"><path d="M3934.42,752.4l-5.043,2.91a.55.55,0,0,0-.07.856.8.8,0,0,0,.965.257l5.042-2.91a.549.549,0,0,0,.07-.856.8.8,0,0,0-.965-.257Z" transform="translate(-3929.139 -752.329)" fill="#cc1f4b"/></g><g transform="translate(58.276 9.654)"><path d="M3960.954,794.247l-5.042,2.91a.885.885,0,0,0-.342.957.468.468,0,0,0,.693.358l5.042-2.91a.885.885,0,0,0,.342-.957.469.469,0,0,0-.692-.358Z" transform="translate(-3955.542 -794.184)" fill="#cc1f4b"/></g><g transform="translate(58.604 13.704)"><path d="M3965.264,846.308l-5.042,2.91a1.029,1.029,0,0,0-.459.918.361.361,0,0,0,.576.319l5.042-2.91a1.031,1.031,0,0,0,.459-.918.363.363,0,0,0-.576-.319Z" transform="translate(-3959.759 -846.242)" fill="#cc1f4b"/></g><g transform="translate(0 5.687)"><path d="M3226.175,745.875c-10.777-6.225-19.539-1.222-19.577,11.158s8.668,27.467,19.445,33.684,19.538,1.222,19.577-11.158-8.668-27.467-19.445-33.684Z" transform="translate(-3206.598 -743.198)" fill="#e8e8e8"/></g><g transform="translate(2.677 9.124)"><path d="M3274.675,818.757c-.031,10.691-7.594,14.994-16.893,9.625S3240.968,810,3241,799.313s7.594-15,16.893-9.625a27.806,27.806,0,0,1,5.3,4.038,39.045,39.045,0,0,1,11.174,21.024A25.257,25.257,0,0,1,3274.675,818.757Z" transform="translate(-3240.999 -787.374)" fill="#cfcfce"/></g><path d="M3418.865,889.724l-13.1,1.821-8.069-13.92,9.991-8.925A38.992,38.992,0,0,1,3418.865,889.724Z" transform="translate(-3382.831 -853.248)" fill="#c51f49"/><g transform="translate(13.734 23.567)"><path d="M3388.9,973.792c-3.19-1.844-5.789-.366-5.8,3.3a12.707,12.707,0,0,0,5.758,9.975c3.19,1.844,5.789.366,5.8-3.307a12.685,12.685,0,0,0-5.758-9.967Z" transform="translate(-3383.1 -972.998)" fill="#ee1f56"/></g></g><g transform="translate(0 98.643)"><ellipse cx="14.87" cy="5.307" rx="14.87" ry="5.307" transform="translate(0 84.881)" opacity="0.1"/><g transform="translate(2.507)"><g transform="translate(0.008)"><g transform="translate(12.17 56.115)"><path d="M2788.383,2565.713a4.881,4.881,0,0,1-1.229-.148c-1.4-.366-2.708-2.871-3.455-4.062a2.184,2.184,0,0,0-1.642-1.152,6.757,6.757,0,0,0,.412-1.572c.343-2.436-.949-9.555-1.042-12.037s.895-4.451,1.027-5.665-.84-3.743-1.027-5.758l5.385-.42s-.14,5.058-.233,6.373-1.074,11.757-1.121,15.266.553,6.155,2.669,8.855C2788.211,2565.5,2788.3,2565.6,2788.383,2565.713Z" transform="translate(-2781.234 -2534.9)" fill="#fbc3b1"/><path d="M2787.829,2869.509c-.28.933-2.529.98-3.89.4-1.284-.552-1.6-2.552-2.195-2.965h0a.67.67,0,0,0-.1-.054c-.654-.233-.513,3-.513,3a.776.776,0,0,1-.817-.326,11.692,11.692,0,0,0-1.113-4.778c-.49-.871.14-1.509.638-2.778a2.185,2.185,0,0,1,1.642,1.152c.747,1.19,2.054,3.7,3.454,4.062a4.842,4.842,0,0,0,1.23.148C2787.634,2869.237,2787.829,2869.509,2787.829,2869.509Z" transform="translate(-2779.022 -2836.549)" fill="#a81e33"/></g><g transform="translate(0 55.788)"><path d="M2628.044,2553.164a9.55,9.55,0,0,0-.381,4.9,3.124,3.124,0,0,0,.086.5c.381,1.447,1.641,2.225,1.829,2.661.21.49-.8.9-2.661.615s-2.864-3.813-2.864-3.813l-.692,3.579h-.692s-.1-4.591,0-5.945,1.393-1.844,2.194-2.264,2.016-5.945,2.467-7.47.662-5.462,1.043-7.369,2.575-4.132,2.575-4.132l-.335-3.408,4.381-.319a48.546,48.546,0,0,1-.568,5.011C2634.082,2536.964,2628.705,2551.732,2628.044,2553.164Z" transform="translate(-2622.623 -2530.7)" fill="#fbc3b1"/><path d="M2626.916,2830.842c-1.688-.265-2.669-3.182-2.84-3.727-.015-.054-.023-.085-.023-.085v.015l-.692,3.564h-.692s-.1-4.591,0-5.945a1.911,1.911,0,0,1,.148-.623c.381-.9,1.377-1.292,2.046-1.642,0,0,.475,1.774.949,2.941a4.28,4.28,0,0,0,1.953,2.218c.381,1.448,1.642,2.225,1.829,2.661C2629.787,2830.718,2628.776,2831.13,2626.916,2830.842Z" transform="translate(-2622.623 -2799.703)" fill="#a81e33"/></g><path d="M2651.592,2027.33c1.549.607,1.86,2.031,1.447,4.194s-2.389,10.186-2.389,10.186,2.972,8.652,3.338,8.972,1.626,1.8,1.626,2.568-.8,3.245-1.548,3.7-2.194.226-1.875-.4.856-.724.949-1.129-1.035-2.031-1.175-3.742c0,0-4.754-7.438-5-9.649s1.837-11.135,2.241-12.8S2650.759,2027,2651.592,2027.33Z" transform="translate(-2645.057 -2010.626)" fill="#fbc3b1"/><path d="M2761.54,1860.953c.373,1.237,2.334,2.49,3.7,2.731,0,0,3.1-6.225,1.1-8.956S2760.738,1858.292,2761.54,1860.953Z" transform="translate(-2750.625 -1850.918)" fill="#fbc3b1"/><path d="M2683.037,1999.5a12.394,12.394,0,0,1,8.255,5.065c1.5,2.552,1.852,7.345,1.541,8.139-.638,1.6-1.572,2.926-1.649,4.093a12.912,12.912,0,0,0,.225,5.851c.825,3.6,2.062,13.881.039,22.168,0,0-4.054.716-9.719-2.887,0,0-.941-8.894-1.8-11.438s-.677-6.863,0-9.532a23.523,23.523,0,0,0-.109-8.925c-.451-1.688-3.634-8.629-.467-11.633A5.61,5.61,0,0,1,2683.037,1999.5Z" transform="translate(-2673.662 -1985.04)" fill="#b51f36"/><path d="M2778.392,2063.938c1.548.607,1.86,2.031,1.447,4.194s-2.389,10.185-2.389,10.185,2.972,8.653,3.338,8.971,1.626,1.805,1.626,2.568-.8,3.245-1.548,3.7-2.194.226-1.875-.4.856-.723.949-1.128-1.035-2.031-1.175-3.743c0,0-4.754-7.439-5-9.648s1.836-11.135,2.241-12.8S2777.567,2063.611,2778.392,2063.938Z" transform="translate(-2761.991 -2044.386)" fill="#fbc3b1"/><path d="M2686,1817.876c.187.747-1.237,1.906-1.728,3.8s-1.953,10.862-4.279,13.306-2.848,3.19-2.848,3.074a18.567,18.567,0,0,1-3.564-10.691c-.078-6.528,2.817-13.166,5.143-13.578S2685.331,1815.137,2686,1817.876Z" transform="translate(-2669.615 -1813.731)" fill="#52260f"/></g><path d="M2783.944,2899.864a.614.614,0,0,0-.1-.055c-.653-.233-.513,3-.513,3a.777.777,0,0,1-.817-.327,11.682,11.682,0,0,0-1.112-4.777A4.954,4.954,0,0,1,2783.944,2899.864Z" transform="translate(-2769.038 -2813.356)" fill="#751424"/><path d="M2623.952,2846.5l-.692,3.564h-.692s-.1-4.591,0-5.945a1.921,1.921,0,0,1,.147-.623Z" transform="translate(-2622.523 -2763.374)" fill="#751424"/></g></g><g transform="translate(50.554 13.905)"><g transform="translate(0 40)"><path d="M3240.2,2270.506v-3.649l1.751-.257.171,4.965-.8,2.389Z" transform="translate(-3240.186 -2186.625)" fill="#616161"/><path d="M3436.824,1319.966l-47.278-27.3c-6.45-3.727-16.97-3.727-23.382,0L3244.8,1363.2c-6.412,3.727-6.373,9.82.078,13.547l47.278,27.3c6.451,3.727,16.97,3.727,23.382,0l121.369-70.527C3443.313,1329.786,3443.274,1323.693,3436.824,1319.966Z" transform="translate(-3240.011 -1285.899)" fill="#616161"/><path d="M3485.324,1348.666l-47.278-27.3c-6.45-3.727-16.97-3.727-23.382,0L3293.3,1391.9c-6.412,3.727-6.373,9.82.078,13.547l47.277,27.3c6.451,3.727,16.971,3.727,23.382,0l121.369-70.527C3491.813,1358.486,3491.774,1352.393,3485.324,1348.666Z" transform="translate(-3284.737 -1312.366)" fill="#1e1e1e" opacity="0.1"/><path d="M5780.35,1718.8V1715l-4.35,2.015,1.595,4.14Z" transform="translate(-5578.673 -1677.945)" fill="#616161"/><path d="M3266.341,1333.215c-1.471-.848-1.479-2.241-.016-3.089a5.915,5.915,0,0,1,5.338,0l12.434,7.182c1.471.848,1.479,2.241.016,3.089a5.915,5.915,0,0,1-5.338,0l-12.434-7.182Zm-16.387-19.367a.953.953,0,0,1-.008-1.805l116.14-67.493a3.445,3.445,0,0,1,3.12,0l62.552,36.112a.953.953,0,0,1,.008,1.805l-116.14,67.493a3.428,3.428,0,0,1-3.112,0l-62.56-36.112Zm146.245-58.926a.676.676,0,0,1-.008-1.276,2.438,2.438,0,0,1,2.2,0l13.648,7.882a.675.675,0,0,1,.008,1.276,2.455,2.455,0,0,1-2.21,0l-13.64-7.882Zm17.313,10.139c-.685-.4-.685-1.035-.008-1.424a2.736,2.736,0,0,1,2.459,0,.753.753,0,0,1,.008,1.424,2.736,2.736,0,0,1-2.459,0Zm23.312,3.8-47.278-27.3c-6.45-3.727-16.97-3.727-23.382,0L3244.8,1312.1c-6.412,3.727-6.373,9.82.078,13.547l47.278,27.3c6.451,3.727,16.97,3.727,23.382,0l121.369-70.527c6.412-3.727,6.373-9.82-.078-13.547Z" transform="translate(-3240.011 -1238.775)" fill="#343434"/><path d="M3541.915,1344.685l-62.552-36.112a3.444,3.444,0,0,0-3.12,0l-116.14,67.493a.954.954,0,0,0,.008,1.805l62.552,36.112a3.428,3.428,0,0,0,3.113,0l116.14-67.493a.953.953,0,0,0,0-1.805Z" transform="translate(-3350.167 -1302.798)" fill="#fee189"/><path d="M3583.026,2412.343l-12.434-7.182a5.917,5.917,0,0,0-5.338,0c-1.463.848-1.455,2.241.015,3.089l12.434,7.182a5.917,5.917,0,0,0,5.338,0c1.463-.848,1.455-2.241-.016-3.089Z" transform="translate(-3538.94 -2313.817)" fill="#575757"/><path d="M5257.767,1434.57l-13.648-7.882a2.438,2.438,0,0,0-2.2,0,.673.673,0,0,0,.007,1.276l13.648,7.882a2.456,2.456,0,0,0,2.21,0,.678.678,0,0,0-.016-1.276Z" transform="translate(-5085.729 -1411.824)" fill="#575757"/><path d="M5466.153,1554.773a2.687,2.687,0,0,0-2.459,0,.752.752,0,0,0,.008,1.424,2.737,2.737,0,0,0,2.459,0c.677-.389.669-1.027-.008-1.424Z" transform="translate(-5290.2 -1529.91)" fill="#575757"/></g><g transform="translate(68.348)"><g transform="translate(1.766 15.266)"><path d="M4156.3,1499.353l52.086-30.253,49.511,28.58-52.086,30.26Z" transform="translate(-4155.117 -1426.444)" opacity="0.1"/><g transform="translate(0.117)"><path d="M4142.6,950.235l50.468-29.335v1.2L4142.6,951.425Z" transform="translate(-4142.6 -920.9)" fill="#fed183"/></g><g transform="translate(0.117 29.335)"><path d="M4190.236,1325.4l-.008,1.191-47.628-27.5v-1.19Z" transform="translate(-4142.6 -1297.9)" fill="#d6b275"/></g><g transform="translate(0 29.335)"><path d="M4141.217,1297.9v1.19l47.628,27.5-.117,41.667L4141.1,1340.75Z" transform="translate(-4141.1 -1297.9)" fill="#f3c87e"/></g><g transform="translate(1.144 1.198)"><path d="M4252.869,963.8l-47.628-27.5L4155.8,965.028l46.608,26.907-.007,1.19Z" transform="translate(-4155.8 -936.3)" fill="#fed183"/></g><g transform="translate(47.628 28.697)"><path d="M4753.317,1319.027l50.468-29.327-.117,41.668-50.468,29.327Z" transform="translate(-4753.2 -1289.7)" fill="#e3ba75"/></g><g transform="translate(47.745 27.506)"><path d="M4754.708,1303.727l50.46-29.327v1.19l-50.468,29.327Z" transform="translate(-4754.7 -1274.4)" fill="#b79863"/></g><g transform="translate(0.117)"><path d="M4142.6,950.235l50.468-29.335,47.627,27.506-50.459,29.327Z" transform="translate(-4142.6 -920.9)" fill="#d6b275"/></g></g><g transform="translate(49.519 28.588)"><path d="M4754.831,1122.353l52.086-30.253-.031,13.251-52.086,30.261Z" transform="translate(-4754.8 -1092.1)" fill="#e3ba75"/></g><g transform="translate(0.039)"><path d="M4118.9,754.953l52.086-30.253,49.511,28.588-52.086,30.253Z" transform="translate(-4118.9 -724.7)" fill="#fed183"/></g><g transform="translate(0 30.253)"><path d="M4167.95,1142.088l-.031,13.259-49.519-28.587.039-13.259Z" transform="translate(-4118.4 -1113.5)" fill="#f3c87e"/></g><g transform="translate(35.98 20.736)" opacity="0.5"><path d="M4607.947,1004.163,4585.492,991.2l-4.692,2.731,22.456,12.963Z" transform="translate(-4580.8 -991.2)"/></g></g><g transform="translate(33.652 98.189)"><g transform="translate(2.109 5.595)" opacity="0.1"><path d="M3758.448,2084.894c2.046,1.183,2.054,3.113.023,4.295l-5.742,3.338a8.192,8.192,0,0,1-7.416,0l-44.173-25.506c-2.046-1.183-2.054-3.112-.023-4.3l5.742-3.338a8.194,8.194,0,0,1,7.415,0Z" transform="translate(-3699.6 -2058.5)" fill="#1e1e1e"/></g><g transform="translate(0 6.209)"><path d="M3672.5,2070.874l.015-4.474a2.568,2.568,0,0,0,1.51,2.116l-.016,4.474A2.543,2.543,0,0,1,3672.5,2070.874Z" transform="translate(-3672.499 -2066.4)" fill="#035b8a"/></g><g transform="translate(57.541 27.911)"><path d="M4413.5,2345.3l-.016,4.474a2.544,2.544,0,0,1-1.486,2.085l.016-4.474A2.56,2.56,0,0,0,4413.5,2345.3Z" transform="translate(-4412 -2345.3)" fill="#035b8a"/></g><g transform="translate(51.931 29.996)"><path d="M4345.526,2372.1l-.016,4.474-5.61,3.261.016-4.475Z" transform="translate(-4339.9 -2372.1)" fill="#035b8a"/></g><g transform="translate(1.502 8.326)"><path d="M3735,2118.531l-.016,4.474-43.184-24.931.015-4.474Z" transform="translate(-3691.8 -2093.6)" fill="#0c71a5"/></g><g transform="translate(44.687 33.256)"><path d="M4254.06,2414l-.016,4.474a8.028,8.028,0,0,1-7.244,0l.016-4.474A8.027,8.027,0,0,0,4254.06,2414Z" transform="translate(-4246.8 -2414)" fill="#035b8a"/></g><g transform="translate(0.012)"><path d="M3730.171,2012.394c2,1.152,2.008,3.043.023,4.194l-5.61,3.26a8.027,8.027,0,0,1-7.244,0l-43.185-24.931c-2-1.152-2.007-3.042-.023-4.194l5.611-3.26a8.026,8.026,0,0,1,7.244,0Z" transform="translate(-3672.649 -1986.6)" fill="#0e82a8"/></g></g></g><g transform="translate(137.553 85.732)"><ellipse cx="14.87" cy="5.307" rx="14.87" ry="5.307" transform="translate(22.869 83.148)" opacity="0.1"/><g transform="translate(23.105 38.85)"><path d="M4692.443,2171.47c.187,1.517,2.093,15.165,2,17.165a8.266,8.266,0,0,0,4.661,1.331s.288-5.618.428-7.47.762-5.657.669-7.143-1.743-3.937-1.743-3.937v-14.364s2.217,11.843,4.124,16.27,5.416,23.063,5.416,23.063c-.894,2.513-7.47,5.369-3.789,6.871s5.859-2.381,6.871-2.848,3.252-1.292,1.93-5.26-1.066-11.594-1.385-15.733a21.823,21.823,0,0,0-2.693-8.155s.125-2.132,0-6.4-2.1-17.756-2.1-17.756H4690.6C4690.592,2147.1,4692.257,2169.945,4692.443,2171.47Z" transform="translate(-4687.832 -2147.1)" fill="#212121"/><path d="M4852.207,2772.807c3.681,1.51,5.859-2.381,6.871-2.848s3.253-1.292,1.93-5.26a4.825,4.825,0,0,1-5.011,1.237C4855.1,2768.442,4848.519,2771.3,4852.207,2772.807Z" transform="translate(-4835.837 -2716.644)" fill="#333"/><path d="M4655.212,2685.794c1.478,1.331,4.233.047,6.092-.233s3.19.046,4.646-.288.35-3.042.35-3.042a8.343,8.343,0,0,1-4.661-1.331C4661.539,2682.9,4653.742,2684.464,4655.212,2685.794Z" transform="translate(-4655.028 -2639.365)" fill="#333"/></g><path d="M4733.447,1832.321l4.225.109s.662-22.347,5.151-26.222c-1.19-.506-2.186-.887-2.59-1.043a11.935,11.935,0,0,0-3.929-.311C4731.727,1813.6,4733.447,1832.321,4733.447,1832.321Z" transform="translate(-4703.949 -1792.614)" fill="#fff"/><path d="M4872.934,1881.373c2.988-2.163,9.625-6.124,9.625-7.633,0-1.906-5.976-13.376-6.724-14.932s-2.373-3.229-4.474-2.14a3.907,3.907,0,0,0-1.4,5.291c.467.879,6.373,9.68,5.866,10.808-.373.825-3.641,3.7-5.7,5.385A12.391,12.391,0,0,1,4872.934,1881.373Z" transform="translate(-4829.679 -1840.095)" fill="#333"/><path d="M4471.088,1830.45s6.575-3.058,8.062-4.365,10.349-9.586,11.663-11.244-.552-3.984-.552-3.984c-.9-.848-2.186-1.424-2.855-.685s-8.007,9.757-9.828,10.9c-1.5.941-6.271,4.84-8.777,6.24A15.456,15.456,0,0,1,4471.088,1830.45Z" transform="translate(-4460.187 -1797.225)" fill="#333"/><path d="M4358.095,2031.892c-.039.506,2.677,3.649,6.194,2.163a21.8,21.8,0,0,0,3.8-2,12.934,12.934,0,0,0-2.42-3.385.921.921,0,0,1-.187.031c-1.572.132-4.583-1.7-5.595-.763s2.249,2.163,2.249,2.163S4358.142,2031.386,4358.095,2031.892Z" transform="translate(-4358.094 -1998.115)" fill="#fbc3b1"/><path d="M4455.4,2035.067a12.971,12.971,0,0,1,2.42,3.385,7.924,7.924,0,0,0,.9-.7l.015-.016a15.445,15.445,0,0,0-2.287-3.136A5.24,5.24,0,0,1,4455.4,2035.067Z" transform="translate(-4447.829 -2004.503)" fill="#fff"/><path d="M4793.02,1857.368c1.6.778,7.292,1.813,8.785.8s-1.424-11-1.494-12.465,0-9.026.677-11.267,2.45-7.143,1.672-8.606c-.521-.973-3.634-2.436-6.015-3.431-4.489,3.875-5.151,26.222-5.151,26.222S4791.425,1856.59,4793.02,1857.368Z" transform="translate(-4757.771 -1808.815)" fill="#333"/><path d="M4680.893,1842.161c.708.358,3.587-1.1,3.7-1.953s-.179-7.641-.179-7.641-1.719-18.721,2.856-27.467a17.752,17.752,0,0,0-5.136.716,8.1,8.1,0,0,0-2.163,6.03c.071,3.237.032,19.554,0,21.4S4680.185,1841.8,4680.893,1842.161Z" transform="translate(-4654.919 -1792.86)" fill="#333"/><path d="M4777.285,1805.608l-1,1.455a12.658,12.658,0,0,1,.506-4.163Z" transform="translate(-4743.732 -1790.832)" fill="#f0efef"/><path d="M4746.181,1860.687s-2.389,9.928-1.906,16.488l-1.533,3.113-1.042-3.385s1.844-13.2,3.128-16.4Z" transform="translate(-4711.851 -1843.95)" fill="#ee2b5b"/><path d="M4735.381,1670.9c-1.852.2-2.98.84-3.275,2.233a10.2,10.2,0,0,0,.373,4.085c.2.724,1.8,4.778,2.521,4.84s4.691-1.712,4.754-4.256,0-6.256-.755-6.49A29.472,29.472,0,0,0,4735.381,1670.9Z" transform="translate(-4702.918 -1669.103)" fill="#fbc3b1"/><path d="M4741.2,1655.46s-1.844-2-1.844-3.424c0,0-4.568.661-5.556-.4,0,0,.109-3.1,5.665-3.8s4.723,8.341,3.159,10.123Z" transform="translate(-4704.566 -1647.804)" fill="#6b461b"/><path d="M4783.729,1737.3l.257,5.991s-.125,2.972-4.567,2.436l-.918-5.369Z" transform="translate(-4745.788 -1730.336)" fill="#fbc3b1"/><path d="M4822.3,1724.645s.949-2.474,2.031-1.541-1.058,2.864-1.735,2.918Z" transform="translate(-4786.18 -1717.051)" fill="#fbc3b1"/><path d="M4803.168,1802.9l.677,1.517a7.818,7.818,0,0,1-3.665,3.26l-.879-1.992A5.743,5.743,0,0,0,4803.168,1802.9Z" transform="translate(-4764.97 -1790.832)" fill="#f0efef"/><path d="M4780.58,1837.786l-.778-.086-.8,1.159.226.622,1.354.179.653-.4Z" transform="translate(-4746.249 -1822.924)" fill="#ee2b5b"/><path d="M4824.118,2154.772c1.354-.233.521-1.634.762-1.906s2.265-.934,2.615-2.062a1.16,1.16,0,0,1,.343-.42,12.68,12.68,0,0,0-2.708-3.284c-.272.21-.475.365-.591.436a7.405,7.405,0,0,0-2.762,3.618C4821.511,2152.516,4822.756,2155.006,4824.118,2154.772Z" transform="translate(-4785.664 -2108.25)" fill="#fbc3b1"/><path d="M4865.4,2137.694a12.675,12.675,0,0,1,2.708,3.284h0a12.239,12.239,0,0,1,1.082-.856,12.518,12.518,0,0,0-2.8-3.221C4866.006,2137.219,4865.664,2137.484,4865.4,2137.694Z" transform="translate(-4825.926 -2098.843)" fill="#fff"/></g><g transform="translate(158.881)"><path d="M4651.349,556.987,4632.309,546l-.108,37.582,19.04,10.995Z" transform="translate(-4632.2 -546)" fill="#fff"/></g><g transform="translate(39.831 82.868)"><ellipse cx="14.87" cy="5.307" rx="14.87" ry="5.307" transform="translate(0 84.067)" opacity="0.1"/><g transform="translate(2.645)"><path d="M3146.858,1796.914c-.895,2.482-3.283,10.427-3.672,11.7a6.194,6.194,0,0,1-4.786-1.922,66.222,66.222,0,0,1,3.276-11.773c1.082-2.319,4.186-3.642,4.832-3.362C3148.344,1792.369,3147.831,1794.214,3146.858,1796.914Z" transform="translate(-3138.228 -1777.476)" fill="#00a35d"/><path d="M3147.138,1998.328c-.6,1.618-2.972,2.334-2.972,2.334s-7.236-10.481-7.882-11.944a5.465,5.465,0,0,1,.07-2.319,6.139,6.139,0,0,0,4.785,1.922c-.031.117-.054.179-.054.179C3141.473,1991.2,3147.138,1998.328,3147.138,1998.328Z" transform="translate(-3136.189 -1957.19)" fill="#fbc3b1"/><path d="M3315.176,1634.6c2.661.514,3.276.84,3.377,2.762s-.1,5.812-1.689,7.361a4.779,4.779,0,0,1-4.35-3.571C3311.6,1637.673,3315.176,1634.6,3315.176,1634.6Z" transform="translate(-3298.656 -1632.764)" fill="#fbc3b1"/><path d="M3270.647,1722.7l-.747,5.828s2.4,1.657,4.715.848c0,0,.366-3.322,2.093-4.3Z" transform="translate(-3259.496 -1714.009)" fill="#fbc3b1"/><g transform="translate(3.033 40.267)"><path d="M3187.633,2174.027c-1,.28-3.673-.163-5.112-.358s-5.992.56-6.824-.242c-.755-.716-.669-2.342.023-4.341.078-.226.163-.451.257-.685.918-2.319,1.12-8.466,1.4-12.582a18.314,18.314,0,0,1,1.836-6.948s-1.276-10.1-1.759-13.9a9.985,9.985,0,0,1,1.37-6.474l10.489,1.883s-3.953,18.683-4.155,20.4-4.63,17.328-4.513,18.41a.6.6,0,0,0,.179.327c.989,1.105,5.735,2.708,5.735,2.708C3187.75,2172.867,3188.629,2173.747,3187.633,2174.027Z" transform="translate(-3175.165 -2128.5)" fill="#003b51"/><path d="M3187.633,2655.041c-1,.28-3.673-.164-5.112-.358s-5.992.56-6.824-.241c-.755-.716-.669-2.342.023-4.342a6.818,6.818,0,0,0,5.112.443c.988,1.105,5.735,2.708,5.735,2.708C3187.75,2653.882,3188.629,2654.761,3187.633,2655.041Z" transform="translate(-3175.165 -2609.514)" fill="#6b3e18"/></g><g transform="translate(9.671 42.479)"><path d="M3274.995,2204.81c-2.98-.257-9.181-.591-9.609-1.7a7.846,7.846,0,0,1,0-3.237v-.031c-.055-.583-.864-8.715-1.276-10.847-.42-2.21-.171-7.734,1.447-9.26,0,0-5.7-15.811-5.019-19.546s.677-3.245.677-3.245l11.4.537s-.171,18.005-.6,22.51-1.284,19.359-1.284,19.359,7.151,3.68,7.486,4.147S3277.967,2205.067,3274.995,2204.81Z" transform="translate(-3260.482 -2156.928)" fill="#014761"/><path d="M3330.9,2707.562c-2.98-.257-9.182-.591-9.61-1.7a7.854,7.854,0,0,1,0-3.237v-.031a8.523,8.523,0,0,0,5.354-.5s7.151,3.68,7.485,4.147S3333.869,2707.819,3330.9,2707.562Z" transform="translate(-3316.383 -2659.68)" fill="#6b3e18"/></g><path d="M3198.1,1786.392c2.342.288,7.851,2.98,8.5,3.844s2.653,6.069,1.572,13.329a42.427,42.427,0,0,0-.273,12.076s-10.185,2.062-15.11-2.762c0,0,.708-5.688,0-8.287s-2.817-5.742-2.436-11.594S3192.8,1785.746,3198.1,1786.392Z" transform="translate(-3186.103 -1772.612)" fill="#008f52"/><path d="M3356.61,1853.01a15.1,15.1,0,0,0-4.747,2.124c-.941-2.949-2.241-9.174-2.653-11.1-.459-2.14.9-4.326,1.852-4.559,1.494-.374,2.28-.35,3.167,1.587C3354.961,1842.662,3356.2,1850.373,3356.61,1853.01Z" transform="translate(-3332.551 -1821.521)" fill="#00a35d"/><path d="M3396.157,2033.829c-.685.086-1.992-.257-1.828-.654s1.058-.545,1.058-.545.343-1.424.055-1.626-2.171-1.113-2.4-2.568c0,0-7.415-7.306-8.357-9.7-.094-.233-.187-.506-.288-.817a15.1,15.1,0,0,1,4.747-2.124c.086.552.132.887.132.887l5.906,9.843s2.4,1.4,2.77,3.112S3396.842,2033.743,3396.157,2033.829Z" transform="translate(-3365.087 -1984.302)" fill="#fbc3b1"/><path d="M3269.365,1618.508a22.741,22.741,0,0,0,1.191-3.182c.365-1.44,1.509-.677,1.486-1.486s-4.427-4.1-8.178-2.319a2.86,2.86,0,0,0-1.969,1.65c-.381,1.268-1.564,7.182.864,7.991s4.3.062,4.832-.809A8.572,8.572,0,0,1,3269.365,1618.508Z" transform="translate(-3251.537 -1610.999)" fill="#6b461b"/><path d="M3344.2,1687.652s-.023-1.914-1.136-1.65-.731,2.646.677,3.237Z" transform="translate(-3326.369 -1680.143)" fill="#fbc3b1"/></g></g></svg>