<svg xmlns="http://www.w3.org/2000/svg" width="72.927" height="109.073" viewBox="0 0 72.927 109.073"><g transform="translate(0 0)"><path d="M67.99,29.817,17.414.632a4.775,4.775,0,0,0-5.063.2l0,0L1.244,7.245l5.163,7,1.924,2.2V66.557a8.357,8.357,0,0,0,4.174,7.234L50.359,95.676l.387,2.105L58.471,108.6l11.88-6.983.06-.035.08-.047v-.006A3.8,3.8,0,0,0,72.3,98.28v-61A8.614,8.614,0,0,0,67.99,29.817Z" transform="translate(0.623 0)" fill="#f79a70"/><path d="M56.79,34.52,5.616,4.993A3.746,3.746,0,0,0,0,8.239V69.493a8.352,8.352,0,0,0,4.174,7.233l51.166,29.581a3.84,3.84,0,0,0,5.762-3.324l0-61A8.62,8.62,0,0,0,56.79,34.52Z" transform="translate(0 2.246)" fill="#f47835"/><g transform="translate(59.087 34.457)"><path d="M39.458,72.349l-.074.044-.006-.009C39.4,72.369,39.432,72.364,39.458,72.349Z" transform="translate(-39.378 1.756)" fill="#bbcee0"/><path d="M41.357,93.736l0-61a8.489,8.489,0,0,0-.585-2.938l11.869-6.836a8.51,8.51,0,0,1,.539,2.827l0,61a3.794,3.794,0,0,1-1.811,3.253v.007l-.08.045-.06.035L39.45,97.051A3.8,3.8,0,0,0,41.357,93.736Z" transform="translate(-39.342 -22.963)" fill="#d66634"/></g></g><g transform="translate(10.141 27.296)"><g transform="translate(26.953 28.56)"><g transform="translate(0)"><path d="M25.878,37.847c-.266-.506-.695-.753-.959-.554s-.266.773,0,1.278l.032.06a1.312,1.312,0,0,0,.464.512.415.415,0,0,0,.5,0C26.166,38.927,26.153,38.346,25.878,37.847Z" transform="translate(-24.72 -37.224)" fill="#fff"/></g></g><g transform="translate(18.172 20.421)"><path d="M27.43,38.281c-.389-.576-.786-1.119-1.185-1.616-2.251-2.809-4.637-4.49-6.9-4.859-.357-.059-.558.333-.447.873a1.359,1.359,0,0,0,.849,1.085c1.919.314,3.955,1.753,5.885,4.162.341.425.7.912,1.032,1.409a1.234,1.234,0,0,0,.38.377.4.4,0,0,0,.561-.072A1.335,1.335,0,0,0,27.43,38.281Z" transform="translate(-18.869 -31.8)" fill="#fff"/></g><g transform="translate(4.329 6.168)"><path d="M38.217,58.3a22.132,22.132,0,0,1-.747-2.923c.794-2.149.5-5.2-.818-8.6-2.032-5.231-6.2-10.58-9.9-12.718a9.22,9.22,0,0,0-5.591-1.416c-.494-3.891-2.866-8-5.711-9.645-3.2-1.849-5.807.12-5.807,4.389a14.711,14.711,0,0,0,2.776,8.209,2.886,2.886,0,0,1,.654,1.721v5.292a3.3,3.3,0,0,0,1.373,2.624l.234.131a31.259,31.259,0,0,0,4.09,12.559,4.135,4.135,0,0,1-.185,1.651,26.534,26.534,0,0,1-.816,2.537c-.191.528-.354.984-.453,1.344a1.394,1.394,0,0,0,.1.864,1.434,1.434,0,0,0,.548.686l9.681,5.589c.318.183.755.246,1.029-.5a7.748,7.748,0,0,0,.281-1.206c.081-.443.27-1.478.458-1.508a.243.243,0,0,1,.038.024,1.094,1.094,0,0,0,.105.072c1.014.585,1.843,1.125,2.573,1.6,2.144,1.4,3.438,2.239,4.574.714.578-.776.512-2.431.443-4.182a21.7,21.7,0,0,1-.007-2.554,2.925,2.925,0,0,1,.6-.251c.639-.216,1.244-.42,1.244-1.26A14.679,14.679,0,0,0,38.217,58.3ZM13.13,34.46A11.273,11.273,0,0,1,11,28.168c0-3.271,2-4.781,4.451-3.364s4.451,5.231,4.451,8.5c0,2.081-.8,3.516-2.129,3.834a1.519,1.519,0,0,0-1.188,1.251l-1.133-.654-1.131-.653A6.493,6.493,0,0,0,13.13,34.46Zm3.34,5.673v1.322l-2.036-1.176V38.957l2.036,1.176Zm-2.02,3.288a.05.05,0,0,1-.017-.032v-1.3l2.036,1.176v1.3c0,.011-.009.018-.017.014ZM36.969,60.872c-.584.2-1.088.368-1.163,1.023a21.127,21.127,0,0,0-.018,3.031c.051,1.3.11,2.773-.2,3.193-.675.906-1.259.582-3.384-.8-.7-.456-1.571-1.023-2.6-1.621a.9.9,0,0,0-1.514.323,7.1,7.1,0,0,0-.458,1.717,8.814,8.814,0,0,1-.2.927l-8.49-4.9c.03-.083.06-.168.092-.255.977-2.716,1.6-4.764.654-6.394a27.886,27.886,0,0,1-3.634-10.958l.4.233c.758.437,1.373-.029,1.373-1.038V40.058c.041-.558.153-.846.654-.966,1.606-.384,2.612-2.009,2.758-4.394a7.825,7.825,0,0,1,5.514,1.169c3.232,1.865,7,6.707,8.772,11.263.758,1.952,1.49,4.731.674,6.883-.266.7.129,2.113.794,4.361.216.728.528,1.78.611,2.236A3.276,3.276,0,0,1,36.969,60.872Z" transform="translate(-9.643 -22.301)" fill="#fff"/></g><g transform="translate(11.035 11.761)"><path d="M16.541,29.513a7.1,7.1,0,0,0-1.44-3.124c-.333-.42-.741-.483-.914-.138a1.479,1.479,0,0,0,.293,1.386,3.545,3.545,0,0,1,.752,1.591,2.878,2.878,0,0,1-.188,1.76,1.382,1.382,0,0,0,.207,1.368,1.164,1.164,0,0,0,.365.353.4.4,0,0,0,.573-.087A4.745,4.745,0,0,0,16.541,29.513Z" transform="translate(-14.112 -26.028)" fill="#fff"/></g><g transform="translate(9.459 1.042)"><path d="M13.74,18.966c-.375-.216-.678.014-.678.513v2.578a1.625,1.625,0,0,0,.678,1.3c.375.216.678-.014.678-.513V20.263A1.623,1.623,0,0,0,13.74,18.966Z" transform="translate(-13.062 -18.885)" fill="#fff"/></g><g transform="translate(0 8.192)"><path d="M9.37,24.847,7.436,23.731c-.375-.216-.678.014-.678.513a1.625,1.625,0,0,0,.678,1.3L9.37,26.657c.375.216.678-.014.678-.513A1.623,1.623,0,0,0,9.37,24.847Z" transform="translate(-6.758 -23.65)" fill="#fff"/></g><g transform="translate(4.731)"><path d="M12.142,21.853l-.966-2.789c-.188-.54-.6-.929-.926-.866s-.435.551-.248,1.092l.966,2.789a1.494,1.494,0,0,0,.588.792.5.5,0,0,0,.339.074C12.219,22.882,12.33,22.394,12.142,21.853Z" transform="translate(-9.911 -18.191)" fill="#fff"/></g><g transform="translate(1.267 2.617)"><path d="M10.294,22.588,8.619,20.333c-.324-.437-.74-.528-.926-.2a1.43,1.43,0,0,0,.248,1.379l1.675,2.255a1.141,1.141,0,0,0,.339.317.394.394,0,0,0,.588-.113A1.427,1.427,0,0,0,10.294,22.588Z" transform="translate(-7.602 -19.935)" fill="#fff"/></g><g transform="translate(15.978 12.078)"><path d="M20.345,27.112c-.188-.54-.6-.929-.926-.866l-1.675.323c-.324.063-.435.552-.248,1.092a1.494,1.494,0,0,0,.588.792.5.5,0,0,0,.339.074L20.1,28.2C20.422,28.141,20.533,27.652,20.345,27.112Z" transform="translate(-17.406 -26.24)" fill="#fff"/></g><g transform="translate(1.268 14.908)"><path d="M10.543,29c-.188-.54-.6-.927-.926-.866l-1.675.323c-.324.063-.435.551-.249,1.092a1.488,1.488,0,0,0,.588.792.5.5,0,0,0,.339.074l1.675-.323C10.619,30.027,10.73,29.538,10.543,29Z" transform="translate(-7.603 -28.126)" fill="#fff"/></g><g transform="translate(4.73 20.413)"><path d="M11.754,32.193c-.324-.437-.74-.528-.926-.2L10,33.422a1.43,1.43,0,0,0,.248,1.379,1.141,1.141,0,0,0,.339.317A.394.394,0,0,0,11.176,35L12,33.572A1.426,1.426,0,0,0,11.754,32.193Z" transform="translate(-9.91 -31.795)" fill="#fff"/></g><g transform="translate(13.223 5.462)"><path d="M17.554,22.229c-.324-.437-.74-.528-.926-.2L15.661,23.7a1.43,1.43,0,0,0,.248,1.379,1.141,1.141,0,0,0,.339.317.394.394,0,0,0,.588-.113l.966-1.673A1.434,1.434,0,0,0,17.554,22.229Z" transform="translate(-15.57 -21.831)" fill="#fff"/></g></g></svg>