<svg xmlns="http://www.w3.org/2000/svg" width="329.614" height="100.319" viewBox="0 0 329.614 100.319"><g transform="translate(-4.253 -52.006) rotate(7)"><g transform="translate(26.514 25.736)"><path d="M103.6,144.883l-29.224,3.924v-27.78l-13,26.3-7.561,1.014L42.091,128.25v24.891l-14.1,1.893V86.817l20.729-2.783,14.7,22.664L77.431,80.179,103.6,76.666v68.217Z" transform="translate(-27.989 -45.453)" fill="none" stroke="#0a332f" stroke-linecap="round" stroke-linejoin="round" stroke-miterlimit="10" stroke-width="10"/><path d="M285.75,122.679l-30.583,4.106q-.17-.487-3.738-10.117l-15.631,2.1-3.738,11.121-15.631,2.1,24.3-71.48,20.9-2.805ZM247.012,104.6l-3.4-8.974L240.3,105.5Z" transform="translate(-97.497 -38.458)" fill="none" stroke="#0a332f" stroke-linecap="round" stroke-linejoin="round" stroke-miterlimit="10" stroke-width="10"/><path d="M406.447,104.222l-29.224,3.924V80.366l-13,26.3-7.56,1.015L344.942,87.588V112.48l-14.1,1.893V46.156l20.728-2.783,14.7,22.664,14.018-26.519L406.447,36Z" transform="translate(-139.699 -30.455)" fill="none" stroke="#0a332f" stroke-linecap="round" stroke-linejoin="round" stroke-miterlimit="10" stroke-width="10"/><path d="M190.348,72.9V67.881l-18.7,2.511-14.57,1.957h0l-4.13.554v5.021l4.13-.555v58.252l-4.13.554V141.2l4.13-.554v.008l29.139-3.912v-.009l4.13-.555v-5.021l-4.13.554V73.457Z" transform="translate(-74.082 -42.213)" fill="none" stroke="#0a332f" stroke-linecap="round" stroke-linejoin="round" stroke-miterlimit="10" stroke-width="10"/><path d="M493.2,32.232V27.211l-37.4,5.021v5.021l4.13-.555V94.951l-4.13.554v5.021l4.13-.554v.014l29.138-3.912v-.015L493.2,95.5V90.484l-4.129.554V32.787Z" transform="translate(-185.792 -27.211)" fill="none" stroke="#0a332f" stroke-linecap="round" stroke-linejoin="round" stroke-miterlimit="10" stroke-width="10"/></g><g transform="translate(26.514 25.736)"><path d="M103.6,144.883l-29.224,3.924v-27.78l-13,26.3-7.561,1.014L42.091,128.25v24.891l-14.1,1.893V86.817l20.729-2.783,14.7,22.664L77.431,80.179,103.6,76.666v68.217Z" transform="translate(-27.989 -45.453)" fill="#f69dbb"/><path d="M285.75,122.679l-30.583,4.106q-.17-.487-3.738-10.117l-15.631,2.1-3.738,11.121-15.631,2.1,24.3-71.48,20.9-2.805ZM247.012,104.6l-3.4-8.974L240.3,105.5Z" transform="translate(-97.497 -38.458)" fill="#f69dbb"/><path d="M406.447,104.222l-29.224,3.924V80.366l-13,26.3-7.56,1.015L344.942,87.588V112.48l-14.1,1.893V46.156l20.728-2.783,14.7,22.664,14.018-26.519L406.447,36Z" transform="translate(-139.699 -30.455)" fill="#f69dbb"/><path d="M190.348,72.9V67.881l-18.7,2.511-14.57,1.957h0l-4.13.554v5.021l4.13-.555v58.252l-4.13.554V141.2l4.13-.554v.008l29.139-3.912v-.009l4.13-.555v-5.021l-4.13.554V73.457Z" transform="translate(-74.082 -42.213)" fill="#f69dbb"/><path d="M493.2,32.232V27.211l-37.4,5.021v5.021l4.13-.555V94.951l-4.13.554v5.021l4.13-.554v.014l29.138-3.912v-.015L493.2,95.5V90.484l-4.129.554V32.787Z" transform="translate(-185.792 -27.211)" fill="#f69dbb"/></g><g transform="translate(26.513 25.736)"><path d="M52.031,89.583l14.7,22.663L80.744,85.728,103.6,82.66V76.665L77.431,80.179,63.414,106.7l-14.7-22.664L27.988,86.816v68.218l3.313-.445V92.366Z" transform="translate(-27.988 -45.453)" fill="#f2788f"/><path d="M263.743,63.41l-2.12-5.71-20.9,2.806-24.3,71.48,5.449-.731,22.161-65.2Z" transform="translate(-97.496 -38.457)" fill="#f2788f"/><path d="M354.881,48.922l14.7,22.664L383.6,45.067,406.447,42V36l-26.165,3.513L366.265,66.036l-14.7-22.663L330.84,46.155v68.217l3.313-.444V51.7Z" transform="translate(-139.698 -30.454)" fill="#f2788f"/><path d="M157.111,92.152v52.257l-4.076.547v5.021l4.076-.547v.008l3.313-.445V91.707Z" transform="translate(-74.113 -51.001)" fill="#f2788f"/><path d="M174.963,75.941l11.256-1.512v-.973l4.13-.555V67.881l-18.7,2.511-14.57,1.957-4.13.554v5.021l4.13-.555v.973l3.313-.445Z" transform="translate(-74.082 -42.213)" fill="#f2788f"/><path d="M459.961,51.482v52.257l-4.076.547v5.021l4.076-.547v.014l3.313-.445V51.037Z" transform="translate(-185.822 -35.999)" fill="#f2788f"/><path d="M489.069,32.787l4.129-.555V27.211l-37.4,5.021v5.021l4.13-.555v.973l29.138-3.912Z" transform="translate(-185.791 -27.211)" fill="#f2788f"/><path d="M152.95,176.084v5.021L153,181.1v-5.021Z" transform="translate(-74.082 -82.122)" fill="#f2788f"/><path d="M455.8,135.414v5.021l.054-.007v-5.021Z" transform="translate(-185.791 -67.12)" fill="#f2788f"/></g><g transform="translate(23.989 23.211)"><g transform="translate(0 31.212)"><path d="M102.122,75.19v68.217L72.9,147.331v-27.78l-13,26.3-7.561,1.014L40.616,126.773v24.891l-14.1,1.893V85.341l20.729-2.783,14.7,22.664L75.956,78.7l26.166-3.514m0-2.525a2.5,2.5,0,0,0-.336.023L75.621,76.2a2.524,2.524,0,0,0-1.9,1.322L61.717,100.239,49.36,81.185a2.521,2.521,0,0,0-2.454-1.128L26.178,82.839a2.525,2.525,0,0,0-2.189,2.5v68.217a2.522,2.522,0,0,0,2.86,2.5l14.1-1.893a2.525,2.525,0,0,0,2.189-2.5V136.108l7.018,12.026a2.521,2.521,0,0,0,2.516,1.229l7.561-1.014a2.526,2.526,0,0,0,1.928-1.383l8.21-16.61v16.975a2.524,2.524,0,0,0,2.524,2.525,2.5,2.5,0,0,0,.336-.023l29.224-3.924a2.525,2.525,0,0,0,2.189-2.5V75.19a2.524,2.524,0,0,0-2.523-2.525Z" transform="translate(-23.989 -72.665)" fill="#fff"/></g><g transform="translate(118.93 19.243)"><path d="M260.146,56.225,284.273,121.2l-30.583,4.106q-.17-.487-3.738-10.117l-15.631,2.1-3.738,11.121-15.631,2.1,24.3-71.48,20.9-2.806m-21.323,47.8,6.712-.9-3.4-8.974-3.314,9.875M260.148,53.7a2.551,2.551,0,0,0-.338.023l-20.9,2.805a2.525,2.525,0,0,0-2.054,1.69l-24.3,71.48a2.523,2.523,0,0,0,2.727,3.314l15.631-2.1a2.525,2.525,0,0,0,2.057-1.7l3.238-9.632,12.072-1.62c2.479,6.692,2.963,8.014,3.021,8.18a2.522,2.522,0,0,0,2.719,1.668l30.583-4.106a2.525,2.525,0,0,0,2.031-3.381L262.513,55.346a2.526,2.526,0,0,0-2.366-1.646Z" transform="translate(-212.426 -53.7)" fill="#fff"/></g><g transform="translate(191.142 5.55)"><path d="M404.972,34.529v68.217l-29.224,3.924V78.89l-13,26.3L355.19,106.2,343.467,86.112V111l-14.1,1.893V44.68L350.093,41.9l14.7,22.664,14.018-26.519,26.165-3.514m0-2.525a2.5,2.5,0,0,0-.336.023L378.471,35.54a2.524,2.524,0,0,0-1.9,1.322L364.568,59.578,352.212,40.523a2.521,2.521,0,0,0-2.454-1.128L329.03,42.177a2.525,2.525,0,0,0-2.189,2.5V112.9a2.524,2.524,0,0,0,2.524,2.525,2.5,2.5,0,0,0,.336-.023l14.1-1.893a2.525,2.525,0,0,0,2.189-2.5V95.447l7.018,12.026a2.521,2.521,0,0,0,2.516,1.229l7.56-1.015a2.525,2.525,0,0,0,1.927-1.383l8.21-16.61v16.975a2.524,2.524,0,0,0,2.524,2.525,2.5,2.5,0,0,0,.336-.023l29.224-3.924a2.525,2.525,0,0,0,2.189-2.5V34.529A2.524,2.524,0,0,0,404.972,32Z" transform="translate(-326.841 -32.004)" fill="#fff"/></g><g transform="translate(78.868 25.668)"><path d="M188.873,66.406v5.021l-4.13.555v58.252l4.13-.555V134.7l-4.13.554v.009L155.6,139.175v-.009l-4.13.555V134.7l4.13-.554V75.893l-4.13.554V71.426l4.13-.554,14.569-1.956,18.7-2.511m0-2.525a2.5,2.5,0,0,0-.336.023l-18.7,2.511L155.269,68.37l-4.13.554a2.525,2.525,0,0,0-2.189,2.5v5.021a2.524,2.524,0,0,0,2.524,2.525,2.5,2.5,0,0,0,.336-.023l1.269-.17v53.157l-1.941.261a2.525,2.525,0,0,0-2.189,2.5v5.021a2.522,2.522,0,0,0,2.86,2.5l3.924-.527c.069,0,.137-.01.206-.019l29.139-3.912c.071-.009.14-.022.209-.037l3.921-.526a2.525,2.525,0,0,0,2.189-2.5v-5.021a2.523,2.523,0,0,0-2.86-2.5l-1.269.17V74.189l1.941-.261a2.525,2.525,0,0,0,2.189-2.5V66.406a2.524,2.524,0,0,0-2.524-2.525Z" transform="translate(-148.95 -63.881)" fill="#fff"/></g><g transform="translate(270.007)"><path d="M491.722,25.736v5.021l-4.13.554V89.563l4.13-.554V94.03l-4.13.555V94.6l-29.138,3.912V98.5l-4.13.555V94.03l4.13-.555V35.223l-4.13.555V30.757l37.4-5.021m0-2.525a2.5,2.5,0,0,0-.336.023l-37.4,5.021a2.525,2.525,0,0,0-2.189,2.5v5.021a2.524,2.524,0,0,0,2.524,2.525,2.5,2.5,0,0,0,.336-.023l1.269-.17V91.267l-1.941.261a2.525,2.525,0,0,0-2.189,2.5v5.021a2.522,2.522,0,0,0,2.86,2.5l3.866-.519a2.492,2.492,0,0,0,.264-.021L487.926,97.1a2.433,2.433,0,0,0,.266-.051l3.864-.519a2.525,2.525,0,0,0,2.189-2.5V89.008a2.524,2.524,0,0,0-2.524-2.525,2.5,2.5,0,0,0-.336.023l-1.269.17V33.519l1.941-.261a2.525,2.525,0,0,0,2.189-2.5V25.736a2.524,2.524,0,0,0-2.524-2.525Z" transform="translate(-451.798 -23.211)" fill="#fff"/></g></g></g></svg>