<svg xmlns="http://www.w3.org/2000/svg" width="162.664" height="53.255" viewBox="0 0 162.664 53.255">
  <g id="mixpanel" transform="translate(0 -0.001)">
    <g id="Grupo_276" data-name="Grupo 276" transform="translate(0.384 39.122)">
      <circle id="Elipse_13" data-name="Elipse 13" cx="7.067" cy="7.067" r="7.067" transform="translate(0 0)" fill="#33547d"/>
      <circle id="Elipse_14" data-name="Elipse 14" cx="4.998" cy="4.998" r="4.998" transform="translate(27.578 2.146)" fill="#33547d"/>
      <circle id="Elipse_15" data-name="Elipse 15" cx="2.269" cy="2.269" r="2.269" transform="translate(51.334 4.875)" fill="#33547d"/>
    </g>
    <path id="Trazado_1010" data-name="Trazado 1010" d="M31.613,31.383A2.131,2.131,0,0,1,29.45,29.22v-9.2c0-3.175-1.518-5.614-4.924-5.614a5.388,5.388,0,0,0-5.476,5.66V29.22a2.077,2.077,0,0,1-2.163,2.163,2.1,2.1,0,0,1-2.163-2.163v-9.2c0-3.175-1.657-5.614-5.062-5.614-3.5,0-5.338,2.623-5.338,5.66V29.22a2.1,2.1,0,0,1-2.163,2.163A2.132,2.132,0,0,1,0,29.22V12.885a2.065,2.065,0,0,1,2.163-2.209,2.038,2.038,0,0,1,2.163,2.209v1.473a7.208,7.208,0,0,1,6.488-3.865,7.6,7.6,0,0,1,7.041,4.1,8.664,8.664,0,0,1,7.684-4.1c5.568,0,8.237,3.82,8.237,9.2V29.22a2.1,2.1,0,0,1-2.162,2.163Zm8.237-28.9a2.531,2.531,0,1,1-2.531,2.531A2.553,2.553,0,0,1,39.85,2.485Zm0,28.9a2.1,2.1,0,0,1-2.163-2.163V12.839a2.163,2.163,0,1,1,4.326,0V29.22a2.1,2.1,0,0,1-2.163,2.163ZM54.206,18.131l5.476-6.81a1.817,1.817,0,0,1,1.427-.644,1.837,1.837,0,0,1,1.978,1.887,1.815,1.815,0,0,1-.506,1.242l-6.028,7.178,6.12,7.224a1.809,1.809,0,0,1,.506,1.289,1.934,1.934,0,0,1-1.933,1.887,1.837,1.837,0,0,1-1.518-.691l-5.522-6.856-5.522,6.856a1.84,1.84,0,0,1-1.519.691A1.935,1.935,0,0,1,45.233,29.5a1.809,1.809,0,0,1,.506-1.289l6.12-7.224-6.028-7.178a1.814,1.814,0,0,1-.506-1.242A1.837,1.837,0,0,1,47.3,10.676a1.819,1.819,0,0,1,1.426.644l5.476,6.81ZM77.812,31.567a8.274,8.274,0,0,1-7.086-3.957V37.826a2.163,2.163,0,0,1-4.326,0V12.839a2,2,0,0,1,2.071-2.163,2.077,2.077,0,0,1,2.117,2.209V14.45a8.3,8.3,0,0,1,7.224-3.958c5.292,0,9.617,4.417,9.617,10.538C87.429,27.38,83.1,31.567,77.812,31.567Zm-.874-17.486c-3.727,0-6.212,3.267-6.212,6.948s2.485,6.948,6.212,6.948S83.1,25.172,83.1,21.03,80.665,14.081,76.938,14.081ZM110.253,29.22a2.14,2.14,0,1,1-4.279,0V28.208a7.991,7.991,0,0,1-6.718,3.359c-6.443,0-10.17-4.693-10.17-10.538a10.249,10.249,0,0,1,10.63-10.537c6.626,0,10.538,4.325,10.538,10.537V29.22h0ZM99.67,14.173c-3.681,0-6.259,3.084-6.259,6.856,0,3.958,2.163,6.857,6.259,6.857,3.819,0,6.258-3.267,6.258-6.857,0-4.233-2.576-6.856-6.258-6.856Zm23.607-3.681a9.452,9.452,0,0,1,9.662,9.617v9.111a2.163,2.163,0,1,1-4.326,0V19.6a5.317,5.317,0,0,0-10.629,0v9.617a2.163,2.163,0,1,1-4.326,0V20.11A9.414,9.414,0,0,1,123.276,10.493Zm32.164,10.583c0,.736-.414,1.473-1.656,1.473H140.026c.23,3.175,2.393,5.567,6.211,5.567a7.07,7.07,0,0,0,5.338-2.255A2.113,2.113,0,0,1,153,25.17a1.741,1.741,0,0,1,1.795,1.795,1.921,1.921,0,0,1-.552,1.242,11.022,11.022,0,0,1-8.191,3.36c-6.857,0-10.493-4.786-10.493-10.538a10.148,10.148,0,0,1,10.307-10.537c5.8,0,9.572,4.695,9.572,10.585Zm-9.571-7.132a5.715,5.715,0,0,0-5.752,5.108h11.319a5.608,5.608,0,0,0-5.567-5.108ZM160.5,31.383a2.1,2.1,0,0,1-2.163-2.163V2.164a2.162,2.162,0,1,1,4.325,0V29.22a2.1,2.1,0,0,1-2.162,2.163Z" fill="#33547d"/>
  </g>
</svg>
