<svg xmlns="http://www.w3.org/2000/svg" width="14.833" height="19" viewBox="0 0 14.833 19"><g transform="translate(-55.323 0)"><path d="M162.268,161.452l-5.726,2.6,4.628,10.205,2.492-2.106,3.219-.475Z" transform="translate(-97.407 -155.372)" fill="#2b414d"/><path d="M77.676,164.209l5.726,2.6-4.628,10.22L76.282,174.9l-3.234-.475Z" transform="translate(-17.057 -158.025)" fill="#475f6c"/><path d="M70.156,7.43c0,.549-.786,1.009-.9,1.528s.4,1.29.178,1.78-1.142.549-1.468.964-.178,1.335-.593,1.676-1.246-.015-1.721.223-.727,1.127-1.246,1.246-1.112-.564-1.646-.564-1.142.682-1.646.564-.771-1.009-1.246-1.246-1.32.119-1.721-.223-.267-1.261-.593-1.676-1.231-.475-1.468-.964.3-1.246.178-1.78c-.148-.519-.934-.979-.934-1.528s.786-1.009.9-1.528-.4-1.29-.178-1.78,1.142-.549,1.468-.964.178-1.335.593-1.676,1.246.015,1.721-.223S60.559.132,61.078.014s1.112.564,1.646.564S63.867-.1,64.371.014s.771,1.009,1.246,1.246,1.32-.119,1.721.223.267,1.261.593,1.676,1.231.475,1.468.964-.3,1.246-.178,1.78C69.37,6.422,70.156,6.881,70.156,7.43Z" transform="translate(0 0)" fill="#efc75e"/><path d="M115.8,57.88a2.967,2.967,0,1,0,2.967,2.967A2.966,2.966,0,0,0,115.8,57.88Zm0,4.3a1.335,1.335,0,1,1,1.335-1.335A1.329,1.329,0,0,1,115.8,62.182Zm0-6.675a5.34,5.34,0,1,0,5.34,5.34A5.337,5.337,0,0,0,115.8,55.507Zm0,9.79a4.45,4.45,0,1,1,4.45-4.45A4.444,4.444,0,0,1,115.8,65.3Z" transform="translate(-53.062 -53.417)" fill="#d7b354"/></g></svg>