<svg xmlns="http://www.w3.org/2000/svg" width="1168" height="160.363" viewBox="0 0 1168 160.363"><g transform="translate(-4.244 -4.079)"><path d="M1142.279,4.079H35.716c-.321,15.794-7.606,31.2-31.472,31.2l.578,100.615c28.948,0,28.689,12.808,28.37,28.55H1139.03c.321-15.794.578-28.55,31.121-28.55l2.094-103.263C1142.553,32.627,1141.958,19.871,1142.279,4.079Z" transform="translate(0 0)" fill="#e28546"/><g transform="translate(37.009 27.556)"><path d="M45.055,76.214h-11.8l-.726-1.269a40.611,40.611,0,0,0-5.264-7.334l3.95-2.909a43.321,43.321,0,0,1,5.129,6.925h8.67v4.59h.043Z" transform="translate(-10.751 41.594)" fill="#fff"/><path d="M28.766,69.154c-.409-.409-.771-.779-1.224-1.188l3.676-3.2c.454.452.908.861,1.361,1.31Zm-2.5-2.335c-.409-.368-.863-.739-1.317-1.107l3.4-3.442c.5.409,1,.82,1.451,1.229Z" transform="translate(-13.387 38.82)" fill="#fff"/><path d="M29.416,71.98a45.981,45.981,0,0,0-8.124-4.752l-1.406-.655V55.878h5.129v7.908a48.713,48.713,0,0,1,7.67,4.63Z" transform="translate(-19.167 31.529)" fill="#fff"/><path d="M24.679,37.953H19.55V27.258l1.406-.655a44.422,44.422,0,0,0,8.124-4.752l3.222,3.6a48.875,48.875,0,0,1-7.67,4.63v7.867Z" transform="translate(-19.55 -7.284)" fill="#fff"/><path d="M28.043,26.687l-3.4-3.442c.454-.368.863-.739,1.317-1.107L29.5,25.456C29,25.867,28.541,26.276,28.043,26.687Zm2.858-2.5-3.723-3.2c.409-.368.818-.779,1.224-1.188l3.857,3.074C31.808,23.286,31.354,23.738,30.9,24.187Z" transform="translate(-13.745 -9.62)" fill="#fff"/><path d="M30.9,26.741l-3.95-2.909A40.61,40.61,0,0,0,32.213,16.5l.726-1.269H44.785v4.63H36.028A47.071,47.071,0,0,1,30.9,26.741Z" transform="translate(-11.11 -14.837)" fill="#fff"/><path d="M530.223,26.6a43.328,43.328,0,0,1-5.129-6.925h-8.67v-4.63H528.27L529,16.315a38.527,38.527,0,0,0,5.264,7.334Z" transform="translate(547.213 -15.046)" fill="#fff"/><path d="M527.729,26.524c-.5-.409-1-.82-1.451-1.229l3.541-3.318c.409.368.863.739,1.317,1.107Zm-2.9-2.5c-.454-.452-.908-.861-1.361-1.31l3.813-3.074c.409.409.818.779,1.224,1.188Z" transform="translate(555.242 -9.806)" fill="#fff"/><path d="M538.934,37.769H533.8V29.943a50.852,50.852,0,0,1-7.67-4.63l3.222-3.6a45.986,45.986,0,0,0,8.124,4.752l1.406.655V37.769h.047Z" transform="translate(558.29 -7.447)" fill="#fff"/><path d="M529.357,72.145l-3.222-3.6a48.872,48.872,0,0,1,7.67-4.63V56.084h5.129V66.779l-1.406.655A42.246,42.246,0,0,0,529.357,72.145Z" transform="translate(558.29 31.764)" fill="#fff"/><path d="M527.3,69.34l-3.858-3.074c.454-.452.908-.9,1.361-1.31l3.723,3.2A15.486,15.486,0,0,0,527.3,69.34ZM529.75,67l-3.541-3.318c.5-.409.953-.82,1.451-1.229l3.4,3.442C530.613,66.268,530.2,66.637,529.75,67Z" transform="translate(555.218 39.035)" fill="#fff"/><path d="M528.227,76.424H516.381v-4.63h8.67a45.294,45.294,0,0,1,5.129-6.925l3.995,2.909a40.6,40.6,0,0,0-5.264,7.334Z" transform="translate(547.164 41.785)" fill="#fff"/><path d="M527.355,72.734H515.781V68.1h11.575Zm-23.192,0H492.589V68.1h11.574Z" transform="translate(520.025 45.475)" fill="#fff"/><path d="M534.467,34.476V46.051h-4.63V34.476Zm0,23.192V69.242h-4.63V57.668Z" transform="translate(562.512 7.117)" fill="#fff"/><path d="M24.541,34.721V46.3h-4.63V34.721Zm0,23.192V69.487h-4.63V57.913Z" transform="translate(-19.138 7.396)" fill="#fff"/><path d="M518.044,72.734H506.469V68.1h11.575Zm-23.194,0H483.275V68.1h11.575Zm-23.147,0H460.128V68.1H471.7Z" transform="translate(482.998 45.475)" fill="#fff"/><path d="M472.35,72.734H460.776V68.1H472.35Zm-23.192,0H437.584V68.1h11.575Z" transform="translate(457.283 45.475)" fill="#fff"/><path d="M463.038,72.734H451.464V68.1h11.575Zm-23.194,0H428.27V68.1h11.575Zm-23.147,0H405.123V68.1H416.7Z" transform="translate(420.256 45.475)" fill="#fff"/><path d="M418.534,72.734H406.96V68.1h11.575Zm-23.192,0H383.768V68.1h11.575Z" transform="translate(395.898 45.475)" fill="#fff"/><path d="M409.222,72.734H397.648V68.1h11.575Zm-23.194,0H374.454V68.1h11.575Zm-23.147,0H351.307V68.1h11.575Z" transform="translate(358.871 45.475)" fill="#fff"/><path d="M364.718,72.734H353.144V68.1h11.575Zm-23.192,0H329.952V68.1h11.575Z" transform="translate(334.512 45.475)" fill="#fff"/><path d="M355.406,72.734H343.832V68.1h11.575Zm-23.194,0H320.638V68.1h11.575Zm-23.147,0H297.491V68.1h11.575Z" transform="translate(297.485 45.475)" fill="#fff"/><path d="M311.118,72.734H299.544V68.1h11.575Zm-23.192,0H276.352V68.1h11.575Z" transform="translate(273.373 45.475)" fill="#fff"/><path d="M301.806,72.734H290.232V68.1h11.575Zm-23.194,0H267.038V68.1h11.575Zm-23.147,0H243.891V68.1h11.575Z" transform="translate(236.346 45.475)" fill="#fff"/><path d="M257.41,72.734H245.836V68.1H257.41Zm-23.192,0H222.644V68.1h11.575Z" transform="translate(212.111 45.475)" fill="#fff"/><path d="M248.1,72.734H236.524V68.1H248.1Zm-23.194,0H213.33V68.1H224.9Zm-23.147,0H190.183V68.1h11.575Z" transform="translate(175.084 45.475)" fill="#fff"/><path d="M204.353,72.734H192.778V68.1h11.575Zm-23.194,0H169.584V68.1h11.575Z" transform="translate(151.587 45.475)" fill="#fff"/><path d="M195.037,72.734H183.463V68.1h11.575Zm-23.192,0H160.271V68.1h11.575Zm-23.147,0H137.124V68.1H148.7Z" transform="translate(114.562 45.475)" fill="#fff"/><path d="M151.71,72.734H140.135V68.1H151.71Zm-23.194,0H116.941V68.1h11.575Z" transform="translate(91.54 45.475)" fill="#fff"/><path d="M142.394,72.734H130.82V68.1h11.575Zm-23.192,0H107.628V68.1H119.2Zm-23.147,0H84.481V68.1H96.056Z" transform="translate(54.514 45.475)" fill="#fff"/><path d="M98.342,72.734H86.768V68.1H98.342Zm-23.192,0H63.576V68.1H75.151Z" transform="translate(30.669 45.475)" fill="#fff"/><path d="M76.7,72.734H65.122V68.1H76.7Zm-23.194,0H41.928V68.1H53.5Z" transform="translate(5.976 45.475)" fill="#fff"/><path d="M528.4,19.676H516.823v-4.63H528.4Zm-23.194,0H493.629v-4.63H505.2Z" transform="translate(521.211 -15.046)" fill="#fff"/><path d="M519.083,19.676H507.509v-4.63h11.575Zm-23.192,0H484.317v-4.63h11.575Zm-23.149,0H461.168v-4.63h11.575Z" transform="translate(484.184 -15.046)" fill="#fff"/><path d="M473.391,19.676H461.817v-4.63h11.575Zm-23.192,0H438.625v-4.63H450.2Z" transform="translate(458.471 -15.046)" fill="#fff"/><path d="M464.077,19.676H452.5v-4.63h11.575Zm-23.192,0H429.311v-4.63h11.575Zm-23.147,0H406.164v-4.63h11.575Z" transform="translate(421.444 -15.046)" fill="#fff"/><path d="M419.577,19.676H408v-4.63h11.575Zm-23.194,0H384.808v-4.63h11.575Z" transform="translate(397.084 -15.046)" fill="#fff"/><path d="M410.261,19.676H398.687v-4.63h11.575Zm-23.192,0H375.495v-4.63h11.575Zm-23.147,0H352.348v-4.63h11.575Z" transform="translate(360.058 -15.046)" fill="#fff"/><path d="M365.761,19.676H354.186v-4.63h11.575Zm-23.194,0H330.992v-4.63h11.575Z" transform="translate(335.698 -15.046)" fill="#fff"/><path d="M356.445,19.676H344.871v-4.63h11.575Zm-23.192,0H321.679v-4.63h11.575Zm-23.147,0H298.532v-4.63h11.575Z" transform="translate(298.673 -15.046)" fill="#fff"/><path d="M312.161,19.676H300.586v-4.63h11.575Zm-23.194,0H277.392v-4.63h11.575Z" transform="translate(274.559 -15.046)" fill="#fff"/><path d="M302.845,19.676H291.271v-4.63h11.575Zm-23.192,0H268.079v-4.63h11.575Zm-23.147,0H244.932v-4.63h11.575Z" transform="translate(237.533 -15.046)" fill="#fff"/><path d="M258.451,19.676H246.877v-4.63h11.575Zm-23.192,0H223.685v-4.63H235.26Z" transform="translate(213.298 -15.046)" fill="#fff"/><path d="M249.137,19.676H237.563v-4.63h11.575Zm-23.192,0H214.371v-4.63h11.575Zm-23.147,0H191.224v-4.63H202.8Z" transform="translate(176.271 -15.046)" fill="#fff"/><path d="M205.391,19.676H193.817v-4.63h11.575Zm-23.192,0H170.625v-4.63H182.2Z" transform="translate(152.775 -15.046)" fill="#fff"/><path d="M196.079,19.676H184.5v-4.63h11.575Zm-23.194,0H161.311v-4.63h11.575Zm-23.147,0H138.164v-4.63h11.575Z" transform="translate(115.748 -15.046)" fill="#fff"/><path d="M152.748,19.676H141.174v-4.63h11.575Zm-23.192,0H117.982v-4.63h11.575Z" transform="translate(92.727 -15.046)" fill="#fff"/><path d="M143.436,19.676H131.862v-4.63h11.575Zm-23.194,0H108.668v-4.63h11.575Zm-23.147,0H85.521v-4.63H97.1Z" transform="translate(55.7 -15.046)" fill="#fff"/><path d="M99.383,19.676H87.809v-4.63H99.383Zm-23.192,0H64.617v-4.63H76.192Z" transform="translate(31.856 -15.046)" fill="#fff"/><path d="M77.735,19.676H66.161v-4.63H77.735Zm-23.192,0H42.969v-4.63H54.544Z" transform="translate(7.163 -15.046)" fill="#fff"/></g></g></svg>