<svg xmlns="http://www.w3.org/2000/svg" width="2032" height="638.169" viewBox="0 0 2032 638.169"><g transform="translate(143.249 -8.195)"><g transform="translate(12.751 8.195)"><g transform="translate(1081.596 146.338)"><path d="M561.84,161.821a5.607,5.607,0,0,0-5.2-3.994,5.115,5.115,0,0,0-2.055.437,5.549,5.549,0,0,0-5.038-3.547,5.1,5.1,0,0,0-1.511.234l-.311-.139a7.86,7.86,0,0,0,.092-1.146c0-3.954-2.913-7.158-6.509-7.158a5.967,5.967,0,0,0-1.755.271,10.905,10.905,0,0,0-10.024-7.352,10.054,10.054,0,0,0-5.324,1.541,17.5,17.5,0,0,0-12.512-4.444,12.883,12.883,0,0,0,.738-4.29c0-6.569-4.842-11.9-10.814-11.9a9.965,9.965,0,0,0-4.8,1.248c-2.4-9.174-10.076-15.89-19.185-15.89-8.714,0-16.121,6.144-18.845,14.7a9.837,9.837,0,0,0-1.121-.065,10.628,10.628,0,0,0-9.179,5.627,10.309,10.309,0,0,0-6.41-2.272c-5.08,0-9.348,3.783-10.628,8.923a24.132,24.132,0,0,0-10.628,6.756,10.345,10.345,0,0,0-6.76-2.563c-5.535,0-10.1,4.491-10.889,10.337a5.978,5.978,0,0,0-2.672-.636,6.613,6.613,0,0,0-6.206,5,5.106,5.106,0,0,0-2.207-.5,5.824,5.824,0,0,0-5.545,5.871l-.313.082a11.162,11.162,0,0,0-2.389-.261,11.75,11.75,0,0,0-9.544,5.123H561.84Z" transform="translate(-374.291 -105.697)" fill="#e2e2e2"/></g><g transform="translate(-156 408.008)"><path d="M200.3,205.543a5.607,5.607,0,0,0-5.2-3.994,5.114,5.114,0,0,0-2.055.437A5.549,5.549,0,0,0,188,198.44a5.1,5.1,0,0,0-1.511.234l-.311-.139a7.858,7.858,0,0,0,.092-1.146c0-3.954-2.913-7.158-6.509-7.158a5.967,5.967,0,0,0-1.755.271,10.905,10.905,0,0,0-10.024-7.352,10.054,10.054,0,0,0-5.324,1.541,17.5,17.5,0,0,0-12.512-4.444,12.881,12.881,0,0,0,.738-4.29c0-6.569-4.842-11.9-10.814-11.9a9.965,9.965,0,0,0-4.8,1.248c-2.4-9.174-10.076-15.89-19.185-15.89-8.714,0-16.121,6.144-18.845,14.7a9.837,9.837,0,0,0-1.121-.065,10.628,10.628,0,0,0-9.179,5.627,10.309,10.309,0,0,0-6.41-2.272c-5.08,0-9.348,3.783-10.628,8.923a24.133,24.133,0,0,0-10.628,6.756,10.345,10.345,0,0,0-6.76-2.563c-5.535,0-10.1,4.491-10.889,10.337a5.977,5.977,0,0,0-2.672-.636,6.613,6.613,0,0,0-6.206,5,5.106,5.106,0,0,0-2.207-.5A5.824,5.824,0,0,0,25,200.6l-.313.082a11.165,11.165,0,0,0-2.389-.261,11.751,11.751,0,0,0-9.544,5.123H200.3Z" transform="translate(-12.751 -149.419)" fill="#e2e2e2"/></g><g transform="translate(945.284 408.395)" opacity="0.26"><path d="M646.454,175.836a19.033,19.033,0,0,1,18.74,22.262,33.084,33.084,0,0,1,31.588,1.635,35.9,35.9,0,0,1,68.4,7.407,23.3,23.3,0,0,1,34.339,20.513,23.429,23.429,0,0,1-.53,4.959c.567.313,1.121.641,1.665.989a33.992,33.992,0,0,1,42.283-5.08A30.191,30.191,0,0,1,900.3,241.149a37.617,37.617,0,0,1,32.125,3.524,43.509,43.509,0,0,1,78.238,2.635,28.219,28.219,0,0,1,13.081,6.773,37.687,37.687,0,0,1,54.812,7.794,44.214,44.214,0,0,1,72.67-3.592,34.94,34.94,0,0,1,53.634,9.107,32.091,32.091,0,0,1,58.642,18.02v65.127H437.257v-3.47a50.4,50.4,0,0,1-19.578-93.307,36.372,36.372,0,0,1,61.339-34.841,41.872,41.872,0,0,1,53.542-20.468,32.569,32.569,0,0,1,63.732-.209,33.083,33.083,0,0,1,31.2-4.765A19.018,19.018,0,0,1,646.454,175.836Z" transform="translate(-393.075 -172.508)" fill="#44c5ee" fill-rule="evenodd"/></g><path d="M805.947,98.567l-60.064,9.688L542.495,343.289l60.536,36.1Z" transform="translate(774.167 126.05)" fill="#44c5ee" fill-rule="evenodd"/><path d="M741.57,92.144l15.9,58.727L627,432.981l-57.819-40.307Z" transform="translate(813.814 116.509)" fill="#44c5ee" fill-rule="evenodd"/><path d="M1034.384,175.836a19.033,19.033,0,0,0-18.74,22.262,33.084,33.084,0,0,0-31.588,1.635,35.9,35.9,0,0,0-68.405,7.407,23.3,23.3,0,0,0-34.339,20.513,23.437,23.437,0,0,0,.529,4.959c-.567.313-1.121.641-1.665.989a33.992,33.992,0,0,0-42.283-5.08,30.191,30.191,0,0,0-57.357,12.629,37.617,37.617,0,0,0-32.125,3.524,43.509,43.509,0,0,0-78.238,2.635,28.218,28.218,0,0,0-13.081,6.773,37.687,37.687,0,0,0-54.812,7.794,44.213,44.213,0,0,0-72.67-3.592,34.94,34.94,0,0,0-53.634,9.107,32.091,32.091,0,0,0-58.642,18.02v65.127h826.24v-3.47a50.4,50.4,0,0,0,19.578-93.307,36.372,36.372,0,0,0-61.339-34.841,41.873,41.873,0,0,0-53.542-20.468,32.569,32.569,0,0,0-63.733-.209,33.084,33.084,0,0,0-31.2-4.765A19.006,19.006,0,0,0,1034.384,175.836Z" transform="translate(588.245 235.887)" fill="#44c5ee" fill-rule="evenodd"/><g transform="translate(1278.908 232.426)" opacity="0.69"><path d="M788.284,101.709,758.046,117.7,527.3,419.886l51.054,32.96,51.054,32.96,180.4-334.686,2.125-34.14-12.363-6.808Z" transform="translate(-527.305 -101.709)" fill="#fff" fill-rule="evenodd"/></g><g transform="translate(1313.297 228.236)" opacity="0.69"><path d="M779.92,100.023l-22.282,21.126-216.5,311.385L563.3,446.84l22.158,14.3,194.65-325.49,10.081-29-5.667-2.488Z" transform="translate(-541.141 -100.023)" fill="#fff" fill-rule="evenodd"/></g><path d="M660.9,102.112c-.969.278-12.547-.519-12.547-.519s-2.227.475-8.364,5.779a116.743,116.743,0,0,0-10.533,10.715c.361-.559,6.89-2.446,6.89-2.446A111.049,111.049,0,0,0,624.652,129.9a99.115,99.115,0,0,0-7.618,13.725c.487-.93,6.977-5.553,6.977-5.553a86.253,86.253,0,0,0-6.984,19.22c-2.118,9.932-2.562,15.522-2,14.3s7.737-7.434,7.737-7.434-5.828,11.831-7.645,24.445c-.671,4.663-1.133,8.287-1.452,11,2.344-1.407,5.456-3.321,9.427-5.851,10.747-6.847,19.131-17.03,19.131-17.03s-2.709,9.1-3.589,10.111,4.031-1.693,12.211-7.712a86.309,86.309,0,0,0,14.642-14.279s-1.543,7.817-2.19,8.642a99.242,99.242,0,0,0,9.373-12.594,110.971,110.971,0,0,0,8.182-16.526s.969,6.728.609,7.285a116.26,116.26,0,0,0,5.428-14.011c2.307-7.775,1.824-10,1.824-10s-5.493-10.223-5.64-11.219l-10.884-7.471Z" transform="translate(879.89 130.545)" fill="#f8b05b" fill-rule="evenodd"/><path d="M641.961,106.022l5.545-1.534-11.336,11.565a103.729,103.729,0,0,0-7.041,7.958l3.93-2.831-8.471,16.267A76.37,76.37,0,0,0,618,155.565c-.127.6-.253,1.2-.375,1.8l15.3-13.205-9.542,19.295a84.074,84.074,0,0,0-7.238,23.135c-.089.619-.176,1.24-.266,1.859q.794-.5,1.586-1.007a84.052,84.052,0,0,0,18.1-16.121l13.658-16.64-5.737,19.379c.5-.358.992-.721,1.484-1.084a76.469,76.469,0,0,0,13.8-13.461L670.108,145.1l-.962,4.747a104.427,104.427,0,0,0,4.355-9.693l5.873-15.092.887,5.684a26.285,26.285,0,0,0,.847-4.558q-1.268-2.367-2.5-4.755c-.562-1.086-1.665-3.094-2.409-4.817l-9.666-6.634L656.511,103.9c-1.877.032-4.161-.147-5.381-.214q-2.681-.142-5.364-.321A27.465,27.465,0,0,0,641.961,106.022Z" transform="translate(883.175 133.182)" fill="#f7ce78" fill-rule="evenodd"/><path d="M619.183,172.42a74.177,74.177,0,0,0,7.429-7.73l30.072-36.636-7.64,25.812h0l14.463-18.393,5.7-14.642-.157-.3c-.644-1.243-1.3-2.468-1.911-3.723l-8.351-5.731-8.662-5.252c-1.394-.037-2.781-.137-4.18-.211l-.338-.017-10.623,10.839c-.172.239-.447.616-.621.855L623.8,137.569l20.378-17.59L623.17,162.466A74.195,74.195,0,0,0,619.183,172.42Z" transform="translate(888.085 136.491)" fill="#f6f0eb" fill-rule="evenodd"/><g transform="translate(1520.048 215.522)"><path d="M645.015,94.908l38.383,24.78-8.6,26.587-50.472-32.585Z" transform="translate(-624.324 -94.908)" fill="#2760a6" fill-rule="evenodd"/><path d="M640,96.739l1.6,1.034-6.9,6.512q-3.922,3.7-8.423,7.949c-.656-.423-1.312-.848-1.958-1.265l8.62-7.827Q636.7,99.741,640,96.739Z" transform="translate(-624.325 -92.188)" fill="#22599d" fill-rule="evenodd"/><path d="M641.072,97.769c.532.343,1.069.691,1.608,1.036q-3.05,3.176-6.5,6.768-3.7,3.848-7.939,8.262c-.656-.423-1.312-.848-1.963-1.268l8.135-8.135Q637.953,100.891,641.072,97.769Z" transform="translate(-621.427 -90.658)" fill="#22599d" fill-rule="evenodd"/><path d="M642.146,98.8c.532.343,1.069.691,1.608,1.036q-2.863,3.3-6.107,7.024-3.471,3.993-7.456,8.575c-.656-.423-1.312-.848-1.964-1.268q4.094-4.519,7.65-8.448Q639.21,102.044,642.146,98.8Z" transform="translate(-618.529 -89.127)" fill="#22599d" fill-rule="evenodd"/><path d="M643.215,99.831l1.608,1.036q-2.677,3.415-5.709,7.28-3.247,4.138-6.972,8.888c-.656-.423-1.312-.848-1.964-1.268q3.836-4.686,7.168-8.761Q640.464,103.193,643.215,99.831Z" transform="translate(-615.629 -87.595)" fill="#22599d" fill-rule="evenodd"/><path d="M644.286,100.862l1.608,1.039q-2.49,3.534-5.314,7.536l-6.487,9.2c-.656-.423-1.312-.848-1.964-1.268l6.683-9.072Q641.725,104.344,644.286,100.862Z" transform="translate(-612.731 -86.064)" fill="#22599d" fill-rule="evenodd"/><path d="M645.359,101.894c.532.343,1.069.691,1.606,1.036q-2.3,3.654-4.916,7.792-2.8,4.429-6,9.512c-.656-.423-1.312-.848-1.963-1.268q3.318-5.022,6.2-9.385Q642.98,105.5,645.359,101.894Z" transform="translate(-609.831 -84.531)" fill="#22599d" fill-rule="evenodd"/><path d="M646.43,102.925c.532.343,1.069.691,1.608,1.036q-2.121,3.773-4.521,8.048-2.573,4.574-5.52,9.825c-.656-.423-1.312-.848-1.963-1.268l5.714-9.7Z" transform="translate(-606.933 -82.999)" fill="#22599d" fill-rule="evenodd"/><path d="M647.5,103.956l1.608,1.036-4.123,8.3-5.036,10.136c-.656-.423-1.312-.848-1.963-1.268,1.866-3.574,3.606-6.9,5.232-10.011Z" transform="translate(-604.034 -81.467)" fill="#22599d" fill-rule="evenodd"/><path d="M648.571,104.987c.532.343,1.069.691,1.608,1.036-1.166,2.679-2.406,5.525-3.728,8.56q-2.121,4.865-4.551,10.449c-.656-.423-1.312-.848-1.963-1.268q2.543-5.525,4.747-10.322C646.063,110.445,647.355,107.634,648.571,104.987Z" transform="translate(-601.135 -79.936)" fill="#22599d" fill-rule="evenodd"/><path d="M649.644,106.018c.532.343,1.069.691,1.606,1.036q-1.566,4.138-3.333,8.816c-1.263,3.34-2.615,6.92-4.066,10.762l-1.963-1.268q2.282-5.693,4.263-10.635Q648.01,110.1,649.644,106.018Z" transform="translate(-598.237 -78.404)" fill="#22599d" fill-rule="evenodd"/><path d="M650.714,107.05c.537.345,1.074.693,1.616,1.044q-1.379,4.258-2.935,9.072c-1.114,3.437-2.3,7.121-3.581,11.075-.661-.427-1.317-.85-1.973-1.275,1.35-3.907,2.6-7.548,3.778-10.948Q649.265,111.249,650.714,107.05Z" transform="translate(-595.338 -76.871)" fill="#22599d" fill-rule="evenodd"/></g><g transform="translate(1465.147 171.907)"><path d="M686.508,77.36c-1.191.122-49.757,1.019-53.979,2.965s-30.293,35.157-30.293,35.157l29.057-9.711,36.783,14.3Z" transform="translate(-602.236 -77.36)" fill="#e37725" fill-rule="evenodd"/><path d="M672.1,89.294c-13.6-2.786-33.012-6.669-33.012-6.669l-36.847,25.036,29.058-9.711,36.783,14.3A194.5,194.5,0,0,1,672.1,89.294Z" transform="translate(-602.235 -69.539)" fill="#da7027" fill-rule="evenodd"/><path d="M639.083,82.625l-36.847,25.036L631.3,97.95Z" transform="translate(-602.236 -69.539)" fill="#ce6828" fill-rule="evenodd"/></g><g transform="translate(1583.957 214.436)"><path d="M681.38,94.471c.38,1.133,19.556,45.765,19.521,50.413s-19.571,42.081-19.571,42.081l-3.114-30.479-28.178-27.633Z" transform="translate(-650.038 -94.471)" fill="#e37725" fill-rule="evenodd"/><path d="M669.31,103.028c8.137,11.244,19.668,27.34,19.668,27.34l-7.648,43.886-3.114-30.479-28.178-27.633A194.984,194.984,0,0,0,669.31,103.028Z" transform="translate(-650.038 -81.76)" fill="#da7027" fill-rule="evenodd"/><path d="M672.137,114.028l-7.648,43.886-3.114-30.479Z" transform="translate(-633.197 -65.42)" fill="#ce6828" fill-rule="evenodd"/></g><path d="M804.8,8.195c8.9,89.892-44.2,201.9-123.105,248.818l-52.97-34.2C639,131.6,719.216,37.091,804.8,8.195Z" transform="translate(902.262 -8.195)" fill="#e5eef9" fill-rule="evenodd"/><path d="M746.892,8.195c-27.683,9.345-54.8,25.558-79.18,46.3l69.581,44.92C746.161,68.664,749.77,37.273,746.892,8.195Z" transform="translate(960.173 -8.195)" fill="#e37725" fill-rule="evenodd"/><path d="M740.359,71.744l-69.581-44.92q-2.587,2.2-5.133,4.471L738.4,78.261Q739.42,75.01,740.359,71.744Z" transform="translate(957.104 19.478)" fill="#4a85c5" fill-rule="evenodd"/><circle cx="30.927" cy="30.927" r="30.927" transform="translate(1585.499 140.472) rotate(-65.675)" fill="#e47d7d"/><circle cx="26.535" cy="26.535" r="26.535" transform="translate(1591.28 138.233) rotate(-65.606)" fill="#3bb6e9"/><path d="M701.216,69.556A29.037,29.037,0,0,1,661.071,78.2c-.7-.452-1.374-.93-2.021-1.429a26.541,26.541,0,0,0,46.53-18.9A28.916,28.916,0,0,1,701.216,69.556Z" transform="translate(947.306 65.599)" fill="#30a5de" fill-rule="evenodd"/><path d="M674.424,48.589l.226.37.229.373-.149.41-.149.41-.413.137-.413.139-.368-.236-.365-.236-.042-.432-.045-.435.311-.3.313-.306.433.055Z" transform="translate(967.932 51.647)" fill="#32597e" fill-rule="evenodd"/><path d="M665.035,46.9l.425.1.422.1.187.4.184.393-.194.39-.194.39-.427.092-.425.092-.338-.276-.338-.276.008-.435,0-.435.343-.268Z" transform="translate(955.158 49.294)" fill="#32597e" fill-rule="evenodd"/><path d="M657.227,52.322l.37-.226.373-.229.41.149.408.149.139.413.139.415-.236.365-.236.365-.435.045-.432.042-.3-.311-.306-.313.055-.432Z" transform="translate(944.436 56.678)" fill="#32597e" fill-rule="evenodd"/><path d="M655.534,61.693l.1-.425.1-.423.4-.184.4-.184.39.194.39.191.092.428.092.425-.276.338-.276.338-.435,0-.437,0-.266-.345Z" transform="translate(942.083 69.47)" fill="#32597e" fill-rule="evenodd"/><path d="M660.96,69.524l-.226-.373-.229-.373.149-.408.149-.41.413-.139.412-.139.368.236.365.236.042.435.045.432-.313.306-.311.3-.432-.055Z" transform="translate(949.467 80.171)" fill="#32597e" fill-rule="evenodd"/><path d="M670.333,71.221l-.425-.1-.423-.1-.186-.4-.184-.4.194-.39.194-.39.428-.092.425-.092.338.276.338.276-.008.437,0,.435-.343.268Z" transform="translate(962.257 82.518)" fill="#32597e" fill-rule="evenodd"/><path d="M678.159,65.786l-.37.229-.373.226-.41-.149-.41-.149-.137-.413-.139-.413.236-.365.236-.368.432-.042.435-.045.3.313.306.311-.055.432Z" transform="translate(972.96 75.143)" fill="#32597e" fill-rule="evenodd"/><path d="M679.859,56.4l-.1.423-.1.425-.4.184-.4.184-.39-.194-.39-.194-.092-.425-.092-.428.276-.338.276-.336.435,0,.438,0,.266.343Z" transform="translate(975.307 62.371)" fill="#32597e" fill-rule="evenodd"/><rect width="10.131" height="63.049" transform="translate(1525.532 223.203) rotate(-57.152)" fill="#4a85c5"/><g transform="translate(1530.313 219.942)"><path d="M631.042,96.875l.4.646.4.646-.259.713-.258.711-.718.241-.718.241-.636-.41-.636-.41-.077-.756-.074-.753.542-.529.542-.529.753.094Z" transform="translate(-628.455 -96.686)" fill="#32597e" fill-rule="evenodd"/><path d="M635.6,99.813l.4.646.4.646-.261.713-.258.711-.718.241-.718.244-.636-.413-.636-.41-.075-.756-.077-.753.542-.529.544-.529.751.094Z" transform="translate(-621.695 -92.322)" fill="#32597e" fill-rule="evenodd"/><path d="M640.145,102.749l.4.649.4.646-.259.711-.258.713-.718.241-.718.241-.636-.41-.636-.413-.077-.753-.075-.753.542-.529.542-.529.753.094Z" transform="translate(-614.933 -87.956)" fill="#32597e" fill-rule="evenodd"/><path d="M644.7,105.69l.4.646.4.646-.259.713-.261.711-.718.241-.718.241-.636-.41-.636-.41-.075-.756-.077-.753.544-.529.542-.529.751.094Z" transform="translate(-608.173 -83.592)" fill="#32597e" fill-rule="evenodd"/><path d="M649.249,108.628l.4.646.4.646-.258.713-.259.711-.718.241-.718.244-.636-.413-.636-.41-.077-.756-.075-.753.542-.529.542-.529.753.094Z" transform="translate(-601.411 -79.227)" fill="#32597e" fill-rule="evenodd"/></g><g transform="translate(1540.198 197.376)"><path d="M671.879,87.607,665.8,106.136l-33.37,42.574Z" transform="translate(-632.432 -87.607)" fill="#ad5b2a" fill-rule="evenodd"/><path d="M671.879,87.607,657.5,100.775,632.432,148.71Z" transform="translate(-632.432 -87.607)" fill="#da7027" fill-rule="evenodd"/></g><path d="M628.055,196.658a19.032,19.032,0,0,1,18.74,22.26,33.084,33.084,0,0,1,31.588,1.635,35.9,35.9,0,0,1,68.405,7.407,23.3,23.3,0,0,1,34.339,20.513,23.428,23.428,0,0,1-.529,4.958c.567.313,1.121.641,1.665.989a33.992,33.992,0,0,1,42.283-5.08A30.191,30.191,0,0,1,881.9,261.968a37.617,37.617,0,0,1,32.125,3.524,43.509,43.509,0,0,1,78.238,2.635,28.219,28.219,0,0,1,13.081,6.773,37.687,37.687,0,0,1,54.812,7.794,44.214,44.214,0,0,1,72.67-3.591,34.94,34.94,0,0,1,53.634,9.107,32.091,32.091,0,0,1,58.642,18.02v65.127H418.861v-3.47a50.4,50.4,0,0,1-19.578-93.307,36.372,36.372,0,0,1,61.339-34.841,41.872,41.872,0,0,1,53.542-20.468,32.569,32.569,0,0,1,63.732-.209,33.083,33.083,0,0,1,31.2-4.765A19.012,19.012,0,0,1,628.055,196.658Z" transform="translate(524.882 266.813)" fill="#fbfcfc" fill-rule="evenodd"/><path d="M734.415,10.305c-7.767.684-50.52,29.806-62.962,39.763l15.807,10.205C700.918,43.988,717.027,25.809,734.415,10.305Z" transform="translate(965.73 -5.061)" fill="#eb926b" fill-rule="evenodd"/><path d="M714.066,31.254s-24.971,24.648-40.911,48.9c-7.971,12.129-45.076,79-40.667,92.377l16.374,9.721,40.9-63.35c-17.828-18.315,4.186-59.771,37.282-55.774l11.182-17.98C730.353,40.07,722.243,35.827,714.066,31.254Z" transform="translate(907.31 26.058)" fill="#fdfeff" fill-rule="evenodd"/><path d="M664.726,89.359c-8.152-6.236-9.534-19-2.925-29.237s18.81-14.229,27.85-9.368Z" transform="translate(945.167 51.967)" fill="#4bc4f2" fill-rule="evenodd"/><path d="M668,78.407l-3.057,8.572-37.71-2.329L607.389,99.939,625.8,79.861Z" transform="translate(870.565 96.103)" fill="#e58043" fill-rule="evenodd"/><g transform="translate(552.003 245.086)"><path d="M395.645,200.662a11.434,11.434,0,0,0-5.2,1.248,9.714,9.714,0,0,0-17.662-4.215A8.172,8.172,0,0,0,360,191.749c-3.06-4.474-8.12-6.045-13.615-5.259a15.578,15.578,0,0,0-14.413-13.876,14.016,14.016,0,0,0-24.221-11A13.131,13.131,0,0,0,283.272,168a12.6,12.6,0,0,0-14.13,19.583,11.978,11.978,0,0,0-4.332,12.763,8.413,8.413,0,0,0-6.229,8.12H406.516A11.475,11.475,0,0,0,395.645,200.662Z" transform="translate(-258.581 -155.083)" fill="#e2e2e2"/></g><g transform="translate(123.35 147.345)"><path d="M342.494,142.962c0-4.422-11.687-13.317-22.859-8.652-2.96-3.475-8.142-5.779-14.045-5.779-.333,0-.664.01-.992.025a17.88,17.88,0,0,0-.736-1.775,17.429,17.429,0,0,0-24.939-7.322,13.323,13.323,0,0,0-10.372-4.951,13.767,13.767,0,0,0-1.705.119c-.326.042-.651.084-.969.149a13.659,13.659,0,0,0-13.556-11.982,13.5,13.5,0,0,0-2.408.226c-.266.047-.529.1-.79.167a18.6,18.6,0,0,0-33.678-6.509,17.441,17.441,0,0,0-23.617,14.674c-.41-.025-.823-.04-1.238-.04a20.349,20.349,0,0,0-19.966,16.431,18.192,18.192,0,0,0-4.449,2.113,21.214,21.214,0,0,0-7.471-1.327c-7.775,0-14.3,3.994-16.146,9.4-8.3.636-14.987,2.55-17.816,5.036H342.494Z" transform="translate(-124.742 -88.399)" fill="#e2e2e2"/></g></g></g></svg>