<svg xmlns="http://www.w3.org/2000/svg" width="19.809" height="19.782" viewBox="0 0 19.809 19.782"><g transform="translate(0)"><path d="M19.809,2.2V12.873a1.719,1.719,0,0,1-1.719,1.718H1.719A1.719,1.719,0,0,1,0,12.873V2.2A1.7,1.7,0,0,1,1.7.5H18.109a1.7,1.7,0,0,1,1.7,1.7Zm0,0" transform="translate(0 -0.5)" fill="#c4e2f2"/><path d="M160.71,337.061l-4,.91-4-.91.547-2.293,3.279-1.206,3.618,1.206.177.742Zm0,0" transform="translate(-146.81 -320.676)" fill="#2d303b"/><path d="M19.809,315.066v.2a1.719,1.719,0,0,1-1.719,1.719H1.719A1.719,1.719,0,0,1,0,315.268v-.2Zm0,0" transform="translate(0 -302.896)" fill="#3c3f4d"/><path d="M207.42,385.457h-6.111l.37-1.551h5.371Zm0,0" transform="translate(-193.521 -369.072)" fill="#3c3f4d"/><path d="M104.567,425.264v.545h-12.7v-.545a1.277,1.277,0,0,1,1.277-1.277h10.147a1.277,1.277,0,0,1,1.277,1.277Zm0,0" transform="translate(-88.313 -407.603)" fill="#2d303b"/><path d="M234.376,259.613h-8.97l.439-4.23h8.091Zm0,0" transform="translate(-216.685 -245.522)" fill="#83b2c6"/><path d="M70.623,109.6l-.106.808L70.178,113a.934.934,0,0,1-.927.813H65.2a.934.934,0,0,1-.927-.813l-.445-3.391,3.4-.91Zm0,0" transform="translate(-61.362 -104.509)" fill="#1f81a3"/><path d="M107.851,153.1l-.339,2.583a.934.934,0,0,1-.927.813H103.83a.934.934,0,0,1-.927-.813l-.23-1.751a.737.737,0,0,1,.73-.832Zm0,0" transform="translate(-98.695 -147.198)" fill="#2c92bf"/><path d="M59.538,98.142v.495a.42.42,0,0,1-.42.42H52.236a.42.42,0,0,1-.42-.42v-.495a.42.42,0,0,1,.42-.42h6.882A.42.42,0,0,1,59.538,98.142Zm0,0" transform="translate(-49.812 -93.961)" fill="#1f81a3"/><path d="M99.718,98.142v.495a.42.42,0,0,1-.42.42H94.033a.42.42,0,0,1-.42-.42v-.495a.42.42,0,0,1,.42-.42H99.3A.42.42,0,0,1,99.718,98.142Zm0,0" transform="translate(-89.992 -93.961)" fill="#2c92bf"/><path d="M134.527,48.613a.687.687,0,0,0-.687.687v3.275a.687.687,0,1,0,1.375,0V49.3A.687.687,0,0,0,134.527,48.613Zm0,0" transform="translate(-128.661 -46.752)" fill="#3c3f4d"/><path d="M233.33,316.988h-8.97l.2-1.921h8.572Zm0,0" transform="translate(-215.68 -302.896)" fill="#2d303b"/><path d="M232.825,255.379h-8.091L223.7,265.3h10.153Zm0,0" transform="translate(-215.048 -245.518)" fill="#ff491f"/><path d="M179.247,338.293h-5.624l-.717,6.713h7.057Zm0,0" transform="translate(-166.217 -325.224)" fill="#ffe14d"/><path d="M295.325,169.275a.3.3,0,0,1-.3-.3v-2a1.88,1.88,0,1,0-3.759,0v2a.3.3,0,0,1-.606,0v-2a2.486,2.486,0,0,1,4.972,0v2A.3.3,0,0,1,295.325,169.275Zm0,0" transform="translate(-279.411 -158.14)" fill="#fff"/><path d="M224.185,365.311a1.609,1.609,0,0,1-1.607-1.607v-1.3a.3.3,0,0,1,.606,0v1.3a1,1,0,0,0,2,0v-1.3a.3.3,0,1,1,.606,0v1.3A1.609,1.609,0,0,1,224.185,365.311Zm0,0" transform="translate(-213.966 -348.108)" fill="#3c3f4d"/><path d="M290.4,72.88h-1.294a.3.3,0,0,1,0-.606H290.4a.3.3,0,0,1,0,.606Zm0,0" transform="translate(-277.631 -69.497)" fill="#ff491f"/><path d="M361.23,72.88h-4.2a.3.3,0,0,1,0-.606h4.2a.3.3,0,1,1,0,.606Zm0,0" transform="translate(-342.922 -69.497)" fill="#3c3f4d"/><path d="M290.4,109.451h-1.294a.3.3,0,0,1,0-.606H290.4a.3.3,0,0,1,0,.606Zm0,0" transform="translate(-277.631 -104.652)" fill="#ff491f"/><path d="M361.23,109.451h-4.2a.3.3,0,0,1,0-.606h4.2a.3.3,0,1,1,0,.606Zm0,0" transform="translate(-342.922 -104.652)" fill="#3c3f4d"/></g></svg>