<svg xmlns="http://www.w3.org/2000/svg" width="19.93" height="19.93" viewBox="0 0 19.93 19.93"><path d="M409.406,0,407,4.812l3.609-1.2V.3a.3.3,0,0,0-.3-.3Z" transform="translate(-390.679)" fill="#3a6fd8"/><path d="M12.571,0,0,2.406v1.2l1.2,1.2H18.727V0Z" transform="translate(0)" fill="#3b88f5"/><path d="M12.571,0,10.165,2.406H0V.3A.3.3,0,0,1,.3,0Z" transform="translate(0)" fill="#3857bc"/><path d="M351.812,90,347,98.161l4.812,8.161h.9a.3.3,0,0,0,.3-.3V90Z" transform="translate(-333.085 -86.391)" fill="#93b7c0"/><path d="M0,90v16.02a.3.3,0,0,0,.3.3H18.727v-1.2l-4.812-6.958L18.727,91.2V90Z" transform="translate(0 -86.391)" fill="#acd5df"/><path d="M321.812,120,317,126.958l4.812,6.958h1.2V120Z" transform="translate(-304.288 -115.188)" fill="#c4f3ff"/><path d="M30,120H46.321v13.915H30Z" transform="translate(-28.797 -115.188)" fill="#fff"/><circle cx="0.5" cy="0.5" r="0.5" transform="translate(17.648 1.5)" fill="#94e368"/><ellipse cx="1" cy="0.5" rx="1" ry="0.5" transform="translate(14.648 1.5)" fill="#ffd06a"/><circle cx="0.5" cy="0.5" r="0.5" transform="translate(12.648 1.5)" fill="#ff3e3a"/></svg>