<svg xmlns="http://www.w3.org/2000/svg" width="19.93" height="19.93" viewBox="0 0 19.93 19.93"><path d="M179.03,0,167,17.524h12.933a.3.3,0,0,0,.3-.3V.3a.3.3,0,0,0-.3-.3Z" transform="translate(-160.303)" fill="#667e97"/><path d="M60,.3V17.524H70.306L76.321,1.5V0H60.3A.3.3,0,0,0,60,.3Z" transform="translate(-57.594)" fill="#728e95"/><path d="M149.03,30,137,47.524h12.933a.3.3,0,0,0,.3-.3V30.3a.3.3,0,0,0-.3-.3Z" transform="translate(-131.506 -28.797)" fill="#83a3ab"/><path d="M30,30.3V47.524H40.306L46.321,31.5V30H30.3A.3.3,0,0,0,30,30.3Z" transform="translate(-28.797 -28.797)" fill="#93b7c0"/><path d="M349.406,60,347,64.812l3.609-1.2V60.3a.3.3,0,0,0-.3-.3Z" transform="translate(-333.085 -57.594)" fill="#3a6fd8"/><path d="M10.165,60,0,62.406v1.2l1.2,1.2H16.321V60Z" transform="translate(0 -57.594)" fill="#3b88f5"/><path d="M10.165,60,7.759,62.406H0V60.3A.3.3,0,0,1,.3,60Z" transform="translate(0 -57.594)" fill="#3857bc"/><path d="M291.812,150,287,156.958l4.812,6.958h.9a.3.3,0,0,0,.3-.3V150Z" transform="translate(-275.491 -143.985)" fill="#93b7c0"/><path d="M0,150v13.614a.3.3,0,0,0,.3.3h16.02v-1.2l-4.812-5.754,4.812-5.754V150Z" transform="translate(0 -143.985)" fill="#acd5df"/><path d="M261.812,180,257,185.754l4.812,5.754h1.2V180Z" transform="translate(-246.694 -172.782)" fill="#c4f3ff"/><path d="M30,180H43.915v11.509H30Z" transform="translate(-28.797 -172.782)" fill="#fff"/><circle cx="0.5" cy="0.5" r="0.5" transform="translate(15.305 3.5)" fill="#94e368"/><circle cx="0.5" cy="0.5" r="0.5" transform="translate(12.305 3.5)" fill="#ffd06a"/><circle cx="0.5" cy="0.5" r="0.5" transform="translate(10.305 3.5)" fill="#ff3e3a"/></svg>