<svg xmlns="http://www.w3.org/2000/svg" width="94.601" height="141.491" viewBox="0 0 94.601 141.491"><g transform="translate(0 0)"><g transform="translate(0 0)"><path d="M87.827,38.679,22.219.82a6.194,6.194,0,0,0-6.567.261l0,0L1.244,9.4l6.7,9.082,2.5,2.859v65a10.84,10.84,0,0,0,5.415,9.384l49.1,28.389.5,2.731,10.02,14.04,15.41-9.059c.027-.016.053-.029.078-.045l.1-.06v-.008a4.927,4.927,0,0,0,2.349-4.222l0-79.126A11.174,11.174,0,0,0,87.827,38.679Z" transform="translate(1.177 0)" fill="#f79a70"/><path d="M73.668,43.446,7.286,5.144A4.859,4.859,0,0,0,0,9.354V88.813A10.835,10.835,0,0,0,5.415,98.2l66.373,38.373a4.982,4.982,0,0,0,7.474-4.311l0-79.128A11.182,11.182,0,0,0,73.668,43.446Z" transform="translate(0 4.247)" fill="#f47835"/><g transform="translate(76.649 44.697)"><path d="M39.481,72.349l-.1.056-.008-.012C39.411,72.374,39.448,72.368,39.481,72.349Z" transform="translate(-39.378 23.78)" fill="#bbcee0"/><path d="M41.924,114.771l0-79.128a11.012,11.012,0,0,0-.759-3.811l15.4-8.868a11.039,11.039,0,0,1,.7,3.667l0,79.124a4.921,4.921,0,0,1-2.349,4.22v.01l-.1.058c-.025.016-.053.031-.078.045l-15.28,8.983A4.931,4.931,0,0,0,41.924,114.771Z" transform="translate(-39.31 -22.963)" fill="#d66634"/></g></g><g transform="translate(13.154 35.408)"><g transform="translate(34.963 37.048)"><g transform="translate(0)"><path d="M26.222,38.032c-.345-.656-.9-.977-1.244-.718s-.345,1,0,1.658l.041.078a1.7,1.7,0,0,0,.6.664.538.538,0,0,0,.642,0C26.6,39.433,26.579,38.68,26.222,38.032Z" transform="translate(-24.72 -37.224)" fill="#fff"/></g></g><g transform="translate(23.573 26.491)"><path d="M29.974,40.207c-.5-.747-1.02-1.452-1.538-2.1-2.92-3.644-6.015-5.824-8.948-6.3-.463-.076-.724.432-.58,1.133a1.763,1.763,0,0,0,1.1,1.407c2.49.407,5.131,2.273,7.634,5.4.442.551.905,1.183,1.339,1.828a1.6,1.6,0,0,0,.492.489.513.513,0,0,0,.728-.093A1.731,1.731,0,0,0,29.974,40.207Z" transform="translate(-18.869 -31.8)" fill="#fff"/></g><g transform="translate(5.616 8.001)"><path d="M46.71,69a28.71,28.71,0,0,1-.969-3.792c1.03-2.787.654-6.747-1.061-11.157-2.636-6.785-8.037-13.725-12.843-16.5a11.961,11.961,0,0,0-7.253-1.837c-.64-5.047-3.718-10.383-7.408-12.512-4.154-2.4-7.533.156-7.533,5.693a19.083,19.083,0,0,0,3.6,10.649,3.744,3.744,0,0,1,.849,2.233v6.865a4.278,4.278,0,0,0,1.781,3.4l.3.169a40.549,40.549,0,0,0,5.306,16.292,5.363,5.363,0,0,1-.239,2.141,34.42,34.42,0,0,1-1.059,3.291c-.247.685-.459,1.277-.588,1.744a1.809,1.809,0,0,0,.128,1.121,1.86,1.86,0,0,0,.71.89l12.559,7.251c.413.237.979.319,1.335-.648a10.051,10.051,0,0,0,.364-1.565c.105-.574.35-1.917.594-1.956a.315.315,0,0,1,.049.031,1.418,1.418,0,0,0,.136.093c1.316.759,2.39,1.46,3.338,2.077,2.782,1.812,4.459,2.9,5.933.927.749-1.006.664-3.153.574-5.425a28.146,28.146,0,0,1-.01-3.313,3.8,3.8,0,0,1,.779-.325c.829-.28,1.614-.545,1.614-1.635A19.042,19.042,0,0,0,46.71,69ZM14.167,38.073A14.624,14.624,0,0,1,11.4,29.912c0-4.243,2.589-6.2,5.773-4.364s5.773,6.785,5.773,11.029c0,2.7-1.032,4.561-2.762,4.973a1.97,1.97,0,0,0-1.542,1.623l-1.47-.849-1.468-.847A8.423,8.423,0,0,0,14.167,38.073Zm4.333,7.36v1.715l-2.641-1.526V43.907L18.5,45.433ZM15.88,49.7a.065.065,0,0,1-.021-.041V47.971L18.5,49.5v1.686c0,.014-.012.023-.021.018ZM45.09,72.335c-.757.257-1.411.477-1.509,1.327a27.407,27.407,0,0,0-.023,3.932c.066,1.686.142,3.6-.263,4.142-.876,1.176-1.633.755-4.389-1.041-.909-.592-2.038-1.327-3.377-2.1a1.168,1.168,0,0,0-1.964.418,9.207,9.207,0,0,0-.594,2.227,11.434,11.434,0,0,1-.261,1.2L21.7,76.082c.039-.107.078-.218.119-.331,1.267-3.523,2.071-6.18.849-8.294a36.174,36.174,0,0,1-4.714-14.215l.524.3c.983.566,1.781-.037,1.781-1.347V45.336c.053-.724.2-1.1.849-1.254,2.083-.5,3.389-2.606,3.578-5.7A10.15,10.15,0,0,1,31.835,39.9c4.193,2.419,9.084,8.7,11.379,14.61.983,2.532,1.933,6.137.874,8.929-.345.909.167,2.741,1.03,5.656.28.944.685,2.309.792,2.9A4.25,4.25,0,0,1,45.09,72.335Z" transform="translate(-9.643 -22.301)" fill="#fff"/></g><g transform="translate(14.314 15.256)"><path d="M17.263,30.549A9.214,9.214,0,0,0,15.395,26.5c-.432-.545-.962-.627-1.185-.179a1.919,1.919,0,0,0,.38,1.8,4.6,4.6,0,0,1,.975,2.063,3.733,3.733,0,0,1-.243,2.283,1.793,1.793,0,0,0,.269,1.775,1.51,1.51,0,0,0,.473.457.515.515,0,0,0,.744-.113A6.155,6.155,0,0,0,17.263,30.549Z" transform="translate(-14.112 -26.028)" fill="#fff"/></g><g transform="translate(12.271 1.351)"><path d="M13.942,18.99c-.487-.28-.88.018-.88.666V23a2.109,2.109,0,0,0,.88,1.682c.487.28.88-.018.88-.666V20.672A2.106,2.106,0,0,0,13.942,18.99Z" transform="translate(-13.062 -18.885)" fill="#fff"/></g><g transform="translate(0 10.626)"><path d="M10.147,25.2,7.638,23.755c-.487-.28-.88.018-.88.666a2.109,2.109,0,0,0,.88,1.682l2.509,1.448c.487.28.88-.018.88-.666A2.106,2.106,0,0,0,10.147,25.2Z" transform="translate(-6.758 -23.65)" fill="#fff"/></g><g transform="translate(6.138)"><path d="M12.805,22.941l-1.254-3.619c-.243-.7-.781-1.2-1.2-1.123s-.564.714-.321,1.417l1.254,3.619a1.938,1.938,0,0,0,.763,1.028.642.642,0,0,0,.44.1C12.9,24.276,13.049,23.644,12.805,22.941Z" transform="translate(-9.911 -18.191)" fill="#fff"/></g><g transform="translate(1.643 3.395)"><path d="M11.094,23.377,8.922,20.451c-.42-.566-.96-.685-1.2-.265a1.855,1.855,0,0,0,.321,1.789L10.214,24.9a1.48,1.48,0,0,0,.44.411.511.511,0,0,0,.763-.146A1.851,1.851,0,0,0,11.094,23.377Z" transform="translate(-7.602 -19.935)" fill="#fff"/></g><g transform="translate(20.727 15.667)"><path d="M21.219,27.371c-.243-.7-.781-1.2-1.2-1.123l-2.172.418c-.42.082-.564.716-.321,1.417a1.938,1.938,0,0,0,.763,1.028.642.642,0,0,0,.44.1l2.172-.418C21.318,28.707,21.462,28.072,21.219,27.371Z" transform="translate(-17.406 -26.24)" fill="#fff"/></g><g transform="translate(1.645 19.339)"><path d="M11.416,29.257c-.243-.7-.781-1.2-1.2-1.123l-2.172.418c-.42.082-.564.714-.323,1.417A1.93,1.93,0,0,0,8.483,31a.642.642,0,0,0,.44.1l2.172-.418C11.516,30.592,11.66,29.958,11.416,29.257Z" transform="translate(-7.603 -28.126)" fill="#fff"/></g><g transform="translate(6.136 26.48)"><path d="M12.3,32.311c-.42-.566-.96-.685-1.2-.265l-1.073,1.859a1.854,1.854,0,0,0,.321,1.789,1.48,1.48,0,0,0,.44.411.511.511,0,0,0,.763-.146L12.625,34.1A1.85,1.85,0,0,0,12.3,32.311Z" transform="translate(-9.91 -31.795)" fill="#fff"/></g><g transform="translate(17.153 7.086)"><path d="M18.143,22.347c-.42-.566-.96-.685-1.2-.265l-1.254,2.17a1.854,1.854,0,0,0,.321,1.789,1.48,1.48,0,0,0,.44.411.511.511,0,0,0,.763-.146l1.254-2.17A1.86,1.86,0,0,0,18.143,22.347Z" transform="translate(-15.57 -21.831)" fill="#fff"/></g></g></g></svg>