<svg xmlns="http://www.w3.org/2000/svg" width="94.601" height="141.491" viewBox="0 0 94.601 141.491"><g transform="translate(0 0)"><g transform="translate(0 0)"><path d="M87.827,38.679,22.219.82a6.194,6.194,0,0,0-6.567.261l0,0L1.244,9.4l6.7,9.082,2.5,2.859v65a10.84,10.84,0,0,0,5.415,9.384l49.1,28.389.5,2.731,10.02,14.04,15.41-9.059c.027-.016.053-.029.078-.045l.1-.06v-.008a4.927,4.927,0,0,0,2.349-4.222l0-79.126A11.174,11.174,0,0,0,87.827,38.679Z" transform="translate(1.177 0)" fill="#7ac1dd"/><path d="M73.668,43.446,7.286,5.144A4.859,4.859,0,0,0,0,9.354V88.813A10.835,10.835,0,0,0,5.415,98.2l66.373,38.373a4.982,4.982,0,0,0,7.474-4.311l0-79.128A11.182,11.182,0,0,0,73.668,43.446Z" transform="translate(0 4.247)" fill="#5b99b8"/><g transform="translate(76.649 44.697)"><path d="M39.481,72.349l-.1.056-.008-.012C39.411,72.374,39.448,72.368,39.481,72.349Z" transform="translate(-39.378 23.78)" fill="#bbcee0"/><path d="M41.924,114.771l0-79.128a11.012,11.012,0,0,0-.759-3.811l15.4-8.868a11.039,11.039,0,0,1,.7,3.667l0,79.124a4.921,4.921,0,0,1-2.349,4.22v.01l-.1.058c-.025.016-.053.031-.078.045l-15.28,8.983A4.931,4.931,0,0,0,41.924,114.771Z" transform="translate(-39.31 -22.963)" fill="#4c8196"/></g></g><path d="M48.633,33.576c-2.733-1.579-4.956.1-4.956,3.747a11.308,11.308,0,0,0,.6,3.5l-8.119,6.137a12.24,12.24,0,0,0-4.045-4.195,4.347,4.347,0,0,0-4.045-.477l-6.334-12.1A3.785,3.785,0,0,0,22.2,28.23a7.921,7.921,0,0,0-3.3-6.312c-1.822-1.051-3.3.068-3.3,2.5a7.921,7.921,0,0,0,3.3,6.312,2.346,2.346,0,0,0,1.668.339l6.334,12.1a6.88,6.88,0,0,0-1.394,4.59,15.851,15.851,0,0,0,1.394,6.2l-10.46,7.909a9.578,9.578,0,0,0-3.325-3.64c-2.733-1.579-4.956.1-4.956,3.747s2.223,7.891,4.956,9.47,4.956-.1,4.956-3.747a11.308,11.308,0,0,0-.6-3.5l10.6-8.01a13.186,13.186,0,0,0,3.219,3.642V71.019c-2.34-.825-4.13.856-4.13,4.125,0,3.644,2.223,7.891,4.956,9.47s4.956-.1,4.956-3.747a12.341,12.341,0,0,0-4.13-8.893V60.784a3.96,3.96,0,0,0,3.219.076l6.334,12.1a3.774,3.774,0,0,0-.469,1.954,7.921,7.921,0,0,0,3.3,6.312c1.822,1.051,3.3-.068,3.3-2.5a7.921,7.921,0,0,0-3.3-6.312,2.346,2.346,0,0,0-1.668-.339l-6.334-12.1a6.88,6.88,0,0,0,1.394-4.59,15.851,15.851,0,0,0-1.394-6.2l7.983-6.034A9.569,9.569,0,0,0,48.631,46.8c2.733,1.579,4.956-.1,4.956-3.747S51.366,35.155,48.633,33.576ZM17.246,25.368c0-1.215.742-1.775,1.653-1.25a3.963,3.963,0,0,1,1.653,3.157c0,1.215-.742,1.775-1.653,1.25A3.963,3.963,0,0,1,17.246,25.368Zm-4.13,43.87a7.921,7.921,0,0,1-3.3-6.312c0-2.429,1.481-3.55,3.3-2.5a7.924,7.924,0,0,1,3.3,6.312C16.419,69.17,14.938,70.289,13.116,69.238Zm22.3,10.673c0,2.429-1.481,3.55-3.3,2.5a7.924,7.924,0,0,1-3.3-6.312c0-2.429,1.481-3.55,3.3-2.5A7.924,7.924,0,0,1,35.417,79.911Zm-3.3-21.731c-2.733-1.579-4.956-5.826-4.956-9.47s2.223-5.324,4.956-3.747,4.956,5.826,4.956,9.47S34.846,59.759,32.113,58.18Zm14.867,19.6c0,1.215-.742,1.775-1.653,1.25a3.963,3.963,0,0,1-1.653-3.157c0-1.215.742-1.775,1.653-1.25A3.966,3.966,0,0,1,46.981,77.777ZM48.633,44.59a7.921,7.921,0,0,1-3.3-6.312c0-2.429,1.481-3.55,3.3-2.5a7.924,7.924,0,0,1,3.3,6.312C51.936,44.522,50.455,45.643,48.633,44.59Z" transform="translate(7.725 20.37)" fill="#fff"/></g></svg>